<?xml version="1.0" encoding="iso-8859-1"?>
<!-- Generator: Adobe Illustrator 19.2.1, SVG Export Plug-In . SVG Version: 6.00 Build 0)  -->
<svg version="1.1" xmlns="http://www.w3.org/2000/svg" xmlns:xlink="http://www.w3.org/1999/xlink" x="0px" y="0px"
	 viewBox="0 0 600 600" style="enable-background:new 0 0 600 600;" xml:space="preserve">
<g id="alarm">
	<g id="alarm_1_">
		<g>
			<path style="fill:#1C1B1A;" d="M328.231,308.362c-2.84-4.286-6.678-7.774-11.162-10.365l-4.734-119.746h-24.617l-4.834,121.092
				c-8.422,5.83-14.003,15.597-14.003,26.61c0,17.84,14.501,32.341,32.341,32.341c11.96,0,22.275-6.628,27.906-16.345l97.023-4.485
				v-24.517L328.231,308.362z"/>
			<path style="fill:#1C1B1A;" d="M439.506,161.058l5.93-8.521l61.991,43.304c28.504-40.763,16.893-98.518-25.763-128.268
				c-42.557-29.8-100.76-20.73-129.215,20.033l61.991,43.254l-5.83,8.372c-31.942-18.737-68.968-29.65-108.534-29.65
				c-39.616,0-76.642,10.913-108.534,29.65l-5.88-8.372l61.991-43.254c-28.554-40.763-86.708-49.832-129.364-20.082
				c-42.606,29.8-54.217,87.555-25.713,128.318l61.991-43.254l5.93,8.521c-46.444,39.567-76.143,98.418-76.143,164.197
				c0,62.539,26.959,118.8,69.715,158.217l-18.538,28.305c-7.674,11.711-4.884,27.158,6.129,34.484
				c11.063,7.176,26.361,3.588,34.085-8.172l17.092-26.062c31.594,18.189,68.17,28.803,107.239,28.803
				c39.019,0,75.595-10.614,107.239-28.803l17.043,26.062c7.674,11.76,22.973,15.298,34.035,8.172
				c11.013-7.325,13.803-22.773,6.129-34.484l-18.538-28.305c42.706-39.417,69.665-95.628,69.665-158.217
				C515.6,259.526,486,200.674,439.506,161.058z M300.026,485.863c-88.552,0-160.609-72.057-160.609-160.559
				c0-88.601,72.057-160.708,160.609-160.708s160.559,72.057,160.559,160.708C460.585,413.806,388.578,485.863,300.026,485.863z"/>
		</g>
	</g>
</g>
<g id="Layer_1">
</g>
</svg>
