<?xml version="1.0" encoding="iso-8859-1"?>
<!-- Generator: Adobe Illustrator 18.1.1, SVG Export Plug-In . SVG Version: 6.00 Build 0)  -->
<svg version="1.1" xmlns="http://www.w3.org/2000/svg" xmlns:xlink="http://www.w3.org/1999/xlink" x="0px" y="0px"
	 viewBox="0 0 961.539 1000" style="enable-background:new 0 0 961.539 1000;" xml:space="preserve">
<g id="KP_x5F_Alert">
	<path style="fill:#1C1B1A;" d="M960.648,888.182c0,16.871-13.746,30.759-30.549,30.759c-0.519,0-0.729,0-0.935,0H31.419
		c-10.728,0-20.969-5.904-26.262-15.207c-5.641-9.616-5.641-21.243-0.277-30.827L453.491,95.224
		c11.162-18.886,42.301-18.886,53.303,0l445.522,771.783C957.421,872.594,960.648,880.024,960.648,888.182z M403.433,785.603
		c0,42.714,34.385,76.754,76.754,76.754c42.995,0,77.17-34.04,77.17-76.754c0-42.995-34.175-77.17-77.17-77.17
		C437.818,708.433,403.433,742.608,403.433,785.603z M543.088,311.927H417.769v338.219h125.319V311.927z"/>
</g>
<g id="Layer_1">
</g>
</svg>
