<?xml version="1.0" encoding="utf-8"?>
<!-- Generator: Adobe Illustrator 19.2.1, SVG Export Plug-In . SVG Version: 6.00 Build 0)  -->
<svg version="1.1" id="Layer_1" xmlns="http://www.w3.org/2000/svg" xmlns:xlink="http://www.w3.org/1999/xlink" x="0px" y="0px"
	 viewBox="0 0 965 858.9" style="enable-background:new 0 0 965 858.9;" xml:space="preserve">
<style type="text/css">
	.st0{fill:#1C1B1A;}
</style>
<g id="KP_x5F_Alert">
	<path class="st0" d="M962.4,817.1c0,16.9-13.7,30.8-30.5,30.8c-0.5,0-0.7,0-0.9,0H33.1c-10.7,0-21-5.9-26.3-15.2
		c-5.6-9.6-5.6-21.2-0.3-30.8L455.2,24.2c11.2-18.9,42.3-18.9,53.3,0L954,795.9C959.2,801.5,962.4,809,962.4,817.1z M405.2,714.5
		c0,42.7,34.4,76.8,76.8,76.8c43,0,77.2-34,77.2-76.8c0-43-34.2-77.2-77.2-77.2C439.5,637.4,405.2,671.5,405.2,714.5z M544.8,240.9
		H419.5v338.2h125.3V240.9z"/>
</g>
<g id="Layer_1_1_">
</g>
</svg>
