<?xml version="1.0" encoding="iso-8859-1"?>
<!-- Generator: Adobe Illustrator 19.2.1, SVG Export Plug-In . SVG Version: 6.00 Build 0)  -->
<svg version="1.1" xmlns="http://www.w3.org/2000/svg" xmlns:xlink="http://www.w3.org/1999/xlink" x="0px" y="0px"
	 viewBox="0 0 600 600" style="enable-background:new 0 0 600 600;" xml:space="preserve">
<g id="alert">
	<g id="alert_1_">
		<path style="fill:#1C1B1A;" d="M550,502.236c0,8.805-7.137,16.046-15.89,16.046c-0.26,0-0.365,0-0.469,0H65.91
			c-5.574,0-10.94-3.074-13.702-7.919c-2.917-5.001-2.917-11.045-0.156-16.046L285.813,89.103c5.835-9.846,22.037-9.846,27.768,0
			l232.095,402.089C548.333,494.109,550,497.964,550,502.236z M259.713,448.784c0,22.246,17.922,40.011,40.011,40.011
			c22.402,0,40.219-17.713,40.219-40.011c0-22.402-17.817-40.219-40.219-40.219C277.634,408.565,259.713,426.382,259.713,448.784z
			 M332.493,201.998h-65.278v176.194h65.278V201.998z"/>
	</g>
</g>
<g id="Layer_1">
</g>
</svg>
