<?xml version="1.0" encoding="iso-8859-1"?>
<!-- Generator: Adobe Illustrator 19.2.1, SVG Export Plug-In . SVG Version: 6.00 Build 0)  -->
<svg version="1.1" xmlns="http://www.w3.org/2000/svg" xmlns:xlink="http://www.w3.org/1999/xlink" x="0px" y="0px"
	 viewBox="0 0 600 600" style="enable-background:new 0 0 600 600;" xml:space="preserve">
<g id="appointment-waitlist">
	<path style="fill-rule:evenodd;clip-rule:evenodd;" d="M330.542,331.268c-5.66,0-12.289,0.904-15.562,2.776l-0.492-0.444
		l40.163-60.919h-34.503l-42.747,66.222c-9.196,14.447-15.611,27.942-15.611,45.141c0,34.85,24.601,56.012,59.539,56.012
		c34.298,0,59.547-22.09,59.547-56.254C380.877,355.214,360.098,331.268,330.542,331.268z M322.076,413.567
		c-16.8,0-30.524-13.478-30.524-29.983c0-16.529,13.724-30,30.524-30c16.743,0,30.458,13.47,30.458,30
		C352.535,400.089,338.819,413.567,322.076,413.567z M221.702,364.988l-51.746,47.174h77.496v25.125H135.453v-29.523l64.978-61.847
		c7.793-7.433,17.276-16.521,17.276-27.917c0-13.454-11.329-21.63-24.396-21.63c-13.913,0-23.83,8.862-25.742,22.34l-29.745-2.332
		c2.83-30.444,25.258-46.488,55.487-46.488c30.048,0,54.141,15.101,54.141,46.722C247.452,337.329,236.59,351.478,221.702,364.988z
		 M451.447,121.507c-25.828,0-49.338,9.741-66.954,25.688h-3.78V132.99c0-22.582-18.638-40.903-41.541-40.903
		c-22.912,0-41.574,18.321-41.574,40.903v14.205H218.74V132.99c0-22.582-18.646-40.903-41.533-40.903
		c-22.903,0-41.558,18.321-41.558,40.903v14.205H74.331C60.927,147.195,50,157.953,50,171.149v306.598
		c0,13.212,10.927,23.971,24.331,23.971h367.677c13.445,0,24.339-10.759,24.339-23.971V315.071
		c47.585-7.067,84.048-47.459,84.048-96.237C550.394,165.09,506.105,121.507,451.447,121.507z M324.143,132.99
		c0-8.176,6.735-14.834,15.028-14.834c8.302,0,15.053,6.658,15.053,14.834v54.471c0,8.168-6.751,14.834-15.053,14.834
		c-8.294,0-15.028-6.667-15.028-14.834V132.99z M162.195,132.99c0-8.176,6.727-14.834,15.012-14.834s15.036,6.658,15.036,14.834
		v54.471c0,8.168-6.751,14.834-15.036,14.834s-15.012-6.667-15.012-14.834V132.99z M439.858,475.632H76.513V234.328h277.271
		c6.94,42.712,42.099,76.125,86.074,81.173V475.632z M511.19,175.132c0,0-61.393,103.719-63.837,104.849
		c-5.111,3.608-11.87,3.511-16.013-0.565l-38.169-37.554c-4.659-4.584-4.225-12.453,0.976-17.57
		c5.201-5.125,13.199-5.553,17.858-0.968l25.307,24.899l50.253-86.391c3.733-6.416,12.042-8.644,18.572-4.972
		C512.659,160.532,514.923,168.716,511.19,175.132z"/>
</g>
<g id="Layer_1">
</g>
</svg>
