<?xml version="1.0" encoding="iso-8859-1"?>
<!-- Generator: Adobe Illustrator 19.2.1, SVG Export Plug-In . SVG Version: 6.00 Build 0)  -->
<svg version="1.1" xmlns="http://www.w3.org/2000/svg" xmlns:xlink="http://www.w3.org/1999/xlink" x="0px" y="0px"
	 viewBox="0 0 600 600" style="enable-background:new 0 0 600 600;" xml:space="preserve">
<g id="appointment-ticket">
	<path style="fill-rule:evenodd;clip-rule:evenodd;" d="M330.309,334.892c-5.661,0-12.273,0.918-15.55,2.818l-0.492-0.451
		l40.112-61.848h-34.451l-42.701,67.23c-9.176,14.665-15.591,28.364-15.591,45.822c0,35.376,24.57,56.85,59.471,56.85
		c34.246,0,59.463-22.415,59.463-57.096C380.572,359.2,359.82,334.892,330.309,334.892 M321.846,418.434
		c-16.779,0-30.485-13.682-30.485-30.436c0-16.779,13.707-30.461,30.485-30.461c16.73,0,30.42,13.682,30.42,30.461
		C352.266,404.752,338.576,418.434,321.846,418.434 M247.314,320.013c0,21.023-10.847,35.393-25.717,49.108l-51.672,47.887h77.389
		v25.504H135.458v-29.969l64.895-62.781c7.791-7.554,17.254-16.771,17.254-28.339c0-13.666-11.306-21.957-24.357-21.957
		c-13.903,0-23.808,8.996-25.717,22.678l-29.707-2.368c2.835-30.903,25.226-47.199,55.424-47.199
		C223.252,272.576,247.314,287.913,247.314,320.013 M451.051,121.954c-25.75,0-49.124,9.938-66.706,26.078h-3.933v-14.411
		c0-22.932-18.614-41.529-41.488-41.529c-22.882,0-41.521,18.598-41.521,41.529v14.411h-78.757v-14.411
		c0-22.932-18.631-41.529-41.488-41.529c-22.874,0-41.497,18.598-41.497,41.529v14.411H74.419c-13.387,0-24.3,10.921-24.3,24.316
		v311.228c0,13.412,10.913,24.333,24.3,24.333h367.21c13.42,0,24.3-10.921,24.3-24.333V318.327
		c47.51-7.193,83.952-48.067,83.952-97.576C549.88,166.203,505.647,121.954,451.051,121.954z M323.906,133.621
		c0-8.299,6.734-15.058,15.017-15.058c8.291,0,15.026,6.759,15.026,15.058v55.285c0,8.299-6.734,15.066-15.026,15.066
		c-8.283,0-15.017-6.767-15.017-15.066V133.621z M162.164,133.621c0-8.299,6.726-15.058,14.993-15.058
		c8.283,0,15.018,6.759,15.018,15.058v55.285c0,8.299-6.735,15.066-15.018,15.066c-8.266,0-14.993-6.767-14.993-15.066V133.621z
		 M439.474,481.43H76.59V236.481h277.048c6.939,43.34,41.947,77.217,85.836,82.346V481.43z M501.615,232.579h-38.727l0.008,38.727
		c0,6.53-5.293,11.814-11.822,11.814s-11.822-5.284-11.822-11.814v-38.727h-38.719c-6.53,0-11.822-5.292-11.822-11.814
		c0-6.53,5.293-11.822,11.822-11.822h38.719v-38.727c0-6.522,5.292-11.814,11.822-11.814s11.814,5.292,11.814,11.814v38.727h38.727
		c6.53,0,11.814,5.292,11.822,11.822C513.437,227.295,508.145,232.579,501.615,232.579z"/>
</g>
<g id="Layer_1">
</g>
</svg>
