<?xml version="1.0" encoding="iso-8859-1"?>
<!-- Generator: Adobe Illustrator 19.2.1, SVG Export Plug-In . SVG Version: 6.00 Build 0)  -->
<svg version="1.1" xmlns="http://www.w3.org/2000/svg" xmlns:xlink="http://www.w3.org/1999/xlink" x="0px" y="0px"
	 viewBox="0 0 600 600" style="enable-background:new 0 0 600 600;" xml:space="preserve">
<g id="arrow-swap">
	<g>
		<g id="arrow_3_">
			<g>
				<path style="fill:#020202;" d="M50.445,185.777c0.928,2.262,3.132,3.77,5.569,3.77h65.17v355.498
					c0,3.335,2.697,6.033,6.004,6.033h119.637c3.306,0,6.004-2.697,6.004-6.033V189.547h65.17c2.465,0,4.669-1.508,5.569-3.77
					c0.957-2.262,0.377-4.872-1.392-6.613L191.196,52.682c-1.189-1.16-2.697-1.682-4.205-1.682c-1.479,0-2.987,0.522-4.176,1.682
					L51.837,179.164C50.068,180.904,49.517,183.514,50.445,185.777L50.445,185.777z"/>
			</g>
		</g>
		<g id="arrow_4_">
			<g>
				<path style="fill:#020202;" d="M549.555,416.301c-0.928-2.262-3.132-3.77-5.569-3.77h-65.17V57.033
					c0-3.335-2.697-6.033-6.004-6.033H353.176c-3.306,0-6.004,2.697-6.004,6.033v355.498h-65.17c-2.465,0-4.669,1.508-5.569,3.77
					c-0.957,2.262-0.377,4.872,1.392,6.613l130.977,126.482c1.189,1.16,2.697,1.682,4.205,1.682c1.479,0,2.987-0.522,4.176-1.682
					l130.977-126.482C549.932,421.174,550.483,418.563,549.555,416.301L549.555,416.301z"/>
			</g>
		</g>
	</g>
</g>
<g id="Layer_1">
</g>
</svg>
