<?xml version="1.0" encoding="iso-8859-1"?>
<!-- Generator: Adobe Illustrator 16.0.0, SVG Export Plug-In . SVG Version: 6.00 Build 0)  -->
<!DOCTYPE svg PUBLIC "-//W3C//DTD SVG 1.1//EN" "http://www.w3.org/Graphics/SVG/1.1/DTD/svg11.dtd">
<svg version="1.1" xmlns="http://www.w3.org/2000/svg" xmlns:xlink="http://www.w3.org/1999/xlink" x="0px" y="0px"
	 width="961.539px" height="1000px" viewBox="0 0 961.539 1000" style="enable-background:new 0 0 961.539 1000;"
	 xml:space="preserve">
<g id="KP_x5F_Arrow_x5F_icon">
	<g>
		<path style="fill:#020202;" d="M488.58,29.054c-7.81,3.162-12.971,10.75-12.971,19.209v224.774H29.102
			c-11.519,0-20.816,9.297-20.816,20.713v412.483c0,11.398,9.297,20.695,20.816,20.695h446.507v224.74
			c0,8.477,5.162,16.133,12.971,19.208c7.844,3.35,16.832,1.299,22.781-4.818l436.084-451.585c3.965-4.135,5.809-9.296,5.809-14.542
			c0-5.126-1.844-10.288-5.809-14.406L511.361,33.891C505.412,27.756,496.424,25.859,488.58,29.054L488.58,29.054z"/>
	</g>
</g>
<g id="Layer_1">
</g>
</svg>
