<?xml version="1.0" encoding="iso-8859-1"?>
<!-- Generator: Adobe Illustrator 19.2.1, SVG Export Plug-In . SVG Version: 6.00 Build 0)  -->
<svg version="1.1" xmlns="http://www.w3.org/2000/svg" xmlns:xlink="http://www.w3.org/1999/xlink" x="0px" y="0px"
	 viewBox="0 0 600 600" style="enable-background:new 0 0 600 600;" xml:space="preserve">
<g id="arrow">
	<g id="arrow_1_">
		<g>
			<path style="fill:#020202;" d="M304.127,50.861c-4.127,1.693-6.878,5.714-6.878,10.159v118.889H61.005
				c-6.085,0-11.005,4.921-11.005,10.952v218.254c0,6.032,4.921,10.952,11.005,10.952h236.243v118.889
				c0,4.497,2.751,8.518,6.878,10.159c4.127,1.746,8.889,0.688,12.064-2.54l230.741-238.942c2.116-2.169,3.069-4.921,3.069-7.672
				c0-2.698-0.952-5.45-3.069-7.619L316.19,53.401C313.016,50.173,308.254,49.168,304.127,50.861L304.127,50.861z"/>
		</g>
	</g>
</g>
<g id="Layer_1">
</g>
</svg>
