<?xml version="1.0" encoding="iso-8859-1"?>
<!-- Generator: Adobe Illustrator 19.2.1, SVG Export Plug-In . SVG Version: 6.00 Build 0)  -->
<svg version="1.1" xmlns="http://www.w3.org/2000/svg" xmlns:xlink="http://www.w3.org/1999/xlink" x="0px" y="0px"
	 viewBox="0 0 600 600" style="enable-background:new 0 0 600 600;" xml:space="preserve">
<g id="audio">
	<path id="audio_1_" style="fill:#1C1B1A;" d="M549.947,317.271c0-137.805-112.116-249.931-249.912-249.931
		c-137.861,0-249.986,112.125-249.986,249.19c-0.117,3.109-1.754,62.699,28.891,106.464c0.424,3.363,0.496,6.709,1.148,10.109
		c11.285,57.673,55.782,99.557,105.786,99.557c5.589,0,11.222-0.561,16.863-1.628c5.869-1.176,11.059-4.594,14.396-9.585
		c3.328-4.972,4.576-11.067,3.409-16.945l-37.382-190.632c-1.157-5.841-4.583-11.067-9.558-14.376
		c-4.991-3.346-11.069-4.541-16.972-3.419c-26.765,5.263-49.189,22.497-63.621,48.323c-2.126-15.156-1.872-26.567-1.863-27.128
		c0-115.127,93.733-208.823,208.887-208.823c115.118,0,208.804,93.695,208.841,209.528c0,0.307,0.254,11.448-1.863,26.476
		c-14.395-25.88-36.83-43.113-63.649-48.376c-5.896-1.122-11.954,0.072-16.928,3.419c-4.991,3.309-8.409,8.535-9.567,14.376
		l-37.38,190.632c-1.194,5.878,0.072,11.972,3.382,16.945c3.363,4.991,8.535,8.409,14.413,9.585
		c5.624,1.067,11.267,1.628,16.837,1.628c50.039,0,94.501-41.884,105.823-99.557c0.65-3.4,0.741-6.746,1.157-10.109
		C551.72,379.266,550.073,319.785,549.947,317.271z"/>
</g>
<g id="Layer_1">
</g>
</svg>
