<?xml version="1.0" encoding="iso-8859-1"?>
<!-- Generator: Adobe Illustrator 19.2.1, SVG Export Plug-In . SVG Version: 6.00 Build 0)  -->
<svg version="1.1" xmlns="http://www.w3.org/2000/svg" xmlns:xlink="http://www.w3.org/1999/xlink" x="0px" y="0px"
	 viewBox="0 0 600 600" style="enable-background:new 0 0 600 600;" xml:space="preserve">
<g id="award">
	<g id="award_1_">
		<g>
			<path style="fill:#1C1B1A;" d="M526.516,154.347c0,66.851-32.93,111.784-98.059,134.276c1.827-3.601,3.392-7.463,5.114-11.272
				c13.934-34.026,16.7-97.067,16.648-142.522v-0.052v-20.405h76.349v39.975H526.516z M73.484,154.347v-39.975h76.349v20.405v0.052
				c-0.052,45.455,2.714,108.496,16.7,142.522c1.566,3.81,3.288,7.619,5.01,11.272C106.466,266.131,73.484,221.198,73.484,154.347
				 M538.206,90.836h-88.039V78.833c0-5.532-4.488-10.124-10.072-10.124H159.853c-5.532,0-10.072,4.54-10.072,10.124v12.003H61.794
				C55.323,90.836,50,96.107,50,102.578v51.769c0,63.198,26.563,135.998,137.877,163.448c39.662,61.371,95.71,97.589,95.71,147.375
				v2.975h-87.934c-11.116,0-20.144,9.08-20.144,20.092v17.535c0,7.254-5.845,13.151-13.151,13.151v12.368h275.284v-12.368
				c-7.306,0-13.151-5.897-13.151-13.151v-17.535c0-11.011-9.08-20.092-20.092-20.092h-88.039v-2.975
				c0-49.786,56.153-86.004,95.815-147.375C523.489,290.345,550,217.545,550,154.347v-51.769
				C550,96.107,544.729,90.836,538.206,90.836"/>
		</g>
	</g>
</g>
<g id="Layer_1">
</g>
</svg>
