<?xml version="1.0" encoding="iso-8859-1"?>
<!-- Generator: Adobe Illustrator 16.0.0, SVG Export Plug-In . SVG Version: 6.00 Build 0)  -->
<!DOCTYPE svg PUBLIC "-//W3C//DTD SVG 1.1//EN" "http://www.w3.org/Graphics/SVG/1.1/DTD/svg11.dtd">
<svg version="1.1" xmlns="http://www.w3.org/2000/svg" xmlns:xlink="http://www.w3.org/1999/xlink" x="0px" y="0px"
	 width="961.539px" height="1000px" viewBox="0 0 961.539 1000" style="enable-background:new 0 0 961.539 1000;"
	 xml:space="preserve">
<g id="KP_x5F_Award_x5F_icon">
	<g>
		<path style="fill:#1C1B1A;" d="M914.79,220.893c0,128.143-63.065,214.186-187.919,257.293c3.466-6.948,6.55-14.276,9.771-21.588
			c26.685-65.198,31.951-185.979,31.882-273.096v-0.069v-39.105H914.79V220.893z M46.715,220.893v-76.565h146.304v39.105v0.069
			c-0.071,87.116,5.197,207.897,32.018,273.096c2.979,7.312,6.272,14.641,9.598,21.588
			C109.852,435.079,46.715,349.036,46.715,220.893 M937.246,99.228H768.524V76.253c0-10.603-8.595-19.353-19.267-19.353H212.284
			c-10.604,0-19.265,8.75-19.265,19.353v22.975H24.295c-12.441,0-22.56,10.083-22.56,22.506v99.159
			c0,121.126,50.94,260.567,264.191,313.17c75.957,117.61,183.448,187.018,183.448,282.382v5.683H280.827
			c-21.276,0-38.567,17.396-38.567,38.533v33.578c0,13.896-11.193,25.157-25.228,25.157V943.1H744.51v-23.703
			c-13.964,0-25.226-11.262-25.226-25.157v-33.578c0-21.138-17.362-38.533-38.535-38.533H512.098v-5.683
			c0-95.364,107.56-164.771,183.586-282.382c213.287-52.603,264.12-192.044,264.12-313.17v-99.159
			C959.804,109.312,949.686,99.228,937.246,99.228"/>
	</g>
</g>
<g id="Layer_1">
</g>
</svg>
