<svg id="Layer_1" data-name="Layer 1" xmlns="http://www.w3.org/2000/svg" viewBox="0 0 67.94 60.32"><title>KP_BirthdayIcon</title><path d="M9.62,58.28V35.06a4.34,4.34,0,0,1,4.15-4.5H55.48a4.34,4.34,0,0,1,4.15,4.5V58.28M69,63.16V62.58a2,2,0,0,0-2-2H3a2,2,0,0,0-2,2v0.58a2,2,0,0,0,2,2H67A2,2,0,0,0,69,63.16ZM21,24.46V14.23a1.86,1.86,0,0,0-1.86-1.86h0a1.86,1.86,0,0,0-1.86,1.86V24.46a1.86,1.86,0,0,0,1.86,1.86h0A1.86,1.86,0,0,0,21,24.46ZM20.42,7.6A19.61,19.61,0,0,0,19.1,4.88s0.54-.62-1.24,2.71,1.32,3.87,1.32,3.87C21,11.39,21.66,10.31,20.42,7.6Zm16.5,16.86V14.23a1.86,1.86,0,0,0-1.86-1.86h0a1.86,1.86,0,0,0-1.86,1.86V24.46a1.86,1.86,0,0,0,1.86,1.86h0A1.86,1.86,0,0,0,36.92,24.46ZM36.3,7.6A19.61,19.61,0,0,0,35,4.88s0.54-.62-1.24,2.71,1.32,3.87,1.32,3.87C36.92,11.39,37.54,10.31,36.3,7.6ZM53,24.46V14.23a1.86,1.86,0,0,0-1.86-1.86h0a1.86,1.86,0,0,0-1.86,1.86V24.46a1.86,1.86,0,0,0,1.86,1.86h0A1.86,1.86,0,0,0,53,24.46ZM52.34,7.6A19.61,19.61,0,0,0,51,4.88s0.54-.62-1.24,2.71,1.32,3.87,1.32,3.87C53,11.39,53.58,10.31,52.34,7.6Z" transform="translate(-1.03 -4.84)"/></svg>