<?xml version="1.0" encoding="iso-8859-1"?>
<!-- Generator: Adobe Illustrator 19.2.1, SVG Export Plug-In . SVG Version: 6.00 Build 0)  -->
<svg version="1.1" xmlns="http://www.w3.org/2000/svg" xmlns:xlink="http://www.w3.org/1999/xlink" x="0px" y="0px"
	 viewBox="0 0 600 600" style="enable-background:new 0 0 600 600;" xml:space="preserve">
<g id="briefcase">
	<path style="fill:#1C1B1A;" d="M537.49,157.483h-15.438H389.169v-48.259c0-5.969-4.898-10.857-10.855-10.857H221.562
		c-5.958,0-10.857,4.888-10.857,10.857v48.259H77.795H62.348c-5.95,0-10.821,4.835-10.821,10.848v120.346
		c0,14.378,5.895,27.419,15.44,36.783v165.281c0,6.02,4.835,10.892,10.828,10.892h444.257c6.057,0,10.946-4.872,10.946-10.892
		V325.46c9.49-9.365,15.475-22.405,15.475-36.783V168.331C548.473,162.318,543.513,157.483,537.49,157.483z M232.48,120.152h134.888
		v37.332H232.48V120.152z M511.195,479.883H88.715V338.105c4.673,1.402,9.418,2.354,14.595,2.354h148.951v25.937
		c0,6.022,4.833,10.874,10.855,10.874h73.675c5.96,0,10.83-4.852,10.83-10.874v-25.937h148.995c5.122,0,9.904-0.952,14.577-2.354
		V479.883z M274.028,355.503v-51.855h51.846v51.855H274.028z M526.67,288.677c0,16.5-13.534,30.016-30.052,30.016H347.622v-25.981
		c0-6.004-4.87-10.874-10.83-10.874h-73.675c-6.022,0-10.855,4.87-10.855,10.874v25.981H103.311
		c-16.6,0-29.971-13.515-29.971-30.016V179.242H526.67V288.677z"/>
</g>
<g id="Layer_1">
</g>
</svg>
