<svg id="Layer_1" data-name="Layer 1" xmlns="http://www.w3.org/2000/svg" viewBox="0 0 27 21.91"><defs><style>.cls-1{fill:#1c1b1a;}</style></defs><title>KP_Briefcase_icon</title><path class="cls-1" d="M39.9,19.26H31.84V16.63A0.59,0.59,0,0,0,31.25,16H22.74a0.59,0.59,0,0,0-.59.59v2.62H14.09a0.59,0.59,0,0,0-.59.59v6.54a2.79,2.79,0,0,0,.84,2v9a0.59,0.59,0,0,0,.59.59H39.06a0.59,0.59,0,0,0,.59-0.59v-9a2.81,2.81,0,0,0,.84-2V19.85A0.59,0.59,0,0,0,39.9,19.26Zm-16.57-2h7.33v2H23.33v-2ZM38.47,36.77h-23v-7.7a2.72,2.72,0,0,0,.79.13h8.09v1.41a0.59,0.59,0,0,0,.59.59h4a0.59,0.59,0,0,0,.59-0.59V29.2h8.1a2.73,2.73,0,0,0,.79-0.13v7.7ZM25.59,30V27.2h2.82V30H25.59Zm13.73-3.63A1.64,1.64,0,0,1,37.68,28h-8.1V26.6A0.59,0.59,0,0,0,29,26H25a0.59,0.59,0,0,0-.59.59V28H16.31a1.63,1.63,0,0,1-1.63-1.63V20.44H39.32v5.95Z" transform="translate(-13.5 -16.04)"/></svg>