<?xml version="1.0" encoding="iso-8859-1"?>
<!-- Generator: Adobe Illustrator 19.2.1, SVG Export Plug-In . SVG Version: 6.00 Build 0)  -->
<svg version="1.1" xmlns="http://www.w3.org/2000/svg" xmlns:xlink="http://www.w3.org/1999/xlink" x="0px" y="0px"
	 viewBox="0 0 600 600" style="enable-background:new 0 0 600 600;" xml:space="preserve">
<g id="businessman">
	<g>
		<path style="fill:#1C1B1A;" d="M299.981,147.984c27.059,0,48.97-21.965,48.97-48.998c0-27.04-21.911-48.987-48.97-48.987
			c-27.04,0-48.968,21.946-48.968,48.987C251.013,126.02,272.941,147.984,299.981,147.984z"/>
		<path style="fill:#1C1B1A;" d="M359.049,154.649l-45.483-0.253c-0.614,4.526-3.252,8.309-7.099,10.379l12.933,107.864
			l-19.381,21.188l-20.032-21.188l12.951-108.099c-0.218-0.154-0.379-0.335-0.633-0.488c-0.47-0.326-0.94-0.623-1.337-1.021
			c-0.649-0.568-1.247-1.165-1.789-1.861c-0.072-0.117-0.144-0.235-0.235-0.324c-1.408-1.889-2.329-4.119-2.529-6.585l-38.547-0.172
			c-34.681,0-62.534,28.278-62.534,63.573v116.039c0,29.18,42.737,29.18,42.737,0v-87.12h10.153v274.534
			c0,39.089,56.935,37.933,56.935,0V365.554h9.825v155.561c0,37.933,57.316,39.089,57.316,0V246.581h9.935v87.12
			c0,29.434,42.502,29.434,42.43,0V218.566C414.665,188.265,392.791,158.631,359.049,154.649z"/>
	</g>
</g>
<g id="Layer_1">
</g>
</svg>
