<?xml version="1.0" encoding="iso-8859-1"?>
<!-- Generator: Adobe Illustrator 16.0.0, SVG Export Plug-In . SVG Version: 6.00 Build 0)  -->
<!DOCTYPE svg PUBLIC "-//W3C//DTD SVG 1.1//EN" "http://www.w3.org/Graphics/SVG/1.1/DTD/svg11.dtd">
<svg version="1.1" xmlns="http://www.w3.org/2000/svg" xmlns:xlink="http://www.w3.org/1999/xlink" x="0px" y="0px"
	 width="961.539px" height="1000px" viewBox="0 0 961.539 1000" style="enable-background:new 0 0 961.539 1000;"
	 xml:space="preserve">
<g id="KP_x5F_Calculator_x5F_icon">
	<g>
		<path style="fill:#020202;" d="M752.772,281.891c0,12.378-10.207,22.621-22.694,22.621H231.497
			c-12.524,0-22.694-10.243-22.694-22.621V144.187c0-12.451,10.17-22.603,22.694-22.603h498.581
			c12.487,0,22.694,10.152,22.694,22.603V281.891z M672.276,496.127c-34.313,0-62.11-27.833-62.11-62.093
			c0-34.258,27.797-62.165,62.11-62.165c34.349,0,62.11,27.906,62.11,62.165C734.387,468.294,706.625,496.127,672.276,496.127
			 M672.276,687.56c-34.313,0-62.11-27.833-62.11-62.073c0-34.258,27.797-62.092,62.11-62.092c34.349,0,62.11,27.834,62.11,62.092
			C734.387,659.727,706.625,687.56,672.276,687.56 M672.276,879.066c-34.313,0-62.11-27.797-62.11-62.146
			c0-34.241,27.797-62.075,62.11-62.075c34.349,0,62.11,27.834,62.11,62.075C734.387,851.27,706.625,879.066,672.276,879.066
			 M480.806,496.127c-34.312,0-62.11-27.833-62.11-62.093c0-34.258,27.798-62.165,62.11-62.165
			c34.349,0,62.109,27.906,62.109,62.165C542.915,468.294,515.154,496.127,480.806,496.127 M480.806,687.56
			c-34.312,0-62.11-27.833-62.11-62.073c0-34.258,27.798-62.092,62.11-62.092c34.349,0,62.109,27.834,62.109,62.092
			C542.915,659.727,515.154,687.56,480.806,687.56 M480.806,879.066c-34.312,0-62.11-27.797-62.11-62.146
			c0-34.241,27.798-62.075,62.11-62.075c34.349,0,62.109,27.834,62.109,62.075C542.915,851.27,515.154,879.066,480.806,879.066
			 M289.335,496.127c-34.312,0-62.146-27.833-62.146-62.093c0-34.258,27.834-62.165,62.146-62.165
			c34.349,0,62.075,27.906,62.075,62.165C351.41,468.294,323.685,496.127,289.335,496.127 M289.335,687.56
			c-34.312,0-62.146-27.833-62.146-62.073c0-34.258,27.834-62.092,62.146-62.092c34.349,0,62.075,27.834,62.075,62.092
			C351.41,659.727,323.685,687.56,289.335,687.56 M289.335,879.066c-34.312,0-62.146-27.797-62.146-62.146
			c0-34.241,27.834-62.075,62.146-62.075c34.349,0,62.075,27.834,62.075,62.075C351.41,851.27,323.685,879.066,289.335,879.066
			 M105.286-0.355v932.772c0,37.39,30.584,67.938,67.937,67.938h615.165c37.354,0,67.865-30.549,67.865-67.938V-0.355H105.286z"/>
		<path style="fill:#020202;" d="M706.553,222.133c-5.973,0-10.822,5.104-10.822,11.311v30.042h-46.908v-30.042
			c0-6.207-4.851-11.311-10.786-11.311c-5.937,0-10.859,5.104-10.859,11.311v40.863c0,5.937,4.923,10.806,10.859,10.806h68.517
			c5.936,0,10.785-4.869,10.785-10.806v-40.863C717.338,227.237,712.488,222.133,706.553,222.133"/>
		<path style="fill:#020202;" d="M706.553,140.985h-68.517c-5.937,0-10.859,4.867-10.859,10.731v40.103
			c0,6.279,4.923,11.311,10.859,11.311c5.936,0,10.786-5.032,10.786-11.311V162.61h46.908v29.209c0,6.279,4.85,11.311,10.822,11.311
			c5.936,0,10.785-5.032,10.785-11.311v-40.103C717.338,145.852,712.488,140.985,706.553,140.985"/>
	</g>
</g>
<g id="Layer_1">
</g>
</svg>
