<?xml version="1.0" encoding="iso-8859-1"?>
<!-- Generator: Adobe Illustrator 19.2.1, SVG Export Plug-In . SVG Version: 6.00 Build 0)  -->
<svg version="1.1" xmlns="http://www.w3.org/2000/svg" xmlns:xlink="http://www.w3.org/1999/xlink" x="0px" y="0px"
	 viewBox="0 0 600 600" style="enable-background:new 0 0 600 600;" xml:space="preserve">
<g id="calculator">
	<g id="calculator_1_">
		<g>
			<path style="fill:#020202;" d="M435.905,191.051c0,6.196-5.096,11.292-11.342,11.292H175.437
				c-6.246,0-11.342-5.096-11.342-11.292v-68.802c0-6.246,5.096-11.292,11.342-11.292h249.126c6.246,0,11.342,5.096,11.342,11.292
				V191.051z M395.683,298.076c-17.138,0-31.028-13.89-31.028-31.028c0-17.138,13.89-31.078,31.028-31.078
				s31.028,13.94,31.028,31.078C426.711,284.186,412.821,298.076,395.683,298.076 M395.683,393.759
				c-17.138,0-31.028-13.89-31.028-31.028c0-17.138,13.89-31.028,31.028-31.028s31.028,13.89,31.028,31.028
				C426.711,379.819,412.821,393.759,395.683,393.759 M395.683,489.442c-17.138,0-31.028-13.89-31.028-31.028
				c0-17.088,13.89-31.028,31.028-31.028s31.028,13.89,31.028,31.028C426.711,475.552,412.821,489.442,395.683,489.442 M300,298.076
				c-17.138,0-31.028-13.89-31.028-31.028c0-17.138,13.89-31.078,31.028-31.078s31.028,13.94,31.028,31.078
				C331.028,284.186,317.188,298.076,300,298.076 M300,393.759c-17.138,0-31.028-13.89-31.028-31.028
				c0-17.138,13.89-31.028,31.028-31.028s31.028,13.89,31.028,31.028C331.028,379.819,317.188,393.759,300,393.759 M300,489.442
				c-17.138,0-31.028-13.89-31.028-31.028c0-17.088,13.89-31.028,31.028-31.028s31.028,13.89,31.028,31.028
				C331.028,475.552,317.188,489.442,300,489.442 M204.317,298.076c-17.138,0-31.028-13.89-31.028-31.028
				c0-17.138,13.89-31.078,31.028-31.078s31.028,13.94,31.028,31.078S221.505,298.076,204.317,298.076 M204.317,393.759
				c-17.138,0-31.028-13.89-31.028-31.028c0-17.138,13.89-31.028,31.028-31.028s31.028,13.89,31.028,31.028
				C235.345,379.819,221.505,393.759,204.317,393.759 M204.317,489.442c-17.138,0-31.028-13.89-31.028-31.028
				c0-17.088,13.89-31.028,31.028-31.028s31.028,13.89,31.028,31.028S221.505,489.442,204.317,489.442 M112.381,50v466.074
				c0,18.687,15.289,33.926,33.926,33.926h307.385c18.687,0,33.926-15.239,33.926-33.926V50H112.381z"/>
			<path style="fill:#020202;" d="M412.821,161.172c-2.998,0-5.396,2.548-5.396,5.646v14.99h-23.434v-14.99
				c0-3.098-2.448-5.646-5.396-5.646c-2.948,0-5.446,2.548-5.446,5.646v20.436c0,2.948,2.448,5.396,5.446,5.396h34.226
				c2.948,0,5.396-2.448,5.396-5.396v-20.436C418.167,163.72,415.769,161.172,412.821,161.172"/>
			<path style="fill:#020202;" d="M412.821,120.651h-34.276c-2.948,0-5.446,2.448-5.446,5.346v20.036
				c0,3.148,2.448,5.646,5.446,5.646c2.948,0,5.396-2.498,5.396-5.646v-14.59h23.434v14.59c0,3.148,2.398,5.646,5.396,5.646
				c2.948,0,5.396-2.498,5.396-5.646v-20.036C418.167,123.099,415.769,120.651,412.821,120.651"/>
		</g>
	</g>
</g>
<g id="Layer_1">
</g>
</svg>
