<?xml version="1.0" encoding="utf-8"?>
<!-- Generator: Adobe Illustrator 19.0.0, SVG Export Plug-In . SVG Version: 6.00 Build 0)  -->
<svg version="1.1" xmlns="http://www.w3.org/2000/svg" xmlns:xlink="http://www.w3.org/1999/xlink" x="0px" y="0px"
	 viewBox="345 -495 961.5 1000" enable-background="new 345 -495 961.5 1000" xml:space="preserve">
<g id="Layer_1">
	<g id="KP_x5F_dollar_x5F_icon" display="none">
		<g display="inline">
			<path fill="#020202" d="M930.6,503.3V395.1c123.9-6.4,270.4-108.8,270.4-249.3c0-160.6-146-206.5-270.5-218.5v-164.5
				c49,3.2,87.1,49.8,91.5,97.1h162.6c0-159.7-151.2-243.4-255.6-249.1v-108.1H774.2v108.1c-45.5,0-250.6,55.7-250.6,234.1
				c0,158.8,147.9,202,250.6,216.3v179c-74.7-20.4-88.3-75.3-98.7-121.1H510.9c10,178.6,174,261.8,263.3,274.3v109.9H930.6z
				 M932.4,86.8c136.5,3.2,151.7,133.7-0.2,154.4L932.4,86.8z M774.9-235.5v136.1C665.1-100.8,662.8-216.6,774.9-235.5z"/>
		</g>
	</g>
	<g id="KP_x5F_Award_x5F_icon" display="none">
		<g display="inline">
			<path fill="#1C1B1A" d="M1271.8-275.8c0,128.1-63.1,214.2-187.9,257.3c3.5-6.9,6.5-14.3,9.8-21.6c26.7-65.2,32-186,31.9-273.1
				v-0.1v-39.1h146.3L1271.8-275.8L1271.8-275.8z M403.7-275.8v-76.6H550v39.1v0.1c-0.1,87.1,5.2,207.9,32,273.1
				c3,7.3,6.3,14.6,9.6,21.6C466.9-61.6,403.7-147.7,403.7-275.8 M1294.2-397.5h-168.7v-23c0-10.6-8.6-19.4-19.3-19.4h-537
				c-10.6,0-19.3,8.7-19.3,19.4v23H381.3c-12.4,0-22.6,10.1-22.6,22.5v99.2c0,121.1,50.9,260.6,264.2,313.2
				c76,117.6,183.4,187,183.4,282.4v5.7H637.8c-21.3,0-38.6,17.4-38.6,38.5v33.6c0,13.9-11.2,25.2-25.2,25.2v23.7h527.5v-23.7
				c-14,0-25.2-11.3-25.2-25.2V364c0-21.1-17.4-38.5-38.5-38.5H869.1v-5.7c0-95.4,107.6-164.8,183.6-282.4
				c213.3-52.6,264.1-192.1,264.1-313.2V-375C1316.8-387.4,1306.7-397.5,1294.2-397.5"/>
		</g>
	</g>
	<g id="KP_x5F_Calculator_x5F_icon" display="none">
		<g display="inline">
			<path fill="#020202" d="M1109.8-214.8c0,12.4-10.2,22.6-22.7,22.6H588.5c-12.5,0-22.7-10.2-22.7-22.6v-137.7
				c0-12.5,10.2-22.6,22.7-22.6h498.6c12.5,0,22.7,10.2,22.7,22.6V-214.8z M1029.3-0.6c-34.3,0-62.1-27.8-62.1-62.1
				s27.8-62.2,62.1-62.2c34.3,0,62.1,27.9,62.1,62.2C1091.4-28.4,1063.6-0.6,1029.3-0.6 M1029.3,190.9c-34.3,0-62.1-27.8-62.1-62.1
				s27.8-62.1,62.1-62.1c34.3,0,62.1,27.8,62.1,62.1C1091.4,163,1063.6,190.9,1029.3,190.9 M1029.3,382.4
				c-34.3,0-62.1-27.8-62.1-62.1c0-34.2,27.8-62.1,62.1-62.1c34.3,0,62.1,27.8,62.1,62.1S1063.6,382.4,1029.3,382.4 M837.8-0.6
				c-34.3,0-62.1-27.8-62.1-62.1s27.8-62.2,62.1-62.2s62.1,27.9,62.1,62.2C899.9-28.4,872.2-0.6,837.8-0.6 M837.8,190.9
				c-34.3,0-62.1-27.8-62.1-62.1s27.8-62.1,62.1-62.1s62.1,27.8,62.1,62.1C899.9,163,872.2,190.9,837.8,190.9 M837.8,382.4
				c-34.3,0-62.1-27.8-62.1-62.1c0-34.2,27.8-62.1,62.1-62.1s62.1,27.8,62.1,62.1C899.9,354.6,872.2,382.4,837.8,382.4 M646.3-0.6
				c-34.3,0-62.1-27.8-62.1-62.1s27.8-62.2,62.1-62.2s62.1,27.9,62.1,62.2C708.4-28.4,680.7-0.6,646.3-0.6 M646.3,190.9
				c-34.3,0-62.1-27.8-62.1-62.1s27.8-62.1,62.1-62.1s62.1,27.8,62.1,62.1C708.4,163,680.7,190.9,646.3,190.9 M646.3,382.4
				c-34.3,0-62.1-27.8-62.1-62.1c0-34.2,27.8-62.1,62.1-62.1s62.1,27.8,62.1,62.1S680.7,382.4,646.3,382.4 M462.3-497.1v932.8
				c0,37.4,30.6,67.9,67.9,67.9h615.2c37.4,0,67.9-30.5,67.9-67.9v-932.8H462.3z"/>
			<path fill="#020202" d="M1063.6-274.6c-6,0-10.8,5.1-10.8,11.3v30h-46.9v-30c0-6.2-4.9-11.3-10.8-11.3c-5.9,0-10.9,5.1-10.9,11.3
				v40.9c0,5.9,4.9,10.8,10.9,10.8h68.5c5.9,0,10.8-4.9,10.8-10.8v-40.9C1074.3-269.5,1069.5-274.6,1063.6-274.6"/>
			<path fill="#020202" d="M1063.6-355.7H995c-5.9,0-10.9,4.9-10.9,10.7v40.1c0,6.3,4.9,11.3,10.9,11.3c5.9,0,10.8-5,10.8-11.3
				v-29.2h46.9v29.2c0,6.3,4.8,11.3,10.8,11.3c5.9,0,10.8-5,10.8-11.3V-345C1074.3-350.8,1069.5-355.7,1063.6-355.7"/>
		</g>
	</g>
	<g id="KP_x5F_Doctor_x5F_Female_x5F_Profile_x5F_icon" display="none">
		<g display="inline">
			<path fill="#020202" d="M1308.9,265c-2.2-27.8-26.3-57.7-54.1-66.2L1116,156c2,9.9,1.4,42.6-0.1,50
				c31.8,33.2,48.9,114.7,25.7,168.8c-14,32.5-31.5,40.9-60.2,43.6c-3.8,3.8-8.9,6-14.4,6.3l-21.3,0.8c-0.3,0-0.5,0-0.8,0
				c-6.2,0-12.1-2.6-16.2-7.2c-4.3-4.9-6.2-11.4-5.2-17.8l3.2-19.9c1.1-6.6,4.9-12.1,10.5-15.3c5.6-3.3,12.3-3.9,18.5-1.6l20,7.4
				c2.4,0.9,4.6,2.2,6.5,3.9c13-1.7,14.3-4.8,19.7-17.3c20.2-46.8-13.2-120.8-28.8-127.5c-5.5-2.4-25.6,0.8-50.9,15.4
				C995.5,261,969,281.8,960,302.7c-5.4,12.7-6.4,16,1.1,26.1c2.5,0.2,4.9,0.9,7.2,1.9l19.2,9.5c5.9,2.9,10,8.2,11.5,14.5
				c1.5,6.5,0,13.2-4,18.2l-12.2,15.9c-4,5.2-9.9,8.3-16.5,8.5c-6.7-0.1-12.7-2.5-17-7.5l-13.9-15.9c-3.6-4.2-5.5-9.4-5.4-14.7
				c-17.7-22.7-23.8-41.3-9.8-73.8c22.6-52.6,89.7-99.9,135.6-102.9c-0.2-1.7-0.5-3.4-1.1-5.1c-2-5.7-5.5-37.4-11.8-44l-3.4-1.1
				c105.6-22.3,94.8-99.2,94.8-99.2c-35.6,10-92.8-15.4-82.3-73.9c10.9-58.7,21-73.3,21-180.4c0-129.8-105.3-235-235-235
				c-129.8,0-235.1,105.2-235.1,235c0,107.7,10,121.7,20.8,180.4c10.7,58.5-46.7,83.9-82.1,73.9c0,0-10.8,76.8,94.8,99.2l-4.1,1.2
				c-8.3,23.1-14.3,74.5,8.4,108.7c16.6-3.2,33.7,0,48,9.3c14.7,9.5,24.8,24.1,28.5,41.2c3.7,17.1,0.5,34.6-9,49.3
				c-9.8,15.2-24.9,25-41.3,28.5c-16.4,3.5-34.1,0.8-49.3-9.1c-30.3-19.6-39-60.3-19.4-90.6c0-0.1,0.1-0.1,0.1-0.1
				c-19.8-30.1-29.7-76.9-27.8-118.2l-149.8,46.3c-27.7,8.5-52,38.4-54,66.2l-10.2,222.2H1319L1308.9,265z"/>
			<path fill="#020202" d="M648.6,286L648.6,286c-5.5,1.1-10.2,4.4-13.3,9.1c-6.3,9.8-3.5,22.8,6.2,29.1c4.7,3,10.3,4.1,15.8,2.8
				l0,0c5.5-1.2,10.2-4.4,13.2-9.2c3.1-4.7,4.1-10.3,2.9-15.8c-1.2-5.6-4.4-10.3-9.1-13.3l0,0C659.7,285.9,654.1,284.8,648.6,286z"
				/>
		</g>
	</g>
	<g id="KP_x5F_Doctor_x5F_Male_x5F_Profile_x5F_icon" display="none">
		<g display="inline">
			<path fill="#020202" d="M1307.2,246.3c-2.1-27.9-26.1-57.6-53.6-66.1l-152.8-47.1c1.9,10.1,1.4,43.7-0.1,51.3
				c32.6,34,50.2,117.7,26.3,173.1c-14.3,33.3-32.3,42-61.7,44.8c-3.8,3.9-9.1,6.2-14.7,6.4l-21.8,0.8c-0.3,0-0.6,0-0.8,0
				c-6.4,0-12.4-2.6-16.7-7.4c-4.4-5-6.4-11.7-5.3-18.2l3.2-20.5c1.1-6.6,5-12.3,10.8-15.6c5.7-3.4,12.6-4,18.9-1.7l20.6,7.6
				c2.4,0.9,4.7,2.2,6.6,3.9c13.3-1.7,14.7-4.9,20.2-17.6c20.7-48.1-13.6-124-29.6-130.9c-5.7-2.5-26.3,0.9-52.3,15.9
				c-27.4,15.8-54.5,37.1-63.7,58.5c-5.6,13-6.5,16.4,1.1,26.8c2.5,0.2,5,0.9,7.3,2l19.7,9.7c6,3,10.3,8.4,11.8,14.9
				c1.5,6.6,0,13.5-4.1,18.7L964,371.9c-4.1,5.5-10.2,8.5-17,8.8c-6.9-0.1-13.1-2.5-17.4-7.6l-14.3-16.4c-3.7-4.2-5.6-9.6-5.5-15
				c-18.1-23.3-24.3-42.4-10-75.7c23.2-54,92-102.5,139.2-105.6c-0.2-1.7-0.6-3.4-1.2-5.2c-2-5.8-5.6-38.5-12.1-45.2l-11.2-3.5
				c-27.8-8.5-50.3-38.3-50.3-66.1V15c17-22.2,29.9-49.1,40.6-80.1c4.8-14.7,9.7-30.5,15.1-47.2c17.9-10,32.6-30.5,38.8-56
				c6.2-25.9,1.6-51-10.5-67.7c1-9.2,2-18.8,2-27c0-115-94.3-208.2-211.1-209.4v-0.5c-0.1,0-1,0.5-1.2,0.5c-0.3,0-1.1-0.5-1.5-0.5
				v0.5c-116.5,1.2-210.7,94.5-210.7,209.4c0,8.2,0.8,17.8,2,27c-12.2,16.7-16.9,41.8-10.5,67.7c6,25.5,21,46,38.6,56
				c5.2,16.7,10,32.5,14.9,47.2c10.7,31,23.8,57.8,40.6,80v25.4c0,27.8-22.9,57.6-50.2,66.1l-11.2,3.5
				c-8.5,23.6-14.8,76.6,8.5,111.8c17-3.3,34.5,0,49.2,9.5c15.1,9.7,25.4,24.8,29.2,42.3c3.7,17.6,0.5,35.5-9.2,50.6
				c-10,15.6-25.5,25.6-42.4,29.2c-16.8,3.7-35,0.9-50.6-9.2c-31.1-20.1-40.1-61.8-19.9-92.9c0,0,0,0,0.1-0.1
				c-20.4-30.9-30.5-79-28.5-121.4l-164,50.6c-27.9,8.4-51.8,38-54.2,66l-10,233.4h959.3v-90.4L1307.2,246.3z"/>
			<path fill="#020202" d="M666.6,266.4L666.6,266.4c-5.6,1.2-10.5,4.5-13.6,9.3c-6.4,10-3.6,23.4,6.4,29.9c4.8,3.1,10.6,4.2,16.2,3
				l0,0c5.6-1.2,10.5-4.6,13.6-9.4c3.2-4.8,4.2-10.6,2.9-16.2c-1.2-5.7-4.5-10.5-9.3-13.6l0,0C678,266.3,672.3,265.3,666.6,266.4z"
				/>
		</g>
	</g>
	<g id="KP_x5F_Call_x5F_icon" display="none">
		<g display="inline">
			<path fill="#1C1B1A" d="M1240.2,285c-25.7-32.1-63.8-69-102.2-98.9c-32.9-25.6-58-43.8-81.4-55.2c-20.8-10.3-40.9-9.1-66.7,11.3
				c-32,24.9-50.8,41.3-59.5,56.9c-5.5,4-13.4,9.4-20.9,13.4c-0.2,0-11.4-1.5-36.7-31.7c-25.4-30.1-67.1-81.9-98.9-124.5
				c-30.7-41.6-68.6-96.8-90.6-130.6c-21.6-32.9-19.7-44.1-16.7-47c4.1-4.4,10.8-9.6,15.9-13.4c17.5-4,39.4-17.6,75.6-43.2
				c20.5-14.3,29.8-34.9,26.1-58c-4.3-25.9-14.4-55-29.2-93.8c-17.4-45.2-41.8-92.4-65.1-126.5c-12.1-17.6-31.5-41-60-41
				c-5.7,0-10.3,1-11.2,1.4c-11.5,0.9-33.1,6.4-58,15c-30.4,10.4-44.6,26.6-56.1,39.6l-4.9,5.4c-14.7,16.3-49.1,65.7-69.2,99.5
				c-24.2,40.7-21.4,62.3-14.6,96c7.1,34.4,66.3,215.2,209,407.3c142.7,192.3,298.7,301.1,331.5,318.8c17.1,9.3,33.5,18,57.7,18
				c10.7,0,22.3-1.7,36.5-5.2c38.4-9.5,95.7-28.2,115.5-37.6l6.3-3c15.9-7.2,35.5-16.1,54.3-42.2c15.8-21.7,27.1-40.4,30.5-49.7
				C1270.6,341.3,1265.4,316.4,1240.2,285z"/>
		</g>
	</g>
	<g id="KP_x5F_Copay_x5F_icon" display="none">
		<g display="inline">
			<path fill="#020202" d="M1018.8-53.8v-22.4c25.6-1.3,56-22.5,56-51.6c0-33.2-30.2-42.7-56-45.2v-34.1c10.1,0.7,18,10.3,18.9,20.1
				h33.7c0-33-31.3-50.3-52.9-51.5v-22.4h-32v22.4c-9.4,0-51.9,11.5-51.9,48.4c0,32.9,30.6,41.8,51.9,44.8v37
				c-15.5-4.2-18.3-15.6-20.5-25.1h-34c2.1,37,36,54.2,54.5,56.8v22.7L1018.8-53.8L1018.8-53.8z M1019.2-140
				c28.2,0.7,31.4,27.7,0,31.9V-140z M986.6-206.7v28.2C963.9-178.8,963.4-202.8,986.6-206.7z"/>
			<path fill="#020202" d="M925,107.9L925,107.9h340.7c27.8,0,50.2-21.6,50.2-48.3s-22.5-48.4-50.2-48.4l-167.4-0.1
				c12.1-6.5,23.4-14.3,33.8-23.2h61.9c27.7,0,50.1-21.6,50.1-48.3c0-26.7-22.4-48.3-50.1-48.3h-1.1c3.6-14.3,5.7-29.1,5.7-44.4
				c0-103.6-87.6-188-195.3-188c-79.7,0-148.3,46.2-178.6,112.2l-171.3-0.2v0.8C490.6-225.5,359.6-97.8,359.6,59.6
				c0,159.1,134,287.9,299.2,287.9h147.6v0.2h302.1c27.7,0,50.2-21.7,50.2-48.3c0-26.7-22.5-48.3-50.2-48.3L925,250.9v-0.3
				c-6.5-0.1-11.7-5.2-11.7-11.5s5.3-11.5,11.9-11.5c0.1,0,0.2,0.1,0.4,0.1H1216c27.7,0,50.2-21.7,50.2-48.4
				c0-26.6-22.5-48.3-50.2-48.3l-289.6-0.2c-0.4,0.1-0.8,0.1-1.2,0.1c-6.7,0-11.9-5.2-11.9-11.5C913.3,113.1,918.5,108,925,107.9z
				 M658.8-109.1c-6.5,0-11.8-5.1-11.8-11.5c0-6.3,5.3-11.4,11.8-11.4v-0.2h150.5c0.9,7.9,2.5,15.6,4.4,23.1H658.8z M875.1-153.1
				c0-66.7,57.5-120.9,128.2-120.9s128.2,54.2,128.2,120.9S1074-32.2,1003.4-32.2C932.6-32.2,875.1-86.5,875.1-153.1z"/>
		</g>
	</g>
	<g id="KP_x5F_Date_x5F_icon" display="none">
		<path display="inline" fill="#020202" d="M1260.8-346.8h-141V-380c0-52.8-42.9-95.6-95.6-95.6c-52.7,0-95.7,42.9-95.7,95.6v33.2
			H747.1V-380c0-52.8-42.9-95.6-95.6-95.6s-95.6,42.9-95.6,95.6v33.2H414.8c-30.8,0-56,25.1-56,56v717c0,30.9,25.2,56.1,56,56.1h846
			c30.9,0,56-25.2,56-56.1v-717C1316.8-321.7,1291.7-346.8,1260.8-346.8z M989.5-380c0-19.1,15.5-34.7,34.6-34.7
			s34.6,15.6,34.6,34.7v127.3c0,19.1-15.5,34.7-34.6,34.7s-34.6-15.6-34.6-34.7V-380z M616.9-380c0-19.1,15.5-34.7,34.5-34.7
			c19.1,0,34.6,15.6,34.6,34.7v127.3c0,19.1-15.5,34.7-34.6,34.7c-19.1,0-34.5-15.6-34.5-34.7V-380z M1255.8,421.3h-836V-143h836
			V421.3L1255.8,421.3z M813.1,331.6H555.4v-69.1l149.5-144.6c18-17.4,39.7-38.7,39.7-65.3c0-31.5-26.1-50.6-56.1-50.6
			c-32,0-54.8,20.7-59.2,52.3l-68.5-5.4c6.5-71.2,58.1-108.8,127.7-108.8c69.1,0,124.6,35.3,124.6,109.3c0,48.4-25,81.5-59.2,113.2
			L634.8,272.9h178.3L813.1,331.6L813.1,331.6z M846.1,207.1c0-40.3,14.8-71.8,35.9-105.6l98.4-154.9h79.3L967.3,89l1.2,1
			c7.5-4.3,22.8-6.5,35.8-6.5c68,0,115.8,56,115.8,122.9c0,79.9-58.1,131.6-137,131.6C902.7,338.1,846.1,288.6,846.1,207.1z
			 M914.6,206c0,38.6,31.6,70.1,70.2,70.1c38.5,0,70.1-31.5,70.1-70.1s-31.6-70.1-70.1-70.1C946.2,135.9,914.6,167.4,914.6,206z"/>
	</g>
	<g id="KP_x5F_Document_x5F_icon" display="none">
		<g display="inline">
			<path fill="#020202" d="M1228.8-193.4c-0.1-1.4-0.4-2.6-0.7-4c-1.5-5.6-3.9-10.9-8-15.1l-273.5-276c-4.1-4.2-9.5-6.6-15.1-8.1
				c-1.4-0.5-2.7-0.7-4.2-0.9c-1.4-0.3-2.9-0.9-4.4-0.9H479.1c-18.2,0-33.2,14.9-33.2,33.3v936.6c0,18.4,15,33.3,33.2,33.3h717.3
				c18.5,0,33.3-14.9,33.3-33.3v-660.6C1229.7-190.6,1229.1-191.9,1228.8-193.4z M956.3-384.1l160.2,161.8H956.3V-384.1z
				 M1163.1,438.4H512.4v-870.2h377.3v242.7c0,18.3,15,33.2,33.2,33.2h240.2V438.4z"/>
			<path fill="#020202" d="M596.3-276.6H817c15.1,0,27.5-12.3,27.5-27.4c0-15.2-12.4-27.5-27.5-27.5H596.3
				c-15.1,0-27.4,12.2-27.4,27.5C568.8-288.9,581.2-276.6,596.3-276.6z"/>
			<path fill="#020202" d="M596.3-122.8H817c15.1,0,27.5-12.3,27.5-27.4c0-15.2-12.4-27.4-27.5-27.4H596.3
				c-15.1,0-27.4,12.2-27.4,27.4C568.8-135.2,581.2-122.8,596.3-122.8z"/>
			<path fill="#020202" d="M568.8,3.4c0,15.1,12.4,27.4,27.4,27.4h482.9c15.2,0,27.4-12.3,27.4-27.4c0-15.3-12.2-27.5-27.4-27.5
				H596.3C581.2-24.1,568.8-11.9,568.8,3.4z"/>
			<path fill="#020202" d="M1079.2,283.3H596.3c-15.1,0-27.4,12.2-27.4,27.4c0,15.1,12.4,27.5,27.4,27.5h482.9
				c15.2,0,27.4-12.4,27.4-27.5C1106.6,295.5,1094.4,283.3,1079.2,283.3z"/>
			<path fill="#020202" d="M1079.2,129.5H596.3c-15.1,0-27.4,12.3-27.4,27.5s12.4,27.4,27.4,27.4h482.9c15.2,0,27.4-12.2,27.4-27.4
				C1106.6,141.9,1094.4,129.5,1079.2,129.5z"/>
		</g>
	</g>
	<g id="KP_x5F_Email_x5F_icon" display="none">
		<g display="inline">
			<g>
				<path fill="#1C1B1A" d="M701.5,28c0,27.3,0,119.5,107.8,119.5c98.6,0,125.8-85.7,125.8-157.1c0-68.9-31.1-119.4-95.9-119.4
					C752.1-129.1,701.5-57.8,701.5,28 M1262.3,290.3c-92.2,127.2-240.1,195.9-398.6,195.9C587.2,486.2,360,286.3,360,4.6
					c0-276.5,222-484.2,496-484.2c228.6,0,459.5,151.9,459.5,427c0,276.5-210.2,316.8-288.2,316.8c-72.6,0-101.3-36.3-102.6-70h-2.5
					c-33.7,35-84.4,70-166.2,70c-111.6,0-186.9-89.5-186.9-218.1c0-151.9,98.7-292.1,259.6-292.1c68.9,0,114.4,20.8,140.3,74h2.5
					l10.4-58.3h122L1056,25.4c-5.3,24.6-11.8,48.1-11.8,74c0,31,7.8,48,35.1,48c54.6,0,111.6-58.4,111.6-193.5
					c0-207.7-141.5-316.8-338.9-316.8c-215.5,0-359.7,154.6-359.7,367.4c0,227.3,162.4,364.8,381.8,364.8
					c97.3,0,181.8-28.6,245.3-79.1L1262.3,290.3L1262.3,290.3z"/>
			</g>
		</g>
	</g>
	<g id="KP_x5F_Facility_x5F_icon" display="none">
		<path display="inline" fill="#1C1B1A" d="M1303.2,109.2l-258.9-94.6c-5.3-2-11.1-2-16.4,0L801,97.5v-369.3
			c0-9.2-5.4-17.6-13.6-21.6l-198.3-94.7c-6.4-3.1-14.2-3.1-20.6,0l-198.2,94.7c-8.3,4-13.6,12.4-13.6,21.6V373
			c0,13.2,10.7,23.9,23.9,23.9h396.5h517.8c13.2,0,23.9-10.7,23.9-23.9V131.7C1318.9,121.7,1312.6,112.6,1303.2,109.2z M551.8,348.8
			h-92.1V218.4c0-25.5,20.6-46.1,46-46.1c25.4,0,46,20.6,46,46.1L551.8,348.8L551.8,348.8z M551.8,84.4h-92.1V-7.7h92.1V84.4z
			 M551.8-109.2h-92.1v-92.1h92.1V-109.2z M698,277.9h-92.1v-92.1H698V277.9z M698,84.4h-92.1v-92H698V84.4z M698-109.2h-92.1v-92.1
			H698V-109.2z M948.2,348.8h-92V218.4c0-25.5,20.6-46.1,46-46.1s46,20.6,46,46.1V348.8z M1094.5,278h-92v-92.1h92V278z M1240.7,278
			h-92v-92.1h92V278z"/>
	</g>
	<g id="KP_x5F_Find_x5F_icon" display="none">
		<g display="inline">
			<path fill="#1C1B1A" d="M358.8-123.2c0,93.1,36.3,180.7,102.2,246.6c65.7,65.8,153.4,102.1,246.6,102.1
				c64.1,0,125.3-17.5,178.9-49.7l276.7,276.7c34.4,34.4,90.6,34.4,125.1,0l2.9-2.9c34.3-34.4,34.3-90.6,0-125L1011.2,45
				c73.3-132.6,55.3-302.5-57.1-414.7c-65.9-65.9-153.5-102.2-246.7-102.2c-93.1,0-180.7,36.3-246.4,102.2
				C395.1-303.9,358.8-216.3,358.8-123.2z M447.6-123.2c0-69.4,27-134.7,76.1-183.8c49-49.1,114.3-76.1,183.7-76.1
				c69.5,0,134.8,27.1,183.9,76.1c101.5,101.3,101.5,266.3,0,367.6c-49.1,49.1-114.4,76.2-183.8,76.2c-69.5,0-134.8-27-183.8-76.2
				C474.6,11.5,447.6-53.7,447.6-123.2z"/>
		</g>
	</g>
	<g id="KP_x5F_Forms_x5F_icon" display="none">
		<g display="inline">
			<path fill="#1C1B1A" d="M1080-472.3H389c-17.2,0-31.1,13.9-31.1,30.9v894.3c0,17,13.9,30.9,31.1,30.9h691c17.1,0,31-13.9,31-30.9
				v-894.3C1111-458.5,1097.1-472.3,1080-472.3z M1049.1,421.8H419.9v-832.2h629.2L1049.1,421.8L1049.1,421.8z M1318.3-344.8v351
				c0,13.5-10.7,24.4-24.1,25.2v279c0,1.7-0.1,3.5-0.5,5.2L1262,458.1c-2.6,11-12.3,18.8-23.4,18.8c-11.3,0-21-7.8-23.5-18.8
				l-31.9-142.5c-0.4-1.7-0.6-3.5-0.6-5.2v-684c0-13.2,10.8-24,24-24h4v-64c0-8.2,6.8-15,15-15h25.8c8.3,0,15,6.7,15,15v63.9h3.9
				c13.3,0,23.9,10.8,23.9,24v3.6C1307.6-369.2,1318.3-358.3,1318.3-344.8z M484.9-285.2c0-14.1,11.4-25.5,25.4-25.5h448.5
				c14,0,25.5,11.4,25.5,25.5s-11.5,25.5-25.5,25.5H510.3C496.3-259.7,484.9-271.1,484.9-285.2z M484.9,5.7
				c0-14.1,11.4-25.5,25.4-25.5h448.5c14,0,25.5,11.4,25.5,25.5c0,14.2-11.5,25.5-25.5,25.5H510.3C496.3,31.2,484.9,19.9,484.9,5.7z
				 M484.9-139.7c0-14.1,11.4-25.5,25.4-25.5h448.5c14,0,25.5,11.4,25.5,25.5c0,14-11.5,25.5-25.5,25.5H510.3
				C496.3-114.2,484.9-125.7,484.9-139.7z M484.9,296.7c0-14.1,11.4-25.5,25.4-25.5h448.5c14,0,25.5,11.5,25.5,25.5
				c0,14.2-11.5,25.5-25.5,25.5H510.3C496.3,322.2,484.9,310.8,484.9,296.7z M484.9,151.2c0-14,11.4-25.5,25.4-25.5h448.5
				c14,0,25.5,11.5,25.5,25.5c0,14.2-11.5,25.6-25.5,25.6H510.3C496.3,176.8,484.9,165.4,484.9,151.2z"/>
		</g>
	</g>
	<g id="KP_x5F_Globe_x5F_icon" display="none">
		<g display="inline">
			<path fill="#1C1B1A" d="M1102.8-178.8c-6.9-64.6-23.1-122.5-47.1-168.4c48.5,30.1,89.6,69.5,122.4,117.3
				c21.9,32,39.1,66.6,51.3,103C1190.6-145.8,1148-163.2,1102.8-178.8 M1106.4-120.1c51.6,18.9,98.5,39.9,139.5,62.7
				c5.3,36.2,5.8,73,1.3,109.6L1096.4,24C1104.1-24.8,1107.4-73.2,1106.4-120.1 M909.1-231l30.7-164.7
				c52,25.9,90.2,97.7,105.3,198.4C1002.2-210.1,956.4-221.4,909.1-231 M959.4,265.2c-50.3,88.6-112,141.9-170.3,147l30.7-164.6
				C867.5,255.7,914.5,261.6,959.4,265.2 M569.3,126.7c-51.7-18.9-98.5-39.9-139.4-62.6c-5.4-36.3-6-73.2-1.6-109.7l151.1,28.2
				C571.6,32.4,568.3,80.8,569.3,126.7 M573.3,185.6c4.1,37.5,10.9,72.1,20.3,102.8c7.3,23.6,16.2,45.5,26.5,65.3
				c-81.6-50.9-142.9-128.5-173.6-220C485.4,152.5,528,169.9,573.3,185.6 M762.8-402.4c-39.1,34.2-75.5,82.5-105.7,140.3
				c-48-1.8-94.3-0.9-137.4,2.7C581.8-334.5,667.6-384.9,762.8-402.4 M1033.2,67.4c-11.4,51.6-27.4,100.5-47.5,145.5
				c-49.8-3.2-102.2-9.4-156-18.5L859.4,35L1033.2,67.4z M845.9-187.7L816.1-28.2L642.3-60.7c11.4-51.5,27.4-100.5,47.6-145.5
				C739.8-203,792.3-196.8,845.9-187.7 M869.4-18.3l29.8-159.5c53.5,10.9,104.6,24,151.9,39c2.7,49.4,0,100.9-7.9,153L869.4-18.3z
				 M716.4-258.6c50.3-88.5,112-141.7,170.2-147L855.8-241C807.9-249.1,761-255.1,716.4-258.6 M438.2-98.8
				c9.1-35.7,22.9-69.9,40.9-101.7c46.4-6.4,98.1-9.2,153.1-8.1c-18.1,43.5-32.7,89.9-43.2,138L438.2-98.8z M806.2,25l-29.8,159.4
				c-53.5-10.9-104.6-24.1-152.1-39c-2.6-48.9,0.2-100.3,8.2-152.8L806.2,25z M1018.7,268.6c18,0.7,33.7,1,47.8,1
				c29.7,0,59.8-1.3,89.4-3.7c-61.8,74.9-147.4,125.3-242.5,142.9C952.5,374.7,988.7,326.5,1018.7,268.6 M1237.3,105.5
				c-9.1,35.6-22.9,69.8-40.9,101.7c-46.4,6.5-98,9.2-152.9,8.2c18-43.3,32.4-89.7,43-138L1237.3,105.5z M766.6,237.7l-30.8,164.6
				c-39-19.3-70.2-64.1-90.3-129.7c-6.4-20.8-11.6-43.9-15.3-68.7C673.1,216.6,718.9,228,766.6,237.7 M1222.6-260.6
				c-63.7-93.1-158.9-159.8-267.7-187.7c-1.5-0.7-3-1.2-4.5-1.7l-0.4-0.1l2.4-13.2c2.8-14.7-7-28.8-21.6-31.6
				c-1.7-0.3-3.4-0.5-5.1-0.5c-12.9,0-24.1,9.3-26.5,22.1l-2.5,13.3h-0.3c-1.1-0.1-2.3-0.1-3.4-0.1h-0.8c-19-2.2-37.4-3.3-55-3.3
				c-224.3,0-417,160.3-458.2,381.1c-22.8,122.6,3.4,246.6,73.9,349.5C516.7,360.3,612,427,720.8,454.9c1.5,0.6,3.1,1.2,4.6,1.7
				l0.2,0.1l-2.5,13.2c-2.7,14.6,7,28.8,21.6,31.5c1.6,0.4,3.3,0.5,5,0.5c13,0,24.1-9.3,26.5-22.1l2.4-12.9c1.3,0,2.5,0,3.7-0.1
				l1.2-0.1c18.9,2.2,37.3,3.4,54.7,3.4c224.3,0,416.9-160.3,458.1-381C1319.3-33.6,1293.1-157.8,1222.6-260.6"/>
		</g>
	</g>
	<g id="KP_x5F_Heart_x5F_icon" display="none">
		<g display="inline">
			<path fill="#020202" d="M1061-431.3c-96.1,0-180,53.3-223.3,132.1c-43.2-78.8-127-132.1-223.3-132.1
				c-140.6,0-254.6,114-254.6,254.6c0,361,477.9,614.5,477.9,614.5s478-253.5,478-614.4C1315.7-317.2,1201.6-431.3,1061-431.3"/>
		</g>
	</g>
	<g id="KP_x5F_Home_x5F_icon" display="none">
		<path display="inline" fill="#020202" d="M1312.6,16.3L1147-113.8v-235.7c0-8.9-7.3-16.2-16.1-16.2H990.6
			c-8.8,0-16.2,7.2-16.2,16.2v100.3l-126.7-99.5c-5.9-4.6-14-4.6-19.9,0L363,16.3c-5.5,4.3-7.5,11.5-5.3,18
			c2.3,6.5,8.5,10.8,15.3,10.8h155v311c0,8.9,7.2,16.1,16,16.1h186c8.9,0,16.2-7.2,16.2-16.1V152.9c0-42.4,34.4-77,76.9-77h29.2
			c42.5,0,77,34.6,77,77v203.2c0,8.9,7.3,16.1,16.2,16.1h186c8.8,0,16.2-7.2,16.2-16.1v-311h154.9c6.9,0,13.1-4.3,15.3-10.8
			C1320.1,27.8,1318,20.6,1312.6,16.3z"/>
	</g>
	<g id="KP_x5F_Info_x5F_icon" display="none">
		<path display="inline" fill="#1C1B1A" d="M730.4-2h-92.8v-186.3h307.6v503.2h95.5v187.6H634.8V314.9h95.5V-2H730.4z M967.7-371.1
			c0-69-59.9-124.8-133.7-124.8c-73.9,0-133.7,55.8-133.7,124.8S760.1-246.3,834-246.3C907.8-246.3,967.7-302.1,967.7-371.1"/>
	</g>
	<g id="KP_x5F_List_x5F_View_x5F_icon" display="none">
		<path display="inline" fill="#020202" d="M582.3-374.6c0-23.4,18.9-42.4,42.4-42.4h649.9c23.4,0,42.3,19,42.3,42.4
			c0,23.3-18.9,42.3-42.3,42.3H624.7C601.2-332.3,582.3-351.3,582.3-374.6z M1274.6,339.5H624.7c-23.5,0-42.4,18.9-42.4,42.3
			c0,23.4,18.9,42.3,42.4,42.3h649.9c23.4,0,42.3-18.9,42.3-42.3C1317,358.4,1298.1,339.5,1274.6,339.5z M1274.6,87.3H624.7
			c-23.5,0-42.4,18.9-42.4,42.3c0,23.3,18.9,42.3,42.4,42.3h649.9c23.4,0,42.3-19,42.3-42.3C1317,106.2,1298.1,87.3,1274.6,87.3z
			 M1274.6-164.7H624.7c-23.5,0-42.4,18.9-42.4,42.3S601.2-80,624.7-80h649.9c23.4,0,42.3-19,42.3-42.4
			C1317-145.7,1298.1-164.7,1274.6-164.7z M358.6-314.3h121.8v-121.9H358.6V-314.3z M358.6-62h121.8v-121.8H358.6V-62z M358.6,190.6
			h121.8V68.7H358.6V190.6z M358.6,442.8h121.8v-122H358.6V442.8z"/>
	</g>
	<g id="KP_x5F_Locations_x5F_icon" display="none">
		<g display="inline">
			<path fill="#1C1B1A" d="M837.8-93.5c-66.2,0-119.5-53.5-119.5-119.5s53.3-119.4,119.5-119.4c65.9,0,119.4,53.4,119.4,119.4
				S903.7-93.5,837.8-93.5L837.8-93.5z M1121-213c0-156.4-126.8-283.2-283.2-283.2S554.6-369.4,554.6-213
				c0,40.9,8.8,79.6,24.4,114.7l242.1,589.4c2.9,7.2,9.5,11.7,16.7,11.7c7.1,0,13.6-4.6,16.5-11.7l242.2-589.4
				C1112.1-133.4,1121-172.1,1121-213L1121-213z"/>
		</g>
	</g>
	<g id="KP_x5F_Medical_x5F_Record_x5F_icon" display="none">
		<g display="inline">
			<path fill="#1C1B1A" d="M1317.5-271.8V342c0,29-23.8,52.8-52.9,52.8H411c-29.1,0-53-23.7-53-52.8v-613.8c0-0.1,0.1-0.1,0.1-0.2
				v-64.6c0-28.4,23.1-51.6,51.6-51.6h247.1c28.4,0,51.5,23.2,51.5,51.6v11.9h556.2C1293.7-324.7,1317.5-300.9,1317.5-271.8z
				 M1033.8-48.5H921.5v-112.4H754.2v112.5H641.8v167.2h112.3v112.3h167.3V118.7h112.3L1033.8-48.5L1033.8-48.5z"/>
		</g>
	</g>
	<g id="KP_x5F_Medical_x5F_Savings_x5F_icon" display="none">
		<g display="inline">
			<path fill="#1C1B1A" d="M936.6-187.5c-43.4-17-90.2-25.6-139-25.6s-95.6,8.6-139,25.6l-10.2-26c46.7-18.3,96.9-27.5,149.2-27.5
				s102.5,9.3,149.2,27.5L936.6-187.5z M947.7,66.6c0,4.5-3.7,8.2-8.2,8.2h-76.4v76.5c0,4.5-3.7,8.2-8.3,8.2H740.4
				c-4.5,0-8.2-3.7-8.2-8.2V74.8h-76.5c-4.5,0-8.2-3.7-8.2-8.2V-47.8c0-4.5,3.7-8.2,8.2-8.2h76.5v-76.5c0-4.5,3.7-8.2,8.2-8.2h114.4
				c4.6,0,8.3,3.7,8.3,8.2V-56h76.4c4.5,0,8.2,3.7,8.2,8.2V66.6L947.7,66.6z M1239.1-58c-4.1,9.8-13.7,17.9-23.5,20.7
				c-7.2-14.9-5.6-31-4.7-36.4c0.6-3.9,2.8-7.2,5.9-9.1c2.1-1.2,4.5-1.7,6.9-1.7c3.4,0,6.8,0.9,9.6,2c3.3,1.2,5.5,3.3,6.8,6.4
				C1242.2-71.2,1241.8-64.2,1239.1-58 M1297.6-5.2c-19.5,0.6-35.9-1.3-48.9-5.6c11.3-7.9,20.7-19.1,26.2-32.2
				c6.8-16.1,7.1-33.7,0.8-48.4c-5.4-12.7-15.6-22.4-28.7-27.3c-17.7-6.7-35.4-5.8-49.7,2.5c-13.2,7.7-22.2,21-24.7,36.6
				c-0.9,5.7-2.3,18.8,0.3,34.2c-9.3-4.6-16.1-9.7-19.6-12.6c-37.9-127-182.9-221.6-356-221.6c-19.3,0-38.1,1.2-56.6,3.5
				c-0.7,0-1.4,0-1.9,0.1c-60.4-71.7-143.2-89.7-188.1-85c-44.5,4.7-28,33.3-28,33.3l55.7,104.8c0,0.1,0,0.3,0.1,0.4
				c-59.6,35-105,84-128.7,140.7c-0.2-0.2-0.5-0.3-0.7-0.5l-67.4,11.4C368.7-68.6,358-56,358-42.8V80.8c0,13.2,10.7,25.8,23.6,28.1
				l79.2,13.5c0.3-0.2,0.4-0.3,0.7-0.4c19,34.5,46.4,65.5,80.1,91.5c21.4,15.1,40.3,26.3,47.3,38.4c7,12.2-7.5,66.8-10,75.4
				c-2.1,7.3-5.8,16.1-3.3,22.5c2.2,5.6,21,17.1,67.7,18.3c47.9,1.4,54.1-1.6,64.7-4.2c10.5-2.8,16.6-8.1,19.1-14.2l22.3-56.6
				c0.2,0,0.4-0.2,0.6-0.2c15.5,1.6,31.2,2.5,47.2,2.5c15.8,0,31.3-0.9,46.6-2.4c0.1,0,0.2,0.1,0.3,0.1l22.3,56.6
				c2.4,6.2,8.5,11.4,19.1,14.2c10.5,2.7,16.7,5.7,64.7,4.2c46.7-1.2,65.4-12.7,67.7-18.3c2.6-6.3-1.1-15.2-3.3-22.5
				c-2.4-8.6-16.9-63.2-9.9-75.4c6.9-12.2,18.2-15.4,43.7-35.1c0.2-0.1,0.2-0.1,0.3-0.2c0.2-0.1,0.2-0.2,0.4-0.3
				c70.2-52.3,114-126.3,114-208.4c0-5.2-0.2-10.4-0.5-15.5c9.8,4.3,21.1,8,33.6,9.4c20.7,21.3,52.4,32,94.7,32c2.6,0,5.1,0,7.8-0.1
				c10.7-0.3,19.1-9.3,18.8-19.9C1317.2,2.9,1308.3-5.5,1297.6-5.2"/>
		</g>
	</g>
	<g id="KP_x5F_Member_x5F_Card_x5F_icon" display="none">
		<path display="inline" fill="#1C1B1A" d="M1318.6-236.1v478.9c0,29.2-23.9,52.9-53.1,52.9H409.9c-29.1,0-53-23.8-53-52.9v-479
			c0-29.2,23.9-52.9,53-52.9h855.6C1294.8-289.1,1318.6-265.3,1318.6-236.1z M466.7,49.5L546.3,25c9.1-2.7,16.7-12.7,16.7-22v-8.2
			c-5.6-7.6-9.9-16.5-13.3-26.8c-1.7-4.9-3.4-10.2-5.1-15.7c-5.9-3.3-10.9-10.2-12.9-18.7c-2.1-8.6-0.5-17,3.4-22.5
			c-0.3-3.1-0.6-6.2-0.6-9.1c0-38.3,31.3-69.2,70.3-69.7c0.1,0,0.2,0,0.4,0c0.1,0,0.3,0,0.4,0c38.8,0.5,70.2,31.5,70.2,69.7
			c0,2.9-0.2,6-0.6,9.1c3.9,5.5,5.4,13.9,3.4,22.5c-2,8.5-7,15.4-12.9,18.7c-1.6,5.5-3.4,10.8-5,15.7c-3.4,10.3-7.9,19.2-13.4,26.8
			V3c0,9.3,7.6,19.3,16.7,22l79.7,24.5c7.6,2.5,13.4,9.8,15.9,17.6v-246.2c0-5.8-4.7-10.6-10.6-10.6H461.4
			c-5.8,0-10.6,4.8-10.6,10.6v246C453.3,59.3,459.1,51.9,466.7,49.5z M872.4-97.6h332.3c14.1,0,25.5-11.4,25.5-25.5
			s-11.4-25.6-25.5-25.6H872.4c-14.1,0-25.5,11.4-25.5,25.6C846.9-109,858.3-97.6,872.4-97.6z M872.4,25.4h332.3
			c14.1,0,25.5-11.5,25.5-25.5c0-14.1-11.4-25.5-25.5-25.5H872.4c-14.1,0-25.5,11.4-25.5,25.5C846.9,13.9,858.3,25.4,872.4,25.4z
			 M1230.2,171.3c0-14.1-11.4-25.5-25.5-25.5H470.8c-14.1,0-25.5,11.5-25.5,25.5c0,14.2,11.4,25.6,25.5,25.6h733.9
			C1218.8,196.9,1230.2,185.5,1230.2,171.3z"/>
	</g>
	<g id="KP_x5F_Member_x5F_Female_x5F_icon" display="none">
		<path display="inline" fill="#1C1B1A" d="M1306.3,290.6c-2.1-27.7-26.1-57.4-53.8-65.9l-214.3-66.1c105-22.2,94.3-98.6,94.3-98.6
			c-35.3,10-92.4-15.3-81.8-73.5c10.8-58.3,20.8-72.9,20.8-179.4c0.1-129.1-104.6-233.8-233.7-233.8S604-322,604-192.9
			c0,107.1,10,121.1,20.7,179.4S578.3,70,543,60c0,0-10.7,76.4,94.2,98.6L423,224.8c-27.5,8.4-51.7,38.2-53.7,65.9l-10.2,142.6
			h957.3L1306.3,290.6z"/>
	</g>
	<g id="KP_x5F_Member_x5F_Male_x5F_icon" display="none">
		<g display="inline">
			<path fill="#020202" d="M1316.9,433.8L1306.8,291c-2-27.7-26.1-57.4-53.7-65.9l-238.8-73.6c-27.6-8.5-50.2-38.3-50.2-66.1V60.1
				c16.7-22.2,29.9-49.4,40.3-80.2c4.9-14.6,10.1-30.5,15.1-47c17.7-10.1,32.5-30.4,38.6-55.9c6.2-26,1.6-51-10.3-67.5
				c1.1-9.6,1.8-18.9,1.8-27.3c0-114.7-94.1-207.8-210.6-209.2v-0.2c-0.4,0-0.9,0.1-1.2,0.1c-0.5,0-0.9-0.1-1.4-0.1v0.2
				C720-425.6,626-332.5,626-217.8c0,8.4,0.7,17.7,1.8,27.3c-12,16.5-16.6,41.5-10.4,67.5c6,25.4,20.9,45.8,38.6,55.9
				c5,16.5,10.2,32.5,15.1,47c10.4,30.8,23.6,57.9,40.3,80.1v25.4c0,27.8-22.6,57.5-50.1,66.1l-238.8,73.6
				c-27.5,8.5-51.7,38.2-53.7,65.9l-10.2,142.8H1316.9L1316.9,433.8z"/>
		</g>
	</g>
	<g id="KP_x5F_Message_x5F_icon" display="none">
		<g display="inline">
			<path fill="#1C1B1A" d="M1315.6,286c0.2-1.4,0.8-2.7,0.8-4.1v-557.1c0-1.5-0.6-2.7-0.8-4.1c-0.3-2.2-0.6-4.3-1.2-6.4
				c-0.8-2.1-2.1-3.8-3.2-5.6c-0.6-1.2-1-2.6-1.9-3.8c-0.3-0.4-0.7-0.5-1.2-0.9c-1.5-1.6-3.2-2.8-5-4.1c-1.5-1.1-2.8-2.3-4.5-3.1
				c-1.7-0.8-3.5-1-5.4-1.6c-2.1-0.6-4.1-1.2-6.4-1.3c-0.5,0-0.9-0.3-1.4-0.3h-895c-0.5,0-0.9,0.3-1.2,0.3c-2.5,0.1-4.8,0.8-7.2,1.4
				c-1.5,0.5-3.1,0.7-4.5,1.4c-2,0.9-3.6,2.3-5.4,3.6c-1.5,1.1-3.2,2.1-4.6,3.5c-0.3,0.4-0.7,0.6-1,1c-1.1,1.3-1.5,2.8-2.3,4.1
				c-1,1.7-2.1,3.3-2.7,5.1c-1,2.4-1.2,4.7-1.5,7.2c-0.1,1.2-0.8,2.2-0.8,3.5v557.1c0,1.3,0.6,2.3,0.8,3.6c0.3,2.4,0.5,4.8,1.5,7.1
				c0.6,1.8,1.7,3.5,2.7,5.1c0.8,1.3,1.2,2.9,2.3,4.1c0.3,0.4,0.8,0.6,1,0.9c1.4,1.5,3.1,2.6,4.8,3.8c1.6,1.2,3.3,2.6,5,3.4
				c1.6,0.7,3.3,1,4.9,1.5c2.4,0.6,4.5,1.2,6.8,1.4c0.4,0,0.8,0.1,1.3,0.1h894.9c4.5,0,8.7-1,12.6-2.7c1-0.5,1.7-1.3,2.6-1.8
				c2.8-1.6,5.5-3.4,7.7-5.9c0.3-0.3,0.8-0.4,1-0.8c1-1,1.3-2.5,1.9-3.7c1.1-1.9,2.4-3.7,3.2-5.6
				C1314.9,290.2,1315.3,288.2,1315.6,286z M421.4-209l255,212.3l-255,212.2L421.4-209z M837.9,57L476.1-244.3h723.4L837.9,57z
				 M724.9,43.8l92.9,77.5c5.9,4.9,12.9,7.2,20,7.2c7,0,14.1-2.3,19.8-7.2l93.1-77.5l248.7,207.1H476.1L724.9,43.8z M999.4,3.3
				L1254.2-209v424.5L999.4,3.3z"/>
		</g>
	</g>
	<g id="KP_x5F_More_x5F_icon" display="none">
		<g display="inline">
			<g>
				<g>
					<path fill="#020202" d="M475.7,125.9c67.7,0,122.5-54.9,122.5-122.4c0-67.8-54.8-122.7-122.5-122.7S353.2-64.4,353.2,3.4
						C353.2,71,408,125.9,475.7,125.9L475.7,125.9z"/>
				</g>
				<g>
					<path fill="#020202" d="M837.8,125.9c67.6,0,122.5-54.9,122.5-122.4c0-67.8-54.9-122.7-122.5-122.7
						c-67.7,0-122.6,54.9-122.6,122.7C715.2,71,770.1,125.9,837.8,125.9L837.8,125.9z"/>
				</g>
				<g>
					<path fill="#020202" d="M1199.8,125.9c67.7,0,122.6-54.9,122.6-122.4c0-67.8-54.9-122.7-122.6-122.7
						c-67.7,0-122.5,54.9-122.5,122.7C1077.3,71,1132.1,125.9,1199.8,125.9L1199.8,125.9z"/>
				</g>
			</g>
		</g>
	</g>
	<g id="KP_x5F_PDF_x5F_icon" display="none">
		<path display="inline" fill="#1C1B1A" d="M1316.4-184.8c-0.1-1.4-0.3-2.6-0.8-4c-1.3-5.2-3.6-10.2-7.5-14l-264-264.2
			c-4-3.9-8.9-6.1-14.3-7.5c-1.3-0.2-2.4-0.6-3.7-0.8c-1.3-0.1-2.7-0.8-4-0.8H593.2c-17.2,0-31,13.9-31,31.1v76.8H358.3v206.7h203.8
			v613.2c0,17.1,13.8,31,31,31h692.8c17.3,0,31.1-13.9,31.1-31v-632.6C1317.2-182.3,1316.6-183.5,1316.4-184.8z M1211.2-211.9H1053
			v-158.3L1211.2-211.9z M624.3,420.7v-582.2h320.8v-206.7H624.3v-45.9H991v233.2c0,17.1,13.8,31,31,31h233.2v570.6L624.3,420.7
			L624.3,420.7z M1186.1,247.6c1.3-3.7,4.2-16.8,4.2-16.8s-4.2,6.5-8.6,8.8c-15.9,8-66.8-5.2-119.2-31.6c45.2-4.4,82.4-5,102.6,1.5
			c25.9,8.8,25.9,17,25.9,19.1c0-1.5,1.5-7.4,0.8-9.6c0-6.5-2.2-12.5-6.4-16.8c-10-9.5-33-13.8-65.4-14.6c-23.6,0-52.2,2.2-83.8,6.5
			c-13.8-8.7-29.5-17.5-41-29.3c-30.7-28.6-55.8-68.8-71.7-114.2c1.5-4.5,2.2-8.1,2.9-12.5c4.3-20.4,7.9-87.2,7.9-87.2
			s-13,50.7-14.3,58c-1.4,5.1-2.8,10.2-5,15.3c-9.3-34.5-14.3-68.2-14.3-93c0-7.3,0.7-21.3,2.9-32.4c0.8-7.2,3.5-11.7,6.5-13.8
			c5.8,1.5,12.2,10.3,18.6,25.6c5.7,13.3,5.7,27.9,5.7,37.4c0,0,5.8-23.4,4.4-36.7c-0.8-8-8.7-29.3-24.4-29.3h-0.8h-0.7h-7.1
			c-11.5,0-22.9,5.8-25.1,16.1c-10,36.6,0.6,94.6,19.2,166.4l-5.6,14c-14.3,35.1-31.6,70.2-47.4,101c-63.8,129-114,197.8-146.9,203
			l-0.7-1.5c-0.7-16.1,28.6-57,67.4-90.1c4.3-3.7,21.5-20.5,21.5-20.5s-22.9,12.5-28.7,15.4c-48.8,30-73.2,59.9-77.4,79.8
			c-1.5,6.6,0,13.1,5,16.9l11.9,5.8c34.4,17.6,76-28.5,132-128.2c57.2-19,127.5-37.4,192.1-46.9c58.2,33.7,124.9,49.9,150,43.2
			C1178.1,254.9,1183.2,251.3,1186.1,247.6z M836,247.6c10.1-17.6,20.7-36.6,30.7-57.1c20.7-40.4,33.8-71.1,44.5-100.4
			c16.5,34.3,39.5,67.3,69.5,92.9c7.2,5.9,13.6,11.8,21.6,17C947.1,210.3,889.7,225,836,247.6z M1183.8,279.2c1.5-0.8,2.3-1.5,2.3-3
			s-0.8-2.2-1.6-3c-0.7-0.7-1.3-0.7-3.6-0.7h-4.2V285h2v-5.1h1.5c2.3,0,3.1,0.7,3.1,2.2c0.6,1.5,0.6,2.3,1.3,2.9h2.2
			c-0.6-0.7-0.6-1.4-0.6-2.9C1185.3,280.5,1184.5,279.2,1183.8,279.2z M1180.9,278.4h-2.2v-4.3h2.2c2.3,0,2.9,0.7,2.9,2.2
			C1183.8,277.7,1182.5,278.4,1180.9,278.4z M1180.9,266.7c-6.3,0-11.6,5-11.6,11.7c0,6.6,5.3,11.8,11.6,11.8
			c6.6,0,12.3-5.1,12.3-11.8S1187.5,266.7,1180.9,266.7z M1180.9,288c-5,0-8.6-3.6-8.6-9.6c0-5.2,3.6-9.5,8.6-9.5
			c5.8,0,9.4,4.3,9.4,9.5C1190.3,284.3,1186.7,288,1180.9,288z M525.7-273.2c13,0,29.5-0.7,29.5-17.9c0-15.6-14.7-17.8-27-17.8
			h-16.1v35.7H525.7L525.7-273.2z M489.5-328.4h42.6c24.7,0,46.8,8.7,46.8,36.8c0,31.9-23.8,37.6-50.7,37.6h-16.1v52.5h-22.7
			L489.5-328.4L489.5-328.4z M635.8-221.8c28.3,0,51.4-12.2,51.4-43c0-30.8-20-43-47.7-43h-20.7v86H635.8z M596.3-328.4h50.1
			c33.4,0,64.5,20.5,64.5,63.5c0,43.5-36.7,63.5-67.2,63.5h-47.4L596.3-328.4L596.3-328.4z M732.1-328.4H814v20.5h-59.4v33.3h56
			v20.5h-56v52.7h-22.5V-328.4z"/>
	</g>
	<g id="KP_x5F_Piggybank_x5F_icon" display="none">
		<g display="inline">
			<path fill="#020202" d="M784.4-245c0-12.7,10.6-20.6,22.3-22.6v45.4C794.9-227.4,784.4-229.8,784.4-245 M820.2-188.4
				c11.7,4,25.6,8.2,25.6,22.8c0,14.7-11.9,22.8-25.6,25.5V-188.4z M771.6-158.3l-22.6,23c15.2,15.9,36.2,22.4,57.8,22.1v17.6h13.4
				v-17.9c31.5-3.2,56.9-21.6,56.9-54.3c0-34-28-42.9-55.9-50.4l-1-0.3v-49.6c11.4,0,22.6,5.2,30.3,13.4l20.6-23
				c-12.7-11.2-31.8-17.1-48.6-17.1h-2.3v-16.4h-13.4v16.6c-27.8,2.8-53.5,21.6-53.5,51.2c0,32.8,24.5,43.2,52.3,50.9l1.2,0.3v52.4
				C793.1-141.2,779.5-147.2,771.6-158.3"/>
			<path fill="#020202" d="M1251.7,77c-1,0.4-3.5,1.2-8,0.8c-4.6-7.5-7.5-16.2-8.7-26c-1.1-10.2,0.7-19.1,4.9-23.9
				c2.8-3.1,6.9-4.7,12.4-4.7c13,0,20,4.3,20,26.5C1272.3,55.3,1270.3,69.3,1251.7,77 M1010.5-42.2c-0.4-0.3-30.8-18.3-82.7-31.3
				c16.6-14.9,30.3-33,40.2-53.3c35,12,55.4,24.2,57,25.2L1010.5-42.2z M617.5-41.9l-13.8-59.9c1.6-1,21-12,55.1-23.2
				C669-104.7,683-86.6,700-71.8C647.8-58.9,618-42.2,617.5-41.9 M813-340.2c76.5,0,138.6,62.1,138.6,138.5
				c0,53.7-30.7,100.2-75.5,123.3c-20.1-2.5-40.9-4.3-62.6-4.3c-21.9,0-43,1.7-63.4,4.4c-44.8-23-75.7-69.6-75.7-123.4
				C674.4-278,736.6-340.2,813-340.2 M1305.4,108c-16,0-29.9-3.6-41.1-10.1c30-14.1,32.3-40.4,32.3-48.3c0-42-24.1-50.8-44.3-50.8
				c-12.5,0-23.1,4.4-30.5,12.8c-9.1,10.1-13,25.3-11,42.8c0.6,5.1,1.5,9.8,2.8,14.4c-4.9-2.2-10.6-5.1-16.8-8.5
				c-9.7-100.7-94.6-186.4-214.8-228.7c2.1-10.8,3.3-22,3.3-33.4c0-95-77.4-172.3-172.4-172.3s-172.3,77.3-172.3,172.3
				c0,11.6,1.2,22.9,3.4,33.8c-33,11.6-63.5,26.4-90.4,43.9l-96.4-68.5L484-63.3c-8.2,9.6-15.7,19.6-22.2,30
				c-1.1,0.2-2.4,1.2-4.3,4.2C440.7-2.6,415.8,4.8,398.8,6.5h-18.6c0,0-20.8,28.2-20.8,92.4c0,69.6,38.6,104.7,38.6,104.7h71.4
				c19.8,28,45.8,53.2,77.1,74.7v102.3h82.6l23.4-50.7c48.9,16.1,103.1,25.4,160.5,25.4c57.4,0,111.6-9.2,160.5-25.4l23.4,50.7h82.6
				V278.2c70.3-48.3,114.9-115.4,118.1-190.1c11.9,5.7,22.5,9.8,32,12c16.8,20.4,43.4,32.2,75.8,32.2c6.7,0,12.1-5.4,12.1-12.1
				C1317.6,113.4,1312.1,108,1305.4,108"/>
		</g>
	</g>
	<g id="KP_x5F_Preferences_x5F_icon" display="none">
		<g display="inline">
			<g>
				<path fill="#020202" d="M1166.5,390.8c25.5-14.6,45.8-35.8,59.4-60.9l74.9,5.1l15.1-88.4l-72.9-19.7c-5.3-30-18.9-57.8-39.7-80
					l28-69.8l-79.2-41.5l-41.4,63.1c-30.8-4.3-61.2,0.5-88,13.2l-57.9-48.6l-64,62.8l46.8,58.2c-4.4,8.9-8.1,18.3-10.8,28.3
					c-5.5,20.2-6.6,40.8-4.1,60.6l-63.4,39.6l39.8,80.3l69.9-26.5c14.1,13.7,30.9,25.1,50.1,33c5.9,2.4,12,4.5,18.1,6.1
					c3.9,1,7.6,1.2,11.4,2l18.3,73l88.6-13l-3.6-75C1163.5,391.9,1165,391.5,1166.5,390.8L1166.5,390.8z M1011.3,232.8
					c11.6-42.6,55.8-67.7,98.5-56.4c3,0.9,6.1,1.9,9.1,3c37.6,15.4,57.8,56.4,47.1,95.4c-5.6,20.8-19,38-37.7,48.7
					c-18.5,10.5-39.9,13.2-60.7,7.6C1024.3,319.3,999.7,275.1,1011.3,232.8L1011.3,232.8z"/>
			</g>
			<g>
				<path fill="#020202" d="M891.6,2.4l89.6,26.4l38.6-94.8l-82.5-43.5c3.7-25.1,3.6-50.5-0.5-75.5l82.1-44.6l-39.7-94.2L890-296.4
					c-15.2-20.3-33.2-38.2-53.7-53.1l26.6-89.5l-94.8-38.7L724.5-395c-25.1-3.8-50.3-3.6-75.4,0.3l-44.5-82L510-436.9l27.7,89.1
					c-20.3,15.2-38.1,33.2-53,53.6l-89.6-26.5l-38.7,94.8l82.6,43.6c-3.6,25-3.5,50.3,0.5,75.3l-82.2,44.6L397,32l89.2-27.5
					c15.2,20.3,33.1,38.1,53.6,53L513.2,147l95,38.8l43.5-82.6c25.1,3.7,50.5,3.6,75.4-0.5l44.5,82.1l94.4-39.7l-27.5-89.2
					C858.9,40.9,876.7,22.8,891.6,2.4L891.6,2.4z M635.3-16.4c-34.5-14.2-61.5-40.9-76.1-75.4c-14.5-34.3-14.7-72.4-0.6-106.9
					c14.1-34.6,40.8-61.6,75.4-76.1c34.4-14.4,72.4-14.6,106.9-0.5s61.6,40.8,76,75.2c14.6,34.5,14.7,72.4,0.7,106.9
					c-14.2,34.6-40.8,61.6-75.2,76.1C707.9-2.5,669.9-2.4,635.3-16.4L635.3-16.4z"/>
			</g>
		</g>
	</g>
	<g id="KP_x5F_Print_x5F_icon" display="none">
		<g display="inline">
			<path fill="#1C1B1A" d="M1287.2-221.9h-176.6V-446c0-17-13.7-30.6-30.6-30.6H595.7c-16.9,0-30.6,13.6-30.6,30.6v224.1H388.5
				c-16.9,0-30.6,13.7-30.6,30.7v389.1c0,16.9,13.7,30.6,30.6,30.6h176.6v224.1c0,16.9,13.6,30.7,30.6,30.7H1080
				c16.9,0,30.6-13.8,30.6-30.7V228.5h176.6c16.9,0,30.5-13.7,30.5-30.6v-389.1C1317.7-208.2,1304.1-221.9,1287.2-221.9z
				 M626.3-415.4h423.1v327.9H626.3V-415.4z M464-92.3c-21.7,0-39.1-17.4-39.1-39s17.4-39,39.1-39c21.4,0,39,17.4,39,39
				S485.4-92.3,464-92.3z M1049.4,422H626.3V94h423.1V422z"/>
			<path fill="#1C1B1A" d="M686.4,172.3h302.9c6.9,0,12.6-5.7,12.6-12.5c0-6.9-5.7-12.5-12.6-12.5H686.4c-6.9,0-12.5,5.6-12.5,12.5
				C673.9,166.6,679.5,172.3,686.4,172.3z"/>
			<path fill="#1C1B1A" d="M686.4,239.9h302.9c6.9,0,12.6-5.6,12.6-12.5s-5.7-12.5-12.6-12.5H686.4c-6.9,0-12.5,5.6-12.5,12.5
				S679.5,239.9,686.4,239.9z"/>
			<path fill="#1C1B1A" d="M686.4,375.2h302.9c6.9,0,12.6-5.6,12.6-12.5s-5.7-12.5-12.6-12.5H686.4c-6.9,0-12.5,5.6-12.5,12.5
				C673.9,369.6,679.5,375.2,686.4,375.2z"/>
			<path fill="#1C1B1A" d="M686.4,307.5h302.9c6.9,0,12.6-5.5,12.6-12.5c0-6.9-5.7-12.5-12.6-12.5H686.4c-6.9,0-12.5,5.6-12.5,12.5
				C673.9,302,679.5,307.5,686.4,307.5z"/>
		</g>
	</g>
	<g id="KP_x5F_Questions_x5F_icon" display="none">
		<g display="inline">
			<path fill="#1C1B1A" d="M708.9,135.6c0-56.4,14.1-92.9,49.3-126.7C862.3-91,938.3-137.5,938.3-202.2c0-61.9-43.6-98.5-101.3-98.5
				c-87.2,0-133.6,56.4-139.3,125.2L481-189.6C500.5-387.9,637-495,832.7-495c171.7,0,316.6,95.7,316.6,277.3
				c0,106.9-40.9,171.7-174.5,277.2c-43.6,33.8-54.9,66.1-54.9,97.2v40.7h-211V135.6L708.9,135.6z M814.4,243.6
				c71.8,0,129.5,57.7,129.5,129.6c0,71.7-57.7,129.4-129.5,129.4s-129.5-57.7-129.5-129.4C685,301.4,742.6,243.6,814.4,243.6
				L814.4,243.6z"/>
		</g>
	</g>
	<g id="KP_x5F_Rx_x5F_icon" display="none">
		<g display="inline">
			<path fill="#1C1B1A" d="M1060.9,222.4l170.8-244.2h-180.5l-89.7,142.6l-127.1-176C940.7-75.6,997-158.3,997-264.4
				c0.1-178.3-131.8-232.3-288.5-232.3H412.4v765.1H581V-37.4h76.8l194.6,259.7l-207.5,281H834l123.2-174.9l114.6,174.9h191.4
				L1060.9,222.4z M581-354.1h110.2c61.6,0,130.8,11.9,130.8,88.6c0,83.2-80,85.5-141.6,85.5H581V-354.1z"/>
		</g>
	</g>
	<g id="KP_x5F_Secured_x5F_icon" display="none">
		<g display="inline">
			<path fill="#1C1B1A" d="M1112.6-52.3h-14.9v-196.5c0-136.4-110.9-247.3-247.3-247.3h-24.9C688.9-496.1,578-385.2,578-248.8v196.5
				h-15c-35.3,0-64.3,28.9-64.3,64.4v426.2c0,35.4,29,64.3,64.3,64.3h549.6c35.4,0,64.3-29,64.3-64.3V12.2
				C1176.9-23.3,1148-52.3,1112.6-52.3z M667.4-248.8c0-87.1,70.9-157.9,158-157.9h24.9c87.2,0,157.8,70.8,157.8,157.9v196.5H667.4
				V-248.8z M752.9,361.1l45.4-127.9c-26.4-14.2-44.5-42.1-44.5-74.1c0-46.4,37.6-84,84.1-84c46.4,0,84.1,37.6,84.1,84
				c0,32-18.1,59.9-44.4,74.1l45.3,127.9H752.9z"/>
		</g>
	</g>
	<g id="KP_x5F_Star_x5F_icon" display="none">
		<path display="inline" fill="#1C1B1A" d="M1315.6-108c-4.1-12.3-15.5-20.6-28.3-20.6H965.5l-99.4-306
			c-8.1-24.6-48.8-24.6-56.7,0.1l-99.3,305.8H388.3c-13.1,0-24.4,8.3-28.3,20.6c-4.1,12.4,0.3,25.9,10.6,33.4L631,114.5l-99.3,306
			c-4.1,12.2,0.3,25.7,10.7,33.4c10.4,7.5,24.8,7.5,35.1-0.1l260.2-189.1L1098,453.8c5.2,3.8,11.4,5.8,17.5,5.8
			c6.2,0,12.3-2,17.5-5.6c10.4-7.7,14.9-21.2,10.9-33.5l-99.4-306l260.4-189.2C1315.2-82.2,1319.6-95.7,1315.6-108z"/>
	</g>
	<g id="KP_x5F_Stethoscope_x5F_icon" display="none">
		<g display="inline">
			<g>
				<path fill="#1C1B1A" d="M783.3,474.7c-126.6,0-213.8-69.2-259.5-205.7c-6.9,1-14,1.6-21.2,1.6c-79,0-143.3-64.2-143.3-143.1
					c0.1-79,64.3-143.2,143.3-143.2c78.9,0,143.1,64.2,143.1,143.2c0,45.3-21.2,85.8-54.1,112C637.7,384,722.5,401.1,783.3,401.1
					c63.7,0,110.4-15.6,138.9-46.4c19.5-20.9,27.5-46.1,30.6-64.9C816,248.4,666.7,1.8,666.7-202.1c0-109.8,36.2-150.8,128.9-198.9
					c0.7-13.1,8.5-25.1,20.9-31l67.8-32.4c9.9-4.8,21.5-4.8,31.5-0.1c10,4.7,17.4,13.6,20.1,24.3l17.4,69c2.8,10.7,0.5,22.1-6,30.9
					c-6.6,8.9-16.7,14.3-27.8,14.9l-75,3.9c-9.3,0.3-18.7-2.7-25.7-8.6c-70,37.3-78.5,59.5-78.5,128.1
					c0,199.5,163.8,424.3,251,424.3c87.3,0,251-224.8,251-424.3c0-68.5-8.4-90.7-78.5-128.1c-7,5.8-16.5,9-25.6,8.6l-75.1-3.9
					c-11-0.6-21.2-6.1-27.8-14.9c-6.5-8.9-8.7-20.3-6.1-30.9l17.5-69c2.7-10.7,10.1-19.6,20.1-24.3c10-4.6,21.6-4.6,31.5,0.1
					l67.8,32.4c12.4,5.9,20.2,18,20.9,31.2c92.6,48.1,128.7,89.1,128.7,198.8c0,205.4-151.4,454.2-289,492.8
					c-3.5,30.3-15,74.9-49.9,113.2C934.2,450.9,868.9,474.7,783.3,474.7z M502.6,57.9c-38.4,0-69.6,31.2-69.6,69.5
					s31.2,69.5,69.6,69.5c38.2,0,69.4-31.2,69.4-69.5C572.1,89.2,540.9,57.9,502.6,57.9z"/>
			</g>
		</g>
	</g>
	<g id="KP_x5F_Time_x5F_icon" display="none">
		<g display="inline">
			<g>
				<g>
					<path fill="#1C1B1A" d="M1090,503.4H585.4c-18.2,0-33-14.9-33-33.1V247.2c0-127,70.8-203.7,139.2-243.9
						c-68.4-40.2-139.2-117-139.2-244v-223c0-18.2,14.8-33.1,33-33.1H1090c18.3,0,33.1,14.8,33.1,33.1v223
						c0,127-70.9,203.8-139.2,244c68.4,40.2,139.2,116.9,139.2,243.9v223.1C1123.2,488.5,1108.3,503.4,1090,503.4z M618.5,437.3
						H1057V247.2c0-173.1-160.2-210.1-167-211.6c-15.1-3.3-26.1-16.7-26.1-32.3c0-15.5,11-29,26.1-32.3c6.7-1.5,167-39.8,167-211.7
						v-190H618.5v190c0,173.1,160.2,210.2,167,211.7c15.3,3.3,26,16.8,26,32.3c0,15.6-10.8,29-26,32.3c-6.7,1.5-167,39.8-167,211.6
						V437.3z"/>
				</g>
				<g>
					<path fill="#1C1B1A" d="M837.8,99.6c0,0-170.5,130.6-170.5,186.8v102.1h340.9h0.1V286.4C1008.3,230.1,837.8,99.6,837.8,99.6"/>
				</g>
				<g>
					<path fill="#1C1B1A" d="M685.9-161.2c25.7,52.2,83.8,88.7,151.8,88.7c67.9,0,126.1-36.5,151.8-88.7H685.9z"/>
				</g>
			</g>
		</g>
	</g>
	<g id="KP_x5F_Touch_x5F_icon" display="none">
		<g display="inline">
			<path fill="#1C1B1A" d="M1197.6-26.8v231.3c0,215.7-133.9,298.8-299,298.8c-95.7,0-179.4-45.4-233.3-115.3
				C598,313.8,482.2-14,482.2-14c-13.4-38.5,6.2-80.6,43.6-93.9c7.7-2.6,15.7-4,23.4-4c30.1,0,58.7,19.2,69.4,49.7l61.9,160.1
				v-529.3c0-35.8,29.3-65.3,65.4-65.3c35.9,0,65.1,29.5,65.1,65.3v278.9c0-36,29.3-65.3,65.1-65.3s65.2,29.3,65.2,65.3v46
				c1.1-34.7,29.7-62.9,64.7-62.9c35.8,0,65.2,29.4,65.2,65.3v53.4c8.5-26.1,32.2-45.3,61.1-45.3c35.8,0,65.1,29.3,65.1,65.2
				L1197.6-26.8L1197.6-26.8z"/>
		</g>
	</g>
	<g id="KP_x5F_WiFi_x5F_icon" display="none">
		<g display="inline">
			<path fill="#1C1B1A" d="M837.7,216.3c-31.1,0-61.1,11.1-84.6,31.1c-1.3,1.1-2.2,2.8-2.2,4.7c-0.1,1.8,0.6,3.6,1.9,4.8l80.4,80.4
				c1.2,1.3,2.9,1.9,4.6,1.9c1.6,0,3.3-0.6,4.5-1.9l80.4-80.4c1.3-1.2,2-3,1.9-4.8c0-1.8-0.9-3.5-2.2-4.7
				C898.9,227.5,868.9,216.3,837.7,216.3z"/>
			<path fill="#1C1B1A" d="M1311.3-140.9C1184-264.6,1015.8-332.6,837.7-332.6s-346.2,68.1-473.5,191.7c-1.2,1.1-1.9,2.8-1.9,4.5
				c-0.1,1.8,0.6,3.5,1.8,4.7l57,57c2.4,2.5,6.5,2.5,9,0.1C539.7-180.6,684.5-239,837.6-239c153.2,0,298,58.4,407.6,164.4
				c1.2,1.2,2.8,1.8,4.4,1.8c1.6,0,3.3-0.6,4.6-1.9l57-57c1.3-1.2,2-2.9,1.9-4.7C1313.2-138.1,1312.5-139.7,1311.3-140.9z"/>
			<path fill="#1C1B1A" d="M837.7,33.3c-80.2,0-156.3,30.1-214.4,84.7c-1.3,1.2-2.1,2.9-2.1,4.5c0,1.8,0.6,3.5,1.9,4.7l57,56.9
				c2.4,2.5,6.4,2.5,8.9,0.2c40.6-37.1,93.3-57.6,148.7-57.6c55.3,0,108.2,20.5,148.7,57.6c1.2,1.2,2.8,1.7,4.3,1.7
				c1.7,0,3.4-0.6,4.5-1.9l57.1-56.9c1.3-1.2,1.9-2.9,1.9-4.7c0-1.7-0.7-3.4-2-4.5C994,63.4,917.9,33.3,837.7,33.3z"/>
			<path fill="#1C1B1A" d="M837.7-149.7c-129.1,0-251.3,49.1-344,138.1c-1.2,1.2-2,2.9-2,4.7c0,1.7,0.6,3.3,1.9,4.5l57,57
				c1.2,1.2,2.9,1.9,4.5,1.9c1.6,0,3.2-0.6,4.5-1.8c75.1-71.6,173.8-111,278.1-111c104.2,0,203,39.5,278.1,111
				c2.6,2.5,6.5,2.3,9-0.1l57-57c1.2-1.2,1.9-2.8,1.9-4.5c0-1.8-0.7-3.5-2-4.7C1089.1-100.6,966.9-149.7,837.7-149.7z"/>
		</g>
	</g>
	<g id="KP_x5F_Arrow_x5F_icon" display="none">
		<g display="inline">
			<path fill="#020202" d="M845.6-467.6c-7.8,3.2-13,10.8-13,19.2v224.7H386.1c-11.5,0-20.8,9.3-20.8,20.7v412.5
				c0,11.4,9.3,20.7,20.8,20.7h446.5v224.7c0,8.5,5.2,16.1,13,19.2c7.8,3.3,16.8,1.3,22.8-4.8l436.1-451.6c4-4.1,5.8-9.3,5.8-14.5
				c0-5.1-1.8-10.3-5.8-14.4L868.4-462.8C862.4-468.9,853.4-470.8,845.6-467.6L845.6-467.6z"/>
		</g>
	</g>
	<g id="KP_x5F_Graph_x5F_icon" display="none">
		<g display="inline">
			<path fill="#1C1B1A" d="M636.6,442.3v-852.2c0-14.2-11.6-25.7-25.8-25.7H384.2c-14.1-0.1-25.7,11.5-25.7,25.7v852.2H636.6z"/>
			<path fill="#1C1B1A" d="M976.8,442.3V42c0-14.2-11.6-25.8-25.7-25.8H724.5c-14.1,0-25.7,11.6-25.7,25.8v400.3H976.8z"/>
			<path fill="#1C1B1A" d="M1317,442.3V-184c0-14.1-11.6-25.7-25.7-25.7h-226.6c-14.1,0-25.7,11.5-25.7,25.7v626.3H1317L1317,442.3z
				"/>
		</g>
	</g>
	<g id="KP_x5F_Play_x5F_Video_x5F_icon" display="none">
		<g display="inline">
			<path fill="#1C1B1A" d="M837.8,255.5c-139.2,0-252.1-112.9-252.1-252.1c0-139.3,112.9-252.2,252.1-252.2
				c139.3,0,252.1,112.9,252.1,252.2C1089.9,142.6,977.1,255.5,837.8,255.5 M388-342.7c-16.9,0-30.6,13.8-30.6,30.6v630.7
				c0,16.9,13.8,30.7,30.6,30.7h899.5c16.9,0,30.6-13.8,30.6-30.6v-630.8c0-16.9-13.8-30.6-30.6-30.6H388z"/>
			<path fill="#1C1B1A" d="M741.1,134.6c0,13.5,9.6,19.2,21.4,12.4L989.7,15.8c11.7-6.9,11.7-18,0-24.8L762.5-140.3
				c-11.8-6.8-21.4-1.1-21.4,12.4V134.6L741.1,134.6z"/>
		</g>
	</g>
	<g id="KP_x5F_Specialty_x5F_Care_x5F_icon" display="none">
		<g display="inline">
			<path fill="#1C1B1A" d="M1306.9-186.6l-1.7-2.6c-10.8-16.2-29-25.8-48.7-25.8c-11.5,0-22.7,3.4-32.3,9.7l-250,167l-4.7-4.3
				c-34-31-75.7-52.1-120.7-61c-16.6-3.3-33.6-5-50.3-5c-49.9,0-98.5,14.8-140.4,42.7c-56.5,37.7-94.9,95.1-108.2,161.7
				c-13.3,66.5,0.2,134.2,37.9,190.7c37.6,56.4,94.9,94.8,161.5,108.1c66,13.3,134.7-0.3,190.7-37.7
				c93.1-62.1,134.2-180.6,99.9-288.2l-1.9-5.9l252.8-168.5C1317.4-123.5,1324.7-159.8,1306.9-186.6z M912.1,315
				c-33.7,22.4-72.6,34.2-112.7,34.2c-13.4,0-27-1.3-40.3-4c-53.4-10.7-99.3-41.4-129.4-86.6c-30.2-45.3-41-99.6-30.3-152.9
				C610,52.3,640.8,6.3,686-23.9c44.9-29.9,99.9-40.9,152.9-30.3c53.3,10.7,99.3,41.4,129.5,86.6
				C1030.7,125.9,1005.4,252.6,912.1,315z"/>
			<path fill="#1C1B1A" d="M959.6,362.8h84.7V257.5C1025.9,298.7,997,335.1,959.6,362.8z"/>
			<path fill="#1C1B1A" d="M574.1,295.6c-40.1-60.2-54.4-132.2-40.3-203C546.7,28.1,581.9-28.1,633.4-68l-87.5-0.1
				c-103.6,0-187,84.6-187,190v240.8h279.5C613.6,344.5,591.7,322,574.1,295.6z"/>
			<path fill="#1C1B1A" d="M702.5-100.2c80.8,0,146.4-65.6,146.4-146.4c0-80.9-65.5-146.4-146.4-146.4s-146.4,65.5-146.4,146.4
				C556.2-165.8,621.7-100.2,702.5-100.2z"/>
			<path fill="#1C1B1A" d="M835.7-38.2c-12.2-2.4-24.7-3.7-37.1-3.7C761.8-41.9,726-31,695-10.4c-41.6,27.8-69.9,70.1-79.8,119.2
				c-9.8,49,0.1,99,27.9,140.7c27.7,41.5,70,69.8,119.1,79.6c48.8,9.7,99.4-0.3,140.7-27.8c85.9-57.4,109.2-173.9,51.8-259.9
				C927.1-0.1,884.7-28.3,835.7-38.2z M799.8,271.8c0,0-127.3-67.5-127.3-163.6c0-37.4,30.3-67.8,67.8-67.8
				c25.6,0,48,14.2,59.5,35.1c11.5-20.9,33.8-35.1,59.4-35.1c37.5,0,67.9,30.3,67.9,67.8C927,204.3,799.8,271.8,799.8,271.8z"/>
		</g>
	</g>
	<g id="KP_x5F_Modern_x5F_Facilities_x5F_icon" display="none">
		<path display="inline" fill="#1C1B1A" d="M550-109.8h-92.6v-92.6H550V-109.8z M697.2-202.4h-92.6v92.6h92.6V-202.4z M550-7.7
			h-92.6v92.6H550V-7.7z M697.2-7.7h-92.6v92.6h92.6V-7.7z M697.2,186.9h-92.6v92.6h92.6V186.9z M1277.3,146.7l-240.1-87.8
			l-240.1,87.8v208.2h59.2V219.7c0-25.6,20.7-46.3,46.3-46.3c25.5,0,46.3,20.7,46.3,46.3v135.2h328.4L1277.3,146.7L1277.3,146.7z
			 M398.2,354.9h59.2V219.7c0-25.6,20.7-46.3,46.3-46.3c25.6,0,46.3,20.7,46.3,46.3v135.2h206.4V132.5v-393L577.3-346l-179.1,85.4
			V354.9z M1304.6,113.4c8,3,13.4,10.6,13.4,19.1v242.7c0,11.2-9.1,20.3-20.3,20.3H377.9c-11.2,0-20.3-9.1-20.3-20.3v-648.6
			c0-7.8,4.5-14.9,11.6-18.3l199.4-95.2c5.5-2.6,12-2.6,17.5,0l199.4,95.2c7.1,3.4,11.6,10.5,11.6,18.3v376.8l233.1-85.2
			c4.6-1.6,9.5-1.6,14,0L1304.6,113.4 M1003.5,279.6h92.5V187h-92.6L1003.5,279.6L1003.5,279.6z M1243.1,187h-92.5v92.6h92.5V187z
			 M1001.4-52c-0.6,0.5-0.9,1.2-1,2c0,0.7,0.2,1.5,0.8,2l34.1,34c0.5,0.5,1.2,0.8,1.9,0.8c0.7,0,1.4-0.3,2-0.8l34-34
			c0.6-0.5,0.8-1.3,0.8-2c-0.1-0.8-0.4-1.5-1-2c-9.9-8.5-22.6-13.1-35.8-13.1C1024.1-65.1,1011.4-60.4,1001.4-52 M860.9-188.3
			c1,1,2.7,1.1,3.8,0.1c46.4-44.9,107.7-69.6,172.4-69.6c64.8,0,126.1,24.7,172.5,69.6c0.5,0.5,1.2,0.8,1.9,0.8c0.7,0,1.5-0.3,2-0.8
			l24.1-24.1c0.6-0.5,0.8-1.2,0.8-2c0-0.7-0.3-1.4-0.8-2c-53.9-52.3-125-81.1-200.4-81.1c-75.3,0-146.5,28.8-200.4,81.1
			c-0.5,0.5-0.8,1.2-0.8,2c0,0.7,0.3,1.4,0.8,2L860.9-188.3z M1101.9-77.9c0.7,0,1.4-0.3,1.9-0.8l24.1-24.1c0.6-0.5,0.9-1.2,0.8-2
			c0-0.8-0.3-1.5-0.9-1.9c-24.6-23.1-56.8-35.8-90.8-35.8c-33.9,0-66.1,12.7-90.7,35.8c-0.5,0.5-0.9,1.2-0.9,1.9
			c0,0.8,0.3,1.5,0.8,2l24.2,24.1c1,1,2.7,1.1,3.8,0.1c17.2-15.7,39.5-24.4,62.9-24.4s45.8,8.7,62.9,24.4
			C1100.7-78.1,1101.3-77.9,1101.9-77.9 M1158.7-133.5l24.2-24.1c0.5-0.5,0.8-1.2,0.8-2s-0.3-1.5-0.8-1.9
			c-39.2-37.7-90.9-58.5-145.6-58.5c-54.6,0-106.3,20.8-145.5,58.5c-0.5,0.5-0.8,1.2-0.8,1.9c0,0.7,0.2,1.5,0.8,2l24.1,24.1
			c0.5,0.6,1.3,0.8,2,0.8s1.4-0.2,1.9-0.8c31.7-30.3,73.6-47,117.6-47c44.1,0,85.9,16.7,117.7,47
			C1156-132.4,1157.6-132.5,1158.7-133.5"/>
	</g>
	<g id="KP_x5F_Doctor_x5F_Female_x5F_icon" display="none">
		<g display="inline">
			<path fill="#1C1B1A" d="M1106.8,35.9l-57-223.6c-11-33.2-51.8-91.7-120.9-99.5c-0.1,54.7-38.7,121.1-77.5,134.4
				c-1.4,8.6-5,20-14,29.8c-12.3,13.5-30.8,20.3-54.8,20.3c-34.8,0-59.1-18.4-72.2-54.6c-0.9,0-1.8,0.1-2.7,0.1
				c-23.4,0-42.5-19.1-42.5-42.5s19.1-42.5,42.5-42.5c23.4,0,42.5,19,42.5,42.5c0,12-5,23.2-13.8,31.3
				c11.4,33.2,30.6,37.5,46.2,37.5c15.7,0,27.1-3.7,33.9-11.1c3.4-3.6,5.3-7.9,6.3-11.6c-38-14.9-75.6-80.6-75.6-133.9
				c-70.5,7.1-111.5,65.7-121.2,99.7L569,36.1c-20.1,68.2,67.5,94.5,88.2,30.7l47.3-176.5h23.2L644,230.9h69.7v214.2
				c0,78.1,113.8,75.9,113.8,0V230.9h19.6v214.2c0,75.9,114.4,78.1,114.4,0V230.9h69.1l-84.5-340.6h25.1l47.4,175.6
				C1039.2,132.4,1126.1,104.2,1106.8,35.9z"/>
			<path fill="#1C1B1A" d="M775.3-288.1c0,0.2,0,0.4,0,0.6c0,53.1,43.5,108.9,62.8,108.9c19.2,0,62.7-55.8,62.7-108.9
				c0-0.2,0-0.4,0-0.6h-66.2H775.3z"/>
			<path fill="#1C1B1A" d="M693.3-199.6c0,7.9,6.4,14.3,14.3,14.3c7.9,0,14.3-6.4,14.3-14.3c0-7.8-6.4-14.3-14.3-14.3
				C699.6-213.8,693.3-207.4,693.3-199.6z"/>
			<path fill="#1C1B1A" d="M837.8-300.5c54.1,0,97.8-43.8,97.8-97.8s-43.7-97.9-97.8-97.9s-97.9,43.8-97.9,97.9
				C739.9-344.3,783.7-300.5,837.8-300.5z"/>
		</g>
	</g>
	<g id="KP_x5F_Doctor_x5F_Male_x5F_icon" display="none">
		<g display="inline">
			<path fill="#1C1B1A" d="M832.3-171.4c20.1,0,65.7-58.4,66.1-114.2l-132.5-0.1C766.2-229.8,812-171.4,832.3-171.4z"/>
			<path fill="#1C1B1A" d="M679.8-193.8c0,8.5,6.9,15.3,15.4,15.3s15.3-6.9,15.3-15.3c0-8.5-6.9-15.4-15.3-15.4
				C686.7-209.2,679.8-202.4,679.8-193.8z"/>
			<path fill="#1C1B1A" d="M939.9-285.5l-12.7-0.1c-0.3,57.4-40.8,126.8-81.4,140.5c-1.4,9-5.1,20.9-14.7,31.3
				c-12.9,14.1-32.2,21.3-57.3,21.3c-36.4,0-61.8-19.3-75.6-57.3c-1,0.1-2,0.1-3.1,0.1c-24.4,0-44.3-19.8-44.3-44.2
				c0-24.4,19.9-44.3,44.3-44.3c24.4,0,44.2,19.9,44.2,44.3c0,12.6-5.3,24.3-14.5,32.7c12.1,35.3,32.5,39.9,49,39.9
				c16.6,0,28.7-3.9,35.9-11.7c3.7-4,5.7-8.7,6.8-12.7c-39.8-15.4-79.1-84-79.5-139.9h-3c-69,0-124.5,56.2-124.5,126.5V71.7
				c0,58.2,85.1,58.2,85.1,0v-173.4h20.2v546.4c0,77.7,113.4,75.4,113.4,0V135.1h19.5v309.6c0,75.4,114,77.7,114,0v-546.4h19.7V71.6
				c0,58.7,84.7,58.7,84.5,0v-229C1065.9-222.1,1015.7-285.5,939.9-285.5z"/>
			<path fill="#1C1B1A" d="M837.8-301c53.7,0,97.2-43.5,97.2-97.2s-43.5-97.2-97.2-97.2s-97.3,43.6-97.3,97.2
				C740.5-344.5,784.1-301,837.8-301z"/>
		</g>
	</g>
	<g id="KP_x5F_Chat_x5F_icon" display="none">
		<g display="inline">
			<path fill="#1C1B1A" d="M1081.4,410.1c-14.8,0-29.2-6.9-42.7-20.4L919.9,270.9c-12.9-12.7-42-24.9-60.1-24.9H440.2
				c-44.7,0-81-36.3-81-81v-487.6c0-44.6,36.4-80.9,81-80.9h795.2c44.7,0,81,36.3,81,80.9V165c0,44.7-36.3,81-81,81h-90.8
				c-8.7,0-16.1,7.3-16.1,16.1v90.4C1128.5,392.2,1104.8,410.1,1081.4,410.1z M440.2-338.7c-8.8,0-16.2,7.3-16.2,16.1V165
				c0,8.7,7.4,16.2,16.2,16.2h419.6c35.2,0,80.8,18.9,105.9,43.9l97.8,97.6l0.2-60.6c0-44.7,36.3-81,80.9-81h90.8
				c8.8,0,16.2-7.4,16.2-16.2v-487.5c0-8.8-7.4-16.1-16.2-16.1H440.2L440.2-338.7z"/>
		</g>
	</g>
	<g id="KP_x5F_Check_x5F_Box_x5F_icon" display="none">
		<path display="inline" fill="#1C1B1A" d="M1317.4-363.9c0-43.9-35.7-79.5-79.6-79.5c-24.9,0-47.2,11.4-61.8,29.5l-0.1-0.1
			l-100.8,114.1H389.5c-17.3,0-31.3,14.1-31.3,31.3v687.4c0,17.2,14,31.3,31.3,31.3h687.4c17.3,0,31.2-14,31.2-31.3V-97.1
			L1295-308.4l-0.1-0.1C1308.7-322.9,1317.4-342.4,1317.4-363.9z M1045.7,387.5h-625v-624.9h599l-267,301L605.3-76L495.8,39.7
			l266.8,252.6l283.1-319V387.5L1045.7,387.5z"/>
	</g>
	<g id="KP_x5F_Chevron_x5F_Arrow_x5F_icon" display="none">
		<path display="inline" fill="#1C1B1A" d="M653.9,501.5L536.7,381.8L905.1,1.6L536.9-374.6l116.6-120.2L1138.9,1.1L653.9,501.5z"/>
	</g>
	<g id="KP_x5F_Arrow_x5F_Up_x5F_icon" display="none">
		<path display="inline" fill="#1C1B1A" d="M1317.3,201.9l-65.1,69.5L836.2-133L423.6,271.5l-65.4-69.1l477.4-467.3L1317.3,201.9z"
			/>
	</g>
	<g id="KP_x5F_Arrow_x5F_Down_x5F_icon" display="none">
		<path display="inline" fill="#1C1B1A" d="M358.2-195.3l65.1-69.6l416,404.4l412.5-404.4l65.4,69.1L840,271.5L358.2-195.3z"/>
	</g>
	<g id="KP_x5F_Paperclip_x5F_icon" display="none">
		<path display="inline" fill="#1C1B1A" d="M714.9,501.7c-79.7,0-159.3-31-220-92.9c-121.2-124-121.2-325.6,0-449.5l376.2-384.4
			c89.3-91.3,234.7-91.3,324.1,0c43.3,44.2,67.1,103,67.1,165.6s-23.8,121.4-67.1,165.6L834.4,274.7c-57.4,58.7-150.9,58.7-208.4,0
			c-57.4-58.7-57.4-154.2,0-212.9l314.5-321.4l46.3,47.3L672.3,109.1c-31.9,32.6-31.9,85.7,0,118.3c31.9,32.6,83.9,32.6,115.8,0
			l360.7-368.7c30.9-31.6,47.9-73.6,47.9-118.3c0-44.6-17-86.7-47.9-118.3c-63.8-65.2-167.7-65.2-231.5,0L541.2,6.6
			c-95.7,97.8-95.7,257,0,354.8c95.8,97.8,251.5,97.9,347.3,0l331.8-339.1l46.3,47.3L934.7,408.8
			C874.1,470.7,794.5,501.7,714.9,501.7z"/>
	</g>
	<g id="KP_x5F_Checkmark_x5F_icon" display="none">
		<path display="inline" d="M727.8,482.7c-28.7,0-56-12.8-74.3-35.1L380.1,114.3C346.5,73.4,352.6,13,393.6-20.4
			C434.7-53.8,495.2-47.9,528.7-7l189.7,231.2L1140.3-432c28.7-44.5,88-57.4,132.7-29c44.6,28.6,57.6,87.8,29,132.3L808.7,438.6
			c-16.6,25.8-44.6,42.2-75.3,43.9C731.5,482.6,729.7,482.7,727.8,482.7z"/>
	</g>
	<g id="KP_x5F_Plus_x5F_icon" display="none">
		<polygon display="inline" points="1315.8,-109.2 950.2,-109.2 950.2,-474.7 725.3,-474.7 725.3,-109.2 359.8,-109.2 359.8,115.8 
			725.3,115.8 725.3,481.3 950.2,481.3 950.2,115.8 1315.8,115.8 		"/>
	</g>
	<g id="KP_x5F_Circle_x5F_Plus_x5F_icon" display="none">
		<path display="inline" fill="#1C1B1A" d="M837.8-475.7c-264.5,0-479,214.5-479,479c0,264.6,214.5,479,479,479s479-214.4,479-479
			C1316.8-261.2,1102.3-475.7,837.8-475.7z"/>
		<polygon display="inline" fill="#FFFFFF" points="1050.3,-46.7 887.8,-46.7 887.8,-209.2 787.8,-209.2 787.8,-46.7 625.3,-46.7 
			625.3,53.3 787.8,53.3 787.8,215.8 887.8,215.8 887.8,53.3 1050.3,53.3 		"/>
	</g>
	<g id="KP_x5F_Circle_x5F_Checkmark_x5F_icon" display="none">
		<path display="inline" fill="#1C1B1A" d="M837.8-475.7c-264.5,0-479,214.5-479,479c0,264.6,214.5,479,479,479s479-214.4,479-479
			C1316.8-261.2,1102.3-475.7,837.8-475.7z M1040.5-141.7L825.1,193.4c-7.2,11.3-19.5,18.4-32.9,19.2c-0.8,0-1.6,0.1-2.4,0.1
			c-12.5,0-24.5-5.6-32.5-15.3L637.9,51.8c-14.7-17.9-12-44.2,5.9-58.8c17.9-14.6,44.4-12,59,5.9l82.8,101l184.3-286.6
			c12.5-19.4,38.4-25.1,58-12.6C1047.4-187,1053-161.2,1040.5-141.7z"/>
	</g>
	<g id="KP_x5F_Circle_x5F_X_x5F_icon" display="none">
		<path display="inline" fill="#1C1B1A" d="M837.8-475.7c-264.5,0-479,214.5-479,479c0,264.6,214.5,479,479,479s479-214.4,479-479
			C1316.8-261.2,1102.3-475.7,837.8-475.7z M1052.5,147.9l-70.2,70.2L837.8,73.5L693.3,218.1L623,147.9L767.6,3.3L623-141.2
			l70.2-70.2L837.7-66.9l144.5-144.5l70.2,70.2L908,3.3L1052.5,147.9z"/>
	</g>
	<g id="KP_x5F_Refresh_x5F_icon" display="none">
		<path display="inline" fill="#1C1B1A" d="M1161.1,143.1C1125.6,286.8,996,393.8,841.5,393.8C659.8,393.8,512,246,512,64.3
			s147.8-329.4,329.5-329.4v-0.2h1.2v172.1l331.7-199L842.7-491.3V-369h-1.2v-0.2c-1.3,0-2.6,0.2-3.9,0.2h-4.4v0.2
			C598-364.3,408-171.9,408,64.3c0,239.1,194.5,433.6,433.5,433.6c212.1,0,388.8-153.2,426-354.8H1161.1z"/>
	</g>
	<g id="KP_x5F_None_x5F_Available_x5F_icon" display="none">
		<path display="inline" fill="#1C1B1A" d="M837.8-475.7c-264.5,0-479,214.5-479,479c0,264.6,214.5,479,479,479s479-214.4,479-479
			C1316.8-261.2,1102.3-475.7,837.8-475.7z M461.3,3.3c0-207.9,168.5-376.4,376.4-376.4c61.9,0,120.2,14.9,171.7,41.4L560.1,257.5
			C498.8,190.5,461.3,101.3,461.3,3.3z M837.8,379.7c-68.4,0-132.6-18.3-187.9-50.2l452.8-593.7c68.9,68.2,111.5,162.8,111.5,267.5
			C1214.2,211.2,1045.7,379.7,837.8,379.7z"/>
	</g>
	<g id="KP_x5F_Down_x5F_Filled_x5F_Arrow_x5F_icon" display="none">
		<path display="inline" fill="#1C1B1A" d="M1018.3,75.8"/>
		<path display="inline" fill="#1C1B1A" d="M1299.5-219.7C1284-195,928.5,290.4,918,303.4c-38.7,47.8-81.7,113.8-172.5,0
			C628.9,157.5,383-199.2,372.5-219.7c-27.9-54.4-8.5-140.1,91.7-140.1c118.6,0,743.3,0.3,743.3,0.3
			C1310.6-359.8,1334.6-275.3,1299.5-219.7z"/>
	</g>
	<g id="KP_x5F_Up_x5F_Filled_x5F_Arrow_x5F_icon" display="none">
		<path display="inline" fill="#1C1B1A" d="M1018.3,75.8"/>
		<path display="inline" fill="#1C1B1A" d="M376,226.3c15.5-24.6,371-510.1,381.5-523.1c38.7-47.8,81.7-113.8,172.5,0
			c116.5,145.9,362.5,502.6,373,523.1c27.9,54.4,8.5,140.1-91.7,140.1c-118.6,0-743.3-0.3-743.3-0.3
			C364.9,366.4,341,281.9,376,226.3z"/>
	</g>
	<g id="KP_x5F_Trashcan_x5F_icon" display="none">
		<path display="inline" fill="#1C1B1A" d="M506.1,503.1l661.4,0.2v-744.6H508L506.1,503.1z M571.9-177.5h531.8v617H571.9V-177.5z
			 M1039.9-411.5v-85.1H635.7v85.1h-149v85.1h702.1v-85.1H1039.9z M997.3-411.5H678.2V-454h319.1L997.3-411.5L997.3-411.5z
			 M954.8,354.4h63.8v-468.1h-63.8V354.4z M805.9,354.4h63.8v-468.1h-63.8V354.4L805.9,354.4z M657,354.4h63.8v-468.1H657V354.4z"/>
	</g>
	<g id="KP_x5F_Pencil_x5F_icon" display="none">
		<path display="inline" fill="#1C1B1A" d="M1008.8,373.6L492.4-142.7L691.8-342l516.3,516.3L1008.8,373.6z M1044.7,409.6
			l272.3,72.9l-73-272.3L1044.7,409.6z M381-362.8c-29.9,29.9-29.9,78.8,0,108.7l21.1,21.1c29.9,29.9,54.3,54.4,54.3,54.4
			l199.3-199.3c0,0-24.4-24.5-54.3-54.4l-21.1-21.1c-29.9-29.9-78.8-29.9-108.7,0L381-362.8z"/>
	</g>
	<g id="KP_x5F_Camera_x5F_Photo_x5F_icon" display="none">
		<path display="inline" fill="#231F20" d="M839.6-59.8C768.6-59.8,711-2.2,711,68.8s57.5,128.6,128.5,128.6S968,139.9,968,68.8
			S910.6-59.8,839.6-59.8"/>
		<path display="inline" fill="#1C1B1A" d="M1281.8-200.7h-250v-112.7c0-19.6-16-35.6-35.6-35.6h-317c-19.6,0-35.6,16-35.6,35.6
			v112.7H393.7c-19.5,0-35.6,16-35.6,35.6V320c0,19.6,16,35.6,35.6,35.6h888c19.6,0,35.6-16.1,35.6-35.6v-485.1
			C1317.4-184.6,1301.4-200.7,1281.8-200.7 M839.6,296.3c-125.4,0-227.4-102-227.4-227.5c0-125.4,102-227.5,227.4-227.5
			S1067-56.6,1067,68.8C1067.1,194.2,965,296.3,839.6,296.3"/>
	</g>
	<g id="KP_x5F_Web_x5F_Camera_x5F_icon" display="none">
		<path display="inline" fill="#1C1B1A" d="M1099-184v374.7c0,48.5-46.1,88.2-102.4,88.2H459.1c-56.3,0-102.4-39.7-102.4-88.2V-184
			c0-48.5,46.1-88.2,102.4-88.2h537.4C1052.9-272.2,1099-232.6,1099-184z M1112.1,66.5l206.8,144.7v-413.5L1112.1-57.6V66.5z"/>
	</g>
	<g id="KP_x5F_PDF_x5F_icon_1_" display="none">
		<path display="inline" fill="#1C1A19" d="M1315.5-184.5c-0.1-1.4-0.3-2.6-0.8-4c-1.3-5.2-3.6-10.1-7.5-14l-263.5-263.7
			c-4-3.8-8.9-6.1-14.2-7.5c-1.3-0.2-2.4-0.6-3.7-0.8c-1.3-0.1-2.7-0.8-4-0.8H593.7c-17.2,0-31,13.9-31,31v76.7H359.2v206.3h203.4
			v612.1c0,17.1,13.8,31,31,31h691.6c17.2,0,31.1-13.9,31.1-31v-631.4C1316.3-181.9,1315.8-183.2,1315.5-184.5z M1210.5-211.5
			h-157.9v-158L1210.5-211.5z M624.7,419.9v-581.1h320.2v-206.3H624.7v-45.9h366v232.8c0,17.1,13.8,30.9,30.9,30.9h232.8v569.5
			L624.7,419.9L624.7,419.9z M1185.5,247.2c1.3-3.7,4.2-16.8,4.2-16.8s-4.2,6.5-8.6,8.8c-15.9,8-66.6-5.1-118.9-31.5
			c45.1-4.4,82.2-5,102.4,1.5c25.7,8.8,25.7,16.9,25.7,19.1c0-1.5,1.5-7.4,0.8-9.6c0-6.5-2.2-12.5-6.4-16.8
			c-10-9.4-33-13.8-65.3-14.6c-23.5,0-52.1,2.1-83.6,6.5c-13.8-8.7-29.4-17.5-41-29.2c-30.6-28.5-55.7-68.7-71.5-114
			c1.5-4.4,2.2-8.1,2.9-12.5C930.5,17.7,934-49,934-49S921,1.6,919.7,8.9c-1.4,5.1-2.8,10.2-5,15.3c-9.3-34.4-14.3-68.1-14.3-92.8
			c0-7.3,0.7-21.3,2.8-32.3c0.8-7.2,3.5-11.6,6.4-13.8c5.8,1.5,12.2,10.3,18.6,25.6c5.7,13.3,5.7,27.8,5.7,37.3
			c0,0,5.8-23.4,4.4-36.6c-0.8-8-8.7-29.2-24.4-29.2h-0.8h-0.7h-7.1c-11.4,0-22.9,5.8-25.1,16.1c-10,36.5,0.6,94.4,19.2,166.1
			l-5.6,13.9c-14.3,35-31.5,70.1-47.4,100.8C782.9,307.9,732.9,376.6,700,381.8l-0.7-1.5c-0.7-16.1,28.5-56.9,67.3-89.9
			c4.3-3.7,21.5-20.4,21.5-20.4s-22.8,12.5-28.7,15.4c-48.7,29.9-73,59.8-77.3,79.7c-1.5,6.6,0,13.1,5,16.8l12.2,5.8
			c34.4,17.6,75.8-28.4,131.7-128c57.2-18.9,127.3-37.3,191.8-46.8c58.1,33.7,124.7,49.8,149.8,43.2
			C1177.4,254.5,1182.6,250.8,1185.5,247.2z M836,247.2c10.1-17.6,20.7-36.5,30.7-57c20.7-40.3,33.7-71,44.4-100.2
			c16.5,34.3,39.5,67.2,69.4,92.8c7.2,5.9,13.6,11.8,21.5,16.9C946.8,209.9,889.6,224.6,836,247.2z M1183.2,278.7
			c1.5-0.8,2.3-1.5,2.3-3s-0.8-2.1-1.6-3c-0.7-0.7-1.3-0.7-3.6-0.7h-4.3v12.4h2v-5.1h1.5c2.3,0,3,0.7,3,2.2c0.6,1.5,0.6,2.3,1.3,2.9
			h2.2c-0.6-0.7-0.6-1.4-0.6-2.9C1184.7,280,1183.9,278.7,1183.2,278.7z M1180.3,277.9h-2.2v-4.3h2.2c2.3,0,2.9,0.7,2.9,2.1
			C1183.2,277.2,1181.8,277.9,1180.3,277.9z M1180.3,266.2c-6.3,0-11.6,5-11.6,11.7c0,6.6,5.3,11.7,11.6,11.7
			c6.6,0,12.3-5.1,12.3-11.7S1186.8,266.2,1180.3,266.2z M1180.3,287.4c-5,0-8.6-3.6-8.6-9.6c0-5.1,3.6-9.5,8.6-9.5
			c5.8,0,9.4,4.3,9.4,9.5C1189.7,283.8,1186.1,287.4,1180.3,287.4z M526.3-272.7c13,0,29.4-0.7,29.4-17.9
			c0-15.6-14.6-17.7-26.9-17.7h-16v35.6H526.3L526.3-272.7z M490.1-327.7h42.5c24.6,0,46.7,8.6,46.7,36.7
			c0,31.9-23.8,37.6-50.6,37.6h-16v52.4h-22.6V-327.7L490.1-327.7z M636.2-221.4c28.2,0,51.4-12.1,51.4-43c0-30.8-20-42.9-47.6-42.9
			h-20.6v85.9H636.2z M596.8-327.7h50c33.3,0,64.4,20.4,64.4,63.4c0,43.4-36.7,63.4-67.1,63.4h-47.3V-327.7L596.8-327.7z
			 M732.3-327.7H814v20.4h-59.3v33.2h55.9v20.4h-55.9v52.6h-22.5L732.3-327.7L732.3-327.7z"/>
	</g>
	<g id="KP_x5F_JPG_x5F_icon" display="none">
		<g display="inline">
			<path fill="#1C1A19" d="M1314.1-184c-0.1-1.3-0.3-2.5-0.7-3.8c-1.5-5.3-3.7-10.4-7.6-14.4L1045.3-465c-3.9-4-9.1-6.3-14.4-7.7
				c-1.4-0.4-2.6-0.6-4-0.8c-1.4-0.2-2.7-0.8-4.2-0.8H600.1c-17.4,0-31.7,14.2-31.7,31.7v77H360.6v206h207.8v609
				c0,17.5,14.3,31.7,31.7,31.7h683.2c17.6,0,31.7-14.2,31.7-31.7v-629.3C1315-181.4,1314.3-182.6,1314.1-184z M1054.6-365.7
				l152.6,154.1h-152.6V-365.7z M537.9-248.4c0,10-0.9,17.6-2.8,23c-2.5,7-6.9,12.6-13.4,16.9c-6.5,4.2-15,6.4-25.7,6.4
				c-12.5,0-22.1-3.3-28.8-10s-10.1-16.4-10.2-29.3l24-2.6c0.3,6.9,1.3,11.8,3.2,14.6c2.7,4.3,6.9,6.5,12.6,6.5
				c5.7,0,9.7-1.5,12.1-4.6c2.4-3.1,3.5-9.5,3.5-19.2v-77.7h25.4L537.9-248.4L537.9-248.4z M590.5-249.6v45.4H565v-120.4h41
				c15.5,0,25.6,0.6,30.3,1.8c7.2,1.8,13.3,5.7,18.2,11.8c4.9,6,7.3,13.9,7.3,23.4c0,7.4-1.4,13.6-4.2,18.6c-2.8,5-6.4,9-10.7,11.9
				c-4.3,2.9-8.7,4.8-13.2,5.7c-6.1,1.1-14.9,1.7-26.5,1.7L590.5-249.6L590.5-249.6z M1251.6,417.7H631.8v-577.4h313.5v-206H631.8
				v-45.4h359.3v231.2c0,17.4,14.3,31.7,31.7,31.7h228.8V417.7z M714.6-233.7c6.7,7.1,15.4,10.7,26.2,10.7c5.3,0,10.7-1,16.1-3
				c5.4-2,10-4.4,13.8-7.3v-15.3h-29.2v-20.3h55v47.9c-5.4,4.9-13.1,9.3-23.2,13c-10.1,3.8-20.4,5.6-30.8,5.6
				c-13.2,0-24.7-2.6-34.6-7.9c-9.8-5.3-17.2-12.8-22.1-22.7c-4.9-9.8-7.4-20.5-7.4-32.1c0-12.5,2.7-23.7,8.3-33.4
				c5.5-9.7,13.6-17.2,24.2-22.4c8.1-4,18.2-6,30.3-6c15.7,0,27.9,3.1,36.8,9.4c8.8,6.3,14.5,14.9,17,26l-25.3,4.5
				c-1.8-5.9-5.1-10.6-10-14c-4.9-3.4-11.1-5.1-18.4-5.1c-11.1,0-20,3.4-26.6,10.1c-6.6,6.7-9.9,16.7-9.9,30
				C704.6-251.5,708-240.8,714.6-233.7z"/>
			<path fill="#1C1A19" d="M631.5-298c-2.7-2.9-6.1-4.6-10.2-5.3c-3-0.6-9.2-0.8-18.3-0.8h-12.3v34.1h14c10.1,0,16.8-0.6,20.2-1.9
				c3.4-1.3,6-3.2,8-5.9c1.9-2.7,2.9-5.8,2.9-9.3C635.5-291.6,634.2-295.2,631.5-298z"/>
		</g>
	</g>
	<g id="KP_x5F_PNG_x5F_icon" display="none">
		<g display="inline">
			<path fill="#1C1A19" d="M519.6-304.3c-3.1-0.6-9.2-0.8-18.4-0.8h-12.4v34.2h14c10.1,0,16.8-0.6,20.2-1.9c3.4-1.3,6.1-3.2,8-5.9
				c1.9-2.7,2.9-5.8,2.9-9.4c0-4.4-1.4-8-4.1-10.9C527.2-301.8,523.7-303.6,519.6-304.3z"/>
			<path fill="#1C1A19" d="M1315.6-184.6c-0.1-1.3-0.3-2.5-0.7-3.8c-1.5-5.3-3.7-10.5-7.6-14.4L1046-466.5
				c-3.9-4.1-9.1-6.3-14.5-7.7c-1.4-0.4-2.6-0.6-4-0.8c-1.4-0.2-2.7-0.8-4.2-0.8h-424c-17.4,0-31.8,14.3-31.8,31.8v77.3H359.1v206.6
				h208.5v610.9c0,17.5,14.3,31.8,31.8,31.8h685.3c17.6,0,31.8-14.3,31.8-31.8v-631.3C1316.5-181.9,1315.8-183.2,1315.6-184.6z
				 M556.1-269.8c-2.8,5-6.4,9-10.8,11.9c-4.4,2.9-8.8,4.8-13.3,5.7c-6.1,1.1-15,1.7-26.5,1.7h-16.7v45.5h-25.6v-120.6h41.1
				c15.6,0,25.7,0.6,30.4,1.8C542-322,548-318,552.9-312c4.9,6.1,7.3,13.9,7.3,23.5C560.3-281,558.9-274.8,556.1-269.8z
				 M1055.3-366.8l153.1,154.5h-153.1V-366.8z M605.3-204.9h-23.8v-120.7h24.9l51.9,80.6v-80.6h23.8v120.7h-25.7l-51.1-78.7V-204.9
				L605.3-204.9z M1252.9,419H631.2v-579.2h314.4v-206.7H631.2v-45.5h360.5v231.9c0,17.5,14.3,31.8,31.8,31.8H1253L1252.9,419
				L1252.9,419z M741.2-234.4c6.7,7.2,15.4,10.7,26.3,10.7c5.4,0,10.7-1,16.1-3c5.4-2,10-4.4,13.9-7.3v-15.3h-29.3v-20.3h55.2v48.1
				c-5.4,5-13.1,9.3-23.3,13c-10.2,3.8-20.5,5.7-30.9,5.7c-13.2,0-24.8-2.7-34.7-8c-9.8-5.3-17.2-12.9-22.2-22.7
				c-5-9.8-7.4-20.6-7.4-32.2c0-12.6,2.8-23.7,8.3-33.5c5.5-9.8,13.6-17.3,24.3-22.5c8.1-4,18.2-6,30.3-6c15.7,0,28,3.1,36.9,9.4
				c8.8,6.3,14.5,15,17.1,26.1l-25.4,4.5c-1.8-5.9-5.1-10.6-10.1-14c-4.9-3.4-11.1-5.1-18.5-5.1c-11.2,0-20.1,3.4-26.7,10.1
				c-6.6,6.7-9.9,16.8-9.9,30.1C731.1-252.3,734.5-241.6,741.2-234.4z"/>
		</g>
	</g>
	<g id="KP_x5F_BMP_x5F_icon" display="none">
		<g display="inline">
			<path fill="#1C1A19" d="M802.2-273.3c3.4-1.3,6.1-3.2,8-5.9c1.9-2.7,2.9-5.8,2.9-9.4c0-4.4-1.4-8-4.1-10.9s-6.1-4.7-10.3-5.4
				c-3.1-0.6-9.2-0.8-18.4-0.8H768v34.3h14C792.1-271.4,798.8-272,802.2-273.3z"/>
			<path fill="#1C1A19" d="M527.6-278.5c4.4-0.5,7.8-1.9,10.3-4.3s3.8-5.5,3.8-9.4c0-3.8-1.1-6.8-3.2-9.1c-2.2-2.3-5.4-3.8-9.7-4.3
				c-2.5-0.3-9.8-0.4-21.9-0.4h-14.7v28H509C519-278.1,525.2-278.2,527.6-278.5z"/>
			<path fill="#1C1A19" d="M1316.4-184.9c-0.1-1.3-0.3-2.5-0.7-3.8c-1.5-5.3-3.8-10.5-7.6-14.4l-261.8-264.2
				c-3.9-4.1-9.1-6.3-14.5-7.8c-1.4-0.4-2.6-0.6-4-0.8s-2.7-0.9-4.2-0.9H598.9c-17.4,0-31.8,14.3-31.8,31.8v77.4H358.2v207h208.9
				v612c0,17.6,14.4,31.9,31.8,31.9h686.5c17.7,0,31.9-14.3,31.9-31.9v-632.2C1317.3-182.3,1316.7-183.5,1316.4-184.9z M568.9-224.3
				c-2.7,5.2-6.4,9.4-11,12.4c-4.6,3.1-10.4,5-17.2,5.7c-4.3,0.5-14.6,0.7-30.9,0.8h-43.2v-120.8h50.8c10,0,17.5,0.4,22.5,1.2
				c4.9,0.8,9.4,2.5,13.2,5c3.9,2.5,7.2,5.9,9.7,10.1c2.6,4.2,3.9,8.9,3.9,14.1c0,5.7-1.6,10.9-4.8,15.6c-3.2,4.7-7.6,8.3-13,10.6
				c7.7,2.1,13.7,5.8,17.8,11c4.2,5.2,6.2,11.2,6.2,18.2C572.9-234.8,571.6-229.5,568.9-224.3z M1055.7-367.5L1209-212.6h-153.3
				V-367.5z M618.1-205.3h-23.8v-120.9h38.4l23,82.5l22.8-82.5h38.4v120.9h-23.8v-95.2l-25.2,95.2h-24.7l-25.1-95.2L618.1-205.3
				L618.1-205.3z M1253.6,419.7H630.8v-580.2h315v-207h-315v-45.6h361.1v232.3c0,17.5,14.4,31.8,31.8,31.8h229.9V419.7L1253.6,419.7
				z M742.3-205.3v-120.9h41.1c15.6,0,25.7,0.6,30.5,1.8c7.3,1.8,13.4,5.8,18.3,11.8c4.9,6.1,7.4,13.9,7.4,23.5
				c0,7.4-1.4,13.7-4.2,18.7c-2.8,5.1-6.4,9-10.8,11.9c-4.4,2.9-8.8,4.8-13.3,5.7c-6.1,1.1-15,1.7-26.6,1.7H768v45.6h-25.7V-205.3z"
				/>
			<path fill="#1C1A19" d="M535.7-256.2c-3.5-1.1-11.1-1.7-22.7-1.7h-20.7v32.3H516c9.2,0,15.1-0.3,17.6-0.7
				c3.8-0.7,6.9-2.3,9.3-4.8c2.4-2.6,3.6-6,3.6-10.3c0-3.6-0.9-6.7-2.8-9.2C541.8-253.2,539.1-255.1,535.7-256.2z"/>
		</g>
	</g>
	<g id="KP_x5F_GIF_x5F_icon" display="none">
		<path display="inline" fill="#1C1A19" d="M1314.9-184.3c-0.1-1.3-0.3-2.5-0.7-3.8c-1.5-5.3-3.7-10.4-7.6-14.4l-260.9-263.4
			c-3.9-4-9.1-6.3-14.4-7.7c-1.4-0.4-2.6-0.6-4-0.8c-1.3-0.2-2.7-0.8-4.2-0.8H599.6c-17.4,0-31.7,14.2-31.7,31.7v77.2H359.7v206.4
			h208.2v610.1c0,17.5,14.3,31.8,31.7,31.8H1284c17.6,0,31.8-14.3,31.8-31.8v-630.5C1315.8-181.7,1315.2-182.9,1314.9-184.3z
			 M1055-366.3L1207.9-212H1055V-366.3z M620-221.2c-5.4,5-13.2,9.3-23.3,13c-10.2,3.8-20.5,5.6-30.9,5.6c-13.2,0-24.8-2.6-34.6-7.9
			S514-223.3,509-233.2c-4.9-9.8-7.4-20.5-7.4-32.1c0-12.5,2.8-23.7,8.3-33.5c5.5-9.7,13.6-17.2,24.2-22.5c8.1-4,18.2-6,30.3-6
			c15.7,0,28,3.1,36.8,9.4c8.8,6.3,14.5,14.9,17,26l-25.4,4.5c-1.8-5.9-5.2-10.6-10.1-14c-4.9-3.4-11.1-5.1-18.4-5.1
			c-11.1,0-20,3.4-26.7,10.1c-6.6,6.7-9.9,16.7-9.9,30c0,14.3,3.4,25,10,32.2c6.7,7.1,15.4,10.7,26.2,10.7c5.4,0,10.7-1,16.1-3
			c5.4-2,10-4.4,13.8-7.3v-15.3h-29.3v-20.3H620V-221.2L620-221.2z M1252.3,418.5H631.4V-160h314v-206.4h-314v-45.5h360v231.6
			c0,17.5,14.3,31.7,31.7,31.7h229.2V418.5L1252.3,418.5z M642.8-204.6v-120.6h25.5v120.5h-25.5V-204.6z M771.3-276.2v20.4h-52.8
			v51.2H693v-120.6h86.8v20.4h-61.2v28.5L771.3-276.2L771.3-276.2z"/>
	</g>
	<g id="KP_x5F_DOC_x5F_icon" display="none">
		<g display="inline">
			<path fill="#1C1A19" d="M533.9-300c-3.1-2.8-7.1-4.7-11.9-5.7c-3.6-0.8-10.6-1.2-21.1-1.2h-11.6v80.4h19.2
				c7.2,0,12.4-0.4,15.5-1.2c4.2-1,7.6-2.7,10.4-5.1c2.8-2.4,5-6.3,6.7-11.7c1.7-5.4,2.6-12.8,2.6-22.2s-0.9-16.6-2.6-21.6
				C539.4-293.3,537-297.2,533.9-300z"/>
			<path fill="#1C1A19" d="M684-267.2c0-13.9-3.2-24.3-9.6-31.1c-6.4-6.8-14.9-10.2-25.5-10.2c-10.6,0-19.2,3.5-25.6,10.4
				c-6.5,6.9-9.7,17.4-9.7,31.3c0,13.7,3.3,24.2,10,31.3c6.7,7.1,15.1,10.6,25.4,10.6s18.7-3.5,25.3-10.6
				C680.7-242.5,684-253.1,684-267.2z"/>
			<path fill="#1C1A19" d="M1318.2-185.6c-0.1-1.3-0.3-2.5-0.7-3.8c-1.5-5.4-3.8-10.5-7.7-14.5l-262.6-265.2
				c-3.9-4.1-9.1-6.3-14.6-7.8c-1.4-0.4-2.6-0.6-4-0.8c-1.4-0.2-2.8-0.9-4.2-0.9H598c-17.5,0-31.9,14.3-31.9,31.9v77.7H356.4v207.8
				h209.7v614.3c0,17.6,14.4,32,31.9,32h689.1c17.7,0,32-14.4,32-32v-634.6C1319.1-183,1318.5-184.2,1318.2-185.6z M566.5-239.7
				c-3.2,8.8-7.7,16-13.6,21.4c-4.5,4.1-10.5,7.4-18.1,9.7c-5.7,1.7-13.3,2.6-22.8,2.6h-48.4v-121.4h47c10.6,0,18.7,0.8,24.3,2.3
				c7.5,2.1,13.9,5.8,19.2,11.2s9.4,11.9,12.2,19.7c2.8,7.8,4.2,17.3,4.2,28.7C570.4-255.6,569.1-247,566.5-239.7z M1056.5-368.9
				l153.9,155.4h-153.9V-368.9z M587-266c0-12.4,1.9-22.7,5.8-31.1c2.9-6.2,6.8-11.7,11.9-16.6c5-4.9,10.5-8.6,16.5-10.9
				c7.9-3.2,17.1-4.8,27.5-4.8c18.8,0,33.8,5.5,45.1,16.6c11.3,11.1,16.9,26.5,16.9,46.3c0,19.6-5.6,34.9-16.8,46
				s-26.1,16.6-44.9,16.6c-18.9,0-34-5.5-45.2-16.5C592.6-231.5,587-246.7,587-266z M1255.2,421.3H630v-582.4h316.2v-207.8H630
				v-45.8h362.5v233.2c0,17.6,14.4,31.9,31.9,31.9h230.8V421.3z M761.4-234.7c5.8,6.5,13.3,9.8,22.6,9.8c6.8,0,12.7-2.1,17.7-6.2
				c4.9-4.1,8.5-10.6,10.6-19.5l25,7.5c-3.8,13.2-10.2,23.1-19.1,29.5c-8.9,6.4-20.2,9.7-33.9,9.7c-16.9,0-30.8-5.5-41.7-16.5
				s-16.3-26.1-16.3-45.2c0-20.2,5.5-35.9,16.4-47.1c11-11.2,25.4-16.8,43.2-16.8c15.6,0,28.3,4.4,38,13.2
				c5.8,5.2,10.1,12.6,13,22.4l-25.5,5.8c-1.5-6.3-4.7-11.3-9.4-14.9c-4.8-3.6-10.6-5.5-17.4-5.5c-9.4,0-17.1,3.2-23,9.7
				c-5.9,6.5-8.8,16.9-8.8,31.4C752.7-252.1,755.6-241.2,761.4-234.7z"/>
		</g>
	</g>
	<g id="KP_x5F_Attachment_x5F_icon" display="none">
		<path display="inline" fill="#1C1A19" d="M1204.3-152.6c-0.1-1.3-0.3-2.5-0.7-3.7c-1.4-5.2-3.7-10.3-7.5-14.2L939.8-429.2
			c-3.8-4-8.9-6.2-14.2-7.6c-1.3-0.4-2.6-0.6-3.9-0.8c-1.3-0.2-2.7-0.8-4.1-0.8h-204c-8.2-32.6-37.6-56.9-72.8-57
			c-35,0-64.5,24.3-72.7,57h-66.7c-17.1,0-31.2,14-31.2,31.2v878.1c0,17.2,14.1,31.2,31.2,31.2h672.4c17.3,0,31.2-14,31.2-31.2
			v-619.5C1205.2-150,1204.6-151.2,1204.3-152.6z M948.9-331.4l150.2,151.7H948.9V-331.4z M641.1-462.3c16.5,0.1,30.9,9.9,37.7,23.9
			h-75.6C610-452.5,624.4-462.3,641.1-462.3z M744.3-143.8l-3.6,1.2c-0.4,39.1-32.4,71-71.7,71c-38.5-0.2-70.4-31.8-71.1-70.2
			c0-0.4,0-0.7,0-1.3l0.9-233h84.1L682-171.7h-0.1l-0.1,27.9l0.1,1.3v0.7c-0.2,7-5.9,12.5-13,12.5c-6.9,0-12.6-5.6-13-13.3
			l0.8-209.1v-3.6l-33-0.1l-0.8,187.5v26c0.3,25.1,20.8,45.6,46,45.8c24.9,0,45.5-20.4,46-45.4l0,0v-0.1l0,0l0.9-234.4h25.8
			l-0.9,232.3L744.3-143.8L744.3-143.8z M669.3-42.1L669.3-42.1L669.3-42.1L669.3-42.1z M1142.8,439.7H532.7v-815.8h33.1l-0.9,232
			v1.9c0.7,57,47.3,103.5,103.9,103.7h0.4c55.4,0,101.1-43.8,104.2-99.4l0.2,0.1l0.9-238.3h111.8v227.6c0,17.2,14.1,31.2,31.2,31.2
			h225.2L1142.8,439.7L1142.8,439.7z"/>
	</g>
	<g id="KP_x5F_Compose_x5F_icon" display="none">
		<path display="inline" fill="#1C1A19" d="M1193.5-79.6v506.9c0,34.2-27.7,61.9-61.9,61.9H419.8c-34.2,0-61.9-27.7-61.9-61.9
			v-702.1c0-34.2,27.7-61.9,61.9-61.9h479.4L832-267.6H421.5V420h708.4V-14.2L1193.5-79.6z M758.9,259.7l443.9-453.1l-175-171.5
			L583.9,88.3L758.9,259.7z M728,291.2l-235.9,65.7L553,119.8L728,291.2z M1297.6-385.8c26.3,25.7,26.7,68.2,1,94.5l-18.3,18.5
			c-25.7,26.2-46.7,47.7-46.7,47.7l-175-171.4c0,0,21.1-21.4,46.8-47.7l18.2-18.5c25.7-26.3,68.2-26.7,94.4-1L1297.6-385.8z"/>
	</g>
	<g id="KP_x5F_Alarm_x5F_icon" display="none">
		<g display="inline">
			<path fill="#1C1B1A" d="M894.4,20.1C888.7,11.5,881,4.5,872-0.7L862.5-241h-49.4L803.4,2c-16.9,11.7-28.1,31.3-28.1,53.4
				c0,35.8,29.1,64.9,64.9,64.9c24,0,44.7-13.3,56-32.8l194.7-9V29.3L894.4,20.1z"/>
			<path fill="#1C1B1A" d="M1117.7-275.5l11.9-17.1l124.4,86.9c57.2-81.8,33.9-197.7-51.7-257.4c-85.4-59.8-202.2-41.6-259.3,40.2
				l124.4,86.8l-11.7,16.8c-64.1-37.6-138.4-59.5-217.8-59.5c-79.5,0-153.8,21.9-217.8,59.5l-11.8-16.8l124.4-86.8
				c-57.3-81.8-174-100-259.6-40.3c-85.5,59.8-108.8,175.7-51.6,257.5l124.4-86.8l11.9,17.1C464.6-196,405-77.9,405,54.1
				c0,125.5,54.1,238.4,139.9,317.5l-37.2,56.8c-15.4,23.5-9.8,54.5,12.3,69.2c22.2,14.4,52.9,7.2,68.4-16.4l34.3-52.3
				c63.4,36.5,136.8,57.8,215.2,57.8c78.3,0,151.7-21.3,215.2-57.8l34.2,52.3c15.4,23.6,46.1,30.7,68.3,16.4
				c22.1-14.7,27.7-45.7,12.3-69.2l-37.2-56.8c85.7-79.1,139.8-191.9,139.8-317.5C1270.4-77.9,1211-196,1117.7-275.5z M837.8,376.3
				c-177.7,0-322.3-144.6-322.3-322.2c0-177.8,144.6-322.5,322.3-322.5S1160-123.8,1160,54.1C1160,231.7,1015.5,376.3,837.8,376.3z"
				/>
		</g>
	</g>
	<g id="KP_x5F_Shoppingcart" display="none">
		<path display="inline" fill="#1C1B1A" d="M1228,232.3l89.2-437.8L561.6-292l-33-171.2L369.1-477l-10.8,125l65.1,5.6l111.8,578.7
			H612l8.1,46.8c-41.4,14.3-63.1,50.2-63.3,96.6c0,0.3,0,0.7,0,1.1c-0.3,58.7,47,106.4,105.7,106.8c54.3,0.2,99.1-40.2,105.8-92.6
			H1004c6.6,52.1,50.8,92.5,104.7,92.8c58.7,0.3,106.5-47.1,106.8-105.7c0-0.4,0-0.8,0-1.1c0.3-58.7-47-106.5-105.7-106.8
			c-50-0.2-92,34.2-103.5,80.6H766c-11-44.3-49.7-77.6-96.8-80.3L655,232.3H1228z"/>
	</g>
	<g id="KP_x5F_Alert" display="none">
		<path display="inline" fill="#1C1B1A" d="M1317.6,391.5c0,16.9-13.7,30.8-30.5,30.8c-0.5,0-0.7,0-0.9,0H388.4
			c-10.7,0-21-5.9-26.3-15.2c-5.6-9.6-5.6-21.2-0.3-30.8l448.7-777.8c11.2-18.9,42.3-18.9,53.3,0l445.5,771.8
			C1314.4,375.9,1317.6,383.3,1317.6,391.5z M760.4,288.9c0,42.7,34.4,76.8,76.8,76.8c43,0,77.2-34,77.2-76.8
			c0-43-34.2-77.2-77.2-77.2C794.8,211.7,760.4,245.9,760.4,288.9z M900.1-184.8H774.8v338.2h125.3V-184.8z"/>
	</g>
	<g id="KP_x5F_Reply" display="none">
		<path display="inline" fill="#1C1B1A" d="M786.7-394.3L357-75.2l425.4,314.8V35.4c0,0,117-21.3,225.5,23.4
			s253.1,123.4,299.9,308.4l8.5-14.9c0,0-14.8-277.1-153.1-410.5C1010.8-205,786.7-194.3,786.7-194.3V-394.3L786.7-394.3z"/>
	</g>
	<g id="KP_x5F_Schedule_x5F_Appt" display="none">
		<g id="XMLID_272_" display="inline">
			<g id="XMLID_283_">
				<path id="XMLID_286_" fill="#1C1B1A" d="M1148.3,3.5v416.3h-732v-495h461.9c-30.8-52-49.3-92.8-49.3-148c0-9.1,0.6-28,1.5-28
					H703.3v-39.2c0-46.1-41-83.6-87-83.6c-46.1,0-87,37.5-87,83.6v39.2h-121c-27,0-40,11.8-40,38.8v626.7c0,27,13,56.4,40,56.4
					h739.5c27,0,51.5-29.4,51.5-56.4v-433C1175.3-9.5,1162.3-1.9,1148.3,3.5z M590.3-290.4c0-16.7,14.8-30.3,31.5-30.3
					c16.7,0,31.5,13.6,31.5,30.3v111.3c0,16.7-14.9,30.3-31.5,30.3c-16.7,0-31.5-13.6-31.5-30.3V-290.4L590.3-290.4z"/>
				<path id="XMLID_289_" fill="#1C1B1A" d="M969.7-1.2h-67.1l-86,133.6c-18.5,29.5-31.4,57.2-31.4,92.4
					c0,71.2,49.5,113.4,119.8,113.4c68.9,0,119.7-45.8,119.7-115.6c0-58.4-41.8-107.9-101.2-107.9c-11.4,0-24.7,1.2-31.3,5l-1-2
					L971.4-4.2C970.9-4.4,970.3-1.2,969.7-1.2z M906.6,160.6c33.6,0,61.2,27.5,61.2,61.3s-27.6,61.3-61.2,61.3
					c-33.8,0-61.4-27.5-61.4-61.3S872.8,160.6,906.6,160.6z"/>
				<path id="XMLID_290_" fill="#1C1B1A" d="M660.9,144.9L529.3,271.3v61.5h237v-49H600.6l104.1-98.2c29.9-27.7,51.7-56.6,51.7-98.9
					c0-64.6-48.5-96.4-108.9-96.4c-60.8,0-106,32.4-111.7,94.6l59.7,4.5c3.8-27.6,23.4-45.8,51.4-45.8c26.3,0,49.2,16.6,49.2,44.2
					C696.1,111.2,676.6,129.7,660.9,144.9z"/>
			</g>
			<path id="XMLID_280_" fill="#1C1B1A" d="M1073.9-463.8c-128.9,0-233.4,104.5-233.4,233.4S945,2.9,1073.9,2.9
				s233.4-104.5,233.4-233.4S1202.8-463.8,1073.9-463.8z M1175.3-201.2h-75v74h-38v-74h-74v-37h74v-75h38v75h75V-201.2z"/>
		</g>
	</g>
	<path id="KP_x5F_Calendar" d="M1248.2-364.2h-141.6v-33.3c0-53-43.1-96.1-96-96.1c-53,0-96.1,43-96.1,96.1v33.3H732.3v-33.3
		c0-53-43.1-96.1-96-96.1c-52.9,0-96,43-96,96.1v33.3H398.6c-31,0-56.2,25.2-56.2,56.3v720c0,31,25.3,56.3,56.2,56.3h849.6
		c31,0,56.2-25.3,56.2-56.3v-720C1304.4-339,1279.2-364.2,1248.2-364.2z M975.8-397.6c0-19.2,15.6-34.8,34.8-34.8
		s34.8,15.6,34.8,34.8v127.9c0,19.2-15.6,34.8-34.8,34.8s-34.8-15.6-34.8-34.8V-397.6z M601.6-397.6c0-19.2,15.6-34.8,34.7-34.8
		c19.1,0,34.7,15.6,34.7,34.8v127.9c0,19.2-15.6,34.8-34.7,34.8c-19.1,0-34.7-15.6-34.7-34.8V-397.6z M1243.2,407.1H403.7v-566.7
		h839.5V407.1z M908.7,38.4v177.4H746.3V38.4H908.7z M711.7,38.4v177.4H549.2V38.4H711.7z M943.4,38.4h162.4v177.4H943.4V38.4z
		 M1243.6,38.4V3.8h-104.3v-163.5h-34.6V3.8H942.2v-163.5h-34.6V3.8H745.1v-163.5h-34.6V3.8H548.1v-163.5h-34.6V3.8H403.8v34.6
		h109.6v177.4H403.8v34.6h109.6v157.8h34.6V250.5h162.4v157.8h34.6V250.5h162.4v157.8h34.6V250.5h162.4v157.8h34.6V250.5h104.3
		v-34.6h-104.3V38.4H1243.6z"/>
	<g id="nyt_x5F_exporter_x5F_info" display="none">
		<text transform="matrix(1 0 0 1 345 505.0439)" display="inline" font-family="'MyriadPro-Regular'" font-size="12px">&lt;nyt_prefs&gt;</text>
		<text transform="matrix(1 0 0 1 345 519.444)" display="inline" font-family="'MyriadPro-Regular'" font-size="12px">  &lt;nyt_prefix&gt;&lt;/nyt_prefix&gt;</text>
		<text transform="matrix(1 0 0 1 345 533.8439)" display="inline" font-family="'MyriadPro-Regular'" font-size="12px">  &lt;nyt_suffix&gt;&lt;/nyt_suffix&gt;</text>
		<text transform="matrix(1 0 0 1 345 548.2439)" display="inline" font-family="'MyriadPro-Regular'" font-size="12px">  &lt;nyt_base_path&gt;~/Desktop&lt;/nyt_base_path&gt;</text>
		<text transform="matrix(1 0 0 1 345 562.6439)" display="inline" font-family="'MyriadPro-Regular'" font-size="12px">  &lt;nyt_scaling&gt;100&lt;/nyt_scaling&gt;</text>
		<text transform="matrix(1 0 0 1 345 577.0439)" display="inline" font-family="'MyriadPro-Regular'" font-size="12px">  &lt;nyt_transparency&gt;true&lt;/nyt_transparency&gt;</text>
		<text transform="matrix(1 0 0 1 345 591.444)" display="inline" font-family="'MyriadPro-Regular'" font-size="12px">  &lt;nyt_embedImage&gt;true&lt;/nyt_embedImage&gt;</text>
		<text transform="matrix(1 0 0 1 345 605.844)" display="inline" font-family="'MyriadPro-Regular'" font-size="12px">  &lt;nyt_embedFont&gt;true&lt;/nyt_embedFont&gt;</text>
		<text transform="matrix(1 0 0 1 345 620.2439)" display="inline" font-family="'MyriadPro-Regular'" font-size="12px">  &lt;nyt_trimEdges&gt;true&lt;/nyt_trimEdges&gt;</text>
		<text transform="matrix(1 0 0 1 345 634.6439)" display="inline" font-family="'MyriadPro-Regular'" font-size="12px">  &lt;nyt_innerPadding&gt;false&lt;/nyt_innerPadding&gt;</text>
		<text transform="matrix(1 0 0 1 345 649.0439)" display="inline" font-family="'MyriadPro-Regular'" font-size="12px">  &lt;nyt_format&gt;SVG&lt;/nyt_format&gt;</text>
		<text transform="matrix(1 0 0 1 345 663.444)" display="inline" font-family="'MyriadPro-Regular'" font-size="12px">  &lt;nyt_artboards&gt;current&lt;/nyt_artboards&gt;</text>
		<text transform="matrix(1 0 0 1 345 677.844)" display="inline" font-family="'MyriadPro-Regular'" font-size="12px">  &lt;nyt_layers&gt;selected&lt;/nyt_layers&gt;</text>
		<text transform="matrix(1 0 0 1 345 692.2439)" display="inline" font-family="'MyriadPro-Regular'" font-size="12px">  &lt;nyt_exportArtboards&gt;false&lt;/nyt_exportArtboards&gt;</text>
		<text transform="matrix(1 0 0 1 345 706.6439)" display="inline" font-family="'MyriadPro-Regular'" font-size="12px">  &lt;nyt_ignoreWarnings&gt;false&lt;/nyt_ignoreWarnings&gt;</text>
		<text transform="matrix(1 0 0 1 345 721.0439)" display="inline" font-family="'MyriadPro-Regular'" font-size="12px">&lt;/nyt_prefs&gt;</text>
	</g>
</g>
<g id="nyt_x5F_exporter_x5F_info_1_" display="none">
	<text transform="matrix(1 0 0 1 345 505.0439)" display="inline"><tspan x="0" y="0" font-family="'MyriadPro-Regular'" font-size="12px">&lt;nyt_prefs&gt;</tspan><tspan x="0" y="14.4" font-family="'MyriadPro-Regular'" font-size="12px">  &lt;nyt_prefix&gt;&lt;/nyt_prefix&gt;</tspan><tspan x="0" y="28.8" font-family="'MyriadPro-Regular'" font-size="12px">  &lt;nyt_suffix&gt;&lt;/nyt_suffix&gt;</tspan><tspan x="0" y="43.2" font-family="'MyriadPro-Regular'" font-size="12px">  &lt;nyt_base_path&gt;~/Desktop&lt;/nyt_base_path&gt;</tspan><tspan x="0" y="57.6" font-family="'MyriadPro-Regular'" font-size="12px">  &lt;nyt_scaling&gt;100&lt;/nyt_scaling&gt;</tspan><tspan x="0" y="72" font-family="'MyriadPro-Regular'" font-size="12px">  &lt;nyt_transparency&gt;true&lt;/nyt_transparency&gt;</tspan><tspan x="0" y="86.4" font-family="'MyriadPro-Regular'" font-size="12px">  &lt;nyt_embedImage&gt;true&lt;/nyt_embedImage&gt;</tspan><tspan x="0" y="100.8" font-family="'MyriadPro-Regular'" font-size="12px">  &lt;nyt_embedFont&gt;true&lt;/nyt_embedFont&gt;</tspan><tspan x="0" y="115.2" font-family="'MyriadPro-Regular'" font-size="12px">  &lt;nyt_trimEdges&gt;true&lt;/nyt_trimEdges&gt;</tspan><tspan x="0" y="129.6" font-family="'MyriadPro-Regular'" font-size="12px">  &lt;nyt_innerPadding&gt;false&lt;/nyt_innerPadding&gt;</tspan><tspan x="0" y="144" font-family="'MyriadPro-Regular'" font-size="12px">  &lt;nyt_format&gt;SVG&lt;/nyt_format&gt;</tspan><tspan x="0" y="158.4" font-family="'MyriadPro-Regular'" font-size="12px">  &lt;nyt_artboards&gt;0&lt;/nyt_artboards&gt;</tspan><tspan x="0" y="172.8" font-family="'MyriadPro-Regular'" font-size="12px">  &lt;nyt_layers&gt;1&lt;/nyt_layers&gt;</tspan><tspan x="0" y="187.2" font-family="'MyriadPro-Regular'" font-size="12px">  &lt;nyt_exportArtboards&gt;false&lt;/nyt_exportArtboards&gt;</tspan><tspan x="0" y="201.6" font-family="'MyriadPro-Regular'" font-size="12px">  &lt;nyt_ignoreWarnings&gt;false&lt;/nyt_ignoreWarnings&gt;</tspan><tspan x="0" y="216" font-family="'MyriadPro-Regular'" font-size="12px">&lt;/nyt_prefs&gt;</tspan></text>
</g>
</svg>
