<?xml version="1.0" encoding="iso-8859-1"?>
<!-- Generator: Adobe Illustrator 19.2.1, SVG Export Plug-In . SVG Version: 6.00 Build 0)  -->
<svg version="1.1" xmlns="http://www.w3.org/2000/svg" xmlns:xlink="http://www.w3.org/1999/xlink" x="0px" y="0px"
	 viewBox="0 0 600 600" style="enable-background:new 0 0 600 600;" xml:space="preserve">
<g id="camera">
	<g id="camera_1_">
		<path style="fill:#231F20;" d="M300.99,267.108c-37.01,0-67.035,30.025-67.035,67.035s29.973,67.035,66.983,67.035
			s66.983-29.973,66.983-67.035S338,267.108,300.99,267.108"/>
		<path style="fill:#1C1B1A;" d="M531.495,193.661H401.178v-58.747c0-10.217-8.34-18.557-18.557-18.557H217.379
			c-10.217,0-18.557,8.34-18.557,18.557v58.747H68.557c-10.165,0-18.557,8.34-18.557,18.557v252.867
			c0,10.217,8.34,18.557,18.557,18.557h462.885c10.217,0,18.557-8.392,18.557-18.557V212.219
			C550.052,202.054,541.712,193.661,531.495,193.661 M300.99,452.731c-65.367,0-118.536-53.169-118.536-118.588
			c0-65.367,53.169-118.588,118.536-118.588s118.536,53.221,118.536,118.588C419.579,399.51,366.357,452.731,300.99,452.731"/>
	</g>
</g>
<g id="Layer_1">
</g>
</svg>
