<?xml version="1.0" encoding="iso-8859-1"?>
<!-- Generator: Adobe Illustrator 16.0.0, SVG Export Plug-In . SVG Version: 6.00 Build 0)  -->
<!DOCTYPE svg PUBLIC "-//W3C//DTD SVG 1.1//EN" "http://www.w3.org/Graphics/SVG/1.1/DTD/svg11.dtd">
<svg version="1.1" xmlns="http://www.w3.org/2000/svg" xmlns:xlink="http://www.w3.org/1999/xlink" x="0px" y="0px"
	 width="961.539px" height="1000px" viewBox="0 0 961.539 1000" style="enable-background:new 0 0 961.539 1000;"
	 xml:space="preserve">
<g id="KP_x5F_Camera_x5F_Photo_x5F_icon">
	<path style="fill:#231F20;" d="M482.621,436.926c-71.016,0-128.55,57.559-128.55,128.575s57.534,128.551,128.55,128.551
		c70.966,0,128.55-57.534,128.55-128.551S553.587,436.926,482.621,436.926"/>
	<path style="fill:#1C1B1A;" d="M924.779,296.044H674.834V183.302c0-19.561-16.01-35.596-35.57-35.596h-316.96
		c-19.612,0-35.622,16.035-35.622,35.596v112.742H36.736c-19.536,0-35.571,16.033-35.571,35.571v485.057
		c0,19.562,16.035,35.622,35.571,35.622h888.043c19.586,0,35.596-16.06,35.596-35.622V331.615
		C960.375,312.078,944.365,296.044,924.779,296.044 M482.621,792.959c-125.423,0-227.432-102.01-227.432-227.458
		c0-125.398,102.009-227.458,227.432-227.458c125.397,0,227.433,102.06,227.433,227.458
		C710.054,690.949,608.019,792.959,482.621,792.959"/>
</g>
<g id="Layer_1">
</g>
</svg>
