<svg id="Layer_1" data-name="Layer 1" xmlns="http://www.w3.org/2000/svg" viewBox="0 0 27.69 25.71">
  <defs>
    <style>
      .cls-1 {
        fill: #1c1b1a;
      }
    </style>
  </defs>
  <title>KP_Cart_icon</title>
  <path class="cls-1" d="M21.27,30.16h0.07l16.69-1a1.08,1.08,0,0,0,1-.9l1.63-9.87a1,1,0,0,0-.24-0.85,1,1,0,0,0-.83-0.32l-19.8.07-0.49-2.4A1.09,1.09,0,0,0,18.24,14H14.09a1,1,0,1,0,0,2h3.27l2.5,12.24a3.77,3.77,0,0,0-2,3.15C17.86,33,19.11,35,20.91,35H38.07a1,1,0,1,0,0-2H20.91A1.59,1.59,0,0,1,20,31.52,1.67,1.67,0,0,1,21.27,30.16Zm17-10.91L37,27l-15,.92L20.2,19.21ZM25.87,37.53a2.18,2.18,0,1,1-2.18-2.18A2.18,2.18,0,0,1,25.87,37.53Zm12.53,0a2.18,2.18,0,1,1-2.18-2.18A2.18,2.18,0,0,1,38.41,37.53Z" transform="translate(-13 -14)"/>
</svg>
