<?xml version="1.0" encoding="iso-8859-1"?>
<!-- Generator: Adobe Illustrator 19.2.1, SVG Export Plug-In . SVG Version: 6.00 Build 0)  -->
<svg version="1.1" xmlns="http://www.w3.org/2000/svg" xmlns:xlink="http://www.w3.org/1999/xlink" x="0px" y="0px"
	 viewBox="0 0 600 600" style="enable-background:new 0 0 600 600;" xml:space="preserve">
<g id="chat">
	<g id="chat_1_">
		<g>
			<path style="fill:#1C1B1A;" d="M427.246,512.495c-7.731,0-15.253-3.604-22.305-10.656l-62.056-62.056
				c-6.738-6.634-21.939-13.007-31.394-13.007H92.311C68.962,426.776,50,407.814,50,384.465V129.764
				c0-23.297,19.014-42.259,42.311-42.259h415.378c23.349,0,42.311,18.962,42.311,42.259v254.701
				c0,23.349-18.962,42.311-42.311,42.311h-47.43c-4.544,0-8.41,3.813-8.41,8.41v47.221
				C451.849,503.145,439.469,512.495,427.246,512.495z M92.311,121.354c-4.597,0-8.462,3.813-8.462,8.41v254.701
				c0,4.544,3.865,8.462,8.462,8.462h219.181c18.387,0,42.206,9.873,55.318,22.931l51.086,50.982L418,435.186
				c0-23.349,18.962-42.311,42.259-42.311h47.43c4.597,0,8.462-3.865,8.462-8.462V129.764c0-4.597-3.865-8.41-8.462-8.41H92.311
				L92.311,121.354z"/>
		</g>
	</g>
</g>
<g id="Layer_1">
</g>
</svg>
