<?xml version="1.0" encoding="iso-8859-1"?>
<!-- Generator: Adobe Illustrator 16.0.0, SVG Export Plug-In . SVG Version: 6.00 Build 0)  -->
<!DOCTYPE svg PUBLIC "-//W3C//DTD SVG 1.1//EN" "http://www.w3.org/Graphics/SVG/1.1/DTD/svg11.dtd">
<svg version="1.1" xmlns="http://www.w3.org/2000/svg" xmlns:xlink="http://www.w3.org/1999/xlink" x="0px" y="0px"
	 width="961.539px" height="1000px" viewBox="0 0 961.539 1000" style="enable-background:new 0 0 961.539 1000;"
	 xml:space="preserve">
<g id="KP_x5F_Chat_x5F_icon">
	<g>
		<path style="fill:#1C1B1A;" d="M724.416,906.794c-14.785,0-29.152-6.857-42.656-20.36L562.861,767.641
			c-12.879-12.742-41.998-24.894-60.072-24.894H83.152c-44.665,0-81.02-36.286-81.02-81.021V174.088
			c0-44.63,36.355-80.882,81.02-80.882h795.235c44.699,0,81.02,36.252,81.02,80.882v487.639c0,44.734-36.32,81.021-81.02,81.021
			h-90.818c-8.689,0-16.098,7.305-16.098,16.099v90.403C771.471,888.927,747.752,906.794,724.416,906.794z M83.152,158.023
			c-8.794,0-16.169,7.305-16.169,16.064v487.639c0,8.725,7.375,16.169,16.169,16.169h419.637c35.248,0,80.812,18.871,105.914,43.868
			l97.777,97.64l0.209-60.558c0-44.664,36.283-80.95,80.879-80.95h90.818c8.793,0,16.17-7.444,16.17-16.169V174.088
			c0-8.76-7.377-16.064-16.17-16.064H83.152z"/>
	</g>
</g>
<g id="Layer_1">
</g>
</svg>
