<?xml version="1.0" encoding="iso-8859-1"?>
<!-- Generator: Adobe Illustrator 19.2.1, SVG Export Plug-In . SVG Version: 6.00 Build 0)  -->
<svg version="1.1" xmlns="http://www.w3.org/2000/svg" xmlns:xlink="http://www.w3.org/1999/xlink" x="0px" y="0px"
	 viewBox="0 0 600 600" style="enable-background:new 0 0 600 600;" xml:space="preserve">
<g id="checkbox">
	<g id="checkbox_1_">
		<path style="fill:#1C1B1A;" d="M550,108.564c0-22.884-18.609-41.441-41.493-41.441c-12.98,0-24.604,5.942-32.214,15.377
			l-0.052-0.052l-52.544,59.477H66.316c-9.018,0-16.316,7.35-16.316,16.316v358.319c0,8.966,7.298,16.316,16.316,16.316h358.319
			c9.018,0,16.264-7.298,16.264-16.316V247.639l97.425-110.144l-0.052-0.052C545.465,129.936,550,119.772,550,108.564z
			 M408.372,500.245H82.579v-325.74h312.239L255.64,331.406l-76.835-72.769l-57.079,60.311L260.801,450.62l147.571-166.284V500.245
			L408.372,500.245z"/>
	</g>
</g>
<g id="Layer_1">
</g>
</svg>
