<?xml version="1.0" encoding="iso-8859-1"?>
<!-- Generator: Adobe Illustrator 16.0.0, SVG Export Plug-In . SVG Version: 6.00 Build 0)  -->
<!DOCTYPE svg PUBLIC "-//W3C//DTD SVG 1.1//EN" "http://www.w3.org/Graphics/SVG/1.1/DTD/svg11.dtd">
<svg version="1.1" xmlns="http://www.w3.org/2000/svg" xmlns:xlink="http://www.w3.org/1999/xlink" x="0px" y="0px"
	 width="961.539px" height="1000px" viewBox="0 0 961.539 1000" style="enable-background:new 0 0 961.539 1000;"
	 xml:space="preserve">
<g id="KP_x5F_Check_x5F_Box_x5F_icon">
	<path style="fill:#1C1B1A;" d="M960.351,132.751c0-43.919-35.663-79.514-79.619-79.514c-24.908,0-47.163,11.449-61.82,29.454
		l-0.053-0.104l-100.728,114.24H32.48c-17.311,0-31.292,14.05-31.292,31.257v687.421c0,17.207,13.981,31.257,31.292,31.257h687.438
		c17.311,0,31.223-14.05,31.223-31.257V399.566l186.834-211.273l-0.139-0.138C951.746,173.827,960.351,154.296,960.351,132.751z
		 M688.712,884.213H63.687V259.342h598.973L395.652,560.294L248.333,420.73L138.776,536.393l266.815,252.626l283.121-319.026
		V884.213z"/>
</g>
<g id="Layer_1">
</g>
</svg>
