<svg id="Layer_1" data-name="Layer 1" xmlns="http://www.w3.org/2000/svg" viewBox="0 0 26.98 26.98">
  <defs>
    <style>
      .cls-1 {
        fill: #1c1b1a;
      }
    </style>
  </defs>
  <title>clock</title>
  <g>
    <path class="cls-1" d="M27,39.17A12.17,12.17,0,1,1,39.17,27,12.18,12.18,0,0,1,27,39.17m0-25.66A13.49,13.49,0,1,0,40.49,27,13.5,13.5,0,0,0,27,13.51" transform="translate(-13.51 -13.51)"/>
    <path class="cls-1" d="M27.88,27A0.88,0.88,0,1,1,27,26.12a0.88,0.88,0,0,1,.88.88m1-7.35,0.93-.93L27,15.91l-2.81,2.81,0.93,0.93,1.22-1.22v6.49a2.18,2.18,0,0,0-.88,3.64l-3.24,5.53-0.44-1.67-1.27.33,1,3.85,3.84-1L25,34.31l-1.67.43,3.28-5.6a2,2,0,0,0,.36,0,2.19,2.19,0,0,0,.66-4.27V18.43Z" transform="translate(-13.51 -13.51)"/>
  </g>
</svg>
