<?xml version="1.0" encoding="iso-8859-1"?>
<!-- Generator: Adobe Illustrator 19.2.1, SVG Export Plug-In . SVG Version: 6.00 Build 0)  -->
<svg version="1.1" xmlns="http://www.w3.org/2000/svg" xmlns:xlink="http://www.w3.org/1999/xlink" x="0px" y="0px"
	 viewBox="0 0 600 600" style="enable-background:new 0 0 600 600;" xml:space="preserve">
<g id="clock">
	<g id="clock_1_">
		<path style="fill:#1C1B1A;" d="M300.013,525.597c-124.424,0-225.613-101.182-225.613-225.606
			c0-124.414,101.19-225.613,225.613-225.613c124.396,0,225.625,101.199,225.625,225.613
			C525.638,424.414,424.409,525.597,300.013,525.597 M300.013,50.004C162.15,50.004,50,162.129,50,299.991
			c0,137.863,112.15,250.006,250.013,250.006C437.848,549.996,550,437.854,550,299.991C550,162.129,437.848,50.004,300.013,50.004"
			/>
		<path style="fill:#1C1B1A;" d="M316.277,299.991c0,8.997-7.295,16.264-16.29,16.264c-8.969,0-16.237-7.268-16.237-16.264
			c0-8.995,7.268-16.263,16.237-16.263C308.982,283.728,316.277,290.996,316.277,299.991 M334.875,163.847l17.204-17.239
			l-52.093-52.057l-52.067,52.057l17.241,17.239l22.642-22.635v120.216c-16.426,5.194-28.444,20.416-28.444,38.562
			c0,11.342,4.678,21.567,12.172,28.954L211.51,431.393l-8.072-30.933l-23.621,6.117l18.589,71.317l71.261-18.663l-6.154-23.556
			l-30.952,8.063l60.782-103.77c2.189,0.389,4.389,0.678,6.643,0.678c22.444,0,40.653-18.255,40.653-40.655
			c0-18.146-11.983-33.369-28.427-38.562V141.213L334.875,163.847z"/>
	</g>
</g>
<g id="Layer_1">
</g>
</svg>
