<?xml version="1.0" encoding="iso-8859-1"?>
<!-- Generator: Adobe Illustrator 16.0.0, SVG Export Plug-In . SVG Version: 6.00 Build 0)  -->
<!DOCTYPE svg PUBLIC "-//W3C//DTD SVG 1.1//EN" "http://www.w3.org/Graphics/SVG/1.1/DTD/svg11.dtd">
<svg version="1.1" xmlns="http://www.w3.org/2000/svg" xmlns:xlink="http://www.w3.org/1999/xlink" x="0px" y="0px"
	 width="961.539px" height="1000px" viewBox="0 0 961.539 1000" style="enable-background:new 0 0 961.539 1000;"
	 xml:space="preserve">
<g id="KP_x5F_Compose_x5F_icon">
	<path style="fill:#1C1A19;" d="M836.503,417.094v506.943c0,34.181-27.746,61.892-61.896,61.892H62.838
		c-34.21,0-61.892-27.711-61.892-61.892V221.938c0-34.18,27.682-61.892,61.892-61.892h479.43l-67.154,69.147H64.47v687.587h708.445
		V482.537L836.503,417.094z M401.862,756.385l443.884-453.138L670.828,131.831L226.939,584.998L401.862,756.385z M370.976,787.949
		l-235.85,65.749l60.868-237.181L370.976,787.949z M940.582,110.95c26.292,25.718,26.717,68.222,1.028,94.455l-18.255,18.542
		c-25.688,26.248-46.658,47.692-46.658,47.692L701.655,100.267c0,0,21.094-21.44,46.782-47.687l18.191-18.527
		c25.688-26.262,68.177-26.688,94.41-0.979L940.582,110.95z"/>
</g>
<g id="Layer_1">
</g>
</svg>
