<?xml version="1.0" encoding="iso-8859-1"?>
<!-- Generator: Adobe Illustrator 19.2.1, SVG Export Plug-In . SVG Version: 6.00 Build 0)  -->
<svg version="1.1" xmlns="http://www.w3.org/2000/svg" xmlns:xlink="http://www.w3.org/1999/xlink" x="0px" y="0px"
	 viewBox="0 0 600 600" style="enable-background:new 0 0 600 600;" xml:space="preserve">
<g id="compose">
	<g id="compose_1_">
		<path style="fill:#1C1A19;" d="M483.016,257.378v260.777c0,17.594-14.25,31.845-31.845,31.845H84.983
			c-17.594,0-31.845-14.25-31.845-31.845V156.957c0-17.594,14.25-31.845,31.845-31.845h246.629l-34.571,35.549H85.857V514.4h364.439
			V291.024L483.016,257.378z M259.434,431.933l228.366-233.099l-90.03-88.229L169.405,343.755L259.434,431.933z M243.538,448.138
			l-121.36,33.8l31.33-121.977L243.538,448.138z M536.571,99.852c13.53,13.221,13.736,35.086,0.514,48.616l-9.415,9.517
			c-13.221,13.479-24.025,24.539-24.025,24.539l-90.03-88.177c0,0,10.855-11.009,24.076-24.539l9.363-9.517
			c13.221-13.53,35.086-13.736,48.565-0.514L536.571,99.852z"/>
	</g>
</g>
<g id="Layer_1">
</g>
</svg>
