<?xml version="1.0" encoding="iso-8859-1"?>
<!-- Generator: Adobe Illustrator 16.0.0, SVG Export Plug-In . SVG Version: 6.00 Build 0)  -->
<!DOCTYPE svg PUBLIC "-//W3C//DTD SVG 1.1//EN" "http://www.w3.org/Graphics/SVG/1.1/DTD/svg11.dtd">
<svg version="1.1" xmlns="http://www.w3.org/2000/svg" xmlns:xlink="http://www.w3.org/1999/xlink" x="0px" y="0px"
	 width="961.539px" height="1000px" viewBox="0 0 961.539 1000" style="enable-background:new 0 0 961.539 1000;"
	 xml:space="preserve">
<g id="KP_x5F_Copay_x5F_icon">
	<g>
		<path style="fill:#020202;" d="M661.804,442.862v-22.391c25.627-1.315,55.979-22.495,55.979-51.566
			c0-33.224-30.229-42.741-55.979-45.198v-34.054c10.122,0.657,18.014,10.313,18.914,20.072h33.673
			c0-33.015-31.32-50.319-52.881-51.53v-22.393h-32.047v22.393c-9.43,0-51.859,11.523-51.859,48.417
			c0,32.876,30.609,41.805,51.859,44.782v37.029c-15.487-4.222-18.307-15.573-20.453-25.056h-34.036
			c2.094,36.961,35.991,54.161,54.489,56.757v22.737H661.804z M662.187,356.688c28.222,0.658,31.387,27.651-0.036,31.944
			L662.187,356.688z M629.601,290v28.171C606.863,317.893,606.397,293.909,629.601,290z"/>
		<path style="fill:#020202;" d="M567.982,604.585v-0.035h340.749c27.791,0,50.25-21.629,50.25-48.346
			c0-26.719-22.459-48.383-50.25-48.383l-167.416-0.068c12.148-6.507,23.43-14.328,33.812-23.153h61.896
			c27.722,0,50.148-21.631,50.148-48.348c0-26.683-22.427-48.312-50.148-48.312h-1.073c3.601-14.26,5.71-29.071,5.71-44.368
			c0-103.65-87.609-187.989-195.309-187.989c-79.684,0-148.278,46.235-178.646,112.198l-171.31-0.208v0.796
			C133.618,271.173,2.558,398.944,2.558,556.272c0,159.059,133.985,287.938,299.238,287.938h147.567v0.207h302.076
			c27.72,0,50.249-21.664,50.249-48.312c0-26.717-22.529-48.347-50.249-48.347l-183.457-0.139v-0.311
			c-6.506-0.139-11.663-5.192-11.663-11.491c0-6.298,5.276-11.523,11.939-11.523c0.122,0,0.242,0.104,0.381,0.104h290.43
			c27.72,0,50.182-21.663,50.182-48.382c0-26.648-22.462-48.312-50.182-48.312l-289.582-0.173c-0.432,0.069-0.848,0.069-1.229,0.069
			c-6.663,0-11.939-5.157-11.939-11.525C556.319,609.846,561.477,604.723,567.982,604.585z M301.796,387.594
			c-6.541,0-11.836-5.087-11.836-11.455c0-6.298,5.295-11.421,11.836-11.421v-0.243h150.458c0.917,7.892,2.456,15.575,4.36,23.119
			H301.796z M518.112,343.572c0-66.654,57.52-120.85,128.239-120.85c70.688,0,128.188,54.195,128.188,120.85
			c0,66.655-57.5,120.92-128.188,120.92C575.632,464.492,518.112,410.228,518.112,343.572z"/>
	</g>
</g>
<g id="Layer_1">
</g>
</svg>
