<?xml version="1.0" encoding="iso-8859-1"?>
<!-- Generator: Adobe Illustrator 19.2.1, SVG Export Plug-In . SVG Version: 6.00 Build 0)  -->
<svg version="1.1" xmlns="http://www.w3.org/2000/svg" xmlns:xlink="http://www.w3.org/1999/xlink" x="0px" y="0px"
	 viewBox="0 0 600 600" style="enable-background:new 0 0 600 600;" xml:space="preserve">
<g id="copay">
	<g id="copay_1_">
		<g>
			<path style="fill:#020202;" d="M394.662,270.145v-11.712c13.385-0.68,29.28-11.764,29.28-26.979
				c0-17.359-15.79-22.326-29.28-23.633v-17.829c5.281,0.366,9.411,5.385,9.882,10.509h17.62c0-17.254-16.365-26.299-27.659-26.927
				v-11.712h-16.731v11.712c-4.915,0-27.136,6.013-27.136,25.306c0,17.202,15.999,21.855,27.136,23.424v19.345
				c-8.104-2.196-9.568-8.156-10.718-13.124h-17.777c1.098,19.345,18.823,28.338,28.495,29.698v11.869L394.662,270.145
				L394.662,270.145z M394.871,225.076c14.744,0.366,16.417,14.483,0,16.679V225.076z M377.826,190.202v14.744
				C365.957,204.789,365.696,192.241,377.826,190.202z"/>
			<path style="fill:#020202;" d="M345.619,354.69L345.619,354.69h178.134c14.535,0,26.247-11.294,26.247-25.254
				s-11.764-25.306-26.247-25.306l-87.525-0.052c6.326-3.398,12.235-7.477,17.672-12.13h32.364
				c14.483,0,26.195-11.294,26.195-25.254s-11.712-25.254-26.195-25.254h-0.575c1.882-7.477,2.98-15.215,2.98-23.214
				c0-54.167-45.802-98.296-102.112-98.296c-41.671,0-77.538,24.156-93.381,58.664l-89.564-0.105v0.418
				C118.493,180.372,50,247.14,50,329.436c0,83.185,70.062,150.528,156.436,150.528h77.172v0.105h157.953
				c14.483,0,26.247-11.346,26.247-25.254c0-13.96-11.764-25.254-26.247-25.254l-95.943-0.105V429.3
				c-3.399-0.052-6.117-2.719-6.117-6.013c0-3.294,2.771-6.013,6.222-6.013c0.052,0,0.105,0.052,0.209,0.052h151.835
				c14.483,0,26.247-11.346,26.247-25.306c0-13.908-11.764-25.254-26.247-25.254l-151.417-0.105
				c-0.209,0.052-0.418,0.052-0.627,0.052c-3.503,0-6.222-2.719-6.222-6.013C339.501,357.409,342.22,354.742,345.619,354.69z
				 M206.436,241.232c-3.399,0-6.17-2.667-6.17-6.013c0-3.294,2.771-5.96,6.17-5.96v-0.105h78.689
				c0.471,4.131,1.307,8.156,2.301,12.078H206.436z M319.528,218.227c0-34.874,30.064-63.212,67.029-63.212
				s67.029,28.338,67.029,63.212s-30.064,63.212-66.977,63.212C349.592,281.439,319.528,253.048,319.528,218.227z"/>
		</g>
	</g>
</g>
<g id="Layer_1">
</g>
</svg>
