<?xml version="1.0" encoding="iso-8859-1"?>
<!-- Generator: Adobe Illustrator 19.2.1, SVG Export Plug-In . SVG Version: 6.00 Build 0)  -->
<svg version="1.1" xmlns="http://www.w3.org/2000/svg" xmlns:xlink="http://www.w3.org/1999/xlink" x="0px" y="0px"
	 viewBox="0 0 600 600" style="enable-background:new 0 0 600 600;" xml:space="preserve">
<g id="cost-coverage">
	<g>
		<path d="M318.725,234.009l-0.047,35.687C353.71,264.912,350.206,234.748,318.725,234.009z"/>
		<path d="M282.402,159.52c-25.853,4.367-25.322,31.133,0,31.456V159.52z"/>
		<path d="M479.145,50.3H120.855c-8.573,0-15.523,6.965-15.523,15.557v468.286c0,8.591,6.95,15.557,15.523,15.557h358.289
			c8.572,0,15.523-6.965,15.523-15.557V65.857C494.668,57.266,487.717,50.3,479.145,50.3z M224.447,178.102
			c0-41.233,47.302-54.106,57.792-54.106V99.012h35.703v24.984c24.076,1.318,58.944,20.663,58.944,57.571h-37.5
			c-1.013-10.932-9.799-21.701-21.1-22.44v38.02C347,199.92,380.67,210.53,380.67,247.648c0,32.471-33.786,56.136-62.36,57.618
			v25.007h-36.072v-25.4c-20.591-2.89-58.413-22.118-60.722-63.397h37.961c2.398,10.586,5.534,23.273,22.76,27.986v-41.369
			C258.555,224.788,224.447,214.804,224.447,178.102z M419.935,479.034H180.066c-7.451,0-13.61-6.172-13.61-13.69
			c0-7.564,6.108-13.639,13.61-13.639h239.868c7.552,0,13.61,6.075,13.61,13.639C433.544,472.862,427.487,479.034,419.935,479.034z
			 M419.933,402.471H180.065c-7.451,0-13.61-6.071-13.61-13.639s6.108-13.69,13.61-13.69h239.868c7.552,0,13.614,6.172,13.614,13.69
			C433.547,396.4,427.485,402.471,419.933,402.471z"/>
	</g>
</g>
<g id="Layer_1">
</g>
</svg>
