<?xml version="1.0" encoding="iso-8859-1"?>
<!-- Generator: Adobe Illustrator 19.2.1, SVG Export Plug-In . SVG Version: 6.00 Build 0)  -->
<svg version="1.1" xmlns="http://www.w3.org/2000/svg" xmlns:xlink="http://www.w3.org/1999/xlink" x="0px" y="0px"
	 viewBox="0 0 600 600" style="enable-background:new 0 0 600 600;" xml:space="preserve">
<g id="data">
	<g id="data_1_">
		<path style="fill:#1C1B1A;" d="M135.062,420.297h327.003c2.432,0,4.368-2.017,4.368-4.379c0-2.487-1.936-4.459-4.368-4.459
			H145.492l38.273-74.957l39.586,38.863c1.648,1.601,3.963,2.351,6.305,1.946c2.271-0.345,4.27-1.81,5.318-3.864l42.203-82.682
			l39.567,38.799c1.672,1.655,4.035,2.343,6.304,1.989c2.316-0.334,4.308-1.835,5.394-3.879l42.136-82.647l39.595,38.807
			c1.701,1.593,4.017,2.325,6.27,1.982c2.342-0.389,4.243-1.835,5.319-3.9l46.787-91.592c1.78-3.583,0.343-7.989-3.276-9.797
			c-3.546-1.873-7.996-0.452-9.85,3.175l-42.12,82.681l-39.586-38.771c-1.719-1.657-3.972-2.379-6.288-2.017
			c-2.333,0.361-4.315,1.808-5.326,3.854l-42.221,82.682l-39.604-38.745c-1.645-1.657-4.007-2.362-6.295-2.081
			c-2.298,0.424-4.261,1.89-5.291,3.935l-42.202,82.636l-39.615-38.744c-1.635-1.601-3.942-2.352-6.313-2.009
			c-2.269,0.408-4.243,1.783-5.301,3.882l-35.788,70.2V186.741c0-2.387-2.006-4.368-4.412-4.368c-2.445,0-4.381,1.981-4.381,4.368
			v229.177C130.681,418.28,132.617,420.297,135.062,420.297z"/>
		<path style="fill:#1C1B1A;" d="M530.95,132.519H69.05c0,0-19.05,0-19.05,19.051V448.43c0,0,0,19.051,19.05,19.051h461.9
			c0,0,19.05,0,19.05-19.051V151.57C550,151.57,550,132.519,530.95,132.519z M71.42,349.754c-2.551,0-4.632-2.081-4.632-4.632
			c0-2.568,2.081-4.614,4.632-4.614c2.569,0,4.65,2.046,4.65,4.614C76.07,347.673,73.989,349.754,71.42,349.754z M71.42,318.49
			c-2.551,0-4.632-2.063-4.632-4.632c0-2.549,2.081-4.632,4.632-4.632c2.569,0,4.65,2.083,4.65,4.632
			C76.07,316.427,73.989,318.49,71.42,318.49z M71.42,287.226c-2.551,0-4.632-2.081-4.632-4.632c0-2.568,2.081-4.632,4.632-4.632
			c2.569,0,4.65,2.064,4.65,4.632C76.07,285.146,73.989,287.226,71.42,287.226z M71.42,255.962c-2.551,0-4.632-2.043-4.632-4.614
			c0-2.586,2.081-4.65,4.632-4.65c2.569,0,4.65,2.064,4.65,4.65C76.07,253.919,73.989,255.962,71.42,255.962z M506.526,440.669
			H91.973V159.331h414.553V440.669z M535.129,318.888c0,4.252-4.214,4.252-4.214,4.252h-5.012c-4.236,0-4.236-4.252-4.236-4.252
			v-41.322c0-4.252,4.236-4.252,4.236-4.252h5.012c4.214,0,4.214,4.252,4.214,4.252V318.888z"/>
	</g>
</g>
<g id="Layer_1">
</g>
</svg>
