<svg id="Layer_1" data-name="Layer 1" xmlns="http://www.w3.org/2000/svg" viewBox="0 0 26.99 18.08">
  <defs>
    <style>
      .cls-1 {
        fill: #1c1b1a;
      }
    </style>
  </defs>
  <title>data</title>
  <path class="cls-1" d="M18.1,33.49H35.75a0.24,0.24,0,0,0,0-.48H18.66l2.07-4,2.14,2.1a0.4,0.4,0,0,0,.63-0.1l2.28-4.46L27.9,28.6a0.4,0.4,0,0,0,.63-0.1L30.81,24l2.14,2.09a0.41,0.41,0,0,0,.34.11A0.39,0.39,0,0,0,33.57,26l2.53-4.94a0.4,0.4,0,0,0-.71-0.36l-2.27,4.46L31,23.09A0.39,0.39,0,0,0,30.64,23a0.39,0.39,0,0,0-.29.21l-2.28,4.46-2.14-2.09a0.41,0.41,0,0,0-.34-0.11,0.4,0.4,0,0,0-.29.21L23,30.12,20.89,28a0.4,0.4,0,0,0-.34-0.11,0.39,0.39,0,0,0-.29.21l-1.93,3.79v-11a0.24,0.24,0,0,0-.24-0.24,0.24,0.24,0,0,0-.24.24V33.26a0.24,0.24,0,0,0,.24.24" transform="translate(-13.51 -17.96)"/>
  <path class="cls-1" d="M13.51,19V35a1,1,0,0,0,1,1H39.47a1,1,0,0,0,1-1V19a1,1,0,0,0-1-1H14.53A1,1,0,0,0,13.51,19Zm0.91,5.39a0.25,0.25,0,1,1,.25.25A0.25,0.25,0,0,1,14.41,24.37Zm0,1.69a0.25,0.25,0,1,1,.25.25A0.25,0.25,0,0,1,14.41,26.06Zm0,1.69a0.25,0.25,0,1,1,.25.25A0.25,0.25,0,0,1,14.41,27.75Zm0,1.69a0.25,0.25,0,1,1,.25.25A0.25,0.25,0,0,1,14.41,29.44Zm25.05-3.88a0.22,0.22,0,0,1,.23.23V28a0.22,0.22,0,0,1-.23.23H39.19A0.22,0.22,0,0,1,39,28V25.79a0.22,0.22,0,0,1,.23-0.23h0.27Zm-1.32-6.15V34.59H15.77V19.41H38.15Z" transform="translate(-13.51 -17.96)"/>
</svg>
