<?xml version="1.0" encoding="iso-8859-1"?>
<!-- Generator: Adobe Illustrator 19.2.1, SVG Export Plug-In . SVG Version: 6.00 Build 0)  -->
<svg version="1.1" xmlns="http://www.w3.org/2000/svg" xmlns:xlink="http://www.w3.org/1999/xlink" x="0px" y="0px"
	 viewBox="0 0 600 600" style="enable-background:new 0 0 600 600;" xml:space="preserve">
<g id="appointment">
	<g id="date">
		<path style="fill:#020202;" d="M520.772,117.249h-73.591V99.922c0-27.557-22.39-49.896-49.896-49.896s-49.948,22.39-49.948,49.896
			v17.328h-94.676V99.922c0-27.557-22.39-49.896-49.896-49.896c-27.505,0-49.896,22.39-49.896,49.896v17.328H79.228
			c-16.075,0-29.228,13.1-29.228,29.228v374.217c0,16.127,13.152,29.28,29.228,29.28h441.545c16.127,0,29.228-13.152,29.228-29.28
			V146.477C550,130.35,536.9,117.249,520.772,117.249z M379.175,99.922c0-9.969,8.09-18.111,18.058-18.111
			c9.969,0,18.058,8.142,18.058,18.111v66.441c0,9.969-8.09,18.111-18.058,18.111c-9.969,0-18.058-8.142-18.058-18.111V99.922z
			 M184.708,99.922c0-9.969,8.09-18.111,18.006-18.111c9.969,0,18.058,8.142,18.058,18.111v66.441
			c0,9.969-8.09,18.111-18.058,18.111s-18.006-8.142-18.006-18.111V99.922z M518.163,518.137H81.837v-294.52h436.326V518.137
			L518.163,518.137z M287.109,471.32H152.61v-36.065l78.027-75.47c9.395-9.081,20.72-20.198,20.72-34.081
			c0-16.44-13.622-26.409-29.28-26.409c-16.701,0-28.601,10.804-30.898,27.296l-35.752-2.818
			c3.392-37.161,30.324-56.785,66.649-56.785c36.065,0,65.031,18.424,65.031,57.046c0,25.261-13.048,42.537-30.898,59.081
			l-62.161,57.568h93.058V471.32L287.109,471.32z M304.332,406.341c0-21.033,7.724-37.474,18.737-55.115l51.357-80.846h41.388
			l-48.225,74.322l0.626,0.522c3.914-2.244,11.9-3.392,18.685-3.392c35.491,0,60.438,29.228,60.438,64.144
			c0,41.701-30.324,68.685-71.503,68.685C333.873,474.713,304.332,448.878,304.332,406.341z M340.083,405.767
			c0,20.146,16.493,36.587,36.639,36.587c20.094,0,36.587-16.44,36.587-36.587c0-20.146-16.493-36.587-36.587-36.587
			C356.576,369.181,340.083,385.621,340.083,405.767z"/>
	</g>
</g>
<g id="Layer_1">
</g>
</svg>
