<?xml version="1.0" encoding="iso-8859-1"?>
<!-- Generator: Adobe Illustrator 16.0.0, SVG Export Plug-In . SVG Version: 6.00 Build 0)  -->
<!DOCTYPE svg PUBLIC "-//W3C//DTD SVG 1.1//EN" "http://www.w3.org/Graphics/SVG/1.1/DTD/svg11.dtd">
<svg version="1.1" xmlns="http://www.w3.org/2000/svg" xmlns:xlink="http://www.w3.org/1999/xlink" x="0px" y="0px"
	 width="961.539px" height="1000px" viewBox="0 0 961.539 1000" style="enable-background:new 0 0 961.539 1000;"
	 xml:space="preserve">
<g id="KP_x5F_Date_x5F_icon">
	<path style="fill:#020202;" d="M903.764,149.871H762.742v-33.209c0-52.789-42.895-95.649-95.596-95.649
		c-52.736,0-95.666,42.86-95.666,95.649v33.209H390.059v-33.209c0-52.789-42.931-95.649-95.597-95.649
		c-52.701,0-95.596,42.86-95.596,95.649v33.209H57.774c-30.838,0-55.993,25.139-55.993,56.045v717.009
		c0,30.908,25.155,56.062,55.993,56.062h845.989c30.906,0,55.994-25.154,55.994-56.062V205.916
		C959.758,175.01,934.67,149.871,903.764,149.871z M632.531,116.662c0-19.127,15.523-34.686,34.615-34.686
		s34.613,15.559,34.613,34.686v127.385c0,19.111-15.521,34.687-34.613,34.687s-34.615-15.575-34.615-34.687V116.662z
		 M259.917,116.662c0-19.127,15.488-34.686,34.545-34.686c19.057,0,34.58,15.559,34.58,34.686v127.385
		c0,19.111-15.523,34.687-34.58,34.687c-19.057,0-34.545-15.575-34.545-34.687V116.662z M898.809,917.97H62.798V353.66h836.01
		V917.97z M456.1,828.333H198.415v-69.089l149.476-144.59c17.982-17.431,39.742-38.67,39.742-65.314
		c0-31.496-26.056-50.589-56.097-50.589c-32.016,0-54.849,20.688-59.215,52.252l-68.466-5.438
		c6.514-71.238,58.141-108.763,127.681-108.763c69.125,0,124.563,35.341,124.563,109.281c0,48.439-24.982,81.53-59.215,113.164
		L277.795,769.568H456.1V828.333z M489.084,703.805c0-40.263,14.762-71.792,35.932-105.573l98.369-154.883h79.346l-92.408,142.443
		l1.178,1.038c7.518-4.33,22.764-6.479,35.793-6.479c67.98,0,115.797,56.028,115.797,122.866
		c0,79.899-58.107,131.562-136.967,131.562C545.701,834.779,489.084,785.3,489.084,703.805z M557.586,702.697
		c0,38.632,31.566,70.129,70.234,70.129c38.494,0,70.059-31.497,70.059-70.129c0-38.634-31.564-70.13-70.059-70.13
		C589.152,632.567,557.586,664.063,557.586,702.697z"/>
</g>
<g id="Layer_1">
</g>
</svg>
