<svg id="Layer_1" data-name="Layer 1" xmlns="http://www.w3.org/2000/svg" viewBox="0 0 19.84 27">
  <defs>
    <style>
      .cls-1 {
        fill: #1c1b1a;
      }
    </style>
  </defs>
  <title>dental</title>
  <path class="cls-1" d="M27,27.35c1.27,0,2.43.46,2.66,5,0.14,2.68-.42,7.94.77,8.09,0.94,0.12,1.3-.47,2.34-2.51,1.19-2.33,1.68-6.4,1.68-8.55a17.2,17.2,0,0,1,1-5.73c0.57-1.6,1.11-2.15,1.3-3.45,0.75-5.08-2.11-7.11-6-6.69a9.5,9.5,0,0,0-2.11.59,5.79,5.79,0,0,1-1.63.44h0a5.82,5.82,0,0,1-1.63-.44,9.49,9.49,0,0,0-2.11-.59c-3.93-.41-6.79,1.61-6,6.69,0.19,1.3.72,1.84,1.29,3.45a17.15,17.15,0,0,1,1,5.73c0,2.15.49,6.22,1.68,8.55,1,2,1.39,2.63,2.34,2.51,1.18-.15.64-5.41,0.77-8.09,0.23-4.58,1.4-5,2.66-5h0Z" transform="translate(-17.08 -13.5)"/>
</svg>
