<?xml version="1.0" encoding="iso-8859-1"?>
<!-- Generator: Adobe Illustrator 19.2.1, SVG Export Plug-In . SVG Version: 6.00 Build 0)  -->
<svg version="1.1" xmlns="http://www.w3.org/2000/svg" xmlns:xlink="http://www.w3.org/1999/xlink" x="0px" y="0px"
	 viewBox="0 0 600 600" style="enable-background:new 0 0 600 600;" xml:space="preserve">
<g id="dental">
	<path id="dental_1_" style="fill:#1C1B1A;" d="M300.094,306.51c23.456,0,45.058,8.498,49.318,93.372
		c2.504,49.642-7.696,146.994,14.232,149.833c17.471,2.278,24.126-8.754,43.314-46.46c21.973-43.205,31.141-118.528,31.141-158.405
		c0-39.842,8.789-76.5,19.369-106.158c10.617-29.651,20.491-39.823,24.036-63.812c13.798-94.015-39.155-131.586-111.982-123.91
		c-16.16,1.719-33.34,8.889-39.145,10.878c-5.75,2.007-18.573,7.641-30.156,8.111h-0.235h-0.226
		c-11.556-0.47-24.388-6.104-30.165-8.111c-5.787-1.989-22.986-9.159-39.145-10.878c-72.837-7.676-125.762,29.895-111.945,123.91
		c3.519,23.989,13.393,34.162,23.98,63.812c10.617,29.658,19.415,66.316,19.415,106.158c0,39.877,9.159,115.201,31.123,158.405
		c19.171,37.706,25.817,48.738,43.305,46.46c21.938-2.839,11.765-100.191,14.26-149.833c4.269-84.874,25.836-93.372,49.283-93.372
		H300.094z"/>
</g>
<g id="Layer_1">
</g>
</svg>
