<?xml version="1.0" encoding="iso-8859-1"?>
<!-- Generator: Adobe Illustrator 16.0.0, SVG Export Plug-In . SVG Version: 6.00 Build 0)  -->
<!DOCTYPE svg PUBLIC "-//W3C//DTD SVG 1.1//EN" "http://www.w3.org/Graphics/SVG/1.1/DTD/svg11.dtd">
<svg version="1.1" xmlns="http://www.w3.org/2000/svg" xmlns:xlink="http://www.w3.org/1999/xlink" x="0px" y="0px"
	 width="961.539px" height="1000px" viewBox="0 0 961.539 1000" style="enable-background:new 0 0 961.539 1000;"
	 xml:space="preserve">
<g id="KP_x5F_Doctor_x5F_Female_x5F_icon">
	<g>
		<path style="fill:#1C1B1A;" d="M749.777,532.638l-57.021-223.599c-11.009-33.238-51.755-91.669-120.904-99.501
			c-0.108,54.713-38.652,121.065-77.487,134.418c-1.371,8.608-4.979,19.976-14.037,29.83
			c-12.345,13.461-30.786,20.318-54.823,20.318c-34.828,0-59.08-18.352-72.218-54.569c-0.938,0.037-1.803,0.108-2.742,0.108
			c-23.422,0-42.55-19.055-42.55-42.496c0-23.441,19.127-42.479,42.55-42.479c23.423,0,42.479,19.038,42.479,42.479
			c0,12-4.981,23.242-13.752,31.272c11.441,33.167,30.642,37.498,46.232,37.498c15.736,0,27.103-3.681,33.925-11.062
			c3.356-3.646,5.268-7.94,6.281-11.621c-38.04-14.905-75.575-80.59-75.611-133.932c-70.483,7.055-111.483,65.738-121.156,99.735
			l-56.986,223.905c-20.065,68.229,67.489,94.467,88.242,30.659l47.314-176.627h23.242l-83.658,340.622h69.727v214.178
			c0,78.101,113.829,75.863,113.829,0V727.599h19.634v214.178c0,75.863,114.406,78.101,114.406,0V727.599h69.149l-84.775-340.622
			h25.081l47.388,175.617C682.181,629.107,769.051,600.885,749.777,532.638z"/>
		<path style="fill:#1C1B1A;" d="M418.251,208.563c0,0.235,0,0.397,0,0.613c0,53.108,43.524,108.921,62.76,108.921
			s62.727-55.813,62.727-108.921c0-0.216,0-0.378,0-0.613h-66.227H418.251z"/>
		<path style="fill:#1C1B1A;" d="M336.252,297.148c0,7.903,6.389,14.255,14.292,14.255c7.868,0,14.256-6.352,14.256-14.255
			c0-7.833-6.388-14.275-14.256-14.275C342.642,282.873,336.252,289.315,336.252,297.148z"/>
		<path style="fill:#1C1B1A;" d="M480.794,196.203c54.064,0,97.805-43.832,97.805-97.842c0-54.027-43.741-97.877-97.805-97.877
			c-54.062,0-97.876,43.85-97.876,97.877C382.918,152.371,426.733,196.203,480.794,196.203z"/>
	</g>
</g>
<g id="Layer_1">
</g>
</svg>
