<?xml version="1.0" encoding="iso-8859-1"?>
<!-- Generator: Adobe Illustrator 16.0.0, SVG Export Plug-In . SVG Version: 6.00 Build 0)  -->
<!DOCTYPE svg PUBLIC "-//W3C//DTD SVG 1.1//EN" "http://www.w3.org/Graphics/SVG/1.1/DTD/svg11.dtd">
<svg version="1.1" xmlns="http://www.w3.org/2000/svg" xmlns:xlink="http://www.w3.org/1999/xlink" x="0px" y="0px"
	 width="961.539px" height="1000px" viewBox="0 0 961.539 1000" style="enable-background:new 0 0 961.539 1000;"
	 xml:space="preserve">
<g id="KP_x5F_Doctor_x5F_Male_x5F_Profile_x5F_icon">
	<g>
		<path style="fill:#020202;" d="M950.242,742.967c-2.074-27.934-26.133-57.584-53.619-66.133L743.865,629.74
			c1.938,10.072,1.385,43.736-0.07,51.316c32.574,34.01,50.193,117.746,26.309,173.113c-14.295,33.334-32.264,41.986-61.721,44.793
			c-3.842,3.875-9.104,6.162-14.711,6.438l-21.807,0.832c-0.277,0-0.557,0-0.832,0c-6.404,0-12.393-2.633-16.684-7.41
			c-4.432-5.018-6.371-11.662-5.33-18.242l3.219-20.525c1.141-6.646,5.018-12.289,10.764-15.648
			c5.713-3.424,12.602-3.963,18.9-1.676l20.562,7.598c2.422,0.865,4.707,2.248,6.611,3.912c13.326-1.664,14.711-4.881,20.25-17.637
			c20.701-48.064-13.604-123.994-29.631-130.898c-5.678-2.529-26.271,0.916-52.27,15.906c-27.414,15.75-54.52,37.088-63.727,58.516
			c-5.572,12.98-6.543,16.424,1.072,26.791c2.49,0.227,4.986,0.92,7.338,2.027l19.73,9.711c6.023,2.992,10.316,8.408,11.84,14.865
			c1.525,6.611,0,13.482-4.086,18.709l-12.527,16.271c-4.088,5.467-10.248,8.549-16.965,8.756
			c-6.922-0.137-13.084-2.525-17.445-7.648l-14.332-16.391c-3.703-4.207-5.605-9.607-5.537-15.023
			c-18.139-23.332-24.299-42.354-9.969-75.672c23.191-53.963,92.006-102.496,139.154-105.627c-0.209-1.662-0.553-3.443-1.178-5.193
			c-2.043-5.832-5.607-38.543-12.117-45.174l-11.248-3.461c-27.795-8.514-50.33-38.318-50.33-66.1v-25.39
			c16.961-22.154,29.873-49.12,40.604-80.117c4.777-14.711,9.727-30.479,15.092-47.199c17.932-10.004,32.609-30.462,38.77-55.956
			c6.162-25.91,1.592-51.04-10.453-67.743c0.969-9.192,2.008-18.831,2.008-27c0-114.958-94.293-208.23-211.086-209.441v-0.45
			c-0.139,0-0.969,0.45-1.177,0.45c-0.276,0-1.073-0.45-1.454-0.45v0.45c-116.517,1.211-210.704,94.483-210.704,209.441
			c0,8.169,0.794,17.809,2.042,27c-12.186,16.703-16.858,41.833-10.455,67.743c5.988,25.494,20.977,45.952,38.597,55.956
			c5.226,16.72,10.039,32.487,14.85,47.199c10.662,30.998,23.781,57.826,40.604,79.978v25.529c0,27.781-22.88,57.586-50.228,66.1
			l-11.25,3.461c-8.55,23.643-14.816,76.605,8.516,111.758c16.995-3.324,34.512,0,49.223,9.518
			c15.058,9.693,25.374,24.75,29.215,42.301c3.739,17.566,0.485,35.498-9.242,50.574c-10.039,15.559-25.512,25.6-42.371,29.197
			c-16.823,3.67-34.996,0.9-50.607-9.225c-31.085-20.146-40.05-61.84-19.87-92.943c0,0,0-0.033,0.07-0.068
			c-20.39-30.93-30.461-78.975-28.523-121.432L65.227,676.834c-27.795,8.549-51.681,38.199-54.104,66.133L1.119,976.328H960.42
			v-90.416L950.242,742.967z"/>
		<path style="fill:#020202;" d="M309.612,763.148h-0.034c-5.608,1.195-10.418,4.518-13.569,9.328
			c-6.439,10.004-3.6,23.418,6.404,29.857c4.811,3.133,10.559,4.189,16.234,2.959h0.036c5.642-1.213,10.489-4.553,13.569-9.398
			c3.151-4.811,4.189-10.574,2.942-16.199c-1.175-5.66-4.5-10.506-9.345-13.588l0,0
			C321.035,762.957,315.256,761.953,309.612,763.148z"/>
	</g>
</g>
<g id="Layer_1">
</g>
</svg>
