<?xml version="1.0" encoding="iso-8859-1"?>
<!-- Generator: Adobe Illustrator 19.2.1, SVG Export Plug-In . SVG Version: 6.00 Build 0)  -->
<svg version="1.1" xmlns="http://www.w3.org/2000/svg" xmlns:xlink="http://www.w3.org/1999/xlink" x="0px" y="0px"
	 viewBox="0 0 600 600" style="enable-background:new 0 0 600 600;" xml:space="preserve">
<g id="doctor-male-profile">
	<g id="doctor-male-profile_1_">
		<g>
			<path style="fill:#020202;" d="M544.684,426.603c-1.095-14.542-13.604-30.022-27.937-34.452l-79.641-24.549
				c0.99,5.264,0.73,22.777-0.052,26.738c16.992,17.721,26.165,61.347,13.708,90.222c-7.453,17.356-16.835,21.891-32.159,23.35
				c-1.981,2.033-4.743,3.232-7.662,3.336l-11.362,0.417c-0.156,0-0.313,0-0.417,0c-3.336,0-6.463-1.355-8.704-3.857
				c-2.293-2.606-3.336-6.098-2.762-9.486l1.668-10.685c0.573-3.44,2.606-6.411,5.629-8.131c2.971-1.772,6.567-2.085,9.851-0.886
				l10.737,3.961c1.251,0.469,2.45,1.147,3.44,2.033c6.932-0.886,7.662-2.554,10.529-9.173c10.789-25.07-7.089-64.63-15.428-68.227
				c-2.971-1.303-13.708,0.469-27.259,8.287c-14.281,8.235-28.406,19.337-33.201,30.491c-2.919,6.776-3.388,8.548,0.573,13.969
				c1.303,0.104,2.606,0.469,3.805,1.042l10.268,5.056c3.127,1.564,5.368,4.378,6.15,7.766c0.782,3.44,0,7.036-2.137,9.747
				l-6.515,8.496c-2.137,2.867-5.316,4.43-8.861,4.587c-3.596-0.052-6.828-1.303-9.069-3.961l-7.453-8.548
				c-1.928-2.189-2.919-5.004-2.867-7.818c-9.434-12.144-12.665-22.099-5.212-39.456c12.092-28.146,47.952-53.424,72.553-55.04
				c-0.104-0.886-0.313-1.772-0.625-2.71c-1.042-3.023-2.919-20.067-6.307-23.559l-5.838-1.824
				c-14.49-4.43-26.217-19.962-26.217-34.452v-13.239c8.861-11.571,15.584-25.592,21.161-41.749
				c2.502-7.662,5.056-15.897,7.87-24.601c9.33-5.212,16.992-15.897,20.223-29.188c3.232-13.499,0.834-26.582-5.473-35.286
				c0.521-4.795,1.042-9.799,1.042-14.073c0-59.94-49.15-108.517-110.028-109.142v-0.261c-0.052,0-0.521,0.261-0.625,0.261
				c-0.156,0-0.573-0.261-0.782-0.261v0.261c-60.721,0.625-109.82,49.255-109.82,109.142c0,4.274,0.417,9.278,1.042,14.073
				c-6.359,8.704-8.809,21.787-5.473,35.286c3.127,13.291,10.945,23.976,20.119,29.188c2.71,8.704,5.212,16.939,7.766,24.601
				c5.577,16.158,12.405,30.126,21.161,41.697v13.239c0,14.49-11.936,30.022-26.165,34.452l-5.838,1.824
				c-4.43,12.301-7.714,39.925,4.43,58.272c8.861-1.72,17.982,0,25.644,4.952c7.87,5.056,13.239,12.926,15.219,22.047
				c1.928,9.173,0.261,18.503-4.795,26.373c-5.212,8.131-13.291,13.343-22.099,15.219c-8.756,1.928-18.242,0.469-26.373-4.795
				c-16.21-10.476-20.901-32.211-10.372-48.421c0,0,0,0,0.052-0.052c-10.633-16.105-15.897-41.176-14.855-63.275l-85.479,26.373
				c-14.542,4.378-26.999,19.806-28.25,34.4L50,548.254h500v-47.118L544.684,426.603z"/>
			<path style="fill:#020202;" d="M210.794,437.079L210.794,437.079c-2.919,0.625-5.473,2.345-7.089,4.847
				c-3.336,5.212-1.876,12.196,3.336,15.584c2.502,1.616,5.525,2.189,8.444,1.564l0,0c2.919-0.625,5.473-2.398,7.089-4.899
				c1.668-2.502,2.189-5.525,1.512-8.444c-0.625-2.971-2.345-5.473-4.847-7.088l0,0
				C216.736,437.027,213.765,436.506,210.794,437.079z"/>
		</g>
	</g>
</g>
<g id="Layer_1">
</g>
</svg>
