<?xml version="1.0" encoding="iso-8859-1"?>
<!-- Generator: Adobe Illustrator 16.0.0, SVG Export Plug-In . SVG Version: 6.00 Build 0)  -->
<!DOCTYPE svg PUBLIC "-//W3C//DTD SVG 1.1//EN" "http://www.w3.org/Graphics/SVG/1.1/DTD/svg11.dtd">
<svg version="1.1" xmlns="http://www.w3.org/2000/svg" xmlns:xlink="http://www.w3.org/1999/xlink" x="0px" y="0px"
	 width="961.539px" height="1000px" viewBox="0 0 961.539 1000" style="enable-background:new 0 0 961.539 1000;"
	 xml:space="preserve">
<g id="KP_x5F_Doctor_x5F_Female_x5F_Profile_x5F_icon">
	<g>
		<path style="fill:#020202;" d="M951.869,761.727c-2.164-27.835-26.268-57.73-54.068-66.207l-138.795-42.835
			c1.971,9.906,1.395,42.625-0.07,49.987c31.777,33.189,48.922,114.743,25.709,168.759c-13.988,32.509-31.498,40.917-60.172,43.637
			c-3.783,3.802-8.859,6-14.354,6.278l-21.279,0.803c-0.262,0-0.469,0-0.818,0c-6.191,0-12.07-2.581-16.221-7.22
			c-4.326-4.918-6.244-11.406-5.25-17.79l3.174-19.918c1.117-6.627,4.902-12.07,10.465-15.348c5.582-3.35,12.262-3.872,18.471-1.641
			l19.986,7.431c2.373,0.906,4.605,2.197,6.508,3.907c12.992-1.71,14.316-4.779,19.672-17.319
			c20.18-46.829-13.236-120.832-28.848-127.546c-5.51-2.441-25.602,0.838-50.928,15.435c-26.701,15.418-53.178,36.208-62.158,57.085
			c-5.426,12.697-6.385,16.011,1.062,26.144c2.459,0.21,4.865,0.891,7.152,1.936l19.219,9.489
			c5.879,2.912,10.047,8.213,11.545,14.493c1.502,6.471,0.037,13.168-3.992,18.226l-12.209,15.94
			c-3.959,5.199-9.941,8.269-16.518,8.476c-6.715-0.139-12.715-2.476-17.021-7.499l-13.936-15.906
			c-3.627-4.151-5.459-9.382-5.354-14.686c-17.738-22.741-23.756-41.281-9.768-73.774c22.604-52.566,89.699-99.884,135.621-102.9
			c-0.174-1.693-0.506-3.385-1.117-5.112c-1.986-5.685-5.459-37.445-11.807-43.951l-3.436-1.063
			c105.641-22.324,94.844-99.152,94.844-99.152c-35.562,10.012-92.838-15.384-82.305-73.916
			c10.885-58.653,20.965-73.32,20.965-180.375c0-129.812-105.273-235.034-235.036-235.034
			c-129.831,0-235.052,105.222-235.052,235.034c0,107.698,10.046,121.722,20.842,180.375c10.726,58.532-46.672,83.927-82.147,73.916
			c0,0-10.795,76.828,94.774,99.152l-4.081,1.239c-8.285,23.127-14.284,74.507,8.389,108.656c16.586-3.227,33.661,0,47.98,9.313
			c14.668,9.471,24.784,24.122,28.481,41.231c3.663,17.093,0.472,34.619-9,49.271c-9.819,15.19-24.871,24.976-41.299,28.533
			c-16.413,3.524-34.133,0.802-49.341-9.053c-30.278-19.638-38.998-60.292-19.377-90.553c0.035-0.053,0.052-0.053,0.069-0.104
			c-19.831-30.12-29.667-76.862-27.801-118.181L63.703,695.52c-27.697,8.477-52.027,38.372-53.998,66.207L-0.48,983.924h962.5
			L951.869,761.727z"/>
		<path style="fill:#020202;" d="M291.587,782.709h-0.035c-5.477,1.149-10.186,4.396-13.22,9.085
			c-6.279,9.751-3.523,22.814,6.209,29.127c4.691,3.017,10.29,4.064,15.836,2.843h0.018c5.511-1.168,10.221-4.429,13.237-9.155
			c3.052-4.711,4.082-10.309,2.896-15.768c-1.169-5.563-4.43-10.256-9.122-13.272l0,0
			C302.697,782.551,297.063,781.47,291.587,782.709z"/>
	</g>
</g>
<g id="Layer_1">
</g>
</svg>
