<?xml version="1.0" encoding="iso-8859-1"?>
<!-- Generator: Adobe Illustrator 19.2.1, SVG Export Plug-In . SVG Version: 6.00 Build 0)  -->
<svg version="1.1" xmlns="http://www.w3.org/2000/svg" xmlns:xlink="http://www.w3.org/1999/xlink" x="0px" y="0px"
	 viewBox="0 0 600 600" style="enable-background:new 0 0 600 600;" xml:space="preserve">
<g id="doctor-female">
	<g id="doctor-female_1_">
		<g>
			<path style="fill:#1C1B1A;" d="M434.627,316.302L406.1,204.396c-5.505-16.616-25.925-45.893-60.507-49.797
				c-0.05,27.376-19.368,60.607-38.787,67.264c-0.701,4.304-2.502,10.009-7.007,14.914c-6.156,6.756-15.415,10.16-27.426,10.16
				c-17.417,0-29.578-9.209-36.134-27.326c-0.45,0-0.901,0.05-1.351,0.05c-11.711,0-21.27-9.559-21.27-21.27
				s9.559-21.27,21.27-21.27c11.711,0,21.27,9.509,21.27,21.27c0,6.006-2.502,11.611-6.907,15.665
				c5.705,16.616,15.315,18.768,23.122,18.768c7.857,0,13.563-1.852,16.966-5.555c1.702-1.802,2.652-3.954,3.153-5.806
				c-19.018-7.457-37.836-40.338-37.836-67.013c-35.283,3.553-55.803,32.881-60.657,49.897l-28.527,112.056
				c-10.06,34.132,33.782,47.295,44.142,15.365l23.672-88.334h11.611l-41.89,170.461h34.883v107.202
				c0,39.087,56.954,37.986,56.954,0V413.895h9.809v107.202c0,37.986,57.254,39.087,57.254,0V413.895h34.583l-42.29-170.461h12.562
				l23.722,87.883C400.795,364.598,444.286,350.485,434.627,316.302z"/>
			<path style="fill:#1C1B1A;" d="M268.72,154.149c0,0.1,0,0.2,0,0.3c0,26.575,21.771,54.502,31.43,54.502
				c9.609,0,31.38-27.926,31.38-54.502c0-0.1,0-0.2,0-0.3h-33.131H268.72z"/>
			<path style="fill:#1C1B1A;" d="M227.681,198.441c0,3.954,3.203,7.157,7.157,7.157c3.954,0,7.157-3.203,7.157-7.157
				c0-3.904-3.203-7.157-7.157-7.157C230.834,191.334,227.681,194.537,227.681,198.441z"/>
			<path style="fill:#1C1B1A;" d="M299.999,147.943c27.076,0,48.946-21.921,48.946-48.946S327.075,50,299.999,50
				c-27.076,0-48.996,21.921-48.996,48.996C251.003,126.022,272.924,147.943,299.999,147.943z"/>
		</g>
	</g>
</g>
<g id="Layer_1">
</g>
</svg>
