<?xml version="1.0" encoding="iso-8859-1"?>
<!-- Generator: Adobe Illustrator 19.2.1, SVG Export Plug-In . SVG Version: 6.00 Build 0)  -->
<svg version="1.1" xmlns="http://www.w3.org/2000/svg" xmlns:xlink="http://www.w3.org/1999/xlink" x="0px" y="0px"
	 viewBox="0 0 600 600" style="enable-background:new 0 0 600 600;" xml:space="preserve">
<g id="doctor-male">
	<g id="doctor-male_1_">
		<g>
			<path style="fill:#1C1B1A;" d="M297.293,212.403c10.075,0,32.932-29.273,33.132-57.242l-66.415-0.05
				C264.161,183.131,287.118,212.403,297.293,212.403z"/>
			<path style="fill:#1C1B1A;" d="M220.853,201.176c0,4.261,3.459,7.669,7.719,7.669c4.261,0,7.669-3.459,7.669-7.669
				c0-4.261-3.459-7.719-7.669-7.719C224.312,193.456,220.853,196.865,220.853,201.176z"/>
			<path style="fill:#1C1B1A;" d="M351.227,155.211l-6.366-0.05c-0.15,28.771-20.451,63.558-40.801,70.425
				c-0.702,4.511-2.556,10.476-7.368,15.689c-6.466,7.068-16.14,10.677-28.721,10.677c-18.245,0-30.977-9.674-37.894-28.721
				c-0.501,0.05-1.002,0.05-1.554,0.05c-12.23,0-22.205-9.925-22.205-22.155s9.975-22.205,22.205-22.205s22.155,9.975,22.155,22.205
				c0,6.316-2.657,12.18-7.268,16.391c6.065,17.694,16.29,20,24.561,20c8.321,0,14.386-1.955,17.995-5.865
				c1.855-2.005,2.857-4.361,3.408-6.366c-19.95-7.719-39.648-42.105-39.849-70.124h-1.504c-34.586,0-62.405,28.17-62.405,63.408
				v115.687c0,29.172,42.656,29.172,42.656,0V247.34h10.125v273.88c0,38.947,56.841,37.794,56.841,0V366.035h9.774v155.186
				c0,37.794,57.142,38.947,57.142,0V247.34h9.875v86.866c0,29.423,42.455,29.423,42.355,0V219.421
				C414.384,186.99,389.222,155.211,351.227,155.211z"/>
			<path style="fill:#1C1B1A;" d="M300.05,147.442c26.917,0,48.721-21.804,48.721-48.721S326.967,50,300.05,50
				s-48.771,21.854-48.771,48.721C251.279,125.638,273.133,147.442,300.05,147.442z"/>
		</g>
	</g>
</g>
<g id="Layer_1">
</g>
</svg>
