<?xml version="1.0" encoding="iso-8859-1"?>
<!-- Generator: Adobe Illustrator 19.2.1, SVG Export Plug-In . SVG Version: 6.00 Build 0)  -->
<svg version="1.1" xmlns="http://www.w3.org/2000/svg" xmlns:xlink="http://www.w3.org/1999/xlink" x="0px" y="0px"
	 viewBox="0 0 600 600" style="enable-background:new 0 0 600 600;" xml:space="preserve">
<g id="doctor-female-profile">
	<g id="doctor-female-profile_1_">
		<g>
			<path style="fill:#020202;" d="M544.753,429.61c-1.143-14.442-13.662-29.974-28.104-34.39l-72.104-22.234
				c1.039,5.143,0.727,22.13-0.052,25.974c16.519,17.247,25.403,59.584,13.351,87.688c-7.273,16.883-16.364,21.247-31.273,22.649
				c-1.974,1.974-4.623,3.117-7.481,3.273l-11.065,0.416c-0.156,0-0.26,0-0.416,0c-3.221,0-6.286-1.351-8.416-3.74
				c-2.234-2.545-3.221-5.922-2.701-9.247l1.662-10.338c0.571-3.429,2.545-6.286,5.455-7.948c2.909-1.714,6.39-2.026,9.61-0.831
				l10.39,3.844c1.247,0.468,2.39,1.143,3.377,2.026c6.753-0.883,7.429-2.493,10.234-8.987
				c10.493-24.312-6.857-62.753-14.961-66.234c-2.857-1.247-13.299,0.416-26.442,8c-13.87,8-27.636,18.805-32.312,29.662
				c-2.805,6.597-3.325,8.312,0.571,13.558c1.299,0.104,2.545,0.468,3.74,0.987l9.974,4.935c3.065,1.507,5.195,4.26,5.974,7.532
				c0.779,3.377,0,6.857-2.078,9.455l-6.338,8.26c-2.078,2.701-5.143,4.312-8.571,4.416c-3.481-0.052-6.597-1.299-8.831-3.896
				l-7.221-8.26c-1.87-2.182-2.857-4.883-2.805-7.636c-9.195-11.792-12.364-21.455-5.091-38.338
				c11.74-27.325,46.597-51.896,70.442-53.455c-0.104-0.883-0.26-1.766-0.571-2.649c-1.039-2.961-2.857-19.429-6.13-22.857
				l-1.766-0.571c54.857-11.584,49.247-51.532,49.247-51.532c-18.493,5.195-48.208-8-42.753-38.39
				c5.662-30.494,10.909-38.078,10.909-93.714c0-67.429-54.701-122.078-122.078-122.078C232.701,54.961,178,109.61,178,177.039
				c0,55.948,5.195,63.221,10.805,93.714c5.558,30.39-24.26,43.584-42.649,38.39c0,0-5.61,39.896,49.247,51.532l-2.13,0.623
				c-4.312,12-7.429,38.701,4.364,56.468c8.623-1.662,17.507,0,24.935,4.831c7.636,4.935,12.883,12.519,14.805,21.403
				c1.922,8.883,0.26,17.974-4.675,25.61c-5.091,7.896-12.935,12.987-21.455,14.805c-8.519,1.818-17.714,0.416-25.61-4.727
				c-15.74-10.182-20.26-31.325-10.078-47.065c0-0.052,0.052-0.052,0.052-0.052c-10.286-15.636-15.429-39.948-14.442-61.403
				l-77.818,24.052c-14.39,4.416-27.013,19.948-28.052,34.39L50,545.039h500L544.753,429.61z"/>
			<path style="fill:#020202;" d="M201.74,440.519L201.74,440.519c-2.857,0.571-5.299,2.286-6.909,4.727
				c-3.273,5.091-1.818,11.844,3.221,15.117c2.442,1.558,5.351,2.13,8.208,1.455l0,0c2.857-0.623,5.299-2.286,6.857-4.779
				c1.61-2.442,2.13-5.351,1.506-8.208c-0.623-2.909-2.286-5.351-4.727-6.909l0,0C207.507,440.467,204.597,439.896,201.74,440.519z"
				/>
		</g>
	</g>
</g>
<g id="Layer_1">
</g>
</svg>
