<?xml version="1.0" encoding="iso-8859-1"?>
<!-- Generator: Adobe Illustrator 16.0.0, SVG Export Plug-In . SVG Version: 6.00 Build 0)  -->
<!DOCTYPE svg PUBLIC "-//W3C//DTD SVG 1.1//EN" "http://www.w3.org/Graphics/SVG/1.1/DTD/svg11.dtd">
<svg version="1.1" xmlns="http://www.w3.org/2000/svg" xmlns:xlink="http://www.w3.org/1999/xlink" x="0px" y="0px"
	 width="961.539px" height="1000px" viewBox="0 0 961.539 1000" style="enable-background:new 0 0 961.539 1000;"
	 xml:space="preserve">
<g id="KP_x5F_Doctor_x5F_Male_x5F_icon">
	<g>
		<path style="fill:#1C1B1A;" d="M475.257,325.316c20.08,0,65.715-58.414,66.132-114.152l-132.498-0.09
			C409.235,266.866,455.014,325.316,475.257,325.316z"/>
		<path style="fill:#1C1B1A;" d="M322.753,302.851c0,8.459,6.904,15.309,15.417,15.309c8.493,0,15.343-6.85,15.343-15.309
			c0-8.548-6.85-15.398-15.343-15.398C329.657,287.453,322.753,294.302,322.753,302.851z"/>
		<path style="fill:#1C1B1A;" d="M582.92,211.237l-12.669-0.072c-0.307,57.382-40.81,126.803-81.403,140.521
			c-1.355,9.019-5.132,20.911-14.657,31.322c-12.868,14.079-32.206,21.254-57.312,21.254c-36.417,0-61.828-19.284-75.602-57.292
			c-1.011,0.054-2.022,0.054-3.107,0.054c-24.418,0-44.299-19.809-44.299-44.172c0-24.381,19.881-44.279,44.299-44.279
			c24.398,0,44.208,19.898,44.208,44.279c0,12.561-5.296,24.327-14.514,32.713c12.11,35.315,32.479,39.852,49.015,39.852
			c16.646,0,28.702-3.94,35.895-11.693c3.724-3.994,5.747-8.658,6.759-12.706c-39.797-15.38-79.107-83.987-79.468-139.942h-2.983
			c-68.986,0-124.454,56.208-124.454,126.459v230.763c0,58.178,85.089,58.178,85.089,0V394.989h20.188v546.361
			c0,77.679,113.358,75.401,113.358,0V631.752h19.465v309.599c0,75.401,114.006,77.679,114.006,0V394.989h19.665v173.307
			c0,58.684,84.656,58.684,84.512,0V339.305C708.911,274.584,658.702,211.237,582.92,211.237z"/>
		<path style="fill:#1C1B1A;" d="M480.788,195.711c53.697,0,97.235-43.503,97.235-97.235c0-53.678-43.538-97.235-97.235-97.235
			c-53.677,0-97.308,43.557-97.308,97.235C383.48,152.208,427.11,195.711,480.788,195.711z"/>
	</g>
</g>
<g id="Layer_1">
</g>
</svg>
