<?xml version="1.0" encoding="iso-8859-1"?>
<!-- Generator: Adobe Illustrator 19.2.1, SVG Export Plug-In . SVG Version: 6.00 Build 0)  -->
<svg version="1.1" xmlns="http://www.w3.org/2000/svg" xmlns:xlink="http://www.w3.org/1999/xlink" x="0px" y="0px"
	 viewBox="0 0 600 600" style="enable-background:new 0 0 600 600;" xml:space="preserve">
<g id="document-attached">
	<path d="M483.731,221.869c-0.068-0.656-0.169-1.228-0.34-1.876c-0.716-2.617-1.843-5.14-3.75-7.092L351.138,83.205
		c-1.919-1.994-4.468-3.102-7.119-3.81c-0.674-0.213-1.28-0.316-1.951-0.402c-0.675-0.118-1.348-0.417-2.056-0.417H237.779
		C233.69,62.248,218.932,50.067,201.314,50c-17.51,0-32.182,12.204-36.315,28.577h-33.558c-8.567,0-15.617,7.016-15.617,15.626
		v440.144c0,8.629,7.05,15.654,15.617,15.654h337.074c8.668,0,15.66-7.025,15.66-15.654V223.882
		C484.176,223.175,483.87,222.578,483.731,221.869z M355.708,132.242l75.295,76.013h-75.295V132.242z M220.122,78.577h-37.566
		c3.451-7.024,10.539-11.978,18.844-11.978C209.649,66.629,216.689,71.586,220.122,78.577z M238.401,227.36l0.009-0.035h-0.009
		l0.461-117.512h12.934l-0.464,116.456h1.799l-1.79,0.615c-0.213,19.616-16.249,35.566-35.925,35.566
		c-19.285-0.077-35.278-15.951-35.662-35.202c0.018-0.196,0.018-0.365,0-0.648l0.441-116.787h42.133l-0.391,102.44l-0.06-0.009
		l-0.068,13.982l0.043,0.648l-0.018,0.35c-0.11,3.52-2.957,6.282-6.529,6.282c-3.461-0.016-6.3-2.804-6.497-6.675l0.41-104.792
		v-1.806l-16.531-0.053l-0.385,93.991l-0.009,13.01c0.154,12.6,10.445,22.883,23.036,22.943c12.463,0,22.831-10.214,23.079-22.763
		H238.401z M452.896,518.762H147.094V109.813h16.569l-0.439,116.311l0.017,0.955c0.35,28.559,23.717,51.876,52.108,51.962h0.195
		c27.792,0,50.665-21.962,52.243-49.847l0.101,0.051l0.454-119.431h56.054v114.068c0,8.609,7.049,15.618,15.617,15.618h112.883
		V518.762z"/>
</g>
<g id="Layer_1">
</g>
</svg>
