<?xml version="1.0" encoding="iso-8859-1"?>
<!-- Generator: Adobe Illustrator 19.2.1, SVG Export Plug-In . SVG Version: 6.00 Build 0)  -->
<svg version="1.1" xmlns="http://www.w3.org/2000/svg" xmlns:xlink="http://www.w3.org/1999/xlink" x="0px" y="0px"
	 viewBox="0 0 600 600" style="enable-background:new 0 0 600 600;" xml:space="preserve">
<g id="document-attached">
	<g>
		<path style="fill:none;" d="M238.41,227.325l-0.009,0.035h0.009c-0.248,12.548-10.616,22.763-23.079,22.763
			c-12.592-0.06-22.883-10.342-23.036-22.943l0.009-13.01l0.385-93.991l16.531,0.053v1.806l-0.41,104.792
			c0.197,3.872,3.036,6.659,6.497,6.675c3.572,0,6.42-2.762,6.529-6.282l0.018-0.35l-0.043-0.648l0.068-13.981l0.06,0.009
			l0.391-102.44h-42.133L179.754,226.6c0.018,0.283,0.018,0.452,0,0.648c0.385,19.251,16.377,35.125,35.662,35.202
			c19.675,0,35.711-15.951,35.925-35.566l1.79-0.615h-1.799l0.464-116.456h-12.934l-0.461,117.512H238.41z"/>
		<path style="fill:none;" d="M201.4,66.599c-8.305,0-15.393,4.954-18.844,11.978h37.566
			C216.689,71.586,209.649,66.629,201.4,66.599z"/>
		<path style="fill:none;" d="M267.787,229.193c-1.578,27.885-24.451,49.847-52.243,49.847h-0.195
			c-28.39-0.085-51.758-23.403-52.108-51.962l-0.017-0.955l0.439-116.311h-16.569v408.949h305.802V239.5H340.013
			c-8.568,0-15.617-7.009-15.617-15.618V109.813h-56.054l-0.454,119.431L267.787,229.193z"/>
		<polygon style="fill:none;" points="355.708,208.255 431.003,208.255 355.708,132.242 		"/>
		<polygon style="fill:none;" points="215.542,277.221 215.544,277.241 215.544,277.221 		"/>
		<path style="fill:#020202;" d="M483.731,221.869c-0.068-0.656-0.169-1.228-0.34-1.876c-0.716-2.617-1.843-5.14-3.75-7.092
			L351.138,83.205c-1.919-1.994-4.468-3.102-7.119-3.81c-0.674-0.213-1.28-0.317-1.951-0.402c-0.675-0.118-1.348-0.417-2.056-0.417
			H237.779c0.587,2.343,0.957,4.772,1.081,7.262h0.018l0.068,2.925l-0.083,21.049h12.934l0.125-31.16l16.532,0.077v1.806
			l-0.111,29.277h56.054v114.068c0,8.609,7.049,15.618,15.617,15.618h112.883v279.262H147.094V109.813h16.569l0.081-21.305
			l-0.009-0.845c0.013-3.149,0.525-6.162,1.264-9.087h-33.558c-8.567,0-15.617,7.016-15.617,15.626v440.144
			c0,8.629,7.05,15.654,15.617,15.654h337.074c8.668,0,15.66-7.025,15.66-15.654V223.882
			C484.176,223.175,483.87,222.578,483.731,221.869z M355.708,208.255v-76.013l75.295,76.013H355.708z"/>
		<path style="fill:#020202;" d="M222.414,87.57c-0.023-3.25-0.939-6.238-2.292-8.993h-37.566c-1.338,2.725-2.243,5.684-2.29,8.9
			l0.01,1.124l-0.08,21.212h42.133L222.414,87.57z"/>
		<path style="fill:#0E0E0E;" d="M215.544,275.434c26.761,0,48.621-21.884,48.714-48.79l0.017-2.916h0.027l0.536-141.401
			l-9.328-0.052l-0.571,144.01l0.018,0.639c-0.24,21.576-17.903,39.14-39.37,39.14c-21.414-0.077-39.037-17.545-39.445-38.926
			v-1.159l0.518-137.454l-0.009-1.048c0.197-13.53,11.254-24.494,24.664-24.494c13.565,0.061,24.605,11.084,24.716,24.595
			l-0.094,26.113l-0.408,102.653h-0.062l-0.042,9.583l0.112,1.535l-0.095,0.229c-0.384,5.346-4.732,9.43-10.093,9.43
			c-5.465-0.017-9.873-4.332-10.095-9.821l-0.06-0.478l0.41-102.993l-9.336-0.027l-0.367,102.96
			c0.128,11.016,8.816,19.702,19.361,19.746c10.546,0,19.242-8.543,19.531-19.088l-0.01-0.938l0.01-0.018l0.537-137.017h-0.009
			l-0.035-1.8c-0.042-18.696-15.216-33.965-33.843-34.033c-18.782,0-34.017,15.277-34.095,34.06l0.01,0.843l-0.521,137.889
			c0.018,0.23,0.027,0.417,0.018,0.588c0.325,26.642,22.072,48.346,48.493,48.441l0.193,1.787c0.001,0,0.001,0,0.002,0V275.434z"/>
		<path d="M163.744,88.509l-0.081,21.305l-0.439,116.311l0.017,0.955c0.35,28.559,23.717,51.876,52.108,51.962h0.195
			c27.792,0,50.665-21.962,52.243-49.847l0.101,0.051l0.454-119.431l0.111-29.277V78.73l-16.532-0.077l-0.125,31.16l-0.464,116.456
			h1.799l-1.79,0.615c-0.213,19.616-16.249,35.566-35.925,35.566c-19.285-0.077-35.278-15.951-35.662-35.202
			c0.018-0.196,0.018-0.364,0-0.648l0.441-116.787l0.08-21.212l-0.01-1.124c0.047-3.216,0.952-6.176,2.29-8.9
			c3.451-7.024,10.539-11.978,18.844-11.978c8.249,0.03,15.289,4.987,18.722,11.978c1.353,2.755,2.269,5.743,2.292,8.993
			l-0.085,22.244l-0.391,102.44l-0.06-0.009l-0.068,13.981l0.043,0.648l-0.018,0.35c-0.11,3.52-2.957,6.282-6.529,6.282
			c-3.461-0.016-6.3-2.804-6.497-6.675l0.41-104.792v-1.806l-16.531-0.053l-0.385,93.991l-0.009,13.01
			c0.153,12.6,10.445,22.883,23.036,22.943c12.463,0,22.831-10.214,23.079-22.763h-0.009l0.009-0.035h-0.009l0.461-117.512
			l0.083-21.049l-0.068-2.925h-0.018c-0.124-2.49-0.493-4.919-1.081-7.262C233.69,62.248,218.932,50.067,201.314,50
			c-17.51,0-32.182,12.204-36.315,28.577c-0.739,2.925-1.251,5.938-1.264,9.087L163.744,88.509z M215.542,277.221l-0.193-1.787
			c-26.421-0.095-48.168-21.799-48.493-48.441c0.009-0.172,0-0.358-0.018-0.588l0.521-137.889l-0.01-0.843
			c0.078-18.782,15.312-34.06,34.095-34.06c18.628,0.068,33.802,15.337,33.843,34.033l0.035,1.8h0.009l-0.537,137.017l-0.01,0.018
			l0.01,0.938c-0.29,10.545-8.986,19.088-19.531,19.088c-10.545-0.044-19.233-8.73-19.361-19.746l0.367-102.96l9.336,0.027
			l-0.41,102.993l0.06,0.478c0.222,5.489,4.63,9.804,10.095,9.821c5.361,0,9.709-4.084,10.093-9.43l0.095-0.229l-0.112-1.535
			l0.042-9.583h0.062l0.408-102.653l0.094-26.113c-0.111-13.512-11.151-24.535-24.716-24.595c-13.409,0-24.467,10.965-24.664,24.494
			l0.009,1.048l-0.518,137.454v1.159c0.408,21.381,18.031,38.85,39.445,38.926c21.467,0,39.13-17.563,39.37-39.14l-0.018-0.639
			l0.571-144.01l9.328,0.052l-0.536,141.401h-0.027l-0.017,2.916c-0.093,26.906-21.953,48.79-48.714,48.79v1.787v0.019
			L215.542,277.221z"/>
	</g>
</g>
<g id="Layer_1">
</g>
</svg>
