<?xml version="1.0" encoding="iso-8859-1"?>
<!-- Generator: Adobe Illustrator 16.0.0, SVG Export Plug-In . SVG Version: 6.00 Build 0)  -->
<!DOCTYPE svg PUBLIC "-//W3C//DTD SVG 1.1//EN" "http://www.w3.org/Graphics/SVG/1.1/DTD/svg11.dtd">
<svg version="1.1" xmlns="http://www.w3.org/2000/svg" xmlns:xlink="http://www.w3.org/1999/xlink" x="0px" y="0px"
	 width="961.539px" height="1000px" viewBox="0 0 961.539 1000" style="enable-background:new 0 0 961.539 1000;"
	 xml:space="preserve">
<g id="KP_x5F_Document_x5F_icon">
	<g>
		<path style="fill:#020202;" d="M871.764,303.328c-0.146-1.396-0.363-2.612-0.727-3.991c-1.523-5.569-3.92-10.939-7.984-15.095
			L589.596,8.244c-4.082-4.245-9.506-6.604-15.148-8.11c-1.434-0.453-2.721-0.67-4.156-0.852c-1.432-0.254-2.865-0.889-4.371-0.889
			H122.068c-18.232,0-33.235,14.931-33.235,33.254v936.649c0,18.36,15.003,33.31,33.235,33.31h717.311
			c18.451,0,33.326-14.949,33.326-33.31V307.609C872.705,306.104,872.053,304.834,871.764,303.328z M599.318,112.599
			l160.232,161.757H599.318V112.599z M806.143,935.133H155.379V64.866h377.305v242.743c0,18.324,15.004,33.237,33.236,33.237
			h240.223V935.133z"/>
		<path style="fill:#020202;" d="M239.268,220.109h220.684c15.148,0,27.521-12.318,27.521-27.413
			c0-15.239-12.373-27.467-27.521-27.467H239.268c-15.077,0-27.432,12.228-27.432,27.467
			C211.836,207.791,224.191,220.109,239.268,220.109z"/>
		<path style="fill:#020202;" d="M239.268,373.865h220.684c15.148,0,27.521-12.318,27.521-27.449
			c0-15.239-12.373-27.449-27.521-27.449H239.268c-15.077,0-27.432,12.21-27.432,27.449
			C211.836,361.547,224.191,373.865,239.268,373.865z"/>
		<path style="fill:#020202;" d="M211.836,500.1c0,15.058,12.354,27.395,27.432,27.395H722.18c15.203,0,27.432-12.337,27.432-27.395
			c0-15.275-12.229-27.468-27.432-27.468H239.268C224.191,472.632,211.836,484.824,211.836,500.1z"/>
		<path style="fill:#020202;" d="M722.18,779.998H239.268c-15.077,0-27.432,12.192-27.432,27.395
			c0,15.131,12.354,27.505,27.432,27.505H722.18c15.203,0,27.432-12.374,27.432-27.505
			C749.611,792.19,737.383,779.998,722.18,779.998z"/>
		<path style="fill:#020202;" d="M722.18,626.225H239.268c-15.077,0-27.432,12.336-27.432,27.467
			c0,15.24,12.354,27.432,27.432,27.432H722.18c15.203,0,27.432-12.191,27.432-27.432
			C749.611,638.561,737.383,626.225,722.18,626.225z"/>
	</g>
</g>
<g id="Layer_1">
</g>
</svg>
