<?xml version="1.0" encoding="iso-8859-1"?>
<!-- Generator: Adobe Illustrator 19.2.1, SVG Export Plug-In . SVG Version: 6.00 Build 0)  -->
<svg version="1.1" xmlns="http://www.w3.org/2000/svg" xmlns:xlink="http://www.w3.org/1999/xlink" x="0px" y="0px"
	 viewBox="0 0 600 600" style="enable-background:new 0 0 600 600;" xml:space="preserve">
<g id="document">
	<g id="document_1_">
		<g>
			<path style="fill:#020202;" d="M494.876,202.014c-0.05-0.698-0.199-1.296-0.349-1.994c-0.748-2.791-1.944-5.433-3.987-7.526
				L354.226,54.934c-2.043-2.093-4.735-3.289-7.526-4.037c-0.698-0.249-1.346-0.349-2.093-0.449
				c-0.698-0.15-1.445-0.449-2.193-0.449H121.222c-9.071,0-16.547,7.426-16.547,16.597v466.806c0,9.171,7.476,16.597,16.547,16.597
				h357.506c9.22,0,16.597-7.426,16.597-16.597V204.157C495.325,203.409,495.026,202.761,494.876,202.014z M359.061,106.968
				l79.845,80.642h-79.845V106.968z M462.131,516.906H137.819V83.194h188.048v120.963c0,9.121,7.476,16.547,16.547,16.547h119.717
				V516.906z"/>
			<path style="fill:#020202;" d="M179.635,160.546h109.998c7.526,0,13.706-6.13,13.706-13.656c0-7.576-6.18-13.706-13.706-13.706
				H179.635c-7.526,0-13.656,6.081-13.656,13.706C165.929,154.416,172.109,160.546,179.635,160.546z"/>
			<path style="fill:#020202;" d="M179.635,237.201h109.998c7.526,0,13.706-6.13,13.706-13.656c0-7.576-6.18-13.656-13.706-13.656
				H179.635c-7.526,0-13.656,6.081-13.656,13.656C165.929,231.021,172.109,237.201,179.635,237.201z"/>
			<path style="fill:#020202;" d="M165.929,300.1c0,7.526,6.18,13.656,13.656,13.656h240.68c7.576,0,13.656-6.13,13.656-13.656
				c0-7.626-6.081-13.706-13.656-13.706h-240.63C172.109,286.394,165.929,292.474,165.929,300.1z"/>
			<path style="fill:#020202;" d="M420.315,439.603h-240.68c-7.526,0-13.656,6.081-13.656,13.656c0,7.526,6.18,13.706,13.656,13.706
				h240.68c7.576,0,13.656-6.18,13.656-13.706C433.971,445.684,427.891,439.603,420.315,439.603z"/>
			<path style="fill:#020202;" d="M420.315,362.949h-240.68c-7.526,0-13.656,6.13-13.656,13.706c0,7.576,6.18,13.656,13.656,13.656
				h240.68c7.576,0,13.656-6.081,13.656-13.656C433.971,369.129,427.891,362.949,420.315,362.949z"/>
		</g>
	</g>
</g>
<g id="Layer_1">
</g>
</svg>
