<?xml version="1.0" encoding="iso-8859-1"?>
<!-- Generator: Adobe Illustrator 19.2.1, SVG Export Plug-In . SVG Version: 6.00 Build 0)  -->
<svg version="1.1" xmlns="http://www.w3.org/2000/svg" xmlns:xlink="http://www.w3.org/1999/xlink" x="0px" y="0px"
	 viewBox="0 0 600 600" style="enable-background:new 0 0 600 600;" xml:space="preserve">
<g id="dollar">
	<g id="Layer_7">
		<g id="Layer_8">
			<g>
				<path style="fill:#020202;" d="M337.303,550v-54.068c61.913-3.198,135.119-54.367,135.119-124.575
					c0-80.252-72.956-103.188-135.169-109.184v-82.201c24.485,1.599,43.524,24.885,45.723,48.521h81.251
					c0-79.802-75.555-121.627-127.723-124.475V50H259.15v54.018c-22.736,0-125.225,27.833-125.225,116.98
					c0,79.352,73.906,100.939,125.225,108.085v89.446c-37.328-10.194-44.124-37.627-49.32-60.514h-82.251
					c4.997,89.246,86.948,130.822,131.571,137.068V550H337.303z M338.202,341.875c68.209,1.599,75.805,66.81-0.1,77.154
					L338.202,341.875z M259.499,180.822v68.009C204.632,248.131,203.483,190.266,259.499,180.822z"/>
			</g>
		</g>
	</g>
</g>
<g id="Layer_1">
</g>
</svg>
