<?xml version="1.0" encoding="iso-8859-1"?>
<!-- Generator: Adobe Illustrator 16.0.0, SVG Export Plug-In . SVG Version: 6.00 Build 0)  -->
<!DOCTYPE svg PUBLIC "-//W3C//DTD SVG 1.1//EN" "http://www.w3.org/Graphics/SVG/1.1/DTD/svg11.dtd">
<svg version="1.1" xmlns="http://www.w3.org/2000/svg" xmlns:xlink="http://www.w3.org/1999/xlink" x="0px" y="0px"
	 width="961.539px" height="1000px" viewBox="0 0 961.539 1000" style="enable-background:new 0 0 961.539 1000;"
	 xml:space="preserve">
<g id="KP_x5F_dollar_x5F_icon">
	<g>
		<path style="fill:#020202;" d="M573.576,1000V891.756c123.904-6.379,270.465-108.714,270.465-249.221
			c0-160.645-145.98-206.536-270.465-218.518V259.531c49.012,3.19,87.146,49.754,91.496,97.098h162.583
			c0-159.665-151.236-243.368-255.602-249.15V-0.639H417.191v108.118c-45.457,0-250.562,55.699-250.562,234.087
			c0,158.813,147.884,202.042,250.562,216.325v179.005c-74.748-20.409-88.306-75.257-98.673-121.113H153.923
			c10.041,178.644,173.966,261.763,263.268,274.308V1000H573.576z M575.424,583.483c136.485,3.189,151.71,133.656-0.181,154.391
			L575.424,583.483z M417.88,261.217v136.12C308.15,395.923,305.776,280.084,417.88,261.217z"/>
	</g>
</g>
<g id="Layer_1">
</g>
</svg>
