<?xml version="1.0" encoding="UTF-8" standalone="no"?>
<svg width="33px" height="33px" viewBox="0 0 33 33" version="1.1" xmlns="http://www.w3.org/2000/svg" xmlns:xlink="http://www.w3.org/1999/xlink" xmlns:sketch="http://www.bohemiancoding.com/sketch/ns">
    <!-- Generator: Sketch 3.4.2 (15857) - http://www.bohemiancoding.com/sketch -->
    <title>Download</title>
    <desc>Created with Sketch.</desc>
    <defs></defs>
    <g id="KP-Approved" stroke="none" stroke-width="1" fill="none" fill-rule="evenodd" sketch:type="MSPage">
        <g id="Desktop-HD" sketch:type="MSArtboardGroup" transform="translate(-748.000000, -148.000000)" fill="#1C1B1A">
            <g id="Download" sketch:type="MSLayerGroup" transform="translate(748.000000, 148.000000)">
                <path d="M30.9039817,25.0700144 C30.2755558,25.0700144 29.7654077,25.5789677 29.7654077,26.2073937 L29.7654077,29.9827284 L2.49339351,29.9827284 L2.49339351,26.2073937 C2.49339351,25.5789677 1.98563489,25.0700144 1.35720892,25.0700144 C0.728782961,25.0700144 0.218634888,25.5789677 0.218634888,26.2073937 L0.218634888,31.1213024 C0.218634888,31.7485337 0.728782961,32.257487 1.35720892,32.257487 L30.9039817,32.257487 C31.531213,32.257487 32.0377769,31.7485337 32.0377769,31.1213024 L32.0377769,26.2073937 C32.0377769,25.5789677 31.531213,25.0700144 30.9039817,25.0700144" id="Fill-1" sketch:type="MSShapeGroup"></path>
                <path d="M32.2049191,12.54343 C32.0973937,12.2770061 31.8381381,12.1001866 31.5490144,12.1001866 L23.876483,12.1001866 L23.876483,0.710862069 C23.876483,0.31779716 23.5598805,0 23.1703998,0 L9.08816247,0 C8.69987647,0 8.38327404,0.31779716 8.38327404,0.710862069 L8.38327404,12.1001866 L0.710742596,12.1001866 C0.420424138,12.1001866 0.159973834,12.2770061 0.054837931,12.54343 C-0.0598557809,12.8110487 0.0106330629,13.1180933 0.219710142,13.3211968 L15.6352619,28.2062901 C15.7762396,28.3424888 15.9518643,28.4046146 16.1310732,28.4046146 C16.3055032,28.4046146 16.4823227,28.3424888 16.6233004,28.2062901 L32.0400469,13.3211968 C32.2491239,13.1180933 32.3148339,12.8110487 32.2049191,12.54343" id="Fill-3" sketch:type="MSShapeGroup"></path>
            </g>
        </g>
    </g>
</svg>