<?xml version="1.0" encoding="UTF-8" standalone="no"?>
<svg width="33px" height="33px" viewBox="0 0 33 33" version="1.1" xmlns="http://www.w3.org/2000/svg" xmlns:xlink="http://www.w3.org/1999/xlink" xmlns:sketch="http://www.bohemiancoding.com/sketch/ns">
    <!-- Generator: Sketch 3.4.2 (15857) - http://www.bohemiancoding.com/sketch -->
    <title>EKG</title>
    <desc>Created with Sketch.</desc>
    <defs>
        <path id="path-1" d="M0,0 L32.2576065,0 L32.2576065,32.2576065 L0,32.2576065 L0,0 Z"></path>
        <path id="path-3" d="M0,0 L32.2576065,0 L32.2576065,32.2576065 L0,32.2576065 L0,0 Z"></path>
    </defs>
    <g id="KP-Approved" stroke="none" stroke-width="1" fill="none" fill-rule="evenodd" sketch:type="MSPage">
        <g id="Desktop-HD" sketch:type="MSArtboardGroup" transform="translate(-831.000000, -148.000000)">
            <g id="EKG" sketch:type="MSLayerGroup" transform="translate(831.000000, 148.000000)">
                <g id="Group-3">
                    <mask id="mask-2" sketch:name="Clip 2" fill="white">
                        <use xlink:href="#path-1"></use>
                    </mask>
                    <g id="Clip-2"></g>
                    <path d="M4.6657641,16.8101556 L6.70874584,9.34909067 L8.793543,16.8101556 L11.0981698,16.8101556 L11.5390237,18.5735714 L15.3155531,3.28107647 L18.5353402,21.9247783 L19.7921921,16.8101556 L24.2007316,16.8101556 L26.0406099,11.4338878 L27.8601779,16.8101556 L32.2579649,16.8101556 L32.2579649,6.79118195 C32.2579649,6.79118195 32.2579649,0.00035841785 25.4659467,0.00035841785 L6.78998722,0.00035841785 C6.78998722,0.00035841785 0.00035841785,0.00035841785 0.00035841785,6.79118195 L0.00035841785,16.8101556 L4.6657641,16.8101556 Z" id="Fill-1" fill="#1C1B1A" sketch:type="MSShapeGroup" mask="url(#mask-2)"></path>
                </g>
                <g id="Group-6">
                    <mask id="mask-4" sketch:name="Clip 5" fill="white">
                        <use xlink:href="#path-3"></use>
                    </mask>
                    <g id="Clip-5"></g>
                    <path d="M26.8265008,18.2511148 L26.0332026,15.9106462 L25.2303467,18.2511148 L20.9245535,18.2511148 L18.2889876,28.9797558 L15.0668112,10.3121594 L11.5519268,24.5401533 L9.97010933,18.2511148 L7.70012961,18.2511148 L6.72164888,14.7601249 L5.76586795,18.2511148 L0.000119472617,18.2511148 L0.000119472617,25.4660661 C0.000119472617,25.4660661 0.000119472617,32.2580844 6.78974828,32.2580844 L25.4657077,32.2580844 C25.4657077,32.2580844 32.257726,32.2580844 32.257726,25.4672609 L32.257726,18.2511148 L26.8265008,18.2511148 Z" id="Fill-4" fill="#1C1B1A" sketch:type="MSShapeGroup" mask="url(#mask-4)"></path>
                </g>
            </g>
        </g>
    </g>
</svg>