<?xml version="1.0" encoding="iso-8859-1"?>
<!-- Generator: Adobe Illustrator 19.2.1, SVG Export Plug-In . SVG Version: 6.00 Build 0)  -->
<svg version="1.1" xmlns="http://www.w3.org/2000/svg" xmlns:xlink="http://www.w3.org/1999/xlink" x="0px" y="0px"
	 viewBox="0 0 600 600" style="enable-background:new 0 0 600 600;" xml:space="preserve">
<g id="ekg">
	<g id="ekg_1_">
		<path style="fill:#1C1B1A;" d="M122.32,310.561l31.665-115.65l32.319,115.65h35.726l6.835,27.326l58.53-237.033l49.913,288.991
			l19.478-79.283h68.324l28.519-83.333l28.211,83.333H550V155.27c0,0,0-105.27-105.27-105.27H155.252C155.252,50,50,50,50,155.27
			v155.291H122.32z"/>
		<path style="fill:#1C1B1A;" d="M465.817,332.896l-12.298-36.278l-12.441,36.278h-66.75L333.493,499.2l-49.95-289.352
			l-54.48,220.522l-24.522-97.474h-35.183l-15.172-54.109l-14.811,54.109H50V444.73c0,0,0,105.27,105.252,105.27H444.73
			c0,0,105.27,0,105.27-105.252V332.896H465.817z"/>
	</g>
</g>
<g id="Layer_1">
</g>
</svg>
