<?xml version="1.0" encoding="iso-8859-1"?>
<!-- Generator: Adobe Illustrator 19.2.1, SVG Export Plug-In . SVG Version: 6.00 Build 0)  -->
<svg version="1.1" xmlns="http://www.w3.org/2000/svg" xmlns:xlink="http://www.w3.org/1999/xlink" x="0px" y="0px"
	 viewBox="0 0 600 600" style="enable-background:new 0 0 600 600;" xml:space="preserve">
<g id="email">
	<g id="email_1_">
		<g>
			<g>
				<path style="fill:#1C1B1A;" d="M229.463,312.787c0,14.133,0,61.866,55.809,61.866c51.046,0,65.127-44.367,65.127-81.332
					c0-35.67-16.101-61.814-49.648-61.814C255.659,231.456,229.463,268.368,229.463,312.787 M519.792,448.581
					C472.059,514.434,395.491,550,313.434,550C170.289,550,52.666,446.511,52.666,300.673C52.666,157.527,167.597,50,309.448,50
					c118.347,0,237.886,78.639,237.886,221.06c0,143.146-108.822,164.009-149.203,164.009c-37.585,0-52.444-18.793-53.117-36.239
					h-1.294c-17.447,18.12-43.694,36.239-86.043,36.239c-57.776,0-96.759-46.335-96.759-112.912
					c0-78.639,51.098-151.222,134.396-151.222c35.67,0,59.226,10.768,72.634,38.31h1.294l5.384-30.182h63.16l-24.798,132.377
					c-2.744,12.736-6.109,24.902-6.109,38.31c0,16.049,4.038,24.85,18.171,24.85c28.267,0,57.776-30.234,57.776-100.176
					c0-107.527-73.255-164.009-175.45-164.009c-111.566,0-186.219,80.037-186.219,190.205c0,117.674,84.075,188.859,197.66,188.859
					c50.373,0,94.119-14.806,126.993-40.951L519.792,448.581L519.792,448.581z"/>
			</g>
		</g>
	</g>
</g>
<g id="Layer_1">
</g>
</svg>
