<?xml version="1.0" encoding="UTF-8" standalone="no"?>
<svg width="20px" height="33px" viewBox="0 0 20 33" version="1.1" xmlns="http://www.w3.org/2000/svg" xmlns:xlink="http://www.w3.org/1999/xlink" xmlns:sketch="http://www.bohemiancoding.com/sketch/ns">
    <!-- Generator: Sketch 3.4.2 (15857) - http://www.bohemiancoding.com/sketch -->
    <title>Email_Doctor</title>
    <desc>Created with Sketch.</desc>
    <defs>
        <path id="path-1" d="M0,0.0728782961 L19.4561156,0.0728782961 L19.4561156,32.2576065 L0,32.2576065"></path>
        <path id="path-3" d="M0,0.0728782961 L19.4561156,0.0728782961 L19.4561156,32.2576065 L0,32.2576065 L0,0.0728782961 Z"></path>
    </defs>
    <g id="KP-Approved" stroke="none" stroke-width="1" fill="none" fill-rule="evenodd" sketch:type="MSPage">
        <g id="Desktop-HD" sketch:type="MSArtboardGroup" transform="translate(-914.000000, -148.000000)">
            <g id="Email_Doctor" sketch:type="MSLayerGroup" transform="translate(914.000000, 148.000000)">
                <g id="Group-3">
                    <mask id="mask-2" sketch:name="Clip 2" fill="white">
                        <use xlink:href="#path-1"></use>
                    </mask>
                    <g id="Clip-2"></g>
                    <path d="M7.35150852,6.3498501 C9.08505619,6.3498501 10.4900542,4.94604686 10.4900542,3.21130446 C10.4900542,1.47895152 9.08505619,0.0727588235 7.35150852,0.0727588235 C5.61915558,0.0727588235 4.21057343,1.47895152 4.21057343,3.21130446 C4.21057343,4.94604686 5.61915558,6.3498501 7.35150852,6.3498501" id="Fill-1" fill="#1C1B1A" sketch:type="MSShapeGroup" mask="url(#mask-2)"></path>
                </g>
                <path d="M7.17827323,10.5366485 C7.83059371,10.5366485 9.30130162,8.65376004 9.31324888,6.85569716 L5.04329757,6.85091826 C5.05166065,8.65137059 6.52595274,10.5366485 7.17827323,10.5366485" id="Fill-4" fill="#1C1B1A" sketch:type="MSShapeGroup"></path>
                <path d="M2.26340872,9.81264442 C2.26340872,10.085042 2.48323834,10.3084558 2.75683063,10.3084558 C3.03161765,10.3084558 3.25622617,10.085042 3.25622617,9.81264442 C3.25622617,9.53905213 3.03161765,9.31444361 2.75683063,9.31444361 C2.48323834,9.31444361 2.26340872,9.53905213 2.26340872,9.81264442" id="Fill-6" fill="#1C1B1A" sketch:type="MSShapeGroup"></path>
                <g id="Group-10">
                    <mask id="mask-4" sketch:name="Clip 9" fill="white">
                        <use xlink:href="#path-3"></use>
                    </mask>
                    <g id="Clip-9"></g>
                    <path d="M18.7340231,20.2163199 L15.7758811,17.7527945 L18.7340231,15.285685 L18.7340231,20.2163199 Z M9.69950385,20.6249162 L12.587157,18.2211272 L13.6683842,19.120756 C13.7376783,19.1769081 13.8177249,19.2055815 13.9013558,19.2055815 C13.9814024,19.2055815 14.0626438,19.1769081 14.1295485,19.120756 L15.2131651,18.2211272 L18.1008183,20.6249162 L9.69950385,20.6249162 Z M9.06390953,20.2163199 L9.06390953,15.285685 L12.0268304,17.7527945 L9.06390953,20.2163199 Z M18.1008183,14.8770886 L13.9013558,18.3740521 L9.69950385,14.8770886 L18.1008183,14.8770886 Z M18.9514633,14.1578635 L14.7173538,14.1578635 L14.7173538,10.988255 C14.7173538,8.90106836 13.0961103,6.85569716 10.6517006,6.85569716 L10.244299,6.85569716 C10.231157,8.70632799 8.92651602,10.9452448 7.62068032,11.3872935 C7.57289128,11.6788067 7.45341866,12.0647032 7.14756876,12.3992266 C6.7294146,12.8532225 6.10935172,13.0814152 5.2957432,13.0814152 C4.12252211,13.0814152 3.30174523,12.4613523 2.86089128,11.2343686 C2.82385477,11.236758 2.79159716,11.236758 2.75575538,11.236758 C1.97082028,11.236758 1.33044706,10.599969 1.33044706,9.81503387 C1.33044706,9.02531988 1.97082028,8.38375193 2.75575538,8.38375193 C3.54546937,8.38375193 4.18345314,9.02531988 4.18345314,9.81503387 C4.18345314,10.2176566 4.0126073,10.5963848 3.71631521,10.8687824 C4.10938012,12.0049669 4.76528479,12.153113 5.2957432,12.153113 C5.83217525,12.153113 6.22165598,12.0276667 6.45343286,11.7767742 C6.5741002,11.6477438 6.64100487,11.4948189 6.6744572,11.3645937 C5.39012657,10.8735613 4.11893793,8.65734422 4.11176957,6.85091826 L4.0126073,6.85091826 C1.79041663,6.85091826 -0.000477890467,8.6657073 -0.000477890467,10.9309081 L-0.000477890467,18.3764416 C-0.000477890467,20.2497722 2.74261339,20.2497722 2.74261339,18.3764416 L2.74261339,12.7839284 L3.3961286,12.7839284 L3.3961286,30.4037499 C3.3961286,32.9102854 7.04960122,32.8397966 7.04960122,30.4037499 L7.04960122,20.4230075 L7.68161136,20.4230075 L7.68161136,30.4037499 C7.68161136,32.8397966 11.356589,32.9102854 11.356589,30.4037499 L11.356589,21.3453361 L19.092441,21.3453361 C19.3230231,21.3453361 19.4556377,21.1828533 19.4556377,20.9857235 L19.4556377,14.6381434 C19.4556377,14.321541 19.1880191,14.1578635 18.9514633,14.1578635 L18.9514633,14.1578635 Z" id="Fill-8" fill="#1C1B1A" sketch:type="MSShapeGroup" mask="url(#mask-4)"></path>
                </g>
            </g>
        </g>
    </g>
</svg>