<?xml version="1.0" encoding="iso-8859-1"?>
<!-- Generator: Adobe Illustrator 16.0.0, SVG Export Plug-In . SVG Version: 6.00 Build 0)  -->
<!DOCTYPE svg PUBLIC "-//W3C//DTD SVG 1.1//EN" "http://www.w3.org/Graphics/SVG/1.1/DTD/svg11.dtd">
<svg version="1.1" xmlns="http://www.w3.org/2000/svg" xmlns:xlink="http://www.w3.org/1999/xlink" x="0px" y="0px"
	 width="961.539px" height="1000px" viewBox="0 0 961.539 1000" style="enable-background:new 0 0 961.539 1000;"
	 xml:space="preserve">
<g id="KP_x5F_Email_x5F_icon">
	<g>
		<g>
			<path style="fill:#1C1B1A;" d="M344.504,524.663c0,27.281,0,119.471,107.804,119.471c98.634,0,125.776-85.692,125.776-157.129
				c0-68.854-31.092-119.367-95.91-119.367C395.121,367.638,344.504,438.936,344.504,524.663 M905.268,786.977
				c-92.152,127.226-240.129,195.94-398.553,195.94c-276.496,0-503.684-199.923-503.684-481.66
				c0-276.497,222-484.174,495.963-484.174c228.568,0,459.514,151.924,459.514,427.022c0,276.532-210.23,316.811-288.164,316.811
				c-72.625,0-101.271-36.297-102.6-70.041h-2.516c-33.746,35.038-84.433,70.041-166.229,70.041
				c-111.629,0-186.929-89.534-186.929-218.124c0-151.888,98.706-292.076,259.589-292.076c68.907,0,114.356,20.821,140.344,73.954
				h2.48l10.41-58.338h122.023l-47.93,255.745c-5.273,24.628-11.773,48.103-11.773,74.022c0,31.022,7.824,48.034,35.074,48.034
				c54.564,0,111.646-58.408,111.646-193.459c0-207.679-141.516-316.811-338.852-316.811
				c-215.522,0-359.691,154.614-359.691,367.393c0,227.275,162.352,364.842,381.838,364.842c97.254,0,181.758-28.609,245.338-79.122
				H905.268z"/>
		</g>
	</g>
</g>
<g id="Layer_1">
</g>
</svg>
