<svg id="Layer_1" data-name="Layer 1" xmlns="http://www.w3.org/2000/svg" viewBox="0 0 27.09 27.09">
  <defs>
    <style>
      .cls-1 {
        fill: #1c1b1a;
      }
    </style>
  </defs>
  <title>excellent</title>
  <g>
    <path class="cls-1" d="M40.54,27l-4.19-2.51,2.37-4.27-4.88-.08-0.08-4.88-4.27,2.37L27,13.46l-2.5,4.19-4.27-2.37-0.08,4.88-4.88.08,2.37,4.27L13.46,27l4.19,2.51-2.37,4.27,4.88,0.08,0.08,4.88,4.27-2.37L27,40.54l2.51-4.19,4.27,2.37,0.08-4.88,4.88-.08-2.37-4.27ZM27,35.59A8.59,8.59,0,1,1,35.59,27,8.59,8.59,0,0,1,27,35.59Z" transform="translate(-13.46 -13.46)"/>
    <path class="cls-1" d="M32.2,25.48H28.48l-1.15-3.54a0.36,0.36,0,0,0-.66,0l-1.15,3.54H21.8a0.34,0.34,0,0,0-.2.62l3,2.19-1.15,3.54a0.34,0.34,0,0,0,.53.38L27,30l3,2.19a0.34,0.34,0,0,0,.2.07,0.35,0.35,0,0,0,.33-0.45l-1.15-3.54,3-2.19A0.34,0.34,0,0,0,32.2,25.48Z" transform="translate(-13.46 -13.46)"/>
  </g>
</svg>
