<?xml version="1.0" encoding="iso-8859-1"?>
<!-- Generator: Adobe Illustrator 19.2.1, SVG Export Plug-In . SVG Version: 6.00 Build 0)  -->
<svg version="1.1" xmlns="http://www.w3.org/2000/svg" xmlns:xlink="http://www.w3.org/1999/xlink" x="0px" y="0px"
	 viewBox="0 0 600 600" style="enable-background:new 0 0 600 600;" xml:space="preserve">
<g id="excellent">
	<g id="excellent_1_">
		<path style="fill:#1C1B1A;" d="M549.999,299.292l-77.457-46.038l43.609-78.864l-90.093-1.168l-1.678-90.066l-78.616,44.036
			l-46.476-77.186l-46.02,77.448l-78.882-43.59l-1.15,90.074l-90.085,1.678l44.036,78.616l-77.186,46.476l77.448,46.038
			l-43.59,78.864l90.093,1.152l1.66,90.092l78.634-44.045l46.457,77.186l46.038-77.448l78.864,43.599l1.168-90.1l90.085-1.662
			l-44.054-78.616L549.999,299.292z M300.481,458.598c-87.619,0.248-158.818-70.549-159.066-158.194
			c-0.248-87.556,70.549-158.773,158.168-159.021c87.591-0.248,158.744,70.568,158.992,158.124
			C458.823,387.152,388.072,458.35,300.481,458.598z"/>
		<path style="fill:#1C1B1A;" d="M395.854,271.589l-68.637,0.194l-21.411-65.251c-1.728-5.232-10.452-5.207-12.104,0.034
			l-21.016,65.371l-68.709,0.194c-2.73,0.008-5.213,1.781-6.044,4.398c-0.821,2.607,0.097,5.497,2.346,7.104l55.682,40.232
			l-21.043,65.371c-0.847,2.635,0.097,5.499,2.32,7.087c2.266,1.625,5.304,1.617,7.517-0.021l55.398-40.509l55.708,40.195
			c1.102,0.807,2.401,1.21,3.708,1.206c1.325-0.004,2.631-0.414,3.746-1.227c2.24-1.601,3.17-4.471,2.306-7.145l-21.402-65.206
			l55.454-40.546c2.203-1.62,3.133-4.515,2.269-7.117C401.078,273.341,398.621,271.581,395.854,271.589z"/>
	</g>
</g>
<g id="Layer_1">
</g>
</svg>
