<?xml version="1.0" encoding="iso-8859-1"?>
<!-- Generator: Adobe Illustrator 19.2.1, SVG Export Plug-In . SVG Version: 6.00 Build 0)  -->
<svg version="1.1" xmlns="http://www.w3.org/2000/svg" xmlns:xlink="http://www.w3.org/1999/xlink" x="0px" y="0px"
	 viewBox="0 0 600 600" style="enable-background:new 0 0 600 600;" xml:space="preserve">
<g id="facebook">
	<g>
		<g>
			<defs>
				<rect id="SVGID_1_" x="165.385" y="51.282" width="269.231" height="492.962"/>
			</defs>
			<clipPath id="SVGID_2_">
				<use xlink:href="#SVGID_1_"  style="overflow:visible;"/>
			</clipPath>
			<path style="clip-path:url(#SVGID_2_);" d="M421.872,50.75l-63.93-0.096c-71.814,0-118.237,47.622-118.237,121.314v55.942
				h-64.282c-5.532,0-10.038,4.481-10.038,10.039v81.058c0,5.532,4.506,10.039,10.038,10.039h64.282v204.506
				c0,5.532,4.506,10.039,10.064,10.039h83.834c5.558,0,10.064-4.507,10.064-10.039V329.045h75.147
				c5.558,0,10.045-4.506,10.045-10.039l0.045-81.058c0-2.654-1.077-5.205-2.955-7.109c-1.878-1.878-4.43-2.929-7.109-2.929h-75.173
				v-47.423c0-22.788,5.436-34.359,35.109-34.359l43.07-0.026c5.558,0,10.039-4.506,10.039-10.038V60.82
				C431.884,55.256,427.404,50.776,421.872,50.75L421.872,50.75z M421.872,50.75"/>
		</g>
	</g>
</g>
<g id="Layer_1">
</g>
</svg>
