<?xml version="1.0" encoding="iso-8859-1"?>
<!-- Generator: Adobe Illustrator 16.0.0, SVG Export Plug-In . SVG Version: 6.00 Build 0)  -->
<!DOCTYPE svg PUBLIC "-//W3C//DTD SVG 1.1//EN" "http://www.w3.org/Graphics/SVG/1.1/DTD/svg11.dtd">
<svg version="1.1" xmlns="http://www.w3.org/2000/svg" xmlns:xlink="http://www.w3.org/1999/xlink" x="0px" y="0px"
	 width="961.539px" height="1000px" viewBox="0 0 961.539 1000" style="enable-background:new 0 0 961.539 1000;"
	 xml:space="preserve">
<g id="KP_x5F_Facility_x5F_icon">
	<path style="fill:#1C1B1A;" d="M946.16,605.916l-258.938-94.597c-5.256-1.966-11.137-1.966-16.428,0l-226.778,82.833V224.94
		c0-9.188-5.359-17.645-13.574-21.613l-198.274-94.666c-6.404-3.063-14.201-3.063-20.639,0L13.271,203.327
		c-8.284,3.968-13.624,12.425-13.624,21.613v644.787c0,13.191,10.735,23.91,23.944,23.91h396.516h517.842
		c13.189,0,23.943-10.719,23.943-23.91V628.382C961.893,618.375,955.559,609.326,946.16,605.916z M194.755,845.451h-92.072V715.095
		c0-25.477,20.585-46.062,46.027-46.062c25.441,0,46.045,20.585,46.045,46.062V845.451z M194.755,581.118h-92.072v-92.072h92.072
		V581.118z M194.755,387.524h-92.072v-92.073h92.072V387.524z M340.963,774.626h-92.054v-92.074h92.054V774.626z M340.963,581.084
		h-92.054v-92.038h92.054V581.084z M340.963,387.524h-92.054v-92.073h92.054V387.524z M591.234,845.451h-92.02V715.095
		c0-25.477,20.605-46.062,46.045-46.062c25.406,0,45.975,20.585,45.975,46.062V845.451z M737.48,774.678h-91.986v-92.055h91.986
		V774.678z M883.723,774.678h-92.018v-92.055h92.018V774.678z"/>
</g>
<g id="Layer_1">
</g>
</svg>
