<?xml version="1.0" encoding="iso-8859-1"?>
<!-- Generator: Adobe Illustrator 19.2.1, SVG Export Plug-In . SVG Version: 6.00 Build 0)  -->
<svg version="1.1" xmlns="http://www.w3.org/2000/svg" xmlns:xlink="http://www.w3.org/1999/xlink" x="0px" y="0px"
	 viewBox="0 0 600 600" style="enable-background:new 0 0 600 600;" xml:space="preserve">
<g id="facility-modern">
	<g id="facility-modern_1_">
		<path style="fill:#1C1B1A;" d="M150.167,241.105h-48.209v-48.209h48.209V241.105z M226.801,192.896h-48.209v48.209h48.209V192.896
			z M150.167,294.26h-48.209v48.209h48.209V294.26z M226.801,294.26h-48.209v48.209h48.209V294.26z M226.801,395.572h-48.209v48.209
			h48.209V395.572z M528.811,374.643l-125-45.71l-125,45.71v108.392h30.82v-70.387c0-13.328,10.777-24.105,24.105-24.105
			c13.276,0,24.105,10.777,24.105,24.105v70.387h170.97L528.811,374.643L528.811,374.643z M71.137,483.036h30.82v-70.387
			c0-13.328,10.777-24.105,24.105-24.105s24.105,10.777,24.105,24.105v70.387h107.455V367.251V162.648l-93.242-44.513
			l-93.242,44.461V483.036z M543.024,357.307c4.165,1.562,6.976,5.519,6.976,9.944v126.354c0,5.831-4.738,10.569-10.568,10.569
			H60.569c-5.831,0-10.569-4.738-10.569-10.569V155.932c0-4.061,2.343-7.757,6.039-9.527L159.85,96.842
			c2.863-1.354,6.247-1.354,9.111,0l103.811,49.563c3.696,1.77,6.039,5.466,6.039,9.527v196.168l121.356-44.357
			c2.395-0.833,4.946-0.833,7.289,0L543.024,357.307 M386.266,443.833h48.157v-48.209h-48.209v48.209H386.266z M511.006,395.624
			h-48.157v48.209h48.157V395.624z M385.173,271.197c-0.312,0.26-0.469,0.625-0.521,1.041c0,0.364,0.104,0.781,0.416,1.041
			l17.753,17.701c0.26,0.26,0.625,0.416,0.989,0.416s0.729-0.156,1.041-0.416l17.701-17.701c0.312-0.26,0.417-0.677,0.417-1.041
			c-0.052-0.417-0.208-0.781-0.521-1.041c-5.154-4.425-11.766-6.82-18.638-6.82C396.991,264.377,390.379,266.824,385.173,271.197
			 M312.026,200.237c0.521,0.521,1.406,0.573,1.978,0.052c24.157-23.376,56.07-36.235,89.754-36.235
			c33.736,0,65.65,12.859,89.806,36.235c0.26,0.26,0.625,0.416,0.989,0.416s0.781-0.156,1.041-0.416l12.547-12.547
			c0.312-0.26,0.417-0.625,0.417-1.041c0-0.364-0.156-0.729-0.417-1.041c-28.061-27.228-65.077-42.222-104.332-42.222
			c-39.202,0-76.27,14.994-104.332,42.222c-0.26,0.26-0.417,0.625-0.417,1.041c0,0.364,0.156,0.729,0.417,1.041L312.026,200.237z
			 M437.495,257.713c0.364,0,0.729-0.156,0.989-0.417l12.547-12.547c0.312-0.26,0.469-0.625,0.417-1.041
			c0-0.416-0.156-0.781-0.469-0.989c-12.807-12.026-29.571-18.638-47.272-18.638c-17.649,0-34.413,6.612-47.22,18.638
			c-0.26,0.26-0.469,0.625-0.469,0.989c0,0.416,0.156,0.781,0.416,1.041l12.599,12.547c0.521,0.521,1.406,0.573,1.978,0.052
			c8.955-8.174,20.564-12.703,32.747-12.703s23.844,4.529,32.747,12.703C436.87,257.609,437.182,257.713,437.495,257.713
			 M467.066,228.767l12.599-12.547c0.26-0.26,0.416-0.625,0.416-1.041s-0.156-0.781-0.416-0.989
			c-20.408-19.627-47.324-30.456-75.802-30.456c-28.426,0-55.342,10.829-75.75,30.456c-0.26,0.26-0.416,0.625-0.416,0.989
			c0,0.364,0.104,0.781,0.416,1.041l12.547,12.547c0.26,0.312,0.677,0.416,1.041,0.416s0.729-0.104,0.989-0.416
			c16.504-15.775,38.317-24.469,61.224-24.469c22.959,0,44.721,8.694,61.277,24.469C465.66,229.339,466.493,229.287,467.066,228.767
			"/>
	</g>
</g>
<g id="Layer_1">
</g>
</svg>
