<?xml version="1.0" encoding="iso-8859-1"?>
<!-- Generator: Adobe Illustrator 16.0.0, SVG Export Plug-In . SVG Version: 6.00 Build 0)  -->
<!DOCTYPE svg PUBLIC "-//W3C//DTD SVG 1.1//EN" "http://www.w3.org/Graphics/SVG/1.1/DTD/svg11.dtd">
<svg version="1.1" xmlns="http://www.w3.org/2000/svg" xmlns:xlink="http://www.w3.org/1999/xlink" x="0px" y="0px"
	 width="961.539px" height="1000px" viewBox="0 0 961.539 1000" style="enable-background:new 0 0 961.539 1000;"
	 xml:space="preserve">
<g id="KP_x5F_Modern_x5F_Facilities_x5F_icon">
	<path style="fill:#1C1B1A;" d="M193.031,386.866h-92.592v-92.61h92.592V386.866z M340.151,294.256h-92.593v92.61h92.593V294.256z
		 M193.031,489.018h-92.592v92.593h92.592V489.018z M340.151,489.018h-92.593v92.574h92.593V489.018z M340.151,683.641h-92.593
		v92.627h92.593V683.641z M920.311,643.391l-240.131-87.75l-240.114,87.75v208.166h59.247V716.375
		c0-25.621,20.693-46.316,46.33-46.316c25.535,0,46.262,20.695,46.262,46.316v135.182h328.406V643.391z M41.227,851.557h59.195
		V716.375c0-25.621,20.727-46.316,46.295-46.316c25.604,0,46.314,20.695,46.314,46.316v135.182h206.366V629.164V236.146
		L220.295,150.65L41.227,236.146V851.557z M947.609,610.062c8.006,2.955,13.389,10.574,13.389,19.102v242.719
		c0,11.221-9.123,20.342-20.344,20.342H20.884c-11.237,0-20.343-9.121-20.343-20.342V223.301c0-7.812,4.491-14.943,11.569-18.316
		l199.445-95.231c5.541-2.639,11.989-2.639,17.512,0l199.428,95.231c7.061,3.373,11.569,10.504,11.569,18.316v376.783
		l233.122-85.201c4.562-1.643,9.49-1.623,14,0L947.609,610.062 M646.467,776.318h92.574v-92.592h-92.574V776.318z M886.09,683.727
		h-92.537v92.592h92.537V683.727z M644.404,444.715c-0.576,0.505-0.926,1.222-0.961,1.993c-0.018,0.733,0.244,1.466,0.787,2.009
		l34.061,34.027c0.543,0.541,1.189,0.82,1.889,0.82c0.717,0,1.416-0.28,1.957-0.82l34.01-34.027
		c0.596-0.543,0.822-1.276,0.822-2.009c-0.07-0.771-0.385-1.487-0.98-1.993c-9.926-8.459-22.615-13.125-35.809-13.125
		C667.055,431.59,654.367,436.256,644.404,444.715 M503.943,308.378c1.031,1.048,2.744,1.1,3.793,0.07
		c46.4-44.916,107.656-69.611,172.443-69.611c64.822,0,126.111,24.695,172.496,69.611c0.523,0.505,1.188,0.75,1.852,0.75
		c0.736,0,1.469-0.261,1.957-0.82l24.119-24.084c0.561-0.523,0.805-1.222,0.805-1.957c0-0.733-0.314-1.433-0.805-1.957
		c-53.914-52.29-125.029-81.092-200.424-81.092c-75.324,0-146.49,28.802-200.355,81.092c-0.505,0.524-0.82,1.224-0.82,1.957
		c0,0.735,0.28,1.417,0.787,1.957L503.943,308.378z M744.949,418.814c0.697,0,1.363-0.263,1.904-0.822l24.137-24.101
		c0.592-0.542,0.855-1.241,0.803-1.992c0-0.752-0.314-1.45-0.857-1.941c-24.623-23.069-56.797-35.809-90.756-35.809
		c-33.889,0-66.08,12.74-90.723,35.809c-0.508,0.491-0.873,1.189-0.891,1.941c0,0.751,0.297,1.45,0.803,1.992l24.172,24.101
		c0.979,1.032,2.656,1.067,3.758,0.105c17.178-15.73,39.514-24.398,62.881-24.398c23.436,0,45.789,8.668,62.934,24.398
		C743.654,418.568,744.303,418.814,744.949,418.814 M801.68,363.185l24.152-24.101c0.471-0.506,0.75-1.223,0.75-1.957
		c0-0.769-0.279-1.45-0.82-1.939c-39.201-37.698-90.898-58.46-145.582-58.46c-54.615,0-106.293,20.762-145.529,58.46
		c-0.525,0.489-0.838,1.17-0.838,1.939c0,0.734,0.244,1.451,0.785,1.957l24.084,24.101c0.541,0.559,1.258,0.805,1.957,0.805
		c0.662,0,1.363-0.246,1.906-0.77c31.736-30.269,73.559-46.96,117.635-46.96c44.111,0,85.916,16.691,117.707,46.96
		C798.971,364.269,800.646,364.234,801.68,363.185"/>
</g>
<g id="Layer_1">
</g>
</svg>
