<?xml version="1.0" encoding="iso-8859-1"?>
<!-- Generator: Adobe Illustrator 19.2.1, SVG Export Plug-In . SVG Version: 6.00 Build 0)  -->
<svg version="1.1" xmlns="http://www.w3.org/2000/svg" xmlns:xlink="http://www.w3.org/1999/xlink" x="0px" y="0px"
	 viewBox="0 0 600 600" style="enable-background:new 0 0 600 600;" xml:space="preserve">
<g id="facility">
	<g id="facility_1_">
		<path style="fill:#1C1B1A;" d="M541.892,355.068l-134.549-49.163c-2.754-1.039-5.769-1.039-8.523,0l-117.919,43.083V157.064
			c0-4.781-2.806-9.147-7.068-11.225L170.777,96.624c-3.326-1.611-7.38-1.611-10.706,0L57.068,145.839
			C52.754,147.918,50,152.283,50,157.064v335.1c0,6.86,5.561,12.421,12.421,12.421H268.48h269.099
			c6.86,0,12.421-5.561,12.421-12.421V366.761C550.051,361.564,546.777,356.835,541.892,355.068z M151.393,479.587h-47.864v-67.768
			c0-13.252,10.706-23.958,23.906-23.958s23.906,10.706,23.906,23.958v67.768H151.393z M151.393,342.18h-47.864v-47.864h47.864
			V342.18z M151.393,241.567h-47.864v-47.864h47.864V241.567z M227.372,442.741h-47.864v-47.864h47.864V442.741z M227.372,342.18
			h-47.864v-47.812h47.864V342.18z M227.372,241.567h-47.864v-47.864h47.864V241.567z M357.4,479.587h-47.812v-67.768
			c0-13.252,10.706-23.958,23.906-23.958s23.906,10.706,23.906,23.958V479.587z M433.432,442.793H385.62v-47.864h47.812V442.793z
			 M509.411,442.793h-47.812v-47.864h47.812V442.793z"/>
	</g>
</g>
<g id="Layer_1">
</g>
</svg>
