<?xml version="1.0" encoding="UTF-8" standalone="no"?>
<svg width="25px" height="33px" viewBox="0 0 25 33" version="1.1" xmlns="http://www.w3.org/2000/svg" xmlns:xlink="http://www.w3.org/1999/xlink" xmlns:sketch="http://www.bohemiancoding.com/sketch/ns">
    <!-- Generator: Sketch 3.4.2 (15857) - http://www.bohemiancoding.com/sketch -->
    <title>Family</title>
    <desc>Created with Sketch.</desc>
    <defs>
        <path id="path-1" d="M0,0.115888438 L24.9100406,0.115888438 L24.9100406,32.2576065 L0,32.2576065"></path>
    </defs>
    <g id="KP-Approved" stroke="none" stroke-width="1" fill="none" fill-rule="evenodd" sketch:type="MSPage">
        <g id="Desktop-HD" sketch:type="MSArtboardGroup" transform="translate(-157.000000, -235.000000)">
            <g id="Family" sketch:type="MSLayerGroup" transform="translate(157.000000, 235.000000)">
                <mask id="mask-2" sketch:name="Clip 2" fill="white">
                    <use xlink:href="#path-1"></use>
                </mask>
                <g id="Clip-2"></g>
                <path d="M24.9095627,10.894469 L24.9095627,18.3519497 C24.9095627,20.231254 22.1569136,20.231254 22.1569136,18.3519497 L22.1569136,12.7522682 L21.5069826,12.7522682 L21.5069826,30.4031525 C21.5069826,32.9132722 17.8463416,32.8380045 17.8463416,30.4031525 L17.8463416,20.4009051 L17.2286682,20.4009051 L17.2286682,30.4031525 C17.2286682,32.8380045 13.5668325,32.9132722 13.5668325,30.4031525 L13.5668325,11.7654243 C13.1223943,12.8287306 12.0913456,13.6937124 10.7699785,14.1226191 L13.1092523,23.5107773 L10.867946,23.5107773 L10.867946,30.4031525 C10.867946,32.9132722 7.20730507,32.8380045 7.20730507,30.4031525 L7.20730507,23.5107773 L6.58963164,23.5107773 L6.58963164,30.4031525 C6.58963164,32.8380045 2.92779594,32.9132722 2.92779594,30.4031525 L2.92779594,23.5107773 L0.669763489,23.5107773 L2.97677972,14.1046982 C1.23128479,13.5216718 -0.000477890467,12.1692418 -0.000477890467,10.6053452 C-0.000477890467,8.51337972 2.20379189,6.80133712 4.89431521,6.80133712 L4.97675132,6.80133712 L8.90740041,6.80133712 L9.83211846,6.80133712 C9.84048154,6.80133712 9.84884462,6.80611602 9.85720771,6.80731075 L20.8857249,6.80731075 C23.1162787,6.80731075 24.9095627,8.62807343 24.9095627,10.894469 M17.5357128,6.40946694 C19.2764288,6.40946694 20.6838162,5.00207951 20.6838162,3.26375294 C20.6838162,1.5266211 19.2764288,0.115649493 17.5357128,0.115649493 C15.8009704,0.115649493 14.3911935,1.5266211 14.3911935,3.26375294 C14.3911935,5.00207951 15.8009704,6.40946694 17.5357128,6.40946694 M6.89787099,6.40946694 C8.63619757,6.40946694 10.0447797,5.00207951 10.0447797,3.26375294 C10.0447797,1.5266211 8.63619757,0.115649493 6.89787099,0.115649493 C5.16073915,0.115649493 3.75096227,1.5266211 3.75096227,3.26375294 C3.75096227,5.00207951 5.16073915,6.40946694 6.89787099,6.40946694 M8.20131724,9.82041014 C8.20131724,9.57549128 8.24910629,9.34490913 8.31720568,9.12388479 C7.75568438,8.97932292 7.11650588,8.88732901 6.42953834,8.88732901 C4.24438418,8.88732901 2.47021582,9.72363732 2.47021582,10.7534913 C2.47021582,11.7857347 4.24438418,12.6208483 6.42953834,12.6208483 C7.68519554,12.6208483 8.79270669,12.3400876 9.51790548,11.9111809 C8.74013874,11.531258 8.20131724,10.7427387 8.20131724,9.82041014 M12.2502442,9.82041014 C12.2502442,8.87299229 11.4808406,8.10478337 10.5298385,8.10478337 C9.58122596,8.10478337 8.81182231,8.87299229 8.81182231,9.82041014 C8.81182231,10.7714122 9.58122596,11.5384264 10.5298385,11.5384264 C11.4808406,11.5384264 12.2502442,10.7714122 12.2502442,9.82041014" id="Fill-1" fill="#1C1B1A" sketch:type="MSShapeGroup" mask="url(#mask-2)"></path>
            </g>
        </g>
    </g>
</svg>