<?xml version="1.0" encoding="iso-8859-1"?>
<!-- Generator: Adobe Illustrator 19.2.1, SVG Export Plug-In . SVG Version: 6.00 Build 0)  -->
<svg version="1.1" xmlns="http://www.w3.org/2000/svg" xmlns:xlink="http://www.w3.org/1999/xlink" x="0px" y="0px"
	 viewBox="0 0 600 600" style="enable-background:new 0 0 600 600;" xml:space="preserve">
<g id="family">
	<g id="family_1_">
		<path style="fill:#1C1B1A;" d="M213.562,147.908c27.034,0,48.94-21.888,48.94-48.94c0-27.025-21.906-48.968-48.94-48.968
			c-27.034,0-48.959,21.943-48.959,48.968C164.603,126.021,186.528,147.908,213.562,147.908z"/>
		<path style="fill:#1C1B1A;" d="M379.031,147.908c27.08,0,48.977-21.888,48.977-48.94c0-27.025-21.897-48.968-48.977-48.968
			c-26.978,0-48.912,21.943-48.912,48.968C330.119,126.021,352.053,147.908,379.031,147.908z"/>
		<path style="fill:#1C1B1A;" d="M431.148,154.097H259.6c-0.145-0.028-0.264-0.091-0.4-0.091h-14.383H183.67h-1.288
			c-41.854,0-76.128,26.634-76.128,59.177c0,24.33,19.158,45.364,46.299,54.43l-35.89,146.313h35.128v107.227
			c0,39.04,56.971,37.878,56.971,0V413.927h9.61v107.227c0,37.878,56.945,39.04,56.945,0V413.927h34.866l-36.392-146.031
			c20.546-6.67,36.6-20.128,43.506-36.663v289.921c0,39.04,56.971,37.878,56.971,0V365.557h9.601v155.597
			c0,37.878,56.945,39.04,56.945,0V246.579h10.118v87.109c0,29.231,42.815,29.231,42.815,0V217.675
			C493.746,182.412,465.85,154.097,431.148,154.097z M206.275,244.536c-34.003,0-61.589-12.995-61.589-29.058
			c0-16.017,27.586-29.03,61.589-29.03c10.69,0,20.618,1.435,29.366,3.685c-1.061,3.429-1.814,7.033-1.814,10.826
			c0,14.357,8.393,26.616,20.481,32.524C243.029,240.163,225.795,244.536,206.275,244.536z M270.054,227.694
			c-14.747,0-26.716-11.934-26.716-26.735c0-14.738,11.969-26.688,26.716-26.688c14.792,0,26.761,11.95,26.761,26.688
			C296.815,215.761,284.846,227.694,270.054,227.694z"/>
	</g>
</g>
<g id="Layer_1">
</g>
</svg>
