<?xml version="1.0" encoding="iso-8859-1"?>
<!-- Generator: Adobe Illustrator 16.0.0, SVG Export Plug-In . SVG Version: 6.00 Build 0)  -->
<!DOCTYPE svg PUBLIC "-//W3C//DTD SVG 1.1//EN" "http://www.w3.org/Graphics/SVG/1.1/DTD/svg11.dtd">
<svg version="1.1" xmlns="http://www.w3.org/2000/svg" xmlns:xlink="http://www.w3.org/1999/xlink" x="0px" y="0px"
	 width="961.539px" height="1000px" viewBox="0 0 961.539 1000" style="enable-background:new 0 0 961.539 1000;"
	 xml:space="preserve">
<g id="KP_x5F_Forms_x5F_icon">
	<g>
		<path style="fill:#1C1B1A;" d="M723.045,24.371H32.059c-17.176,0-31.122,13.876-31.122,30.948v894.268
			c0,17.02,13.945,30.913,31.122,30.913h690.986c17.104,0,30.98-13.894,30.98-30.913V55.319
			C754.025,38.247,740.149,24.371,723.045,24.371z M692.13,918.534H62.886V86.301H692.13V918.534z M961.27,151.898v350.953
			c0,13.529-10.664,24.437-24.142,25.199v278.986c0,1.685-0.14,3.474-0.487,5.176l-31.745,142.513
			c-2.571,10.978-12.333,18.757-23.412,18.757c-11.287,0-21.014-7.779-23.479-18.757l-31.886-142.513
			c-0.419-1.702-0.625-3.491-0.625-5.176V123.085c0-13.233,10.8-24.001,23.967-24.001h3.995V35.139
			c0-8.249,6.807-14.971,15.002-14.971h25.809c8.268,0,15.041,6.722,15.041,14.971v63.945h3.925
			c13.339,0,23.896,10.769,23.896,24.001v3.612C950.605,127.515,961.27,138.369,961.27,151.898z M127.855,211.501
			c0-14.119,11.429-25.478,25.444-25.478h448.488c14.015,0,25.513,11.358,25.513,25.478c0,14.085-11.498,25.547-25.513,25.547
			H153.299C139.284,237.049,127.855,225.586,127.855,211.501z M127.855,502.435c0-14.083,11.429-25.512,25.444-25.512h448.488
			c14.015,0,25.513,11.429,25.513,25.512c0,14.154-11.498,25.513-25.513,25.513H153.299
			C139.284,527.947,127.855,516.589,127.855,502.435z M127.855,356.969c0-14.119,11.429-25.479,25.444-25.479h448.488
			c14.015,0,25.513,11.359,25.513,25.479c0,14.05-11.498,25.546-25.513,25.546H153.299
			C139.284,382.515,127.855,371.019,127.855,356.969z M127.855,793.369c0-14.085,11.429-25.547,25.444-25.547h448.488
			c14.015,0,25.513,11.462,25.513,25.547c0,14.154-11.498,25.513-25.513,25.513H153.299
			C139.284,818.882,127.855,807.523,127.855,793.369z M127.855,647.868c0-14.015,11.429-25.513,25.444-25.513h448.488
			c14.015,0,25.513,11.498,25.513,25.513c0,14.189-11.498,25.582-25.513,25.582H153.299
			C139.284,673.45,127.855,662.058,127.855,647.868z"/>
	</g>
</g>
<g id="Layer_1">
</g>
</svg>
