<?xml version="1.0" encoding="iso-8859-1"?>
<!-- Generator: Adobe Illustrator 19.2.1, SVG Export Plug-In . SVG Version: 6.00 Build 0)  -->
<svg version="1.1" xmlns="http://www.w3.org/2000/svg" xmlns:xlink="http://www.w3.org/1999/xlink" x="0px" y="0px"
	 viewBox="0 0 600 600" style="enable-background:new 0 0 600 600;" xml:space="preserve">
<g id="forms">
	<g id="forms_1_">
		<g>
			<path style="fill:#1C1B1A;" d="M425.937,52.239H66.191C57.237,52.239,50,59.475,50,68.326v465.587
				C50,542.763,57.237,550,66.191,550h359.746c8.903,0,16.139-7.237,16.139-16.087V68.326
				C442.076,59.423,434.84,52.239,425.937,52.239z M409.85,517.722H82.278V84.465H409.85L409.85,517.722L409.85,517.722z
				 M550,118.617v182.736c0,7.028-5.571,12.703-12.547,13.12v145.252c0,0.885-0.052,1.822-0.26,2.707l-16.504,74.188
				c-1.354,5.727-6.404,9.788-12.182,9.788c-5.883,0-10.933-4.061-12.234-9.788l-16.608-74.188
				c-0.208-0.885-0.312-1.822-0.312-2.707V103.623c0-6.872,5.623-12.495,12.495-12.495h2.082V57.809c0-4.269,3.54-7.809,7.809-7.809
				h13.432c4.321,0,7.809,3.488,7.809,7.809v33.267h2.03c6.924,0,12.443,5.623,12.443,12.495v1.874
				C544.429,105.914,550,111.589,550,118.617z M116.118,149.646c0-7.341,5.935-13.276,13.224-13.276h233.496
				c7.289,0,13.276,5.935,13.276,13.276s-5.987,13.276-13.276,13.276H129.342C122.053,162.922,116.118,156.987,116.118,149.646z
				 M116.118,301.093c0-7.341,5.935-13.276,13.224-13.276h233.496c7.289,0,13.276,5.935,13.276,13.276
				c0,7.393-5.987,13.276-13.276,13.276H129.342C122.053,314.369,116.118,308.486,116.118,301.093z M116.118,225.396
				c0-7.341,5.935-13.276,13.224-13.276h233.496c7.289,0,13.276,5.935,13.276,13.276c0,7.289-5.987,13.276-13.276,13.276H129.342
				C122.053,238.671,116.118,232.684,116.118,225.396z M116.118,452.593c0-7.341,5.935-13.276,13.224-13.276h233.496
				c7.289,0,13.276,5.987,13.276,13.276c0,7.393-5.987,13.276-13.276,13.276H129.342
				C122.053,465.868,116.118,459.933,116.118,452.593z M116.118,376.843c0-7.289,5.935-13.276,13.224-13.276h233.496
				c7.289,0,13.276,5.987,13.276,13.276c0,7.393-5.987,13.328-13.276,13.328H129.342
				C122.053,390.171,116.118,384.236,116.118,376.843z"/>
		</g>
	</g>
</g>
<g id="Layer_1">
</g>
</svg>
