<svg id="Layer_2" data-name="Layer 2" xmlns="http://www.w3.org/2000/svg" viewBox="0 0 241.82 207.4">
  <title>gender</title>
  <g id="_Group_" data-name="&lt;Group&gt;">
    <rect id="_Rectangle_" data-name="&lt;Rectangle&gt;" x="240.65" y="147.74" width="9.29" height="206" transform="translate(358.05 354.98) rotate(-180)"/>
  </g>
  <g>
    <path d="M373.79,256.89L362,210.5c-2.28-6.9-10.74-19-25.08-20.64l-19.57-.2-18.13.15c-14.62,1.46-23.13,13.64-25.13,20.69L262.23,257c-4.16,14.15,14,19.6,18.3,6.36l9.81-36.64h4.82l-17.35,70.66h14.46v44.43c0,16.2,23.61,15.74,23.61,0V297.33H320v44.43c0,15.74,23.73,16.2,23.73,0V297.33H358l-17.59-70.66h5.2l9.83,36.43C359.77,276.9,377.79,271,373.79,256.89Z" transform="translate(-132.54 -146.5)"/>
    <path d="M318,187.1a20.3,20.3,0,1,0-20.3-20.3A20.29,20.29,0,0,0,318,187.1Z" transform="translate(-132.54 -146.5)"/>
  </g>
  <g>
    <path d="M178.07,187a20.32,20.32,0,1,0-18.18-18.1A20.33,20.33,0,0,0,178.07,187Z" transform="translate(-132.54 -146.5)"/>
    <path d="M204.6,189.91l-18.87-.11c-5.5,0-8.52-.06-11.26-0.06l-16-.07A26.07,26.07,0,0,0,132.54,216v48.13c0,12.1,17.73,12.1,17.73,0V228h4.21V341.91c0,16.21,23.62,15.73,23.62,0V277.39h4.08v64.53c0,15.73,23.77,16.21,23.77,0V228h4.12v36.14c0,12.21,17.63,12.21,17.6,0V216.42C227.67,203.85,218.59,191.56,204.6,189.91Z" transform="translate(-132.54 -146.5)"/>
  </g>
</svg>
