<?xml version="1.0" encoding="iso-8859-1"?>
<!-- Generator: Adobe Illustrator 16.0.0, SVG Export Plug-In . SVG Version: 6.00 Build 0)  -->
<!DOCTYPE svg PUBLIC "-//W3C//DTD SVG 1.1//EN" "http://www.w3.org/Graphics/SVG/1.1/DTD/svg11.dtd">
<svg version="1.1" xmlns="http://www.w3.org/2000/svg" xmlns:xlink="http://www.w3.org/1999/xlink" x="0px" y="0px"
	 width="961.539px" height="1000px" viewBox="0 0 961.539 1000" style="enable-background:new 0 0 961.539 1000;"
	 xml:space="preserve">
<g id="KP_x5F_Globe_x5F_icon">
	<g>
		<path style="fill:#1C1B1A;" d="M745.774,317.859c-6.872-64.604-23.123-122.517-47.073-168.363
			c48.463,30.084,89.6,69.509,122.354,117.25c21.896,32.031,39.119,66.642,51.274,103.001
			C833.572,350.936,791.007,333.513,745.774,317.859 M749.435,376.636c51.6,18.866,98.491,39.931,139.452,62.675
			c5.338,36.161,5.844,72.99,1.334,109.638l-150.759-28.172C747.072,471.919,750.409,423.493,749.435,376.636 M552.107,265.664
			l30.68-164.63c51.959,25.864,90.158,97.718,105.346,198.356C645.152,286.64,599.433,275.276,552.107,265.664 M602.391,761.896
			c-50.266,88.645-112.018,141.885-170.348,147.007l30.699-164.629C510.518,752.373,557.465,758.323,602.391,761.896
			 M212.296,623.419c-51.669-18.867-98.528-39.933-139.45-62.639c-5.41-36.306-5.99-73.17-1.568-109.674l151.139,28.225
			C214.644,529.092,211.252,577.518,212.296,623.419 M216.32,682.287c4.075,37.46,10.91,72.051,20.327,102.82
			c7.304,23.591,16.196,45.521,26.494,65.288c-81.628-50.859-142.913-128.468-173.592-220.015
			C128.359,649.19,170.96,666.612,216.32,682.287 M405.837,94.289c-39.118,34.177-75.514,82.477-105.653,140.299
			c-47.991-1.803-94.344-0.938-137.359,2.651C224.778,162.193,310.556,111.766,405.837,94.289 M676.246,564.062
			c-11.399,51.582-27.378,100.458-47.523,145.494c-49.779-3.193-102.228-9.433-156.026-18.506l29.741-159.415L676.246,564.062z
			 M488.945,308.967l-29.757,159.49l-173.882-32.465c11.415-51.545,27.432-100.476,47.596-145.493
			C382.807,293.655,435.254,299.876,488.945,308.967 M512.376,478.394l29.758-159.507c53.511,10.912,104.589,24.006,151.914,38.975
			c2.688,49.419,0.02,100.856-7.9,152.98L512.376,478.394z M359.359,238.069c50.267-88.464,111.985-141.688,170.24-146.972
			l-30.751,164.63C450.909,247.591,404.017,241.64,359.359,238.069 M81.216,397.9c9.071-35.674,22.851-69.852,40.941-101.72
			c46.423-6.439,98.131-9.163,153.102-8.116c-18.142,43.483-32.698,89.854-43.213,137.973L81.216,397.9z M449.23,521.696
			l-29.776,159.418c-53.476-10.93-104.605-24.061-152.059-39.03c-2.595-48.876,0.163-100.295,8.207-152.833L449.23,521.696z
			 M661.689,765.304c18.019,0.65,33.676,1.029,47.814,1.029c29.686,0,59.787-1.263,89.439-3.716
			C737.135,837.52,651.591,887.946,556.49,905.549C595.465,871.426,631.679,823.162,661.689,765.304 M880.338,602.154
			c-9.127,35.639-22.87,69.816-40.923,101.685c-46.354,6.476-98.022,9.162-152.925,8.152c17.982-43.285,32.41-89.69,42.979-137.992
			L880.338,602.154z M409.554,734.354l-30.751,164.557c-39.011-19.261-70.177-64.062-90.34-129.747
			c-6.42-20.759-11.56-43.862-15.329-68.661C316.076,713.307,361.938,724.671,409.554,734.354 M865.619,236.122
			C801.865,143.003,706.654,76.326,597.917,48.442c-1.478-0.667-2.993-1.154-4.525-1.678l-0.397-0.144l2.435-13.22
			c2.76-14.663-6.962-28.803-21.588-31.562c-1.696-0.325-3.411-0.487-5.104-0.487c-12.931,0-24.096,9.324-26.495,22.112
			l-2.488,13.256l-0.325-0.037c-1.1-0.072-2.254-0.09-3.372-0.09l-0.812,0.018c-18.954-2.182-37.423-3.336-54.991-3.336
			c-224.29,0-416.982,160.282-458.178,381.056c-22.849,122.624,3.339,246.691,73.841,349.565
			c63.792,93.064,159.056,159.796,267.881,187.68c1.533,0.613,3.102,1.19,4.634,1.695l0.234,0.108l-2.488,13.237
			c-2.703,14.609,6.998,28.75,21.645,31.526c1.641,0.361,3.3,0.505,5.031,0.505c12.984,0,24.148-9.306,26.549-22.147l2.38-12.914
			c1.281,0.037,2.452-0.036,3.678-0.071l1.193-0.145c18.883,2.237,37.277,3.354,54.702,3.354
			c224.308,0,416.91-160.3,458.104-381.037C962.327,463.099,936.103,338.924,865.619,236.122"/>
	</g>
</g>
<g id="Layer_1">
</g>
</svg>
