<?xml version="1.0" encoding="iso-8859-1"?>
<!-- Generator: Adobe Illustrator 19.2.1, SVG Export Plug-In . SVG Version: 6.00 Build 0)  -->
<svg version="1.1" xmlns="http://www.w3.org/2000/svg" xmlns:xlink="http://www.w3.org/1999/xlink" x="0px" y="0px"
	 viewBox="0 0 600 600" style="enable-background:new 0 0 600 600;" xml:space="preserve">
<g id="globe">
	<g id="globe_1_">
		<g>
			<path style="fill:#1C1B1A;" d="M432.906,208.729c-3.459-32.387-11.581-61.416-23.614-84.428
				c24.316,15.091,44.921,34.844,61.366,58.809c10.98,16.043,19.603,33.39,25.719,51.639
				C476.925,225.273,455.567,216.55,432.906,208.729 M434.711,238.158c25.87,9.476,49.383,20.004,69.939,31.435
				c2.657,18.149,2.908,36.599,0.652,54.948l-75.604-14.138C433.558,285.937,435.212,261.672,434.711,238.158 M335.794,182.558
				l15.392-82.573c26.07,12.985,45.222,48.982,52.793,99.469C382.47,193.036,359.508,187.371,335.794,182.558 M361.012,431.33
				c-25.218,44.42-56.152,71.142-85.381,73.699l15.392-82.523C314.938,426.567,338.501,429.525,361.012,431.33 M165.434,361.892
				c-25.92-9.476-49.383-20.004-69.889-31.385c-2.707-18.199-3.008-36.699-0.802-54.999l75.755,14.138
				C166.587,314.614,164.933,338.88,165.434,361.892 M167.439,391.422c2.056,18.801,5.465,36.148,10.177,51.539
				c3.66,11.832,8.122,22.812,13.286,32.738c-40.91-25.519-71.643-64.424-87.035-110.298
				C123.37,374.827,144.728,383.551,167.439,391.422 M262.446,96.626c-19.603,17.146-37.852,41.362-52.993,70.34
				c-24.065-0.902-47.278-0.451-68.886,1.354C171.701,130.668,214.717,105.4,262.446,96.626 M398.012,332.162
				c-5.715,25.87-13.737,50.386-23.814,72.947c-24.967-1.604-51.238-4.713-78.211-9.275l14.89-79.916L398.012,332.162z
				 M304.108,204.267l-14.94,79.966l-87.135-16.294c5.715-25.82,13.737-50.386,23.864-72.947
				C250.915,196.596,277.236,199.704,304.108,204.267 M315.89,289.196l14.94-79.966c26.822,5.465,52.442,12.032,76.156,19.553
				c1.354,24.767,0,50.587-3.961,76.707L315.89,289.196z M239.183,168.721c25.218-44.37,56.152-71.042,85.33-73.699l-15.442,82.523
				C285.057,173.483,261.543,170.475,239.183,168.721 M99.706,248.837c4.562-17.898,11.481-35.045,20.505-50.988
				c23.263-3.209,49.183-4.612,76.757-4.061c-9.075,21.809-16.394,45.072-21.658,69.187L99.706,248.837z M284.205,310.904
				l-14.94,79.916c-26.822-5.465-52.442-12.083-76.256-19.553c-1.304-24.516,0.1-50.286,4.111-76.607L284.205,310.904z
				 M390.742,433.034c9.024,0.351,16.896,0.501,23.965,0.501c14.89,0,29.981-0.652,44.821-1.855
				c-30.984,37.551-73.9,62.82-121.578,71.643C357.553,486.228,375.702,462.063,390.742,433.034 M500.338,351.263
				c-4.562,17.848-11.481,34.994-20.505,50.988c-23.263,3.259-49.133,4.612-76.657,4.111c9.024-21.709,16.244-44.971,21.558-69.187
				L500.338,351.263z M264.351,417.542l-15.442,82.523c-19.553-9.676-35.195-32.137-45.272-65.026
				c-3.209-10.428-5.816-22.009-7.671-34.443C217.474,406.964,240.436,412.679,264.351,417.542 M492.968,167.718
				c-31.936-46.676-79.665-80.116-134.212-94.104c-0.752-0.351-1.504-0.602-2.256-0.852l-0.201-0.05l1.203-6.618
				c1.404-7.37-3.509-14.439-10.829-15.843C345.821,50.1,344.969,50,344.116,50c-6.467,0-12.083,4.663-13.286,11.08l-1.253,6.668
				h-0.15c-0.551-0.05-1.153-0.05-1.705-0.05h-0.401c-9.526-1.103-18.751-1.654-27.574-1.654
				c-112.454,0-209.064,80.367-229.72,191.066c-11.431,61.466,1.705,123.634,37.05,175.223
				c31.986,46.676,79.765,80.116,134.313,94.104c0.752,0.301,1.554,0.602,2.306,0.852l0.1,0.05l-1.253,6.618
				c-1.354,7.32,3.509,14.439,10.829,15.793c0.802,0.201,1.654,0.251,2.507,0.251c6.518,0,12.083-4.663,13.286-11.08l1.203-6.467
				c0.652,0,1.253,0,1.855-0.05l0.602-0.05c9.476,1.103,18.7,1.705,27.424,1.705c112.454,0,209.014-80.367,229.67-191.016
				C541.449,281.525,528.314,219.257,492.968,167.718"/>
		</g>
	</g>
</g>
<g id="Layer_1">
</g>
</svg>
