<?xml version="1.0" encoding="UTF-8" standalone="no"?>
<svg width="22px" height="33px" viewBox="0 0 22 33" version="1.1" xmlns="http://www.w3.org/2000/svg" xmlns:xlink="http://www.w3.org/1999/xlink" xmlns:sketch="http://www.bohemiancoding.com/sketch/ns">
    <!-- Generator: Sketch 3.4.2 (15857) - http://www.bohemiancoding.com/sketch -->
    <title>Grapes</title>
    <desc>Created with Sketch.</desc>
    <defs>
        <path id="path-1" d="M0,0.0370365112 L21.4632556,0.0370365112 L21.4632556,32.2576065 L0,32.2576065 L0,0.0370365112 Z"></path>
        <path id="path-3" d="M0,0.0370365112 L21.4632556,0.0370365112 L21.4632556,32.2576065 L0,32.2576065 L0,0.0370365112 Z"></path>
    </defs>
    <g id="KP-Approved" stroke="none" stroke-width="1" fill="none" fill-rule="evenodd" sketch:type="MSPage">
        <g id="Desktop-HD" sketch:type="MSArtboardGroup" transform="translate(-1084.000000, -328.000000)">
            <g id="Grapes" sketch:type="MSLayerGroup" transform="translate(1084.000000, 328.000000)">
                <g id="Group-3">
                    <mask id="mask-2" sketch:name="Clip 2" fill="white">
                        <use xlink:href="#path-1"></use>
                    </mask>
                    <g id="Clip-2"></g>
                    <path d="M20.231015,31.0254854 L1.23367424,31.0254854 L1.23367424,9.58254016 L1.8800211,10.1858769 C1.99471481,10.2910128 2.14405558,10.3495544 2.30056471,10.3495544 C2.45587911,10.3495544 2.60402515,10.2910128 2.72110832,10.1858769 L3.98154442,9.0090716 L5.25034361,10.1858769 C5.3638426,10.2910128 5.51318337,10.3495544 5.66730304,10.3495544 C5.8250069,10.3495544 5.97315294,10.2910128 6.08784665,10.1858769 L7.35186694,9.0090716 L8.61588722,10.1858769 C8.73177566,10.2910128 8.87872698,10.3495544 9.03643083,10.3495544 C9.19174523,10.3495544 9.33989128,10.2910128 9.45458499,10.1858769 L10.7198,9.0090716 L11.9826256,10.1858769 C12.0973193,10.2910128 12.2454653,10.3471649 12.4019744,10.3471649 C12.5572888,10.3471649 12.7066296,10.2910128 12.8237128,10.1858769 L14.0853436,9.0090716 L15.3529481,10.1858769 C15.4676418,10.2910128 15.6169826,10.3495544 15.7734917,10.3495544 C15.9252219,10.3495544 16.0757574,10.2910128 16.1904511,10.1858769 L17.4592503,9.0090716 L18.7244653,10.1870716 C18.8403538,10.2934022 18.9896945,10.3495544 19.1450089,10.3495544 C19.3015181,10.3495544 19.4472746,10.2934022 19.5619684,10.1870716 L20.231015,9.57178763 L20.231015,31.0254854 Z M7.25987302,5.97805132 C7.25987302,4.04259493 8.78195416,2.5252927 10.7317473,2.5252927 C12.6683984,2.5252927 14.1845059,4.04259493 14.1845059,5.97805132 L14.1845059,7.56106349 C14.1522483,7.55389513 14.1199907,7.55150568 14.0853436,7.55150568 C13.9300292,7.55150568 13.7806884,7.61124199 13.6648,7.71876734 L12.4019744,8.89079371 L11.1403436,7.71876734 C11.0244552,7.61124199 10.8763091,7.55150568 10.7198,7.55150568 C10.5620961,7.55150568 10.4139501,7.61124199 10.3004511,7.71876734 L9.03643083,8.89437789 L7.7700211,7.71637789 C7.65532738,7.61124199 7.50718134,7.55150568 7.35186694,7.55150568 C7.3184146,7.55150568 7.28974118,7.55389513 7.25987302,7.55867404 L7.25987302,5.97805132 Z M21.0959968,7.60407363 C21.0147554,7.56942657 20.9323193,7.55150568 20.846299,7.55150568 C20.6921793,7.55150568 20.5440333,7.61124199 20.4293396,7.71637789 L19.1462037,8.89437789 L17.8762097,7.71876734 C17.7627108,7.61124199 17.6145647,7.55150568 17.4592503,7.55150568 C17.3027412,7.55150568 17.1534004,7.61124199 17.037512,7.71876734 L16.6719258,8.05687485 L16.6719258,5.97805132 C16.6719258,2.70211217 14.0064917,0.0378728195 10.7317473,0.0378728195 C7.45580811,0.0378728195 4.78917931,2.70211217 4.78917931,5.97805132 L4.78917931,8.07837992 L4.40208803,7.71876734 C4.28739432,7.61124199 4.13924828,7.55150568 3.98154442,7.55150568 C3.82742475,7.55150568 3.6792787,7.61124199 3.56458499,7.71876734 L2.30056471,8.89437789 L1.03654442,7.71876734 C0.920655984,7.61124199 0.771315213,7.55150568 0.616000811,7.55150568 C0.529980527,7.55150568 0.446349696,7.56942657 0.371081947,7.60407363 C0.145278702,7.70084645 -0.000477890467,7.92306552 -0.000477890467,8.16798438 L-0.000477890467,31.6407694 C-0.000477890467,31.9812663 0.275503854,32.2572481 0.617195538,32.2572481 L20.846299,32.2572481 C21.1867959,32.2572481 21.4627777,31.9812663 21.4627777,31.6407694 L21.4627777,8.16798438 C21.4627777,7.92306552 21.3194105,7.7032359 21.0959968,7.60407363 L21.0959968,7.60407363 Z" id="Fill-1" fill="#1C1B1A" sketch:type="MSShapeGroup" mask="url(#mask-2)"></path>
                </g>
                <mask id="mask-4" sketch:name="Clip 5" fill="white">
                    <use xlink:href="#path-3"></use>
                </mask>
                <g id="Clip-5"></g>
                <path d="M11.1133428,12.5111724 L10.3523022,12.5111724 L10.3523022,14.7883205 L11.1133428,14.7883205 L11.1133428,12.5111724 Z" id="Fill-4" fill="#1C1B1A" sketch:type="MSShapeGroup" mask="url(#mask-4)"></path>
                <path d="M7.16011339,16.5359659 C7.16011339,15.7390836 6.51376653,15.0927367 5.7180789,15.0927367 C4.9188071,15.0927367 4.27604442,15.7390836 4.27604442,16.5359659 C4.27604442,17.334043 4.9188071,17.9791951 5.7180789,17.9791951 C6.51376653,17.9791951 7.16011339,17.334043 7.16011339,16.5359659" id="Fill-6" fill="#1C1B1A" sketch:type="MSShapeGroup" mask="url(#mask-4)"></path>
                <path d="M9.06080325,17.9815846 C9.85649087,17.9815846 10.5040325,17.334043 10.5040325,16.5359659 C10.5040325,15.7390836 9.85649087,15.0927367 9.06080325,15.0927367 C8.26392089,15.0927367 7.61637931,15.7390836 7.61637931,16.5359659 C7.61637931,17.334043 8.26392089,17.9815846 9.06080325,17.9815846" id="Fill-7" fill="#1C1B1A" sketch:type="MSShapeGroup" mask="url(#mask-4)"></path>
                <path d="M12.4034081,17.9815846 C13.2002905,17.9815846 13.847832,17.334043 13.847832,16.5359659 C13.847832,15.7390836 13.2002905,15.0927367 12.4034081,15.0927367 C11.605331,15.0927367 10.9601789,15.7390836 10.9601789,16.5359659 C10.9601789,17.334043 11.605331,17.9815846 12.4034081,17.9815846" id="Fill-8" fill="#1C1B1A" sketch:type="MSShapeGroup" mask="url(#mask-4)"></path>
                <path d="M15.7461325,15.0927367 C14.9480554,15.0927367 14.3017085,15.7390836 14.3017085,16.5359659 C14.3017085,17.334043 14.9480554,17.9815846 15.7461325,17.9815846 C16.5442095,17.9815846 17.1881669,17.334043 17.1881669,16.5359659 C17.1881669,15.7390836 16.5442095,15.0927367 15.7461325,15.0927367" id="Fill-9" fill="#1C1B1A" sketch:type="MSShapeGroup" mask="url(#mask-4)"></path>
                <path d="M8.83320791,19.5752298 C8.83320791,18.7783475 8.18566633,18.1308059 7.38758925,18.1308059 C6.59309635,18.1308059 5.94436004,18.7783475 5.94436004,19.5752298 C5.94436004,20.3733069 6.59309635,21.0196538 7.38758925,21.0196538 C8.18566633,21.0196538 8.83320791,20.3733069 8.83320791,19.5752298" id="Fill-10" fill="#1C1B1A" sketch:type="MSShapeGroup" mask="url(#mask-4)"></path>
                <path d="M9.28827911,19.5752298 C9.28827911,20.3733069 9.93462596,21.0196538 10.7315083,21.0196538 C11.5271959,21.0196538 12.1747375,20.3733069 12.1747375,19.5752298 C12.1747375,18.7783475 11.5271959,18.1308059 10.7315083,18.1308059 C9.93462596,18.1308059 9.28827911,18.7783475 9.28827911,19.5752298" id="Fill-11" fill="#1C1B1A" sketch:type="MSShapeGroup" mask="url(#mask-4)"></path>
                <path d="M14.1604919,18.1331953 C13.3624148,18.1331953 12.7172627,18.7783475 12.7172627,19.5752298 C12.7172627,20.3733069 13.3624148,21.0196538 14.1604919,21.0196538 C14.9561795,21.0196538 15.6025264,20.3733069 15.6025264,19.5752298 C15.6025264,18.7783475 14.9561795,18.1331953 14.1604919,18.1331953" id="Fill-12" fill="#1C1B1A" sketch:type="MSShapeGroup" mask="url(#mask-4)"></path>
                <path d="M10.6544485,22.6122237 C10.6544485,21.8165361 10.0092963,21.171384 9.212414,21.171384 C8.41553164,21.171384 7.76799006,21.8165361 7.76799006,22.6122237 C7.76799006,23.4126903 8.41553164,24.0566477 9.212414,24.0566477 C10.0092963,24.0566477 10.6544485,23.4126903 10.6544485,22.6122237" id="Fill-13" fill="#1C1B1A" sketch:type="MSShapeGroup" mask="url(#mask-4)"></path>
                <path d="M12.5551383,21.171384 C11.7570613,21.171384 11.1119091,21.8177308 11.1119091,22.6122237 C11.1119091,23.4126903 11.7570613,24.0578424 12.5551383,24.0578424 C13.3520207,24.0578424 13.9971728,23.4126903 13.9971728,22.6122237 C13.9971728,21.8177308 13.3520207,21.171384 12.5551383,21.171384" id="Fill-14" fill="#1C1B1A" sketch:type="MSShapeGroup" mask="url(#mask-4)"></path>
                <path d="M10.732703,24.2094531 C9.93462596,24.2094531 9.28827911,24.8558 9.28827911,25.6490982 C9.28827911,26.4507594 9.93462596,27.0947168 10.732703,27.0947168 C11.5283907,27.0947168 12.1747375,26.4507594 12.1747375,25.6490982 C12.1747375,24.8558 11.5283907,24.2094531 10.732703,24.2094531" id="Fill-15" fill="#1C1B1A" sketch:type="MSShapeGroup" mask="url(#mask-4)"></path>
            </g>
        </g>
    </g>
</svg>