<?xml version="1.0" encoding="UTF-8" standalone="no"?>
<svg width="33px" height="27px" viewBox="0 0 33 27" version="1.1" xmlns="http://www.w3.org/2000/svg" xmlns:xlink="http://www.w3.org/1999/xlink" xmlns:sketch="http://www.bohemiancoding.com/sketch/ns">
    <!-- Generator: Sketch 3.4.2 (15857) - http://www.bohemiancoding.com/sketch -->
    <title>Health_Finder</title>
    <desc>Created with Sketch.</desc>
    <defs>
        <path id="path-1" d="M0,1.1505213 L32.1010974,1.1505213 L32.1010974,27.4787018 L0,27.4787018"></path>
    </defs>
    <g id="KP-Approved" stroke="none" stroke-width="1" fill="none" fill-rule="evenodd" sketch:type="MSPage">
        <g id="Desktop-HD" sketch:type="MSArtboardGroup" transform="translate(-1079.000000, -236.000000)">
            <g id="Health_Finder" sketch:type="MSLayerGroup" transform="translate(1079.000000, 235.000000)">
                <g id="Group-3">
                    <mask id="mask-2" sketch:name="Clip 2" fill="white">
                        <use xlink:href="#path-1"></use>
                    </mask>
                    <g id="Clip-2"></g>
                    <path d="M11.4604108,15.3188984 C11.432932,13.1229917 12.262072,11.0489471 13.793711,9.47668742 C14.2632383,8.99640751 14.7853337,8.58900588 15.3420761,8.24134057 C14.3110274,7.9916428 13.0888225,7.84588621 11.7578976,7.85424929 C11.7316136,7.85424929 11.3672221,7.85902819 11.3421329,7.85902819 L11.3385487,7.85902819 C11.3361592,7.37396937 11.3612485,6.67266511 11.6503722,5.71688418 C12.0159584,4.5126002 13.2477211,3.78023306 14.1784128,3.44212556 C14.4472262,3.32743185 14.578646,3.01321886 14.4257211,2.68586389 C14.2895223,2.40271379 13.9442465,2.32386187 13.7232221,2.40032434 C12.3684026,2.88777262 11.5631572,3.48871988 11.0279199,4.34055963 C10.7256542,4.82442373 10.5165771,5.3524927 10.3803783,5.85905659 C10.0231552,4.93792272 9.41981846,4.01559412 8.58709432,3.20079087 C7.14147566,1.78623509 5.36491785,1.0741783 3.8834574,1.1566144 C3.83805781,2.63926957 4.59670892,4.40149067 6.04471704,5.81485172 C7.2848428,7.02510933 8.7686927,7.72163469 10.0972282,7.84588621 L10.0972282,7.86978073 C9.93116126,7.87217018 9.07215314,7.88292272 9.03153245,7.88292272 C7.56082454,7.90562252 6.21675761,8.11111542 5.14269878,8.43847039 C4.63135598,8.59378479 4.01248783,8.84587201 3.53698682,9.13141156 C1.32076978,10.4695049 -0.11051217,13.0548923 0.00657099391,16.0202026 C0.00657099391,16.053655 0.0137393509,16.0859126 0.0137393509,16.1241438 C0.0543600406,17.5709572 0.388883367,19.1802533 1.04120385,20.7979126 C2.80223022,25.2267625 6.22153651,28.0953 8.84515517,27.3653223 C9.37680832,27.2159815 10.0219604,27.1323507 10.6288813,27.1251824 C11.2346075,27.118014 11.8821491,27.1896976 12.4114128,27.3258963 C14.4555892,27.8456022 16.9215041,26.201659 18.701646,23.3677686 C14.6813925,22.8839045 11.5129787,19.4622087 11.4604108,15.3188984" id="Fill-1" fill="#1C1B1A" sketch:type="MSShapeGroup" mask="url(#mask-2)"></path>
                </g>
                <path d="M31.5665769,24.0927284 L25.8569805,18.5312781 C27.3002097,15.8419495 26.8928081,12.4262274 24.6025181,10.1956736 C23.2572564,8.8838643 21.4854775,8.17778114 19.6085627,8.20406511 C17.7364268,8.22557018 15.9789846,8.97705294 14.6719542,10.3211199 C13.3613396,11.6639921 12.6528669,13.435771 12.6791509,15.3126858 C12.7030454,17.1884059 13.4545282,18.9434586 14.7985951,20.2540732 C16.1390779,21.5611037 17.9156357,22.2683815 19.7901611,22.244487 C21.0804653,22.2289556 22.3098385,21.8597852 23.3815079,21.1979069 L29.0218101,26.7008156 C29.7266986,27.384199 30.8557148,27.3698623 31.5414876,26.668558 L31.5976398,26.6100164 C32.2810231,25.9087122 32.2666864,24.7773065 31.5665769,24.0927284 M23.4496073,18.8777487 C22.5583416,19.7905195 21.3839258,20.316199 20.1270738,20.4177507 C20.7053213,18.8442963 20.9932503,17.2935418 21.0004187,15.8969069 C21.0004187,15.8598704 21.0051976,15.831197 21.0051976,15.7905763 C21.0458183,13.5158176 20.1736682,11.4895621 18.7567229,10.0869535 C19.0434572,10.0355803 19.3349704,9.99376491 19.6312625,9.988986 C21.0302868,9.97225984 22.3528487,10.4991341 23.3516398,11.4752254 C25.4209055,13.4907284 25.4627209,16.8108724 23.4496073,18.8777487" id="Fill-4" fill="#1C1B1A" sketch:type="MSShapeGroup"></path>
            </g>
        </g>
    </g>
</svg>