<?xml version="1.0" encoding="iso-8859-1"?>
<!-- Generator: Adobe Illustrator 19.2.1, SVG Export Plug-In . SVG Version: 6.00 Build 0)  -->
<svg version="1.1" xmlns="http://www.w3.org/2000/svg" xmlns:xlink="http://www.w3.org/1999/xlink" x="0px" y="0px"
	 viewBox="0 0 600 600" style="enable-background:new 0 0 600 600;" xml:space="preserve">
<g id="health-calculator">
	<g id="health-calculator_1_">
		<path style="fill:#1C1B1A;" d="M234.413,267.774c-12.145-3.039-26.495-4.883-42.128-4.993h-4.965h-0.044
			c0.044-5.841,0.443-14.232,4.05-25.626c4.567-14.432,19.469-23.002,30.682-26.963c3.282-1.302,4.856-5.046,3.083-9.006
			c-1.593-3.4-5.715-4.432-8.4-3.528c-16.304,5.624-26.052,12.732-32.617,22.897c-3.715,5.732-6.293,12.045-8.02,18.065
			c-4.122-11.12-11.239-22.28-21.095-32.173c-17.126-17.198-38.332-26.023-56.136-25.21c-0.778,17.759,8.058,39.01,25.228,56.208
			c14.704,14.739,32.389,23.311,48.295,24.939v0.361H159.57c-17.624,0.035-33.8,2.261-46.758,6.041
			c-6.148,1.772-13.619,4.774-19.359,8.065c-26.821,15.698-44.389,46.551-43.413,82.123c0,0.433,0.009,0.813,0.037,1.248
			c0.27,17.361,4.024,36.747,11.637,56.297c20.435,53.367,61.036,88.344,92.631,79.988c6.383-1.7,14.159-2.639,21.439-2.639
			c7.278,0,15.065,0.976,21.358,2.694c12.669,3.4,26.765-0.219,40.456-9.098c-1.982-5.135-3.183-10.687-3.183-16.493V267.774z"/>
		<path style="fill:#1C1B1A;" d="M509.092,213.755c0,4.9-4.05,8.952-8.987,8.952H302.971c-4.944,0-8.978-4.052-8.978-8.952V159.3
			c0-4.919,4.033-8.933,8.978-8.933h197.134c4.937,0,8.987,4.015,8.987,8.933V213.755z M477.245,298.463
			c-13.546,0-24.55-10.996-24.55-24.541c0-13.545,11.004-24.595,24.55-24.595c13.6,0,24.56,11.05,24.56,24.595
			C501.805,287.467,490.846,298.463,477.245,298.463 M477.245,374.166c-13.546,0-24.55-11.013-24.55-24.56
			c0-13.545,11.004-24.541,24.55-24.541c13.6,0,24.56,10.996,24.56,24.541C501.805,363.153,490.846,374.166,477.245,374.166
			 M477.245,449.887c-13.546,0-24.55-10.996-24.55-24.578c0-13.545,11.004-24.541,24.55-24.541c13.6,0,24.56,10.996,24.56,24.541
			C501.805,438.89,490.846,449.887,477.245,449.887 M401.543,298.463c-13.572,0-24.56-10.996-24.56-24.541
			c0-13.545,10.987-24.595,24.56-24.595c13.582,0,24.55,11.05,24.55,24.595C426.093,287.467,415.124,298.463,401.543,298.463
			 M401.543,374.166c-13.572,0-24.56-11.013-24.56-24.56c0-13.545,10.987-24.541,24.56-24.541c13.582,0,24.55,10.996,24.55,24.541
			C426.093,363.153,415.124,374.166,401.543,374.166 M401.543,449.887c-13.572,0-24.56-10.996-24.56-24.578
			c0-13.545,10.987-24.541,24.56-24.541c13.582,0,24.55,10.996,24.55,24.541C426.093,438.89,415.124,449.887,401.543,449.887
			 M325.831,298.463c-13.572,0-24.56-10.996-24.56-24.541c0-13.545,10.987-24.595,24.56-24.595c13.582,0,24.55,11.05,24.55,24.595
			C350.381,287.467,339.412,298.463,325.831,298.463 M325.831,374.166c-13.572,0-24.56-11.013-24.56-24.56
			c0-13.545,10.987-24.541,24.56-24.541c13.582,0,24.55,10.996,24.55,24.541C350.381,363.153,339.412,374.166,325.831,374.166
			 M325.831,449.887c-13.572,0-24.56-10.996-24.56-24.578c0-13.545,10.987-24.541,24.56-24.541c13.582,0,24.55,10.996,24.55,24.541
			C350.381,438.89,339.412,449.887,325.831,449.887 M253.067,102.153v368.819c0,14.795,12.091,26.874,26.856,26.874h243.221
			c14.776,0,26.856-12.08,26.856-26.874V102.153H253.067z"/>
		<path style="fill:#1C1B1A;" d="M490.79,190.117c-2.35,0-4.267,2.026-4.267,4.485v11.882h-18.556v-11.882
			c0-2.459-1.907-4.485-4.259-4.485c-2.35,0-4.285,2.026-4.285,4.485v16.15c0,2.35,1.935,4.267,4.285,4.267h27.082
			c2.352,0,4.269-1.917,4.269-4.267v-16.15C495.059,192.143,493.142,190.117,490.79,190.117"/>
		<path style="fill:#1C1B1A;" d="M490.79,158.035h-27.082c-2.35,0-4.285,1.935-4.285,4.25v15.859c0,2.478,1.935,4.467,4.285,4.467
			c2.352,0,4.259-1.989,4.259-4.467v-11.556h18.556v11.556c0,2.478,1.917,4.467,4.267,4.467c2.352,0,4.269-1.989,4.269-4.467
			v-15.859C495.059,159.971,493.142,158.035,490.79,158.035"/>
	</g>
</g>
<g id="Layer_1">
</g>
</svg>
