<?xml version="1.0" encoding="iso-8859-1"?>
<!-- Generator: Adobe Illustrator 19.2.1, SVG Export Plug-In . SVG Version: 6.00 Build 0)  -->
<svg version="1.1" xmlns="http://www.w3.org/2000/svg" xmlns:xlink="http://www.w3.org/1999/xlink" x="0px" y="0px"
	 viewBox="0 0 600 600" style="enable-background:new 0 0 600 600;" xml:space="preserve">
<g id="health-finder">
	<g id="health-finder_1_">
		<path style="fill:#1C1B1A;" d="M228.506,315.645c-0.426-34.201,12.485-66.512,36.345-90.999
			c7.315-7.47,15.438-13.83,24.115-19.245c-16.056-3.889-35.1-6.161-55.827-6.024c-0.408,0-6.087,0.073-6.468,0.073h-0.056
			c-0.045-7.551,0.355-18.473,4.844-33.356c5.696-18.773,24.888-30.176,39.389-35.446c4.18-1.772,6.225-6.669,3.843-11.776
			c-2.125-4.397-7.496-5.642-10.948-4.434c-21.089,7.587-33.639,16.947-41.97,30.213c-4.715,7.54-7.959,15.764-10.086,23.643
			c-5.57-14.347-14.975-28.714-27.941-41.397c-22.506-22.025-50.183-33.129-73.263-31.84c-0.7,23.097,11.113,50.538,33.675,72.554
			c19.318,18.855,42.415,29.704,63.114,31.63v0.383c-2.59,0.035-15.974,0.199-16.592,0.199c-22.908,0.363-43.843,3.552-60.579,8.649
			c-7.959,2.417-17.61,6.361-25.005,10.795c-34.519,20.844-56.819,61.125-54.991,107.31c0,0.51,0.108,1.009,0.108,1.617
			c0.627,22.526,5.852,47.596,16.002,72.8c27.431,68.976,80.696,113.663,121.566,102.286c8.279-2.326,18.319-3.634,27.777-3.742
			c9.431-0.11,19.517,1.016,27.768,3.124c31.829,8.106,70.237-17.509,97.978-61.651
			C278.681,433.469,229.332,380.187,228.506,315.645"/>
		<path style="fill:#1C1B1A;" d="M415.241,371.081c-13.875,14.212-32.158,22.407-51.738,23.989
			c8.996-24.515,13.493-48.675,13.603-70.42c0-0.581,0.073-1.018,0.073-1.662c0.635-35.429-12.948-66.986-35.02-88.83
			c4.462-0.808,8.996-1.453,13.622-1.526c21.78-0.264,42.378,7.95,57.952,23.142C445.953,287.161,446.597,338.88,415.241,371.081
			 M541.677,452.305l-88.937-86.63c22.489-41.879,16.147-95.09-19.536-129.836c-20.944-20.425-48.539-31.419-77.789-31.012
			c-29.158,0.337-56.526,12.04-76.888,32.975c-20.418,20.916-31.44,48.512-31.04,77.742c0.381,29.223,12.085,56.554,33.02,76.963
			c20.881,20.362,48.539,31.384,77.735,31.012c20.099-0.236,39.254-5.988,55.944-16.311l87.856,85.713
			c10.977,10.65,28.568,10.43,39.254-0.491l0.873-0.908C552.799,480.582,552.58,462.963,541.677,452.305"/>
	</g>
</g>
<g id="Layer_1">
</g>
</svg>
