<?xml version="1.0" encoding="UTF-8" standalone="no"?>
<svg width="33px" height="27px" viewBox="0 0 33 27" version="1.1" xmlns="http://www.w3.org/2000/svg" xmlns:xlink="http://www.w3.org/1999/xlink" xmlns:sketch="http://www.bohemiancoding.com/sketch/ns">
    <!-- Generator: Sketch 3.4.2 (15857) - http://www.bohemiancoding.com/sketch -->
    <title>Health_Calculator</title>
    <desc>Created with Sketch.</desc>
    <defs>
        <path id="path-1" d="M0,0.756261663 L32.2576065,0.756261663 L32.2576065,26.2839757 L0,26.2839757 L0,0.756261663 Z"></path>
    </defs>
    <g id="KP-Approved" stroke="none" stroke-width="1" fill="none" fill-rule="evenodd" sketch:type="MSPage">
        <g id="Desktop-HD" sketch:type="MSArtboardGroup" transform="translate(-1167.000000, -235.000000)">
            <g id="Health_Calculator" sketch:type="MSLayerGroup" transform="translate(1167.000000, 235.000000)">
                <path d="M11.8973221,11.4409367 C11.1135817,11.2450016 10.187669,11.125529 9.17932008,11.1183606 L8.85913347,11.1183606 L8.85674402,11.1183606 C8.85913347,10.7420219 8.88541744,10.200811 9.11719432,9.46605436 C9.41229168,8.53416795 10.3740462,7.98100974 11.0968556,7.72653306 C11.3083221,7.64170751 11.4098738,7.40037282 11.2963748,7.14470142 C11.1936284,6.92606653 10.9272045,6.85916187 10.7539692,6.91770345 C9.70261014,7.2809002 9.07298945,7.73848032 8.65005639,8.39438499 C8.40991643,8.7647501 8.24384949,9.17215172 8.13273996,9.56043773 C7.86631602,8.8424073 7.40754118,8.12318215 6.77194686,7.48400365 C5.66682515,6.37529777 4.29886369,5.80541339 3.14953712,5.85798134 C3.09935862,7.00372373 3.669243,8.37526937 4.77675416,9.48397525 C5.72656146,10.4349773 6.86752495,10.9881355 7.8926,11.0932714 L7.8926,11.1171659 L7.06823895,11.1171659 C5.93205436,11.1183606 4.88786369,11.2629225 4.0527501,11.5066467 C3.65610101,11.6201456 3.17343164,11.8136913 2.80306653,12.0263525 C1.07310304,13.0394803 -0.0606920892,15.0298941 0.00262839757,17.3249631 C0.00262839757,17.3524418 0.00262839757,17.377531 0.0050178499,17.4050097 C0.0229387424,18.5256629 0.264273428,19.7765412 0.755305882,21.0369773 C2.07428357,24.4801781 4.69312333,26.7370158 6.73132617,26.1981943 C7.14350669,26.0882795 7.64529168,26.0273485 8.11481907,26.0273485 C8.58434645,26.0273485 9.08613144,26.090669 9.49233834,26.2005838 C10.309531,26.4204134 11.2199124,26.1874418 12.102815,25.6139732 C11.9749793,25.2830341 11.8973221,24.9246162 11.8973221,24.5506669 L11.8973221,11.4409367 Z" id="Fill-1" fill="#1C1B1A" sketch:type="MSShapeGroup"></path>
                <g id="Group-5">
                    <mask id="mask-2" sketch:name="Clip 4" fill="white">
                        <use xlink:href="#path-1"></use>
                    </mask>
                    <g id="Clip-4"></g>
                    <path d="M13.1007698,0.756022718 L13.1007698,24.550189 C13.1007698,25.5047753 13.880926,26.2837367 14.8331227,26.2837367 L30.5246562,26.2837367 C31.4780477,26.2837367 32.2570091,25.5047753 32.2570091,24.550189 L32.2570091,0.756022718 L13.1007698,0.756022718 Z M17.7948489,23.1893959 C16.9191146,23.1893959 16.210642,22.4809233 16.210642,21.6039943 C16.210642,20.7306495 16.9191146,20.0209822 17.7948489,20.0209822 C18.6717779,20.0209822 19.3790558,20.7306495 19.3790558,21.6039943 C19.3790558,22.4809233 18.6717779,23.1893959 17.7948489,23.1893959 L17.7948489,23.1893959 Z M17.7948489,18.3053554 C16.9191146,18.3053554 16.210642,17.5944933 16.210642,16.7199538 C16.210642,15.8466089 16.9191146,15.1369416 17.7948489,15.1369416 C18.6717779,15.1369416 19.3790558,15.8466089 19.3790558,16.7199538 C19.3790558,17.5944933 18.6717779,18.3053554 17.7948489,18.3053554 L17.7948489,18.3053554 Z M17.7948489,13.4213148 C16.9191146,13.4213148 16.210642,12.7116475 16.210642,11.8371079 C16.210642,10.9637631 16.9191146,10.2505116 17.7948489,10.2505116 C18.6717779,10.2505116 19.3790558,10.9637631 19.3790558,11.8371079 C19.3790558,12.7116475 18.6717779,13.4213148 17.7948489,13.4213148 L17.7948489,13.4213148 Z M22.6800842,23.1893959 C21.8043499,23.1893959 21.0946826,22.4809233 21.0946826,21.6039943 C21.0946826,20.7306495 21.8043499,20.0209822 22.6800842,20.0209822 C23.5558185,20.0209822 24.2630963,20.7306495 24.2630963,21.6039943 C24.2630963,22.4809233 23.5558185,23.1893959 22.6800842,23.1893959 L22.6800842,23.1893959 Z M22.6800842,18.3053554 C21.8043499,18.3053554 21.0946826,17.5944933 21.0946826,16.7199538 C21.0946826,15.8466089 21.8043499,15.1369416 22.6800842,15.1369416 C23.5558185,15.1369416 24.2630963,15.8466089 24.2630963,16.7199538 C24.2630963,17.5944933 23.5558185,18.3053554 22.6800842,18.3053554 L22.6800842,18.3053554 Z M22.6800842,13.4213148 C21.8043499,13.4213148 21.0946826,12.7116475 21.0946826,11.8371079 C21.0946826,10.9637631 21.8043499,10.2505116 22.6800842,10.2505116 C23.5558185,10.2505116 24.2630963,10.9637631 24.2630963,11.8371079 C24.2630963,12.7116475 23.5558185,13.4213148 22.6800842,13.4213148 L22.6800842,13.4213148 Z M27.56293,23.1893959 C26.6895852,23.1893959 25.9799178,22.4809233 25.9799178,21.6039943 C25.9799178,20.7306495 26.6895852,20.0209822 27.56293,20.0209822 C28.4410538,20.0209822 29.1483316,20.7306495 29.1483316,21.6039943 C29.1483316,22.4809233 28.4410538,23.1893959 27.56293,23.1893959 L27.56293,23.1893959 Z M27.56293,18.3053554 C26.6895852,18.3053554 25.9799178,17.5944933 25.9799178,16.7199538 C25.9799178,15.8466089 26.6895852,15.1369416 27.56293,15.1369416 C28.4410538,15.1369416 29.1483316,15.8466089 29.1483316,16.7199538 C29.1483316,17.5944933 28.4410538,18.3053554 27.56293,18.3053554 L27.56293,18.3053554 Z M27.56293,13.4213148 C26.6895852,13.4213148 25.9799178,12.7116475 25.9799178,11.8371079 C25.9799178,10.9637631 26.6895852,10.2505116 27.56293,10.2505116 C28.4410538,10.2505116 29.1483316,10.9637631 29.1483316,11.8371079 C29.1483316,12.7116475 28.4410538,13.4213148 27.56293,13.4213148 L27.56293,13.4213148 Z M29.617859,7.9554426 C29.617859,8.27204503 29.3574087,8.53369006 29.0384168,8.53369006 L16.3205568,8.53369006 C16.0015649,8.53369006 15.7411146,8.27204503 15.7411146,7.9554426 L15.7411146,4.44294767 C15.7411146,4.12515051 16.0015649,3.86708966 16.3205568,3.86708966 L29.0384168,3.86708966 C29.3574087,3.86708966 29.617859,4.12515051 29.617859,4.44294767 L29.617859,7.9554426 Z" id="Fill-3" fill="#1C1B1A" sketch:type="MSShapeGroup" mask="url(#mask-2)"></path>
                </g>
                <path d="M28.4373501,6.43097201 C28.2856199,6.43097201 28.1625631,6.56119716 28.1625631,6.72009574 L28.1625631,7.48710994 L26.9654475,7.48710994 L26.9654475,6.72009574 C26.9654475,6.56119716 26.8423907,6.43097201 26.6906604,6.43097201 C26.5389302,6.43097201 26.413484,6.56119716 26.413484,6.72009574 L26.413484,7.76189696 C26.413484,7.91362718 26.5389302,8.0378787 26.6906604,8.0378787 L28.4373501,8.0378787 C28.5890803,8.0378787 28.7121371,7.91362718 28.7121371,7.76189696 L28.7121371,6.72009574 C28.7121371,6.56119716 28.5890803,6.43097201 28.4373501,6.43097201" id="Fill-6" fill="#1C1B1A" sketch:type="MSShapeGroup"></path>
                <path d="M28.4373501,4.3612284 L26.6906604,4.3612284 C26.5389302,4.3612284 26.413484,4.48547992 26.413484,4.63482069 L26.413484,5.65870101 C26.413484,5.81879432 26.5389302,5.94663002 26.6906604,5.94663002 C26.8423907,5.94663002 26.9654475,5.81879432 26.9654475,5.65870101 L26.9654475,4.91319189 L28.1625631,4.91319189 L28.1625631,5.65870101 C28.1625631,5.81879432 28.2856199,5.94663002 28.4373501,5.94663002 C28.5890803,5.94663002 28.7121371,5.81879432 28.7121371,5.65870101 L28.7121371,4.63482069 C28.7121371,4.48547992 28.5890803,4.3612284 28.4373501,4.3612284" id="Fill-8" fill="#1C1B1A" sketch:type="MSShapeGroup"></path>
            </g>
        </g>
    </g>
</svg>