<?xml version="1.0" encoding="iso-8859-1"?>
<!-- Generator: Adobe Illustrator 19.2.1, SVG Export Plug-In . SVG Version: 6.00 Build 0)  -->
<svg version="1.1" xmlns="http://www.w3.org/2000/svg" xmlns:xlink="http://www.w3.org/1999/xlink" x="0px" y="0px"
	 viewBox="0 0 600 600" style="enable-background:new 0 0 600 600;" xml:space="preserve">
<g id="heart-health">
	<g id="heart-health_1_">
		<path style="fill:#1C1B1A;" d="M181.014,280.806c0-81.508,66.29-147.824,147.779-147.824c13.319,0,26.241,1.952,38.547,5.298
			c-16.085-22.543-42.2-37.3-71.995-37.3c-33.61,0-62.988,18.709-78.097,46.206c-15.174-27.497-44.48-46.206-78.164-46.206
			C89.85,100.981,50,140.866,50,190.067c0,126.338,167.248,215.126,167.248,215.126s6.817-3.707,17.569-10.445
			C201.948,367.648,181.014,326.623,181.014,280.806"/>
		<path style="fill:#1C1B1A;" d="M395.77,347.629c-17.813,17.759-41.478,27.534-66.578,27.534c-17.732,0-34.515-5.056-49.245-14.152
			c43.991-35.193,96.047-90.232,103.336-156.901c4.439,3.128,8.661,6.411,12.487,10.254
			C432.518,251.112,432.518,310.871,395.77,347.629 M540.708,443.36L439.263,341.887c26.585-48.041,19.974-109.638-20.734-150.257
			c-23.835-23.917-55.619-37.01-89.393-37.01c-33.726,0-65.512,13.093-89.329,37.01c-23.88,23.828-37.01,55.565-37.01,89.321
			c0,33.782,13.13,65.502,37.01,89.401c23.817,23.863,55.602,37.002,89.384,37.002c23.202,0,45.4-6.311,64.841-18.022
			l100.306,100.344c12.461,12.459,32.843,12.459,45.321,0l1.048-1.05C553.097,476.175,553.097,455.812,540.708,443.36"/>
	</g>
</g>
<g id="Layer_1">
</g>
</svg>
