<?xml version="1.0" encoding="UTF-8" standalone="no"?>
<svg width="33px" height="27px" viewBox="0 0 33 27" version="1.1" xmlns="http://www.w3.org/2000/svg" xmlns:xlink="http://www.w3.org/1999/xlink" xmlns:sketch="http://www.bohemiancoding.com/sketch/ns">
    <!-- Generator: Sketch 3.4.2 (15857) - http://www.bohemiancoding.com/sketch -->
    <title>Heart_Health</title>
    <desc>Created with Sketch.</desc>
    <defs>
        <path id="path-1" d="M0,0.60453144 L32.2576065,0.60453144 L32.2576065,26.2839757 L0,26.2839757"></path>
        <path id="path-3" d="M0,0.60453144 L32.2576065,0.60453144 L32.2576065,26.2839757 L0,26.2839757"></path>
    </defs>
    <g id="KP-Approved" stroke="none" stroke-width="1" fill="none" fill-rule="evenodd" sketch:type="MSPage">
        <g id="Desktop-HD" sketch:type="MSArtboardGroup" transform="translate(-993.000000, -235.000000)">
            <g id="Heart_Health" sketch:type="MSLayerGroup" transform="translate(993.000000, 235.000000)">
                <g id="Group-3">
                    <mask id="mask-2" sketch:name="Clip 2" fill="white">
                        <use xlink:href="#path-1"></use>
                    </mask>
                    <g id="Clip-2"></g>
                    <path d="M8.45232921,12.2060394 C8.45232921,6.94804949 12.7294489,2.66973509 17.986244,2.66973509 C18.8452521,2.66973509 19.679171,2.79518134 20.4724692,3.01142677 C19.4354469,1.5562503 17.750883,0.605248276 15.8285686,0.605248276 C13.6601406,0.605248276 11.7641101,1.8119217 10.7904083,3.58609006 C9.81073286,1.8119217 7.92067606,0.605248276 5.74746917,0.605248276 C2.57069229,0.605248276 -0.00035841785,3.17749371 -0.00035841785,6.35188114 C-0.00035841785,14.502303 10.7904083,20.231015 10.7904083,20.231015 C10.7904083,20.231015 11.2300675,19.9920698 11.9230087,19.5571895 C9.80236978,17.8081103 8.45232921,15.1617919 8.45232921,12.2060394" id="Fill-1" fill="#1C1B1A" sketch:type="MSShapeGroup" mask="url(#mask-2)"></path>
                </g>
                <g id="Group-6">
                    <mask id="mask-4" sketch:name="Clip 5" fill="white">
                        <use xlink:href="#path-3"></use>
                    </mask>
                    <g id="Clip-5"></g>
                    <path d="M31.657854,22.6931067 L25.113144,16.1460073 C26.8287708,13.0468876 26.4022535,9.0732284 23.7750507,6.45319391 C22.2374381,4.90960771 20.187288,4.06493631 18.0081075,4.06493631 C15.8325112,4.06493631 13.7823611,4.90960771 12.2447485,6.45319391 C10.7047465,7.98961176 9.8576856,10.0373724 9.8576856,12.2153582 C9.8576856,14.3945387 10.7047465,16.4411047 12.2447485,17.9834961 C13.7823611,19.5223034 15.8325112,20.370559 18.0116917,20.370559 C19.5086836,20.370559 20.9411602,19.9631574 22.1956227,19.2080905 L28.6662596,25.6811168 C29.4703103,26.4851675 30.7857039,26.4851675 31.5897546,25.6811168 L31.657854,25.6130174 C32.4571258,24.8101615 32.4571258,23.4959627 31.657854,22.6931067 M22.3067323,16.5175671 C21.1586004,17.6633095 19.6317404,18.2929302 18.0116917,18.2929302 C16.8683387,18.2929302 15.7847221,17.96677 14.8349148,17.3801594 C17.6723895,15.1101797 21.0307647,11.5594535 21.5014868,7.25843935 C21.7882211,7.45915335 22.0606187,7.6718146 22.3067323,7.91912292 C24.6782637,10.2906544 24.6782637,14.1460357 22.3067323,16.5175671" id="Fill-4" fill="#1C1B1A" sketch:type="MSShapeGroup" mask="url(#mask-4)"></path>
                </g>
            </g>
        </g>
    </g>
</svg>