<?xml version="1.0" encoding="iso-8859-1"?>
<!-- Generator: Adobe Illustrator 19.2.1, SVG Export Plug-In . SVG Version: 6.00 Build 0)  -->
<svg version="1.1" xmlns="http://www.w3.org/2000/svg" xmlns:xlink="http://www.w3.org/1999/xlink" x="0px" y="0px"
	 viewBox="0 0 600 600" style="enable-background:new 0 0 600 600;" xml:space="preserve">
<g id="home">
	<g id="home_1_">
		<path style="fill:#020202;" d="M546.797,306.783l-86.076-67.624V116.646c0-4.626-3.794-8.42-8.368-8.42h-72.926
			c-4.574,0-8.421,3.742-8.421,8.42v52.134l-65.857-51.718c-3.067-2.391-7.277-2.391-10.344,0L53.211,306.783
			c-2.859,2.235-3.898,5.978-2.755,9.356c1.196,3.379,4.418,5.614,7.953,5.614h80.566v161.653c0,4.626,3.742,8.368,8.317,8.368
			h96.68c4.626,0,8.42-3.742,8.42-8.368v-105.62c0-22.039,17.881-40.023,39.971-40.023h15.178c22.091,0,40.023,17.984,40.023,40.023
			v105.62c0,4.626,3.794,8.368,8.421,8.368h96.68c4.574,0,8.421-3.742,8.421-8.368V321.753h80.514c3.587,0,6.809-2.235,7.953-5.614
			C550.696,312.761,549.604,309.018,546.797,306.783z"/>
	</g>
</g>
<g id="Layer_1">
</g>
</svg>
