<?xml version="1.0" encoding="iso-8859-1"?>
<!-- Generator: Adobe Illustrator 16.0.0, SVG Export Plug-In . SVG Version: 6.00 Build 0)  -->
<!DOCTYPE svg PUBLIC "-//W3C//DTD SVG 1.1//EN" "http://www.w3.org/Graphics/SVG/1.1/DTD/svg11.dtd">
<svg version="1.1" xmlns="http://www.w3.org/2000/svg" xmlns:xlink="http://www.w3.org/1999/xlink" x="0px" y="0px"
	 width="961.539px" height="1000px" viewBox="0 0 961.539 1000" style="enable-background:new 0 0 961.539 1000;"
	 xml:space="preserve">
<g id="KP_x5F_Home_x5F_icon">
	<path style="fill:#020202;" d="M955.62,513.045L789.952,382.933V147.198c0-8.937-7.323-16.187-16.13-16.187h-140.23
		c-8.821,0-16.158,7.25-16.158,16.187v100.261l-126.651-99.527c-5.925-4.612-14.024-4.612-19.948,0L5.995,513.045
		c-5.507,4.266-7.524,11.487-5.333,18.003c2.262,6.499,8.475,10.824,15.278,10.824h155.061v310.973
		c0,8.909,7.222,16.144,16.042,16.144h186.022c8.865,0,16.157-7.234,16.157-16.144V649.643c0-42.42,34.436-76.983,76.926-76.983
		h29.246c42.49,0,76.998,34.563,76.998,76.983v203.202c0,8.909,7.278,16.144,16.156,16.144h185.965
		c8.836,0,16.158-7.234,16.158-16.144V541.872h154.945c6.947,0,13.06-4.325,15.251-10.824
		C963.087,524.532,961.013,517.311,955.62,513.045z"/>
</g>
<g id="Layer_1">
</g>
</svg>
