<?xml version="1.0" encoding="iso-8859-1"?>
<!-- Generator: Adobe Illustrator 19.2.1, SVG Export Plug-In . SVG Version: 6.00 Build 0)  -->
<svg version="1.1" xmlns="http://www.w3.org/2000/svg" xmlns:xlink="http://www.w3.org/1999/xlink" x="0px" y="0px"
	 viewBox="0 0 600 600" style="enable-background:new 0 0 600 600;" xml:space="preserve">
<g id="hospital">
	<path style="fill:#1C1B1A;" d="M538.034,238.427H419.261V94.386c0-4.224-2.437-8.069-6.282-9.91l-107.978-0.585l-117.455,0.585
		c-3.845,1.841-6.282,5.686-6.282,9.91v144.041H61.032c-4.971,0-9,4.029-9,9v233.552c0,4.971,4.029,9,9,9h130.634
		c0.404,0,0.799-0.036,1.189-0.087h213.357c0.39,0.052,0.785,0.087,1.189,0.087h130.634c4.971,0,9-4.029,9-9V247.427
		C547.034,242.456,543.005,238.427,538.034,238.427z M181.265,471.979H70.032V256.427h111.233V471.979z M397.222,347.472v120.433
		H339.54V331.244c0-13.863-27.852-25.072-41.715-25.072s-41.715,11.209-41.715,25.072v136.662H203.25V101.318l96.986-0.479
		l96.986,0.533V347.472z M529.034,471.979H419.261l0-215.552h109.773V471.979z M106.528,327.937l-11.74-0.113v-36.078h24.839v36.078
		L106.528,327.937z M146.054,327.937l-11.74-0.113v-36.078h24.839v36.078L146.054,327.937z M105.907,380.931l-11.74-0.113V344.74
		h24.839v36.078L105.907,380.931z M145.432,380.931l-11.74-0.113V344.74h24.839v36.078L145.432,380.931z M105.907,433.925
		l-11.74-0.113v-36.078h24.839v36.078L105.907,433.925z M145.432,433.925l-11.74-0.113v-36.078h24.839v36.078L145.432,433.925z
		 M456.017,327.937l-11.74-0.113v-36.078h24.839v36.078L456.017,327.937z M495.542,327.937l-11.74-0.113v-36.078h24.839v36.078
		L495.542,327.937z M455.396,380.931l-11.74-0.113V344.74h24.839v36.078L455.396,380.931z M494.921,380.931l-11.74-0.113V344.74
		h24.839v36.078L494.921,380.931z M455.396,433.925l-11.74-0.113v-36.078h24.839v36.078L455.396,433.925z M494.921,433.925
		l-11.74-0.113v-36.078h24.839v36.078L494.921,433.925z M239.78,192.086c0,32.626,26.449,59.075,59.075,59.075
		c32.626,0,59.075-26.449,59.075-59.075s-26.449-59.075-59.075-59.075C266.229,133.011,239.78,159.46,239.78,192.086z
		 M332.933,176.264v31.645h-18.255v16.735h-31.645v-16.735h-18.255v-31.645h18.255v-16.735h31.645v16.735H332.933z"/>
</g>
<g id="Layer_1">
</g>
</svg>
