<?xml version="1.0" encoding="UTF-8" standalone="no"?>
<svg width="22px" height="33px" viewBox="0 0 22 33" version="1.1" xmlns="http://www.w3.org/2000/svg" xmlns:xlink="http://www.w3.org/1999/xlink" xmlns:sketch="http://www.bohemiancoding.com/sketch/ns">
    <!-- Generator: Sketch 3.4.2 (15857) - http://www.bohemiancoding.com/sketch -->
    <title>Idea</title>
    <desc>Created with Sketch.</desc>
    <defs>
        <path id="path-1" d="M0,0 L21.2577627,0 L21.2577627,32.2576065 L0,32.2576065"></path>
    </defs>
    <g id="KP-Approved" stroke="none" stroke-width="1" fill="none" fill-rule="evenodd" sketch:type="MSPage">
        <g id="Desktop-HD" sketch:type="MSArtboardGroup" transform="translate(-753.000000, -235.000000)">
            <g id="Idea" sketch:type="MSLayerGroup" transform="translate(753.000000, 235.000000)">
                <g id="Group-3">
                    <mask id="mask-2" sketch:name="Clip 2" fill="white">
                        <use xlink:href="#path-1"></use>
                    </mask>
                    <g id="Clip-2"></g>
                    <path d="M10.6300761,0 C4.76636004,0 -0.000597363083,4.80638337 -0.000597363083,10.7166937 C-0.000597363083,13.9591805 1.28851217,15.8086166 3.39720385,18.5564868 C5.03756288,20.6878783 5.38761765,21.4298032 5.38761765,24.4249817 C5.38761765,24.91243 5.78187728,25.3078844 6.27290974,25.3078844 L14.9848529,25.3078844 C15.4758854,25.3078844 15.870145,24.91243 15.870145,24.4249817 C15.870145,21.4274138 16.2225892,20.6854888 17.8605588,18.5564868 C19.9668611,15.8098114 21.2571653,13.9651542 21.2571653,10.7166937 C21.2571653,4.80638337 16.4925974,0 10.6300761,0" id="Fill-1" fill="#1C1B1A" sketch:type="MSShapeGroup" mask="url(#mask-2)"></path>
                </g>
                <path d="M14.722969,26.7991416 L6.53551055,26.7991416 C6.06598316,26.7991416 5.68247606,27.1838434 5.68247606,27.6509813 L5.68247606,27.9305473 C5.68247606,28.3988799 6.06598316,28.7835817 6.53551055,28.7835817 L14.722969,28.7835817 C15.1901069,28.7835817 15.5760034,28.3988799 15.5760034,27.9305473 L15.5760034,27.6509813 C15.5760034,27.1838434 15.1901069,26.7991416 14.722969,26.7991416" id="Fill-4" fill="#1C1B1A" sketch:type="MSShapeGroup"></path>
                <path d="M12.5790329,30.2730469 L8.67825193,30.2730469 C8.20991927,30.2730469 7.93035335,30.643412 8.05579959,31.0950185 L8.14898824,31.4379049 C8.28040811,31.8871219 8.76427221,32.257487 9.23260487,32.257487 L12.0282641,32.257487 C12.4942073,32.257487 12.9780714,31.8871219 13.1094913,31.4379049 L13.2038746,31.0950185 C13.3305156,30.643412 13.0485602,30.2730469 12.5790329,30.2730469" id="Fill-6" fill="#1C1B1A" sketch:type="MSShapeGroup"></path>
            </g>
        </g>
    </g>
</svg>