<?xml version="1.0" encoding="iso-8859-1"?>
<!-- Generator: Adobe Illustrator 19.2.1, SVG Export Plug-In . SVG Version: 6.00 Build 0)  -->
<svg version="1.1" xmlns="http://www.w3.org/2000/svg" xmlns:xlink="http://www.w3.org/1999/xlink" x="0px" y="0px"
	 viewBox="0 0 600 600" style="enable-background:new 0 0 600 600;" xml:space="preserve">
<g id="idea">
	<g id="idea_1_">
		<path style="fill:#1C1B1A;" d="M300.019,50c-90.893,0-164.769,74.498-164.769,166.106c0,50.267,19.965,78.93,52.663,121.528
			c25.426,33.041,30.852,44.543,30.852,90.956c0,7.569,6.104,13.691,13.717,13.691h135.046c7.604,0,13.707-6.122,13.707-13.691
			c0-46.467,5.461-57.959,30.852-90.956c32.661-42.57,52.663-71.18,52.663-121.528C464.75,124.498,390.883,50,300.019,50z"/>
		<path style="fill:#1C1B1A;" d="M363.459,465.393H236.55c-7.278,0-13.228,5.967-13.228,13.209v4.322
			c0,7.27,5.95,13.22,13.228,13.22h126.909c7.233,0,13.219-5.95,13.219-13.22v-4.322
			C376.678,471.359,370.693,465.393,363.459,465.393z"/>
		<path style="fill:#1C1B1A;" d="M330.228,519.239h-60.456c-7.27,0-11.602,5.732-9.648,12.748l1.437,5.3
			c2.035,6.963,9.531,12.713,16.8,12.713h43.322c7.233,0,14.73-5.75,16.765-12.713l1.465-5.3
			C341.874,524.97,337.507,519.239,330.228,519.239z"/>
	</g>
</g>
<g id="Layer_1">
</g>
</svg>
