<?xml version="1.0" encoding="iso-8859-1"?>
<!-- Generator: Adobe Illustrator 19.2.1, SVG Export Plug-In . SVG Version: 6.00 Build 0)  -->
<svg version="1.1" xmlns="http://www.w3.org/2000/svg" xmlns:xlink="http://www.w3.org/1999/xlink" x="0px" y="0px"
	 viewBox="0 0 600 600" style="enable-background:new 0 0 600 600;" xml:space="preserve">
<g id="instagram">
	<g>
		<path style="fill-rule:evenodd;clip-rule:evenodd;" d="M116.456,50.538H483c34.81,0,63.291,25.759,63.291,63.291v366.544
			c0,37.532-28.481,63.291-63.291,63.291H116.456c-34.81,0-63.291-25.76-63.291-63.291V113.829
			C53.165,76.297,81.646,50.538,116.456,50.538L116.456,50.538z M412.392,105.323c-12.215,0-22.203,9.987-22.203,22.202v53.152
			c0,12.215,9.987,22.203,22.203,22.203h55.747c12.19,0,22.177-9.988,22.177-22.203v-53.152c0-12.215-9.987-22.202-22.177-22.202
			H412.392z M490.563,259.076h-43.411c4.101,13.399,6.329,27.614,6.329,42.304c0,82.032-68.633,148.532-153.285,148.532
			c-84.652,0-153.285-66.5-153.285-148.532c0-14.69,2.228-28.905,6.329-42.304h-45.266v208.316c0,10.778,8.804,19.608,19.608,19.608
			h343.38c10.804,0,19.601-8.829,19.601-19.608V259.076z M300.196,200.063c-54.683,0-99.038,42.969-99.038,95.975
			s44.354,95.975,99.038,95.975c54.69,0,99.044-42.968,99.044-95.975S354.911,200.063,300.196,200.063L300.196,200.063z
			 M300.196,200.063"/>
	</g>
</g>
<g id="Layer_1">
</g>
</svg>
