<?xml version="1.0" encoding="iso-8859-1"?>
<!-- Generator: Adobe Illustrator 19.2.1, SVG Export Plug-In . SVG Version: 6.00 Build 0)  -->
<svg version="1.1" xmlns="http://www.w3.org/2000/svg" xmlns:xlink="http://www.w3.org/1999/xlink" x="0px" y="0px"
	 viewBox="0 0 600 600" style="enable-background:new 0 0 600 600;" xml:space="preserve">
<g id="lab-result">
	<g>
		<path style="fill:none;" d="M280.906,324.608v-66.144h22.831c2.85,0,5.181-2.296,5.181-5.179c0-2.769-2.331-5.128-5.181-5.128
			h-81.939c-2.874,0-5.216,2.359-5.216,5.128c0,2.883,2.342,5.179,5.216,5.179h22.533v66.144l-0.894,1.834
			c-5.442,11.521-12.957,27.344-21.005,44.307h80.675c-10.407-21.63-18.926-39.469-21.269-44.279L280.906,324.608z"/>
		<polygon style="fill:none;" points="359.085,106.919 359.085,187.539 438.945,187.539 		"/>
		<path style="fill:none;" d="M325.874,204.113V83.13H137.825v433.738h324.339v-296.19H342.438
			C333.351,220.678,325.874,213.245,325.874,204.113z M354.744,485.295c-10.985,0-163.941,0.471-181.302,0.471
			c-17.929,0-15-14.099-10.452-20.446c3.742-5.334,68.828-142.82,68.828-142.82v-52.579h-10.021
			c-7.983,0-17.007-6.411-17.007-16.636c0-9.541,7.359-15.978,15.3-15.978h9.746H292.3h9.746c10.146,0,18.167,5.894,18.167,15.634
			c0,11.104-8.519,16.981-16.476,16.981H293.63V322.5c0,0,65.354,136.41,70.084,143.96
			C368.632,474.336,365.595,485.295,354.744,485.295z"/>
		<path d="M494.869,201.978c-0.072-0.696-0.18-1.302-0.361-1.989c-0.76-2.776-1.954-5.451-3.977-7.522L354.238,54.909
			c-2.036-2.115-4.739-3.29-7.55-4.041c-0.714-0.226-1.357-0.336-2.07-0.426c-0.715-0.125-1.43-0.442-2.18-0.442H121.224
			c-9.086,0-16.564,7.442-16.564,16.573v466.825c0,9.152,7.478,16.602,16.564,16.602h357.507c9.194,0,16.609-7.451,16.609-16.602
			V204.113C495.34,203.364,495.016,202.73,494.869,201.978z M359.085,106.919l79.86,80.62h-79.86V106.919z M462.165,516.869H137.825
			V83.13h188.049v120.983c0,9.131,7.477,16.565,16.564,16.565h119.726V516.869z"/>
		<path d="M293.63,269.922h10.107c7.957,0,16.476-5.877,16.476-16.981c0-9.739-8.02-15.634-18.167-15.634H292.3h-62.463h-9.746
			c-7.941,0-15.3,6.438-15.3,15.978c0,10.225,9.024,16.636,17.007,16.636h10.021V322.5c0,0-65.086,137.486-68.828,142.82
			c-4.548,6.348-7.478,20.446,10.452,20.446c17.361,0,170.317-0.471,181.302-0.471c10.852,0,13.889-10.959,8.971-18.835
			c-4.73-7.55-70.084-143.96-70.084-143.96V269.922z M303.107,370.75h-80.675c8.047-16.963,15.563-32.787,21.005-44.307l0.894-1.834
			v-66.144h-22.533c-2.874,0-5.216-2.296-5.216-5.179c0-2.769,2.342-5.128,5.216-5.128h81.939c2.85,0,5.181,2.359,5.181,5.128
			c0,2.883-2.331,5.179-5.181,5.179h-22.831v66.144l0.931,1.863C284.18,331.281,292.699,349.12,303.107,370.75z"/>
	</g>
</g>
<g id="Layer_1">
</g>
</svg>
