<?xml version="1.0" encoding="iso-8859-1"?>
<!-- Generator: Adobe Illustrator 19.2.1, SVG Export Plug-In . SVG Version: 6.00 Build 0)  -->
<svg version="1.1" xmlns="http://www.w3.org/2000/svg" xmlns:xlink="http://www.w3.org/1999/xlink" x="0px" y="0px"
	 viewBox="0 0 600 600" style="enable-background:new 0 0 600 600;" xml:space="preserve">
<g id="labor">
	<g>
		<path style="fill:#1C1B1A;" d="M290.907,98.771H393.35c2.077,0,3.774-1.698,3.774-3.793c0-2.104-1.698-3.802-3.774-3.802h-2.972
			C386.658,67.825,366.46,49.974,342.088,50c-24.381,0.046-44.472,17.897-48.193,41.176h-2.988c-2.105,0-3.784,1.698-3.784,3.802
			C287.123,97.074,288.802,98.771,290.907,98.771"/>
		<path style="fill:#1C1B1A;" d="M338.114,247.527v-17.237l-35.812-75.643h-7.53v64.293c0,14.746-3.856,23.432-8.037,28.588H338.114
			z"/>
		<polygon style="fill:#1C1B1A;" points="373.249,154.646 310.944,154.646 341.925,220.762 		"/>
		<g>
			<path style="fill:#1C1B1A;" d="M389.467,218.939v-64.293h-7.521l-35.839,75.634l-0.009,17.247h51.407
				C393.295,242.362,389.467,233.676,389.467,218.939"/>
			<path style="fill:#1C1B1A;" d="M346.07,295.259c-0.091,5.119-0.207,11.503,3.279,15.07c2.247,2.284,6.031,3.43,11.259,3.43
				h43.958v-53.293h-58.477L346.07,295.259z"/>
			<path style="fill:#1C1B1A;" d="M279.647,313.768h43.974c5.237,0,9.021-1.156,11.27-3.44c3.486-3.567,3.368-9.951,3.26-15.07
				l-0.018-2.421v-32.372h-58.486V313.768z"/>
			<path style="fill:#1C1B1A;" d="M343.749,315.829c-0.623-0.623-1.147-1.319-1.635-1.988c-0.486,0.669-1.01,1.365-1.624,1.988
				c-3.767,3.828-9.446,5.779-16.869,5.779h-43.984v199.529c0,39.009,57.204,37.925,57.249,0.091l0.163-155.402h10.077l0.19,155.402
				c0.072,37.835,57.267,38.918,57.249-0.091V321.608h-43.958C353.195,321.608,347.514,319.657,343.749,315.829"/>
			<path style="fill:#1C1B1A;" d="M342.16,147.829c24.525-0.037,44.716-18.069,48.291-41.546h-96.646
				C297.381,129.806,317.635,147.839,342.16,147.829"/>
			<path style="fill:#1C1B1A;" d="M397.323,154.872v64.067c0,21.923,9.156,26.972,11.811,27.974h4.947l0.128,86.974
				c0.035,29.446,42.493,29.411,42.439-0.018V218.902C456.557,187.615,432.972,157.039,397.323,154.872"/>
			<path style="fill:#1C1B1A;" d="M185.773,203.797c-3.421,0-6.212-2.774-6.212-6.195v-30.539h23.793v30.539
				c0,3.421-2.781,6.195-6.203,6.195H185.773z M286.916,218.939v-64.067c-35.651,2.151-59.29,32.744-59.344,64.048v45.853h-27.586
				v-48.779c8.939-1.363,15.793-9.074,15.793-18.393v-42.955h-48.635v42.955c0,9.319,6.835,17.03,15.784,18.393v49.086
				c-24.786,3.025-24.805,38.702,0,41.8v122.018h-39.577v58.883c0,33.193,48.119,62.216,48.119,62.216s48.076-29.023,48.076-62.216
				v-58.883h-39.56V307.385h45.239c13.688,0,24.768-11.098,24.768-24.76l0.109-35.712h5.039
				C277.679,245.955,286.916,240.943,286.916,218.939"/>
		</g>
	</g>
</g>
<g id="Layer_1">
</g>
</svg>
