<?xml version="1.0" encoding="UTF-8" standalone="no"?>
<svg width="21px" height="33px" viewBox="0 0 21 33" version="1.1" xmlns="http://www.w3.org/2000/svg" xmlns:xlink="http://www.w3.org/1999/xlink" xmlns:sketch="http://www.bohemiancoding.com/sketch/ns">
    <!-- Generator: Sketch 3.4.2 (15857) - http://www.bohemiancoding.com/sketch -->
    <title>Labor</title>
    <desc>Created with Sketch.</desc>
    <defs>
        <path id="path-1" d="M0,1.1505213 L20.239856,1.1505213 L20.239856,33.4523327 L0,33.4523327"></path>
        <path id="path-3" d="M0,1.1505213 L20.239856,1.1505213 L20.239856,33.4523327 L0,33.4523327"></path>
    </defs>
    <g id="KP-Approved" stroke="none" stroke-width="1" fill="none" fill-rule="evenodd" sketch:type="MSPage">
        <g id="Desktop-HD" sketch:type="MSArtboardGroup" transform="translate(-250.000000, -329.000000)">
            <g id="Labor" sketch:type="MSLayerGroup" transform="translate(250.000000, 328.000000)">
                <g id="Group-3">
                    <mask id="mask-2" sketch:name="Clip 2" fill="white">
                        <use xlink:href="#path-1"></use>
                    </mask>
                    <g id="Clip-2"></g>
                    <path d="M9.53272008,4.30089473 L16.151503,4.30089473 C16.2853124,4.30089473 16.3952272,4.19097992 16.3952272,4.05597586 C16.3952272,3.91977708 16.2853124,3.80986227 16.151503,3.80986227 L15.9591521,3.80986227 C15.7190122,2.30211785 14.4131765,1.14801237 12.8397221,1.15040183 C11.2638783,1.15279128 9.96640568,2.30689675 9.72626572,3.80986227 L9.53272008,3.80986227 C9.3965213,3.80986227 9.28780122,3.91977708 9.28780122,4.05597586 C9.28780122,4.19097992 9.3965213,4.30089473 9.53272008,4.30089473" id="Fill-1" fill="#1C1B1A" sketch:type="MSShapeGroup" mask="url(#mask-2)"></path>
                </g>
                <path d="M12.5824976,13.9111525 L12.5824976,12.7976677 L10.268313,7.91123773 L9.78205943,7.91123773 L9.78205943,12.0641059 C9.78205943,13.0163026 9.53355639,13.5778239 9.26354828,13.9111525 L12.5824976,13.9111525 Z" id="Fill-4" fill="#1C1B1A" sketch:type="MSShapeGroup"></path>
                <path d="M14.8523578,7.91075984 L10.8273254,7.91075984 L12.8284917,12.1819059 L14.8523578,7.91075984 Z" id="Fill-6" fill="#1C1B1A" sketch:type="MSShapeGroup"></path>
                <path d="M15.9001327,12.0642254 L15.9001327,7.91016247 L15.4138791,7.91016247 L13.0984998,12.7965925 L13.0984998,13.911272 L16.4198385,13.911272 C16.147441,13.5779434 15.9001327,13.0164221 15.9001327,12.0642254" id="Fill-8" fill="#1C1B1A" sketch:type="MSShapeGroup"></path>
                <path d="M13.0964688,16.9948602 C13.0904951,17.3257994 13.0833268,17.7379799 13.3079353,17.9685621 C13.4536919,18.1155134 13.697416,18.1895864 14.0355235,18.1895864 L16.8753876,18.1895864 L16.8753876,14.7475803 L13.0976635,14.7475803 L13.0964688,16.9948602 Z" id="Fill-10" fill="#1C1B1A" sketch:type="MSShapeGroup"></path>
                <path d="M8.80525132,18.1906617 L11.6463101,18.1906617 C11.9844176,18.1906617 12.2293365,18.1165886 12.3738984,17.9684426 C12.5997016,17.7378604 12.5913385,17.3256799 12.5853649,16.9947408 L12.5841702,16.8382316 L12.5841702,14.7474609 L8.80525132,14.7474609 L8.80525132,18.1906617 Z" id="Fill-12" fill="#1C1B1A" sketch:type="MSShapeGroup"></path>
                <path d="M12.9465306,18.3237542 C12.9059099,18.2831335 12.8724576,18.2389286 12.8413947,18.1959185 C12.8091371,18.2389286 12.7756848,18.2831335 12.7362588,18.3237542 C12.4925347,18.5710625 12.1257538,18.6965087 11.6466686,18.6965087 L8.80441501,18.6965087 L8.80441501,31.5876041 C8.80441501,34.1072815 12.5008978,34.0379874 12.5032872,31.5935777 L12.5140398,21.5542937 L13.1651655,21.5542937 L13.1771128,31.5935777 C13.1818917,34.0379874 16.8771797,34.1072815 16.875985,31.5876041 L16.875985,18.6965087 L14.0361209,18.6965087 C13.5570357,18.6965087 13.1902548,18.5710625 12.9465306,18.3237542" id="Fill-14" fill="#1C1B1A" sketch:type="MSShapeGroup"></path>
                <path d="M12.8439037,7.4702643 C14.4281105,7.46787485 15.7327515,6.30301684 15.9633337,4.7857146 L9.71969473,4.7857146 C9.9514716,6.30540629 11.2596968,7.47145903 12.8439037,7.4702643" id="Fill-16" fill="#1C1B1A" sketch:type="MSShapeGroup"></path>
                <g id="Group-20">
                    <mask id="mask-4" sketch:name="Clip 19" fill="white">
                        <use xlink:href="#path-3"></use>
                    </mask>
                    <g id="Clip-19"></g>
                    <path d="M16.4076523,7.92521602 L16.4076523,12.0637475 C16.4076523,13.4806927 16.9990418,13.8068529 17.1710824,13.8713682 L17.4900742,13.8713682 L17.4984373,19.4901653 C17.5008268,21.3933641 20.2439181,21.3909746 20.2403339,19.4889706 L20.2403339,12.061358 C20.2343602,10.0410761 18.7110844,8.06499899 16.4076523,7.92521602" id="Fill-18" fill="#1C1B1A" sketch:type="MSShapeGroup" mask="url(#mask-4)"></path>
                </g>
                <path d="M9.27489817,12.0642254 L9.27489817,7.92569391 C6.97146613,8.06428215 5.44460609,10.0403592 5.44102191,12.0630306 L5.44102191,15.0259515 L3.65849047,15.0259515 L3.65849047,11.8742639 C4.23673793,11.7858542 4.67878661,11.2876533 4.67878661,10.6855114 L4.67878661,7.91016247 L1.5366568,7.91016247 L1.5366568,10.6855114 C1.5366568,11.2876533 1.97870548,11.7858542 2.55695294,11.8742639 L2.55695294,15.0450671 C0.956019878,15.2410022 0.954825152,17.545629 2.55695294,17.7451483 L2.55695294,25.6291462 L0.000238945233,25.6291462 L0.000238945233,29.4331544 C0.000238945233,31.5776878 3.10891643,33.4522132 3.10891643,33.4522132 C3.10891643,33.4522132 6.21520446,31.5776878 6.21520446,29.4331544 L6.21520446,25.6291462 L3.65849047,25.6291462 L3.65849047,17.7786006 L6.5819854,17.7786006 C7.46608276,17.7786006 8.18172373,17.0617649 8.18172373,16.1788623 L8.18889209,13.871846 L8.51385761,13.871846 C8.67872982,13.8097203 9.27489817,13.4859495 9.27489817,12.0642254 L9.27489817,12.0642254 Z M2.74094077,11.0857446 C2.51991643,11.0857446 2.33951278,10.9065357 2.33951278,10.6855114 L2.33951278,8.71301846 L3.87593063,8.71301846 L3.87593063,10.6855114 C3.87593063,10.9065357 3.6967217,11.0857446 3.47569736,11.0857446 L2.74094077,11.0857446 Z" id="Fill-21" fill="#1C1B1A" sketch:type="MSShapeGroup"></path>
            </g>
        </g>
    </g>
</svg>