<?xml version="1.0" encoding="iso-8859-1"?>
<!-- Generator: Adobe Illustrator 19.2.1, SVG Export Plug-In . SVG Version: 6.00 Build 0)  -->
<svg version="1.1" xmlns="http://www.w3.org/2000/svg" xmlns:xlink="http://www.w3.org/1999/xlink" x="0px" y="0px"
	 viewBox="0 0 600 600" style="enable-background:new 0 0 600 600;" xml:space="preserve">
<g id="laptop">
	<path style="fill:#1C1B1A;" d="M390.93,310.48c1.02,0.959,1.02,2.487,0,3.482l-13.365,13.393c-0.922,0.93-2.469,0.93-3.437,0
		l-29.839-29.841l-11.104,21.53c-0.48,0.878-1.374,1.411-2.333,1.302c-0.994-0.044-1.8-0.696-2.152-1.6l-28.583-79.209
		c-0.722-1.719,1.276-3.717,3.111-3.067l79.174,28.593c0.878,0.298,1.511,1.167,1.574,2.18c0.072,0.669-0.219,1.374-0.696,1.861
		c-0.191,0.181-0.38,0.326-0.598,0.461l-21.593,11.096L390.93,310.48z M305.028,212.417V167.25c0-2.811-2.28-5.063-5.046-5.063
		c-2.867,0-5.081,2.252-5.081,5.063v45.167c0,2.767,2.215,5.056,5.081,5.056C302.748,217.472,305.028,215.183,305.028,212.417z
		 M279.402,222.959c1.076,1.041,2.378,1.53,3.644,1.53c1.33,0,2.604-0.489,3.607-1.53c1.989-1.943,1.989-5.18,0-7.143
		l-31.928-31.928c-1.909-1.998-5.128-1.998-7.117,0c-2.044,1.935-2.044,5.154,0,7.206L279.402,222.959z M281.102,236.333
		c0-2.811-2.252-5.135-5.081-5.135h-45.094c-2.857,0-5.072,2.324-5.072,5.135c0,2.785,2.215,5.056,5.072,5.056h45.094
		C278.85,241.389,281.102,239.119,281.102,236.333z M279.402,249.68L247.6,281.572c-2.035,1.926-2.035,5.198,0,7.152
		c0.95,1.031,2.27,1.456,3.581,1.456c1.265,0,2.567-0.424,3.544-1.456l31.928-31.883c1.998-1.998,1.998-5.254,0-7.161
		C284.674,247.672,281.454,247.672,279.402,249.68z M316.891,224.506c1.357,0,2.65-0.506,3.626-1.546l31.883-31.837
		c1.954-2.026,1.954-5.254,0-7.224c-2.007-1.981-5.2-1.981-7.207,0l-31.919,31.928c-1.926,1.954-1.926,5.2,0,7.133
		C314.331,224,315.552,224.506,316.891,224.506z M87.009,344.787V111.415c0-11.076,9.089-20.165,20.209-20.165h385.58
		c11.104,0,20.202,9.089,20.202,20.165v233.372c0,11.113-9.098,20.172-20.202,20.172h-385.58
		C96.098,364.959,87.009,355.9,87.009,344.787z M112.23,339.741h375.452v-223.28H112.23V339.741z M550,480.267H50v15.768h0.289
		c-0.506,7.343,4.504,12.715,13.374,12.715h472.683c8.807,0,13.817-5.372,13.383-12.715H550V480.267z M548.789,464.243H51.157
		c0.135-0.487,0.063-0.885,0.27-1.356l27.607-63.793c4.404-10.181,17.063-18.493,28.183-18.493h385.58
		c11.104,0,23.763,8.311,28.157,18.493l27.543,63.793C548.717,463.357,548.644,463.756,548.789,464.243z M359.372,440.128
		l-5.626-18.02c-0.568-1.909-2.622-3.409-4.574-3.409h-98.344c-1.926,0-4.006,1.5-4.557,3.409l-5.615,18.02
		c-0.57,1.898,0.543,3.409,2.487,3.409h113.715C358.811,443.537,359.941,442.026,359.372,440.128z"/>
</g>
<g id="Layer_1">
</g>
</svg>
