<?xml version="1.0" encoding="UTF-8" standalone="no"?>
<svg width="33px" height="28px" viewBox="0 0 33 28" version="1.1" xmlns="http://www.w3.org/2000/svg" xmlns:xlink="http://www.w3.org/1999/xlink" xmlns:sketch="http://www.bohemiancoding.com/sketch/ns">
    <!-- Generator: Sketch 3.4.2 (15857) - http://www.bohemiancoding.com/sketch -->
    <title>Laptop</title>
    <desc>Created with Sketch.</desc>
    <defs></defs>
    <g id="KP-Approved" stroke="none" stroke-width="1" fill="none" fill-rule="evenodd" sketch:type="MSPage">
        <g id="Desktop-HD" sketch:type="MSArtboardGroup" transform="translate(-153.000000, -328.000000)" fill="#1C1B1A">
            <g id="Laptop" sketch:type="MSLayerGroup" transform="translate(153.000000, 328.000000)">
                <path d="M20.0699659,12.7633791 L21.4630166,12.0477381 C21.4773533,12.0381803 21.4893006,12.0298172 21.5012479,12.01787 C21.5323108,11.9868071 21.5514264,11.9402128 21.5466475,11.8972026 C21.5418686,11.8326874 21.5012479,11.7765353 21.4450957,11.7574197 L16.3376414,9.91276247 C16.2181688,9.87094706 16.0903331,9.99878276 16.1369274,10.1098923 L17.9803899,15.2209308 C18.0030897,15.2782777 18.0556576,15.3212878 18.1189781,15.3236773 C18.1811039,15.3308456 18.2384507,15.2961986 18.2695136,15.2400465 L18.9863493,13.8505799 L20.9110531,15.7752838 C20.9731789,15.8362148 21.0735359,15.8362148 21.1332722,15.7752838 L21.9946698,14.9114968 C22.0615744,14.8481763 22.0615744,14.749014 21.9946698,14.6868882 L20.0699659,12.7633791 Z" id="Fill-1" sketch:type="MSShapeGroup"></path>
                <path d="M16.4531714,8.36069371 L16.4531714,5.44675659 C16.4531714,5.26515822 16.3062201,5.12059635 16.1270112,5.12059635 C15.9430233,5.12059635 15.7996562,5.26515822 15.7996562,5.44675659 L15.7996562,8.36069371 C15.7996562,8.53870791 15.9430233,8.68685396 16.1270112,8.68685396 C16.3062201,8.68685396 16.4531714,8.53870791 16.4531714,8.36069371" id="Fill-3" sketch:type="MSShapeGroup"></path>
                <path d="M13.2079367,6.52021805 C13.0848799,6.39118763 12.8769976,6.39118763 12.7491619,6.52021805 C12.6165473,6.64446957 12.6165473,6.85235193 12.7491619,6.98496653 L14.799312,9.04109026 C14.8698008,9.10799493 14.9534316,9.13905781 15.034673,9.13905781 C15.1206933,9.13905781 15.2031294,9.10799493 15.2676446,9.04109026 C15.3954803,8.91564402 15.3954803,8.70656694 15.2676446,8.57992596 L13.2079367,6.52021805 Z" id="Fill-5" sketch:type="MSShapeGroup"></path>
                <path d="M14.9095852,9.90368256 C14.9095852,9.72208418 14.7638286,9.57274341 14.5822302,9.57274341 L11.6718773,9.57274341 C11.4878895,9.57274341 11.345717,9.72208418 11.345717,9.90368256 C11.345717,10.0828915 11.4878895,10.2298428 11.6718773,10.2298428 L14.5822302,10.2298428 C14.7638286,10.2298428 14.9095852,10.0828915 14.9095852,9.90368256" id="Fill-7" sketch:type="MSShapeGroup"></path>
                <path d="M14.7999093,10.7647217 L12.7485645,12.8220402 C12.6171446,12.9462917 12.6171446,13.1577582 12.7485645,13.2832045 C12.8094955,13.3501091 12.8943211,13.3775878 12.9791467,13.3775878 C13.060388,13.3775878 13.1452136,13.3501091 13.2085341,13.2832045 L15.268242,11.2270807 C15.3972724,11.0980503 15.3972724,10.8877785 15.268242,10.7647217 C15.1404063,10.6356913 14.9325239,10.6356913 14.7999093,10.7647217" id="Fill-9" sketch:type="MSShapeGroup"></path>
                <path d="M17.218513,9.14061095 C17.305728,9.14061095 17.3893588,9.10835335 17.4526793,9.04144868 L19.5099978,6.98651968 C19.635444,6.85629452 19.635444,6.64841217 19.5099978,6.52057647 C19.3797726,6.39274077 19.1742797,6.39274077 19.0440546,6.52057647 L16.9855414,8.58028438 C16.8612899,8.70692535 16.8612899,8.91600243 16.9855414,9.04144868 C17.0536408,9.10835335 17.1324927,9.14061095 17.218513,9.14061095" id="Fill-11" sketch:type="MSShapeGroup"></path>
                <path d="M3.69146491,18.2020116 L28.5668584,18.2020116 C29.2836941,18.2020116 29.8703047,17.6177905 29.8703047,16.9009548 L29.8703047,1.84501562 C29.8703047,1.12937465 29.2836941,0.543958824 28.5668584,0.543958824 L3.69146491,0.543958824 C2.97462921,0.543958824 2.38801866,1.12937465 2.38801866,1.84501562 L2.38801866,16.9009548 C2.38801866,17.6177905 2.97462921,18.2020116 3.69146491,18.2020116 L3.69146491,18.2020116 Z M4.0152357,2.16998114 L28.237114,2.16998114 L28.237114,16.5747945 L4.0152357,16.5747945 L4.0152357,2.16998114 Z" id="Fill-13" sketch:type="MSShapeGroup"></path>
                <path d="M0,25.6410935 L0,26.6590002 L0.0191156187,26.6590002 C-0.014336714,27.1321118 0.309434077,27.4785824 0.881707911,27.4785824 L31.3770933,27.4785824 C31.9445882,27.4785824 32.268359,27.1321118 32.2396856,26.6590002 L32.2576065,26.6590002 L32.2576065,25.6410935 L0,25.6410935 Z" id="Fill-15" sketch:type="MSShapeGroup"></path>
                <path d="M32.1607142,24.519843 L30.3841564,20.4040114 C30.0998116,19.746912 29.2838136,19.2116746 28.5669779,19.2116746 L3.69158438,19.2116746 C2.97355396,19.2116746 2.15755598,19.746912 1.87321116,20.4040114 L0.0918744422,24.519843 C0.0787324544,24.5497112 0.083511359,24.5759951 0.0751482759,24.607058 L32.1798298,24.607058 C32.170272,24.5759951 32.1750509,24.5497112 32.1607142,24.519843 M19.7964931,23.2713542 L12.4608744,23.2713542 C12.3354282,23.2713542 12.2637446,23.1733866 12.2995864,23.0515245 L12.6627832,21.889056 C12.6986249,21.7659992 12.8324343,21.6692264 12.9566858,21.6692264 L19.3006817,21.6692264 C19.4273227,21.6692264 19.5599373,21.7659992 19.5957791,21.889056 L19.9589759,23.0515245 C19.9960124,23.1733866 19.9231341,23.2713542 19.7964931,23.2713542" id="Fill-17" sketch:type="MSShapeGroup"></path>
            </g>
        </g>
    </g>
</svg>