<?xml version="1.0" encoding="iso-8859-1"?>
<!-- Generator: Adobe Illustrator 19.2.1, SVG Export Plug-In . SVG Version: 6.00 Build 0)  -->
<svg version="1.1" xmlns="http://www.w3.org/2000/svg" xmlns:xlink="http://www.w3.org/1999/xlink" x="0px" y="0px"
	 viewBox="0 0 600 600" style="enable-background:new 0 0 600 600;" xml:space="preserve">
<g id="listen">
	<g id="m7EptF.tif">
		<g>
			<path style="fill:#FFFFFF;" d="M426.103,313.32c0.018-85.348-19.873-155.654-58.543-217.425
				c-8.144-13.008-17.167-25.546-26.685-37.589c-7.848-9.93-21.52-10.845-31.423-3.452c-9.553,7.131-11.995,20.1-5.609,30.634
				c1.805,2.977,4.101,5.654,6.123,8.503c82.523,116.273,92.566,238.638,29.665,366.463c-9.181,18.657-22.558,35.249-33.983,52.803
				c-7.328,11.26-5.152,24.905,5.134,32.315c10.558,7.605,24.684,5.242,32.871-5.441
				C397.771,469.516,425.496,389.816,426.103,313.32z M340.69,305.06c-0.102-41.834-6.789-78.533-20.481-113.913
				c-9.81-25.349-22.701-49.047-39.166-70.681c-8.217-10.797-21.753-12.522-32.255-4.845c-9.955,7.277-12.228,20.753-5.294,31.823
				c1.607,2.565,3.501,4.947,5.198,7.457c38.724,57.244,52.801,120.008,41.861,188.26c-6.228,38.854-21.373,74.038-43.755,106.364
				c-3.6,5.2-5.968,12.322-6.093,18.612c-0.193,9.731,7.683,17.852,16.64,20.111c10.173,2.565,19.344-0.989,26.113-10.475
				C321.154,424.939,340.076,366.008,340.69,305.06z M249.558,300.885c-0.476-40.034-10.705-77.304-31.897-111.384
				c-8.095-13.019-21.912-16.531-33.517-8.926c-11.328,7.424-13.423,22.016-5.491,34.473c13.233,20.782,20.838,43.652,23.362,68.089
				c3.811,36.893-4.146,71.198-23,103.186c-2.782,4.72-4.327,10.999-4.118,16.469c0.376,9.866,7.982,17.66,17.068,19.771
				c10.595,2.46,20.129-1.571,26.204-11.516C238.818,377.247,249.055,340.45,249.558,300.885z"/>
			<path d="M426.103,313.32c-0.607,76.496-28.332,156.196-82.449,226.81c-8.187,10.683-22.313,13.047-32.871,5.441
				c-10.286-7.41-12.463-21.055-5.134-32.315c11.425-17.554,24.802-34.146,33.983-52.803
				c62.901-127.824,52.858-250.189-29.665-366.463c-2.022-2.849-4.318-5.525-6.123-8.503c-6.386-10.534-3.943-23.503,5.609-30.634
				c9.903-7.393,23.575-6.478,31.423,3.452c9.518,12.043,18.541,24.581,26.685,37.589
				C406.23,157.666,426.121,227.972,426.103,313.32z"/>
			<path d="M340.69,305.06c-0.615,60.948-19.536,119.879-57.232,172.711c-6.769,9.486-15.94,13.04-26.113,10.475
				c-8.958-2.259-16.834-10.38-16.64-20.111c0.125-6.29,2.492-13.412,6.093-18.612c22.381-32.325,37.527-67.51,43.755-106.364
				c10.94-68.252-3.137-131.016-41.861-188.26c-1.698-2.51-3.592-4.892-5.198-7.457c-6.935-11.07-4.661-24.546,5.294-31.823
				c10.502-7.676,24.038-5.951,32.255,4.845c16.465,21.634,29.356,45.332,39.166,70.681
				C333.901,226.527,340.588,263.226,340.69,305.06z"/>
			<path d="M249.55,300.889c-0.495,39.561-10.732,76.358-31.38,110.157c-6.076,9.946-15.609,13.977-26.204,11.516
				c-9.087-2.11-16.692-9.905-17.068-19.771c-0.208-5.469,1.336-11.749,4.118-16.469c18.854-31.988,26.811-66.293,23-103.186
				c-2.524-24.437-10.129-47.308-23.362-68.089c-7.932-12.457-5.837-27.049,5.491-34.473c11.605-7.605,25.422-4.093,33.517,8.926
				C238.853,223.581,249.082,260.851,249.55,300.889z"/>
		</g>
	</g>
</g>
<g id="Layer_1">
</g>
</svg>
