<?xml version="1.0" encoding="iso-8859-1"?>
<!-- Generator: Adobe Illustrator 16.0.0, SVG Export Plug-In . SVG Version: 6.00 Build 0)  -->
<!DOCTYPE svg PUBLIC "-//W3C//DTD SVG 1.1//EN" "http://www.w3.org/Graphics/SVG/1.1/DTD/svg11.dtd">
<svg version="1.1" xmlns="http://www.w3.org/2000/svg" xmlns:xlink="http://www.w3.org/1999/xlink" x="0px" y="0px"
	 width="961.539px" height="1000px" viewBox="0 0 961.539 1000" style="enable-background:new 0 0 961.539 1000;"
	 xml:space="preserve">
<g id="KP_x5F_List_x5F_View_x5F_icon">
	<path style="fill:#020202;" d="M225.318,122.083c0-23.364,18.909-42.377,42.393-42.377h649.923
		c23.431,0,42.323,19.013,42.323,42.377c0,23.346-18.893,42.272-42.323,42.272H267.711
		C244.227,164.355,225.318,145.428,225.318,122.083z M917.634,836.167H267.711c-23.484,0-42.393,18.892-42.393,42.289
		c0,23.396,18.909,42.323,42.393,42.323h649.923c23.431,0,42.323-18.927,42.323-42.323
		C959.957,855.059,941.064,836.167,917.634,836.167z M917.634,583.989H267.711c-23.484,0-42.393,18.944-42.393,42.343
		c0,23.328,18.909,42.307,42.393,42.307h649.923c23.431,0,42.323-18.979,42.323-42.307
		C959.957,602.934,941.064,583.989,917.634,583.989z M917.634,332.04H267.711c-23.484,0-42.393,18.925-42.393,42.307
		c0,23.362,18.909,42.356,42.393,42.356h649.923c23.431,0,42.323-18.995,42.323-42.356
		C959.957,350.964,941.064,332.04,917.634,332.04z M1.582,182.414H123.39V60.537H1.582V182.414z M1.582,434.746H123.39V312.853
		H1.582V434.746z M1.582,687.27H123.39V565.358H1.582V687.27z M1.582,939.463H123.39V817.483H1.582V939.463z"/>
</g>
<g id="Layer_1">
</g>
</svg>
