<?xml version="1.0" encoding="iso-8859-1"?>
<!-- Generator: Adobe Illustrator 19.2.1, SVG Export Plug-In . SVG Version: 6.00 Build 0)  -->
<svg version="1.1" xmlns="http://www.w3.org/2000/svg" xmlns:xlink="http://www.w3.org/1999/xlink" x="0px" y="0px"
	 viewBox="0 0 600 600" style="enable-background:new 0 0 600 600;" xml:space="preserve">
<g id="list">
	<g id="list_1_">
		<path style="fill:#020202;" d="M166.717,102.828c0-12.209,9.861-22.122,22.122-22.122h339.09c12.209,0,22.07,9.913,22.07,22.122
			c0,12.157-9.861,22.07-22.07,22.07H188.84C176.578,124.898,166.717,114.985,166.717,102.828z M527.929,475.415H188.84
			c-12.261,0-22.122,9.861-22.122,22.07c0,12.209,9.861,22.07,22.122,22.07h339.09c12.209,0,22.07-9.861,22.07-22.07
			C550.052,485.276,540.191,475.415,527.929,475.415z M527.929,343.828H188.84c-12.261,0-22.122,9.861-22.122,22.07
			c0,12.157,9.861,22.07,22.122,22.07h339.09c12.209,0,22.07-9.913,22.07-22.07C550.052,353.689,540.191,343.828,527.929,343.828z
			 M527.929,212.345H188.84c-12.261,0-22.122,9.861-22.122,22.07s9.861,22.122,22.122,22.122h339.09
			c12.209,0,22.07-9.913,22.07-22.122C550.052,222.258,540.191,212.345,527.929,212.345z M50,134.29h63.55V70.688H50V134.29z
			 M50,265.929h63.55v-63.55H50V265.929z M50,397.725h63.55v-63.602H50V397.725z M50,529.312h63.55v-63.654H50V529.312z"/>
	</g>
</g>
<g id="Layer_1">
</g>
</svg>
