<?xml version="1.0" encoding="iso-8859-1"?>
<!-- Generator: Adobe Illustrator 16.0.0, SVG Export Plug-In . SVG Version: 6.00 Build 0)  -->
<!DOCTYPE svg PUBLIC "-//W3C//DTD SVG 1.1//EN" "http://www.w3.org/Graphics/SVG/1.1/DTD/svg11.dtd">
<svg version="1.1" xmlns="http://www.w3.org/2000/svg" xmlns:xlink="http://www.w3.org/1999/xlink" x="0px" y="0px"
	 width="961.539px" height="1000px" viewBox="0 0 961.539 1000" style="enable-background:new 0 0 961.539 1000;"
	 xml:space="preserve">
<g id="KP_x5F_Locations_x5F_icon">
	<g>
		<path style="fill:#1C1B1A;" d="M480.77,403.2c-66.178,0-119.51-53.477-119.51-119.474c0-65.959,53.332-119.4,119.51-119.4
			c65.889,0,119.438,53.44,119.438,119.4C600.207,349.724,546.658,403.2,480.77,403.2L480.77,403.2z M763.996,283.727
			C763.996,127.326,637.152,0.5,480.77,0.5c-156.438,0-283.227,126.826-283.227,283.227c0,40.902,8.762,79.62,24.389,114.704
			l242.145,589.362c2.855,7.154,9.484,11.707,16.693,11.707c7.137,0,13.622-4.553,16.549-11.707l242.217-589.362
			C755.09,363.346,763.996,324.629,763.996,283.727L763.996,283.727z"/>
	</g>
</g>
<g id="Layer_1">
</g>
</svg>
