<?xml version="1.0" encoding="iso-8859-1"?>
<!-- Generator: Adobe Illustrator 19.2.1, SVG Export Plug-In . SVG Version: 6.00 Build 0)  -->
<svg version="1.1" xmlns="http://www.w3.org/2000/svg" xmlns:xlink="http://www.w3.org/1999/xlink" x="0px" y="0px"
	 viewBox="0 0 600 600" style="enable-background:new 0 0 600 600;" xml:space="preserve">
<g id="lock">
	<g id="lock_1_">
		<g>
			<path style="fill:#1C1B1A;" d="M437.579,272.189h-7.46v-98.378C430.119,105.522,374.597,50,306.308,50h-12.466
				c-68.389,0-123.911,55.522-123.911,123.811v98.378h-7.51c-17.673,0-32.192,14.469-32.192,32.242v213.377
				c0,17.723,14.519,32.192,32.192,32.192h275.158c17.723,0,32.192-14.519,32.192-32.192V304.481
				C469.771,286.708,455.302,272.189,437.579,272.189z M214.689,173.811c0-43.607,35.496-79.053,79.103-79.053h12.466
				c43.657,0,79.003,35.446,79.003,79.053v98.378H214.689V173.811z M257.495,479.158l22.73-64.033
				c-13.217-7.109-22.279-21.077-22.279-37.098c0-23.23,18.824-42.055,42.105-42.055c23.23,0,42.105,18.824,42.105,42.055
				c0,16.021-9.062,29.989-22.229,37.098l22.679,64.033H257.495z"/>
		</g>
	</g>
</g>
<g id="Layer_1">
</g>
</svg>
