<?xml version="1.0" encoding="iso-8859-1"?>
<!-- Generator: Adobe Illustrator 16.0.0, SVG Export Plug-In . SVG Version: 6.00 Build 0)  -->
<!DOCTYPE svg PUBLIC "-//W3C//DTD SVG 1.1//EN" "http://www.w3.org/Graphics/SVG/1.1/DTD/svg11.dtd">
<svg version="1.1" xmlns="http://www.w3.org/2000/svg" xmlns:xlink="http://www.w3.org/1999/xlink" x="0px" y="0px"
	 width="961.539px" height="1000px" viewBox="0 0 961.539 1000" style="enable-background:new 0 0 961.539 1000;"
	 xml:space="preserve">
<g id="KP_x5F_Secured_x5F_icon">
	<g>
		<path style="fill:#1C1B1A;" d="M755.557,444.436h-14.921V247.904c0-136.417-110.876-247.328-247.293-247.328h-24.929
			c-136.488,0-247.437,110.911-247.437,247.328v196.531h-14.991c-35.332,0-64.308,28.939-64.308,64.415v426.231
			c0,35.367,28.976,64.342,64.308,64.342h549.57c35.406,0,64.304-28.975,64.304-64.342V508.851
			C819.86,473.375,790.963,444.436,755.557,444.436z M310.433,247.904c0-87.103,70.916-157.948,157.981-157.948h24.929
			c87.21,0,157.842,70.845,157.842,157.948v196.531H310.433V247.904z M395.909,857.805l45.373-127.89
			c-26.442-14.198-44.506-42.088-44.506-74.133c0-46.353,37.644-83.998,84.102-83.998c46.391,0,84.105,37.646,84.105,83.998
			c0,32.045-18.063,59.935-44.438,74.133l45.305,127.89H395.909z"/>
	</g>
</g>
<g id="Layer_1">
</g>
</svg>
