<?xml version="1.0" encoding="iso-8859-1"?>
<!-- Generator: Adobe Illustrator 19.2.1, SVG Export Plug-In . SVG Version: 6.00 Build 0)  -->
<svg version="1.1" xmlns="http://www.w3.org/2000/svg" xmlns:xlink="http://www.w3.org/1999/xlink" x="0px" y="0px"
	 viewBox="0 0 600 600" style="enable-background:new 0 0 600 600;" xml:space="preserve">
<g id="map">
	<g>
		<path style="fill:#1C1B1A;" d="M540.076,103.511L423.652,51.549c-1.41-0.677-2.963-1.156-4.608-1.373
			c-1.842-0.263-3.792-0.207-5.69,0.191c-1.228,0.261-2.366,0.677-3.559,1.182L300,100.585L190.187,51.549
			c-1.445-0.677-2.963-1.156-4.552-1.373c-1.898-0.298-3.829-0.207-5.745,0.191c-1.282,0.261-2.457,0.677-3.541,1.182
			L59.887,103.511c-5.853,2.619-9.61,8.391-9.61,14.795v415.149c0,0.107,0,0.216,0,0.361c0,1.121,0.109,2.259,0.379,3.378
			c0.344,1.879,1.102,3.596,2.077,5.203c1.3,2.096,3.089,3.811,5.059,5.111c1.878,1.175,4.046,1.97,6.339,2.296
			c0.777,0.126,1.554,0.163,2.349,0.163c1.138,0,2.222-0.109,3.359-0.344c1.265-0.253,2.403-0.651,3.559-1.193l109.869-49.025
			L293.1,548.429c1.389,0.688,2.999,1.175,4.587,1.41c1.861,0.272,3.812,0.2,5.69-0.216c1.265-0.253,2.403-0.651,3.54-1.193
			l109.85-49.025l110.12,49.171c4.987,2.257,10.803,1.787,15.392-1.175c4.588-3.017,7.442-8.13,7.442-13.62V118.306
			C549.723,111.902,545.966,106.131,540.076,103.511z M167.064,471.187L82.63,508.832V128.83l84.434-37.666V471.187z
			 M283.814,508.832l-84.36-37.645V91.164l84.36,37.666V508.832z M400.564,471.187l-84.379,37.645V128.83l84.379-37.666V471.187z
			 M517.279,508.832l-84.344-37.645V91.164l84.344,37.666V508.832z"/>
	</g>
</g>
<g id="Layer_1">
</g>
</svg>
