<?xml version="1.0" encoding="iso-8859-1"?>
<!-- Generator: Adobe Illustrator 19.2.1, SVG Export Plug-In . SVG Version: 6.00 Build 0)  -->
<svg version="1.1" xmlns="http://www.w3.org/2000/svg" xmlns:xlink="http://www.w3.org/1999/xlink" x="0px" y="0px"
	 viewBox="0 0 600 600" style="enable-background:new 0 0 600 600;" xml:space="preserve">
<g id="market-grapes">
	<g>
		<path style="fill:#1C1B1A;" d="M460.83,167.432c-1.25-0.543-2.534-0.832-3.875-0.832c-2.39,0-4.689,0.942-6.463,2.571
			l-19.916,18.267l-19.699-18.232c-1.774-1.665-4.075-2.607-6.482-2.607c-2.427,0-4.744,0.942-6.537,2.607l-5.666,5.251v-32.263
			C392.194,91.353,350.822,50,300,50c-50.84,0-92.21,41.353-92.21,92.194v32.59l-6.013-5.577c-1.774-1.665-4.073-2.607-6.517-2.607
			c-2.408,0-4.707,0.942-6.482,2.607l-19.608,18.232l-19.626-18.232c-1.793-1.665-4.11-2.607-6.519-2.607
			c-1.34,0-2.625,0.289-3.803,0.832c-3.495,1.485-5.757,4.943-5.757,8.745v364.245c0,5.286,4.272,9.578,9.578,9.578h313.911
			c5.288,0,9.578-4.292,9.578-9.578V176.177C466.533,172.375,464.307,168.952,460.83,167.432z M246.119,142.194
			c0-30.037,23.627-53.575,53.881-53.575c30.055,0,53.592,23.538,53.592,53.575v24.569c-0.506-0.128-1.014-0.163-1.539-0.163
			c-2.425,0-4.743,0.942-6.535,2.607l-19.591,18.178l-19.589-18.178c-1.793-1.665-4.092-2.607-6.519-2.607
			c-2.444,0-4.742,0.942-6.5,2.607l-19.625,18.232l-19.645-18.267c-1.793-1.63-4.092-2.571-6.5-2.571
			c-0.506,0-0.96,0.035-1.429,0.126V142.194z M447.415,530.88H152.604V198.121l10.03,9.361c1.793,1.646,4.11,2.553,6.537,2.553
			c2.406,0,4.707-0.907,6.517-2.553l19.573-18.251l19.68,18.251c1.756,1.646,4.073,2.553,6.463,2.553
			c2.464,0,4.763-0.907,6.537-2.553l19.608-18.251l19.626,18.251c1.793,1.646,4.073,2.553,6.519,2.553
			c2.406,0,4.707-0.907,6.498-2.553l19.626-18.251l19.591,18.251c1.793,1.646,4.092,2.516,6.517,2.516
			c2.408,0,4.726-0.87,6.537-2.516l19.589-18.251l19.663,18.251c1.774,1.646,4.092,2.553,6.517,2.553
			c2.373,0,4.707-0.907,6.482-2.553l19.682-18.251l19.643,18.267c1.793,1.667,4.11,2.536,6.519,2.536
			c2.427,0,4.689-0.87,6.482-2.536l10.375-9.541V530.88z"/>
		<rect x="294.115" y="243.566" style="fill:#1C1B1A;" width="11.804" height="35.341"/>
		<path style="fill:#1C1B1A;" d="M244.579,306.029c0-12.366-10.03-22.396-22.378-22.396c-12.401,0-22.378,10.03-22.378,22.396
			c0,12.385,9.976,22.396,22.378,22.396C234.548,328.425,244.579,318.414,244.579,306.029z"/>
		<path style="fill:#1C1B1A;" d="M274.074,328.463c12.348,0,22.396-10.049,22.396-22.433c0-12.366-10.049-22.396-22.396-22.396
			c-12.366,0-22.415,10.03-22.415,22.396C251.659,318.414,261.708,328.463,274.074,328.463z"/>
		<path style="fill:#1C1B1A;" d="M325.945,328.463c12.366,0,22.415-10.049,22.415-22.433c0-12.366-10.049-22.396-22.415-22.396
			c-12.385,0-22.396,10.03-22.396,22.396C303.549,318.414,313.56,328.463,325.945,328.463z"/>
		<path style="fill:#1C1B1A;" d="M377.818,283.633c-12.385,0-22.415,10.03-22.415,22.396c0,12.385,10.03,22.433,22.415,22.433
			c12.383,0,22.378-10.049,22.378-22.433C400.195,293.663,390.201,283.633,377.818,283.633z"/>
		<path style="fill:#1C1B1A;" d="M270.542,353.193c0-12.366-10.049-22.413-22.431-22.413c-12.331,0-22.396,10.047-22.396,22.413
			c0,12.385,10.065,22.415,22.396,22.415C260.493,375.608,270.542,365.578,270.542,353.193z"/>
		<path style="fill:#1C1B1A;" d="M277.604,353.193c0,12.385,10.03,22.415,22.396,22.415c12.348,0,22.396-10.03,22.396-22.415
			c0-12.366-10.049-22.413-22.396-22.413C287.634,330.78,277.604,340.827,277.604,353.193z"/>
		<path style="fill:#1C1B1A;" d="M353.211,330.815c-12.385,0-22.396,10.012-22.396,22.378c0,12.385,10.012,22.415,22.396,22.415
			c12.348,0,22.378-10.03,22.378-22.415C375.589,340.827,365.559,330.815,353.211,330.815z"/>
		<path style="fill:#1C1B1A;" d="M298.804,400.321c0-12.348-10.012-22.359-22.378-22.359c-12.366,0-22.415,10.012-22.415,22.359
			c0,12.422,10.049,22.415,22.415,22.415C288.793,422.736,298.804,412.743,298.804,400.321z"/>
		<path style="fill:#1C1B1A;" d="M328.299,377.962c-12.385,0-22.396,10.03-22.396,22.359c0,12.422,10.012,22.433,22.396,22.433
			c12.366,0,22.378-10.012,22.378-22.433C350.677,387.992,340.665,377.962,328.299,377.962z"/>
		<path style="fill:#1C1B1A;" d="M300.019,425.108c-12.385,0-22.415,10.032-22.415,22.342c0,12.438,10.03,22.433,22.415,22.433
			c12.348,0,22.378-9.995,22.378-22.433C322.396,435.139,312.366,425.108,300.019,425.108z"/>
	</g>
</g>
<g id="Layer_1">
</g>
</svg>
