<?xml version="1.0" encoding="iso-8859-1"?>
<!-- Generator: Adobe Illustrator 19.2.1, SVG Export Plug-In . SVG Version: 6.00 Build 0)  -->
<svg version="1.1" xmlns="http://www.w3.org/2000/svg" xmlns:xlink="http://www.w3.org/1999/xlink" x="0px" y="0px"
	 viewBox="0 0 600 600" style="enable-background:new 0 0 600 600;" xml:space="preserve">
<g id="medical-record">
	<g>
		<defs>
			<path id="SVGID_1_" d="M550,156.648v319.889c0,15.13-12.407,27.5-27.574,27.5H77.593c-15.167,0-27.593-12.37-27.593-27.5V156.648
				c0-0.037,0.074-0.037,0.074-0.093V122.87c0-14.815,12.056-26.907,26.889-26.907h128.759c14.796,0,26.852,12.093,26.852,26.907
				v6.204h289.852C537.593,129.074,550,141.482,550,156.648z M402.185,273.019H343.63v-58.611h-87.204v58.611h-58.537v87.148h58.537
				v58.556h87.204v-58.556h58.555V273.019z"/>
		</defs>
		<use xlink:href="#SVGID_1_"  style="overflow:visible;fill-rule:evenodd;clip-rule:evenodd;fill:#1C1B1A;"/>
		<clipPath id="SVGID_2_">
			<use xlink:href="#SVGID_1_"  style="overflow:visible;"/>
		</clipPath>
	</g>
</g>
<g id="Layer_1">
</g>
</svg>
