<?xml version="1.0" encoding="iso-8859-1"?>
<!-- Generator: Adobe Illustrator 16.0.0, SVG Export Plug-In . SVG Version: 6.00 Build 0)  -->
<!DOCTYPE svg PUBLIC "-//W3C//DTD SVG 1.1//EN" "http://www.w3.org/Graphics/SVG/1.1/DTD/svg11.dtd">
<svg version="1.1" xmlns="http://www.w3.org/2000/svg" xmlns:xlink="http://www.w3.org/1999/xlink" x="0px" y="0px"
	 width="961.539px" height="1000px" viewBox="0 0 961.539 1000" style="enable-background:new 0 0 961.539 1000;"
	 xml:space="preserve">
<g id="KP_x5F_Medical_x5F_Record_x5F_icon">
	<g>
		<path style="fill:#1C1B1A;" d="M960.49,224.926v613.81c0,29.046-23.805,52.782-52.921,52.782H53.986
			c-29.098,0-52.938-23.736-52.938-52.782v-613.81c0-0.087,0.138-0.087,0.138-0.192v-64.649c0-28.422,23.129-51.603,51.567-51.603
			h247.079c28.403,0,51.532,23.181,51.532,51.603v11.937h556.204C936.686,172.021,960.49,195.828,960.49,224.926z M676.836,448.215
			H564.488V335.764H397.155v112.451H284.807v167.229h112.349v112.349h167.333V615.444h112.348V448.215z"/>
	</g>
</g>
<g id="Layer_1">
</g>
</svg>
