<?xml version="1.0" encoding="iso-8859-1"?>
<!-- Generator: Adobe Illustrator 19.2.1, SVG Export Plug-In . SVG Version: 6.00 Build 0)  -->
<svg version="1.1" xmlns="http://www.w3.org/2000/svg" xmlns:xlink="http://www.w3.org/1999/xlink" x="0px" y="0px"
	 viewBox="0 0 600 600" style="enable-background:new 0 0 600 600;" xml:space="preserve">
<g id="member-male">
	<g id="member-male_1_">
		<g>
			<path style="fill:#020202;" d="M550,524.617l-5.27-74.507c-1.044-14.453-13.618-29.949-28.018-34.384l-124.596-38.401
				c-14.4-4.435-26.192-19.983-26.192-34.488v-13.2c8.713-11.583,15.601-25.775,21.027-41.845c2.557-7.618,5.27-15.914,7.879-24.523
				c9.235-5.27,16.957-15.861,20.14-29.166c3.235-13.566,0.835-26.61-5.374-35.219c0.574-5.009,0.939-9.861,0.939-14.244
				c0-59.846-49.097-108.421-109.882-109.152v-0.104c-0.209,0-0.47,0.052-0.626,0.052c-0.261,0-0.47-0.052-0.73-0.052v0.104
				c-60.733,0.73-109.778,49.306-109.778,109.152c0,4.383,0.365,9.235,0.939,14.244c-6.261,8.609-8.661,21.653-5.426,35.219
				c3.131,13.253,10.905,23.896,20.14,29.166c2.609,8.609,5.322,16.957,7.879,24.523c5.426,16.07,12.313,30.21,21.027,41.793v13.253
				c0,14.505-11.792,30.001-26.14,34.488L83.34,415.726c-14.348,4.435-26.975,19.931-28.018,34.384L50,524.617H550L550,524.617z"/>
		</g>
	</g>
</g>
<g id="Layer_1">
</g>
</svg>
