<?xml version="1.0" encoding="iso-8859-1"?>
<!-- Generator: Adobe Illustrator 16.0.0, SVG Export Plug-In . SVG Version: 6.00 Build 0)  -->
<!DOCTYPE svg PUBLIC "-//W3C//DTD SVG 1.1//EN" "http://www.w3.org/Graphics/SVG/1.1/DTD/svg11.dtd">
<svg version="1.1" xmlns="http://www.w3.org/2000/svg" xmlns:xlink="http://www.w3.org/1999/xlink" x="0px" y="0px"
	 width="961.539px" height="1000px" viewBox="0 0 961.539 1000" style="enable-background:new 0 0 961.539 1000;"
	 xml:space="preserve">
<g id="KP_x5F_Member_x5F_Male_x5F_icon">
	<g>
		<path style="fill:#020202;" d="M959.904,930.48l-10.121-142.779c-1.975-27.729-26.063-57.43-53.653-65.924L657.29,648.16
			c-27.623-8.525-50.151-38.266-50.151-66.061v-25.268c16.739-22.217,29.946-49.354,40.307-80.219
			c4.926-14.557,10.122-30.5,15.112-47.017c17.68-10.103,32.547-30.448,38.578-55.888c6.238-25.996,1.594-50.967-10.296-67.517
			c1.076-9.583,1.839-18.908,1.839-27.277c0-114.724-94.066-207.819-210.557-209.241v-0.155c-0.415,0-0.903,0.121-1.248,0.121
			c-0.487,0-0.937-0.121-1.353-0.121v0.155c-116.49,1.421-210.487,94.517-210.487,209.241c0,8.37,0.727,17.694,1.802,27.277
			c-11.958,16.498-16.569,41.469-10.364,67.517c6.03,25.439,20.935,45.785,38.646,55.888c4.991,16.516,10.188,32.459,15.076,47.017
			c10.398,30.795,23.569,57.863,40.275,80.082V582.1c0,27.795-22.599,57.535-50.118,66.061L65.547,721.777
			c-27.52,8.494-51.746,38.195-53.723,65.924L1.635,930.48H959.904L959.904,930.48z"/>
	</g>
</g>
<g id="Layer_1">
</g>
</svg>
