<?xml version="1.0" encoding="iso-8859-1"?>
<!-- Generator: Adobe Illustrator 16.0.0, SVG Export Plug-In . SVG Version: 6.00 Build 0)  -->
<!DOCTYPE svg PUBLIC "-//W3C//DTD SVG 1.1//EN" "http://www.w3.org/Graphics/SVG/1.1/DTD/svg11.dtd">
<svg version="1.1" xmlns="http://www.w3.org/2000/svg" xmlns:xlink="http://www.w3.org/1999/xlink" x="0px" y="0px"
	 width="961.539px" height="1000px" viewBox="0 0 961.539 1000" style="enable-background:new 0 0 961.539 1000;"
	 xml:space="preserve">
<g id="KP_x5F_Member_x5F_Female_x5F_icon">
	<path style="fill:#1C1B1A;" d="M949.293,787.305c-2.111-27.697-26.106-57.404-53.771-65.854L681.24,655.338
		c105.047-22.229,94.312-98.625,94.312-98.625c-35.35,9.989-92.356-15.286-81.83-73.541c10.8-58.288,20.843-72.934,20.843-179.383
		c0-129.111-104.702-233.742-233.761-233.742c-129.127,0-233.778,104.631-233.778,233.742c0,107.125,9.989,121.095,20.724,179.383
		c10.663,58.254-46.414,83.53-81.695,73.541c0,0-10.731,76.396,94.244,98.625L65.965,721.451
		c-27.527,8.449-51.746,38.156-53.702,65.854L2.135,929.953h957.27L949.293,787.305z"/>
</g>
<g id="Layer_1">
</g>
</svg>
