<?xml version="1.0" encoding="iso-8859-1"?>
<!-- Generator: Adobe Illustrator 19.2.1, SVG Export Plug-In . SVG Version: 6.00 Build 0)  -->
<svg version="1.1" xmlns="http://www.w3.org/2000/svg" xmlns:xlink="http://www.w3.org/1999/xlink" x="0px" y="0px"
	 viewBox="0 0 600 600" style="enable-background:new 0 0 600 600;" xml:space="preserve">
<g id="member-female">
	<g id="member-female_1_">
		<path style="fill:#1C1B1A;" d="M544.725,450.057c-1.097-14.468-13.632-29.98-28.1-34.42l-111.929-34.524
			c54.842-11.595,49.253-51.499,49.253-51.499c-18.437,5.223-48.261-7.991-42.724-38.389c5.641-30.45,10.864-38.076,10.864-93.701
			C422.14,130.095,367.455,75.41,300.026,75.41s-122.114,54.685-122.114,122.114c0,55.939,5.223,63.251,10.812,93.701
			c5.589,30.45-24.235,43.612-42.672,38.389c0,0-5.589,39.904,49.201,51.499L83.375,415.69
			c-14.363,4.387-27.003,19.952-28.048,34.42L50,524.59h500L544.725,450.057z"/>
	</g>
</g>
<g id="Layer_1">
</g>
</svg>
