<?xml version="1.0" encoding="iso-8859-1"?>
<!-- Generator: Adobe Illustrator 16.0.0, SVG Export Plug-In . SVG Version: 6.00 Build 0)  -->
<!DOCTYPE svg PUBLIC "-//W3C//DTD SVG 1.1//EN" "http://www.w3.org/Graphics/SVG/1.1/DTD/svg11.dtd">
<svg version="1.1" xmlns="http://www.w3.org/2000/svg" xmlns:xlink="http://www.w3.org/1999/xlink" x="0px" y="0px"
	 width="961.539px" height="1000px" viewBox="0 0 961.539 1000" style="enable-background:new 0 0 961.539 1000;"
	 xml:space="preserve">
<g id="KP_x5F_Member_x5F_Card_x5F_icon">
	<path style="fill:#1C1B1A;" d="M961.635,260.564v478.929c0,29.158-23.86,52.932-53.093,52.932H52.924
		c-29.144,0-53.02-23.773-53.02-52.932V260.521c0-29.173,23.876-52.945,53.02-52.945h855.618
		C937.774,207.575,961.635,231.449,961.635,260.564z M109.716,546.182l79.641-24.537c9.142-2.729,16.698-12.694,16.698-22.041
		v-8.231c-5.635-7.573-9.904-16.511-13.338-26.782c-1.688-4.945-3.434-10.185-5.092-15.717c-5.885-3.288-10.918-10.214-12.9-18.666
		c-2.113-8.585-0.483-17.037,3.45-22.497c-0.294-3.141-0.632-6.222-0.632-9.129c0-38.257,31.272-69.25,70.264-69.733
		c0.088,0,0.191,0,0.382,0c0.132,0,0.278,0,0.425,0c38.843,0.483,70.189,31.477,70.189,69.733c0,2.907-0.221,5.988-0.588,9.129
		c3.948,5.46,5.416,13.912,3.434,22.497c-1.98,8.452-6.999,15.378-12.927,18.666c-1.615,5.532-3.36,10.771-5.019,15.717
		c-3.406,10.271-7.866,19.225-13.428,26.782v8.231c0,9.347,7.558,19.312,16.729,22.041l79.67,24.537
		c7.602,2.45,13.428,9.846,15.922,17.596V317.649c0-5.811-4.74-10.608-10.552-10.608h-287.67c-5.84,0-10.551,4.798-10.551,10.608
		v246.01C96.318,555.998,102.115,548.632,109.716,546.182z M515.418,399.14h332.281c14.117,0,25.533-11.418,25.533-25.506
		c0-14.146-11.416-25.563-25.533-25.563H515.418c-14.104,0-25.536,11.418-25.536,25.563
		C489.882,387.722,501.314,399.14,515.418,399.14z M515.418,522.115h332.281c14.117,0,25.533-11.476,25.533-25.535
		c0-14.146-11.416-25.534-25.533-25.534H515.418c-14.104,0-25.536,11.389-25.536,25.534
		C489.882,510.64,501.314,522.115,515.418,522.115z M873.232,668.041c0-14.058-11.416-25.534-25.533-25.534H113.795
		c-14.102,0-25.49,11.477-25.49,25.534c0,14.161,11.388,25.563,25.49,25.563h733.904
		C861.816,693.604,873.232,682.202,873.232,668.041z"/>
</g>
<g id="Layer_1">
</g>
</svg>
