<?xml version="1.0" encoding="iso-8859-1"?>
<!-- Generator: Adobe Illustrator 16.0.0, SVG Export Plug-In . SVG Version: 6.00 Build 0)  -->
<!DOCTYPE svg PUBLIC "-//W3C//DTD SVG 1.1//EN" "http://www.w3.org/Graphics/SVG/1.1/DTD/svg11.dtd">
<svg version="1.1" xmlns="http://www.w3.org/2000/svg" xmlns:xlink="http://www.w3.org/1999/xlink" x="0px" y="0px"
	 width="961.539px" height="1000px" viewBox="0 0 961.539 1000" style="enable-background:new 0 0 961.539 1000;"
	 xml:space="preserve">
<g id="KP_x5F_Message_x5F_icon">
	<g>
		<path style="fill:#1C1B1A;" d="M958.551,782.682c0.208-1.352,0.762-2.666,0.762-4.086V221.49c0-1.488-0.554-2.682-0.762-4.05
			c-0.277-2.18-0.622-4.327-1.247-6.439c-0.83-2.093-2.11-3.842-3.219-5.642c-0.622-1.194-0.97-2.562-1.939-3.756
			c-0.275-0.381-0.692-0.485-1.175-0.883c-1.454-1.591-3.221-2.77-5.021-4.084c-1.523-1.057-2.838-2.285-4.466-3.063
			c-1.73-0.779-3.53-1.039-5.398-1.593c-2.114-0.589-4.12-1.177-6.406-1.281c-0.483,0-0.935-0.276-1.42-0.276H33.398
			c-0.484,0-0.899,0.276-1.246,0.276c-2.51,0.104-4.812,0.778-7.235,1.419c-1.539,0.502-3.132,0.676-4.464,1.368
			c-2.009,0.865-3.619,2.302-5.35,3.565c-1.54,1.09-3.201,2.146-4.604,3.548c-0.277,0.416-0.693,0.623-1.039,1.003
			c-1.107,1.281-1.522,2.751-2.301,4.137c-1.039,1.713-2.078,3.271-2.7,5.053c-0.987,2.407-1.195,4.656-1.473,7.167
			c-0.139,1.192-0.761,2.249-0.761,3.53v557.105c0,1.314,0.622,2.32,0.761,3.566c0.277,2.422,0.485,4.777,1.473,7.062
			c0.622,1.834,1.661,3.461,2.7,5.123c0.778,1.281,1.193,2.906,2.301,4.084c0.346,0.381,0.762,0.553,1.039,0.934
			c1.402,1.523,3.133,2.631,4.812,3.809c1.592,1.178,3.27,2.562,5.001,3.357c1.609,0.693,3.271,1.004,4.95,1.525
			c2.372,0.553,4.519,1.244,6.82,1.383c0.415,0,0.83,0.139,1.314,0.139H928.26c4.536,0,8.725-0.969,12.602-2.664
			c0.97-0.486,1.696-1.316,2.596-1.801c2.838-1.629,5.471-3.393,7.651-5.918c0.345-0.312,0.762-0.383,1.037-0.764
			c0.97-1.039,1.317-2.492,1.939-3.668c1.108-1.904,2.389-3.705,3.219-5.645C957.929,786.939,958.273,784.861,958.551,782.682z
			 M64.364,287.73l254.987,212.305L64.364,712.27V287.73z M480.874,553.689L119.145,252.438h723.406L480.874,553.689z
			 M367.936,540.468l92.895,77.472c5.919,4.881,12.946,7.199,20.044,7.199c7.026,0,14.054-2.318,19.835-7.199l93.118-77.472
			l248.724,207.077H119.145L367.936,540.468z M642.395,500.035l254.85-212.305v424.54L642.395,500.035z"/>
	</g>
</g>
<g id="Layer_1">
</g>
</svg>
