<?xml version="1.0" encoding="iso-8859-1"?>
<!-- Generator: Adobe Illustrator 19.2.1, SVG Export Plug-In . SVG Version: 6.00 Build 0)  -->
<svg version="1.1" xmlns="http://www.w3.org/2000/svg" xmlns:xlink="http://www.w3.org/1999/xlink" x="0px" y="0px"
	 viewBox="0 0 600 600" style="enable-background:new 0 0 600 600;" xml:space="preserve">
<g id="message">
	<path d="M533.722,140.174H64.628c-7.995,0-14.5,6.505-14.5,14.5v288.654c0,7.995,6.505,14.5,14.5,14.5h469.094
		c7.995,0,14.5-6.505,14.5-14.5V154.674C548.222,146.679,541.717,140.174,533.722,140.174z M533.722,452.828h-8.947
		c-49.586-43.642-165.865-128.529-166.362-129.146c-0.467,0.604-47.844,39.827-58.272,43.751c-0.063,0.024-0.123,0.024-0.186,0
		c-10.528-3.922-57.776-43.133-58.272-43.751c-0.461,0.585-109.24,85.43-158.742,129.146H64.628c-5.238,0-9.5-4.262-9.5-9.5v-4.955
		c48.312-42.693,113.768-93.213,161.482-135.627c0,0-140.901-116.879-161.482-133.946v-14.126c0-5.238,4.262-9.5,9.5-9.5h6.003
		c21.819,17.296,151.97,120.724,214.046,175.922c14.236,11.04,19.825,11.288,35.165-2.362c0,0,183.763-152.128,209.609-173.56h4.271
		c5.238,0,9.5,4.262,9.5,9.5v16.659c-21.337,15.933-117.055,93.564-159.632,131.413c-0.287,0.255,133.886,111.232,159.632,132.516
		v8.066C543.222,448.566,538.96,452.828,533.722,452.828z"/>
</g>
<g id="Layer_1">
</g>
</svg>
