<?xml version="1.0" encoding="iso-8859-1"?>
<!-- Generator: Adobe Illustrator 19.2.1, SVG Export Plug-In . SVG Version: 6.00 Build 0)  -->
<svg version="1.1" xmlns="http://www.w3.org/2000/svg" xmlns:xlink="http://www.w3.org/1999/xlink" x="0px" y="0px"
	 viewBox="0 0 600 600" style="enable-background:new 0 0 600 600;" xml:space="preserve">
<g id="message">
	<g id="message_1_">
		<g>
			<path style="fill:#1C1B1A;" d="M549.582,447.723c0.104-0.731,0.418-1.41,0.418-2.142V154.576c0-0.784-0.313-1.41-0.418-2.142
				c-0.157-1.149-0.313-2.246-0.627-3.343c-0.418-1.097-1.097-1.985-1.672-2.925c-0.313-0.627-0.522-1.358-0.992-1.985
				c-0.157-0.209-0.366-0.261-0.627-0.47c-0.784-0.836-1.672-1.463-2.612-2.142c-0.784-0.575-1.463-1.201-2.351-1.619
				c-0.888-0.418-1.828-0.522-2.821-0.836c-1.097-0.313-2.142-0.627-3.343-0.679c-0.261,0-0.47-0.157-0.731-0.157H66.298
				c-0.261,0-0.47,0.157-0.627,0.157c-1.306,0.052-2.507,0.418-3.761,0.731c-0.784,0.261-1.619,0.366-2.351,0.731
				c-1.045,0.47-1.88,1.201-2.821,1.88c-0.784,0.575-1.672,1.097-2.403,1.828c-0.157,0.209-0.366,0.313-0.522,0.522
				c-0.575,0.679-0.784,1.463-1.201,2.142c-0.522,0.888-1.097,1.724-1.41,2.664c-0.522,1.254-0.627,2.455-0.784,3.761
				c-0.052,0.627-0.418,1.149-0.418,1.828v291.005c0,0.679,0.313,1.201,0.418,1.88c0.157,1.254,0.261,2.507,0.784,3.709
				c0.313,0.94,0.888,1.828,1.41,2.664c0.418,0.679,0.627,1.515,1.201,2.142c0.157,0.209,0.418,0.313,0.522,0.47
				c0.731,0.784,1.619,1.358,2.507,1.985c0.836,0.627,1.724,1.358,2.612,1.776c0.836,0.366,1.724,0.522,2.56,0.784
				c1.254,0.313,2.351,0.627,3.552,0.731c0.209,0,0.418,0.052,0.679,0.052h467.457c2.351,0,4.544-0.522,6.582-1.41
				c0.522-0.261,0.888-0.679,1.358-0.94c1.463-0.836,2.873-1.776,4.022-3.082c0.157-0.157,0.418-0.209,0.522-0.418
				c0.522-0.522,0.679-1.306,0.992-1.933c0.575-0.992,1.254-1.933,1.672-2.925C549.216,449.916,549.425,448.872,549.582,447.723z
				 M82.491,189.156l133.201,110.896L82.491,410.896L82.491,189.156z M300.052,328.103L111.064,170.717h377.873L300.052,328.103z
				 M241.026,321.208l48.527,40.483c3.082,2.56,6.738,3.761,10.447,3.761c3.656,0,7.365-1.201,10.343-3.761l48.631-40.483
				l129.91,108.18H111.064L241.026,321.208z M384.413,300.052l133.096-110.896v221.741L384.413,300.052z"/>
		</g>
	</g>
</g>
<g id="Layer_1">
</g>
</svg>
