<svg id="Layer_1" data-name="Layer 1" xmlns="http://www.w3.org/2000/svg" viewBox="0 0 18.34 27">
  <defs>
    <style>
      .cls-1 {
        fill: #1c1b1a;
      }
    </style>
  </defs>
  <title>KP_Research_icon</title>
  <path class="cls-1" d="M27.19,23.29a1.78,1.78,0,1,0-2.11,1.38,1.78,1.78,0,0,0,2.11-1.38m9,16.91a0.3,0.3,0,0,1-.3.3H18.13a0.3,0.3,0,0,1-.3-0.3V38.05a0.3,0.3,0,0,1,.3-0.3h7.22A6.66,6.66,0,0,0,30,35.36L21.4,33.54a0.3,0.3,0,0,1-.23-0.35l0.17-.83a0.3,0.3,0,0,1,.35-0.23l9.17,1.94A6.67,6.67,0,0,0,27.53,25l-0.85,4a0.3,0.3,0,0,1-.35.23l-0.51-.11-0.07.33a0.3,0.3,0,0,1-.35.23l-2.64-.56a0.29,0.29,0,0,1-.23-0.35l0.07-.33-0.51-.11A0.31,0.31,0,0,1,21.86,28l2.35-11.27a0.29,0.29,0,0,1,.35-0.23l0.51,0.11,0.51-2.41L25.07,14a0.29,0.29,0,0,1-.24-0.33,0.3,0.3,0,0,1,.35-0.21l4.25,0.9a0.28,0.28,0,1,1-.11.54l-0.51-.11L28.3,17.25l0.51,0.11a0.29,0.29,0,0,1,.23.35l-0.94,4.6a9.36,9.36,0,0,1,6.14,8.79,9.14,9.14,0,0,1-.11,1.47c2,0.44,2,3,2,5.11" transform="translate(-17.83 -13.5)"/>
</svg>
