<?xml version="1.0" encoding="iso-8859-1"?>
<!-- Generator: Adobe Illustrator 19.2.1, SVG Export Plug-In . SVG Version: 6.00 Build 0)  -->
<svg version="1.1" xmlns="http://www.w3.org/2000/svg" xmlns:xlink="http://www.w3.org/1999/xlink" x="0px" y="0px"
	 viewBox="0 0 600 600" style="enable-background:new 0 0 600 600;" xml:space="preserve">
<g id="research">
	<g id="research_1_">
		<path style="fill:#1C1B1A;" d="M303.463,231.376c3.752-17.767-7.641-35.3-25.491-39.017c-17.795-3.852-35.272,7.578-39.071,25.419
			c-3.754,17.776,7.622,35.309,25.454,39.108C282.205,260.61,299.702,249.217,303.463,231.376 M469.778,544.483
			c0,3.039-2.531,5.517-5.598,5.517H135.738c-3.02,0-5.517-2.478-5.517-5.517v-39.839c0-3.02,2.496-5.517,5.517-5.517h133.617
			c34.622-2.35,65.458-19.096,86.445-44.315l-159.578-33.791c-2.967-0.58-4.883-3.563-4.259-6.565l3.237-15.282
			c0.661-2.976,3.581-4.874,6.537-4.278l169.725,35.933c8.193-16.546,12.848-35.2,12.848-54.941
			c0-50.691-30.661-94.3-74.426-113.326l-15.68,74.084c-0.578,2.93-3.58,4.893-6.537,4.222l-9.495-2.033l-1.239,6.12
			c-0.643,2.957-3.598,4.92-6.556,4.224l-48.865-10.319c-2.983-0.624-4.919-3.554-4.241-6.509l1.239-6.104l-9.457-1.944
			c-2.976-0.696-4.902-3.67-4.278-6.593l43.548-208.668c0.596-2.939,3.57-4.883,6.556-4.187l9.476,1.98l9.441-44.659l-9.504-2.007
			c-2.957-0.615-4.937-3.444-4.359-6.157c0.606-2.713,3.519-4.476,6.483-3.906l78.632,16.646c2.976,0.659,4.937,3.381,4.376,6.148
			c-0.622,2.767-3.517,4.476-6.5,3.87l-9.494-1.954l-9.432,44.606l9.513,2.044c2.974,0.606,4.882,3.491,4.241,6.519l-17.433,85.206
			c66.334,24.296,113.734,88.026,113.734,162.697c0,9.233-0.68,18.276-2.117,27.137c37.68,8.074,37.843,55.193,37.843,94.708"/>
	</g>
</g>
<g id="Layer_1">
</g>
</svg>
