<?xml version="1.0" encoding="iso-8859-1"?>
<!-- Generator: Adobe Illustrator 19.2.1, SVG Export Plug-In . SVG Version: 6.00 Build 0)  -->
<svg version="1.1" xmlns="http://www.w3.org/2000/svg" xmlns:xlink="http://www.w3.org/1999/xlink" x="0px" y="0px"
	 viewBox="0 0 600 600" style="enable-background:new 0 0 600 600;" xml:space="preserve">
<g id="more">
	<g id="more_1_">
		<g>
			<g>
				<g>
					<path style="fill:#020202;" d="M113.196,363.222c34.926,0,63.196-28.322,63.196-63.145c0-34.977-28.271-63.3-63.196-63.3
						S50,265.048,50,300.026C50,334.9,78.271,363.222,113.196,363.222L113.196,363.222z"/>
				</g>
				<g>
					<path style="fill:#020202;" d="M300,363.222c34.874,0,63.196-28.322,63.196-63.145c0-34.977-28.322-63.3-63.196-63.3
						c-34.926,0-63.248,28.322-63.248,63.3C236.752,334.9,265.074,363.222,300,363.222L300,363.222z"/>
				</g>
				<g>
					<path style="fill:#020202;" d="M486.752,363.222c34.926,0,63.248-28.322,63.248-63.145c0-34.977-28.322-63.3-63.248-63.3
						s-63.196,28.322-63.196,63.3C423.556,334.9,451.826,363.222,486.752,363.222L486.752,363.222z"/>
				</g>
			</g>
		</g>
	</g>
</g>
<g id="Layer_1">
</g>
</svg>
