<?xml version="1.0" encoding="iso-8859-1"?>
<!-- Generator: Adobe Illustrator 16.0.0, SVG Export Plug-In . SVG Version: 6.00 Build 0)  -->
<!DOCTYPE svg PUBLIC "-//W3C//DTD SVG 1.1//EN" "http://www.w3.org/Graphics/SVG/1.1/DTD/svg11.dtd">
<svg version="1.1" xmlns="http://www.w3.org/2000/svg" xmlns:xlink="http://www.w3.org/1999/xlink" x="0px" y="0px"
	 width="961.539px" height="1000px" viewBox="0 0 961.539 1000" style="enable-background:new 0 0 961.539 1000;"
	 xml:space="preserve">
<g id="KP_x5F_More_x5F_icon">
	<g>
		<g>
			<g>
				<path style="fill:#020202;" d="M118.689,622.551c67.692,0,122.482-54.896,122.482-122.445
					c0-67.761-54.79-122.656-122.482-122.656c-67.724,0-122.514,54.896-122.514,122.656
					C-3.824,567.655,50.966,622.551,118.689,622.551L118.689,622.551z"/>
			</g>
			<g>
				<path style="fill:#020202;" d="M480.77,622.551c67.62,0,122.514-54.896,122.514-122.445
					c0-67.761-54.894-122.656-122.514-122.656c-67.692,0-122.585,54.896-122.585,122.656
					C358.184,567.655,413.078,622.551,480.77,622.551L480.77,622.551z"/>
			</g>
			<g>
				<path style="fill:#020202;" d="M842.812,622.551c67.656,0,122.552-54.896,122.552-122.445
					c0-67.761-54.896-122.656-122.552-122.656c-67.689,0-122.516,54.896-122.516,122.656
					C720.296,567.655,775.122,622.551,842.812,622.551L842.812,622.551z"/>
			</g>
		</g>
	</g>
</g>
<g id="Layer_1">
</g>
</svg>
