<?xml version="1.0" encoding="iso-8859-1"?>
<!-- Generator: Adobe Illustrator 19.2.1, SVG Export Plug-In . SVG Version: 6.00 Build 0)  -->
<svg version="1.1" xmlns="http://www.w3.org/2000/svg" xmlns:xlink="http://www.w3.org/1999/xlink" x="0px" y="0px"
	 viewBox="0 0 600 600" style="enable-background:new 0 0 600 600;" xml:space="preserve">
<g id="mouse">
	<g id="mouse_1_">
		<path style="fill:#1C1B1A;" d="M515.526,442.358c-49.497,49.442-134.583,45.229-189.134-9.341l-86.597-86.632
			c-50.02-50.049-57.208-125.396-20.055-175.734c-9.376-6.691-18.753-9.404-26.727-7.576c-10.209,2.341-18.835,12.531-24.224,28.527
			c-8.907,26.113-30.762,42.435-56.307,42.435c-1.22,0-2.406,0-3.635-0.109c-28.781-1.681-51.703-23.455-58.494-55.527
			c-1.835-8.626,3.663-17.107,12.361-18.944c8.554-1.952,17.172,3.672,19.007,12.352c4.494,21.231,17.966,29.451,29.07,30.129
			c9.629,0.706,22.172-4.494,27.596-20.67c9.124-26.883,25.942-44.407,47.327-49.425c18.365-4.322,38.375,1.9,56.377,16.115
			c50.31-38.648,126.88-31.946,177.444,18.663l86.676,86.623C560.717,307.838,564.93,392.935,515.526,442.358z M309.536,206.06
			c-10.307-10.335-25.651-12.007-33.953-3.607c-8.3,8.328-6.681,23.59,3.663,33.962l27.1,27.09
			c10.344,10.344,25.688,12.016,33.988,3.689c8.337-8.372,6.646-23.653-3.733-34.044L309.536,206.06z"/>
	</g>
</g>
<g id="Layer_1">
</g>
</svg>
