<?xml version="1.0" encoding="iso-8859-1"?>
<!-- Generator: Adobe Illustrator 19.2.1, SVG Export Plug-In . SVG Version: 6.00 Build 0)  -->
<svg version="1.1" xmlns="http://www.w3.org/2000/svg" xmlns:xlink="http://www.w3.org/1999/xlink" x="0px" y="0px"
	 viewBox="0 0 600 600" style="enable-background:new 0 0 600 600;" xml:space="preserve">
<g id="none">
	<g id="none_1_">
		<path style="fill:#1C1B1A;" d="M300,50C161.952,50,50,161.952,50,300c0,138.1,111.952,250,250,250s250-111.9,250-250
			C550,161.952,438.048,50,300,50z M103.497,300c0-108.507,87.944-196.451,196.451-196.451c32.307,0,62.735,7.777,89.614,21.608
			L155.063,432.672C123.069,397.704,103.497,351.148,103.497,300z M300,496.451c-35.699,0-69.207-9.551-98.069-26.2l236.326-309.864
			c35.96,35.595,58.194,84.969,58.194,139.614C496.451,408.507,408.507,496.451,300,496.451z"/>
	</g>
</g>
<g id="Layer_1">
</g>
</svg>
