<?xml version="1.0" encoding="iso-8859-1"?>
<!-- Generator: Adobe Illustrator 16.0.0, SVG Export Plug-In . SVG Version: 6.00 Build 0)  -->
<!DOCTYPE svg PUBLIC "-//W3C//DTD SVG 1.1//EN" "http://www.w3.org/Graphics/SVG/1.1/DTD/svg11.dtd">
<svg version="1.1" xmlns="http://www.w3.org/2000/svg" xmlns:xlink="http://www.w3.org/1999/xlink" x="0px" y="0px"
	 width="961.539px" height="1000px" viewBox="0 0 961.539 1000" style="enable-background:new 0 0 961.539 1000;"
	 xml:space="preserve">
<g id="KP_x5F_None_x5F_Available_x5F_icon">
	<path style="fill:#1C1B1A;" d="M480.77,21c-264.549,0-479,214.451-479,479c0,264.562,214.451,479,479,479s479-214.438,479-479
		C959.77,235.451,745.318,21,480.77,21z M104.344,500c0-207.898,168.528-376.426,376.425-376.426
		c61.858,0,120.229,14.922,171.715,41.359L203.109,754.17C141.774,687.202,104.344,597.977,104.344,500z M480.769,876.426
		c-68.434,0-132.601-18.263-187.896-50.177l452.779-593.701C814.527,300.766,857.195,395.397,857.195,500
		C857.195,707.908,688.667,876.426,480.769,876.426z"/>
</g>
<g id="Layer_1">
</g>
</svg>
