<svg id="Layer_1" data-name="Layer 1" xmlns="http://www.w3.org/2000/svg" xmlns:xlink="http://www.w3.org/1999/xlink" viewBox="0 0 36.35 74.59">
  <defs>
    <style>
      .cls-1 {
        fill: none;
      }

      .cls-2 {
        clip-path: url(#clip-path);
      }

      .cls-3 {
        clip-path: url(#clip-path-2);
      }

      .cls-4 {
        fill: #1c1b1a;
      }
    </style>
    <clipPath id="clip-path" transform="translate(-8.28 -8.32)">
      <rect class="cls-1" x="7.68" y="5.33" width="34.74" height="38.42"/>
    </clipPath>
    <clipPath id="clip-path-2" transform="translate(-8.28 -8.32)">
      <rect class="cls-1" x="6.48" y="12.85" width="39.23" height="39.23"/>
    </clipPath>
  </defs>
  <title>nurse</title>
  <g class="cls-2">
    <g class="cls-3">
      <g>
        <path class="cls-4" d="M44.45,51.69l-3.81-15a10.21,10.21,0,0,0-8.09-6.65c0,3.66-2.58,8.09-5.18,9a3.81,3.81,0,0,1-.94,2,4.75,4.75,0,0,1-3.67,1.36c-2.33,0-4-1.23-4.83-3.65H17.75A2.84,2.84,0,1,1,19.67,38c0.77,2.22,2,2.51,3.09,2.51A3,3,0,0,0,25,39.8,1.88,1.88,0,0,0,25.45,39c-2.54-1-5.05-5.39-5.06-9a9.82,9.82,0,0,0-8.1,6.67l-3.81,15c-1.34,4.56,4.51,6.32,5.9,2l3.16-11.81H19.1L13.51,64.73h4.66V79c0,5.22,7.61,5.07,7.61,0V64.73h1.31V79c0,5.07,7.65,5.22,7.65,0V64.73h4.62L33.7,41.95h1.68l3.17,11.74C39.92,58.14,45.73,56.25,44.45,51.69Z" transform="translate(-8.28 -8.32)"/>
        <path class="cls-4" d="M22.28,30v0c0,3.55,2.91,7.28,4.2,7.28s4.19-3.73,4.19-7.28v0H22.28Z" transform="translate(-8.28 -8.32)"/>
        <circle class="cls-4" cx="9.46" cy="27.62" r="0.95"/>
        <circle class="cls-4" cx="18.17" cy="14.33" r="6.54"/>
      </g>
    </g>
    <path class="cls-4" d="M26.37,8.32a15.17,15.17,0,0,0-10.79,4.47l4.59,4.59a8.76,8.76,0,0,1,12.4,0l4.59-4.59A15.16,15.16,0,0,0,26.37,8.32Zm2.27,4.27h-1.3v1.3H25.4v-1.3H24.1V10.65h1.3V9.35h1.94v1.3h1.3v1.94Z" transform="translate(-8.28 -8.32)"/>
  </g>
</svg>
