<?xml version="1.0" encoding="iso-8859-1"?>
<!-- Generator: Adobe Illustrator 19.2.1, SVG Export Plug-In . SVG Version: 6.00 Build 0)  -->
<svg version="1.1" xmlns="http://www.w3.org/2000/svg" xmlns:xlink="http://www.w3.org/1999/xlink" x="0px" y="0px"
	 viewBox="0 0 600 600" style="enable-background:new 0 0 600 600;" xml:space="preserve">
<g id="nurse">
	<g>
		<defs>
			<path id="SVGID_1_" d="M345.261,274.379h-25.786v-25.937c0-7.688-6.25-13.974-13.893-13.974c-7.631,0-13.881,6.287-13.881,13.974
				v25.937h-25.798c-7.631,0-13.881,6.287-13.881,13.974c0,7.676,6.25,13.962,13.881,13.962h25.798v25.937
				c0,7.688,6.25,13.974,13.881,13.974c7.643,0,13.893-6.287,13.893-13.974v-25.937h25.786c7.643,0,13.893-6.287,13.893-13.962
				C359.154,280.666,352.904,274.379,345.261,274.379z M305.583,371.425c-45.619,0-82.595-37.193-82.595-83.08
				c0-45.875,36.976-83.068,82.595-83.068s82.595,37.193,82.595,83.068C388.179,334.231,351.202,371.425,305.583,371.425z
				 M300,156.563c-150.298-1.497-250,59.382-250,59.382l59.524,227.519c0,0,79.738-19.315,190.476-19.615
				c125.381-0.335,190.476,19.615,190.476,19.615L550,215.945C550,215.945,450.298,158.06,300,156.563z"/>
		</defs>
		<use xlink:href="#SVGID_1_"  style="overflow:visible;fill-rule:evenodd;clip-rule:evenodd;fill:#231F20;"/>
		<clipPath id="SVGID_2_">
			<use xlink:href="#SVGID_1_"  style="overflow:visible;"/>
		</clipPath>
	</g>
</g>
<g id="Layer_1">
</g>
</svg>
