<?xml version="1.0" encoding="iso-8859-1"?>
<!-- Generator: Adobe Illustrator 16.0.0, SVG Export Plug-In . SVG Version: 6.00 Build 0)  -->
<!DOCTYPE svg PUBLIC "-//W3C//DTD SVG 1.1//EN" "http://www.w3.org/Graphics/SVG/1.1/DTD/svg11.dtd">
<svg version="1.1" xmlns="http://www.w3.org/2000/svg" xmlns:xlink="http://www.w3.org/1999/xlink" x="0px" y="0px"
	 width="961.539px" height="1000px" viewBox="0 0 961.539 1000" style="enable-background:new 0 0 961.539 1000;"
	 xml:space="preserve">
<g id="KP_x5F_Paperclip_x5F_icon">
	<path style="fill:#1C1B1A;" d="M357.854,998.376c-79.667,0-159.316-30.973-219.965-92.949
		c-121.232-123.921-121.232-325.5,0-449.453L514.075,71.607c89.337-91.296,234.722-91.296,324.091,0
		c43.268,44.224,67.079,103.024,67.112,165.553c0,62.592-23.845,121.362-67.112,165.584L477.418,771.43
		c-57.424,58.705-150.892,58.672-208.382,0c-57.424-58.737-57.408-154.245,0.016-212.917L583.52,237.16l46.297,47.3L315.349,605.812
		c-31.896,32.625-31.913,85.692,0,118.283c31.896,32.625,83.876,32.625,115.772,0l360.747-368.652
		c30.894-31.587,47.933-73.575,47.933-118.283c0-44.645-17.039-86.665-47.933-118.253c-63.838-65.215-167.673-65.215-231.496,0
		l-376.185,384.4c-95.704,97.808-95.704,257.01,0,354.819c95.75,97.809,251.535,97.873,347.254,0.032l331.785-339.075l46.295,47.302
		L577.737,905.459C517.12,967.403,437.488,998.376,357.854,998.376z"/>
</g>
<g id="Layer_1">
</g>
</svg>
