<?xml version="1.0" encoding="iso-8859-1"?>
<!-- Generator: Adobe Illustrator 16.0.0, SVG Export Plug-In . SVG Version: 6.00 Build 0)  -->
<!DOCTYPE svg PUBLIC "-//W3C//DTD SVG 1.1//EN" "http://www.w3.org/Graphics/SVG/1.1/DTD/svg11.dtd">
<svg version="1.1" xmlns="http://www.w3.org/2000/svg" xmlns:xlink="http://www.w3.org/1999/xlink" x="0px" y="0px"
	 width="961.539px" height="1000px" viewBox="0 0 961.539 1000" style="enable-background:new 0 0 961.539 1000;"
	 xml:space="preserve">
<g id="KP_x5F_PDF_x5F_icon">
	<path style="fill:#1C1A19;" d="M958.481,312.221c-0.14-1.402-0.349-2.612-0.763-3.998c-1.316-5.175-3.6-10.142-7.479-13.984
		L686.67,30.512c-4.016-3.843-8.862-6.111-14.228-7.53c-1.315-0.242-2.423-0.554-3.738-0.76c-1.314-0.07-2.665-0.762-3.98-0.762
		h-428.07c-17.17,0-30.982,13.916-30.982,30.999v76.694H2.229v206.35h203.443v612.056c0,17.067,13.812,30.983,30.982,30.983h691.57
		c17.24,0,31.087-13.916,31.087-30.983V316.134C959.311,314.784,958.757,313.537,958.481,312.221z M853.522,285.151H695.636V127.196
		L853.522,285.151z M267.669,916.611v-581.11h320.24v-206.35h-320.24V83.337h365.967v232.797c0,17.118,13.847,30.929,30.948,30.929
		h232.832v569.548H267.669z M828.46,743.874c1.315-3.651,4.223-16.806,4.223-16.806s-4.223,6.524-8.585,8.827
		c-15.889,7.979-66.602-5.141-118.942-31.519c45.105-4.379,82.249-5.003,102.431,1.453c25.721,8.811,25.721,16.912,25.721,19.092
		c0-1.489,1.454-7.425,0.762-9.571c0-6.525-2.216-12.463-6.369-16.807c-10.04-9.433-32.955-13.812-65.287-14.573
		c-23.541,0-52.134,2.146-83.634,6.457c-13.778-8.672-29.425-17.466-40.987-29.219c-30.601-28.541-55.664-68.713-71.518-114.009
		c1.522-4.449,2.216-8.084,2.907-12.462c4.293-20.407,7.824-87.08,7.824-87.08s-12.981,50.577-14.297,57.898
		c-1.385,5.105-2.769,10.16-4.984,15.3c-9.312-34.392-14.298-68.056-14.298-92.841c0-7.288,0.693-21.273,2.839-32.297
		c0.831-7.184,3.53-11.631,6.439-13.812c5.85,1.489,12.185,10.263,18.623,25.565c5.678,13.257,5.678,27.848,5.678,37.316
		c0,0,5.815-23.401,4.361-36.607c-0.762-8.03-8.654-29.234-24.37-29.234h-0.832h-0.69h-7.062c-11.424,0-22.916,5.832-25.062,16.08
		c-9.97,36.537,0.623,94.381,19.247,166.091l-5.608,13.949c-14.332,35.015-31.536,70.065-47.355,100.786
		C425.903,804.575,375.881,873.307,342.96,878.464l-0.691-1.522c-0.692-16.062,28.524-56.927,67.26-89.935
		c4.292-3.651,21.461-20.442,21.461-20.442s-22.846,12.497-28.662,15.405c-48.741,29.928-73.042,59.836-77.265,79.671
		c-1.454,6.611,0,13.119,4.984,16.823l12.22,5.78c34.374,17.586,75.845-28.42,131.716-127.958
		c57.153-18.937,127.32-37.336,191.776-46.77c58.123,33.665,124.69,49.763,149.752,43.168
		C820.429,751.162,825.553,747.545,828.46,743.874z M479.005,743.874c10.073-17.567,20.666-36.52,30.704-56.996
		c20.666-40.293,33.717-70.965,44.379-100.182c16.478,34.255,39.463,67.227,69.441,92.757c7.2,5.938,13.57,11.804,21.497,16.944
		C589.848,706.592,532.591,721.269,479.005,743.874z M826.175,775.375c1.524-0.796,2.285-1.487,2.285-2.976
		c0-1.455-0.761-2.146-1.593-2.96c-0.692-0.693-1.314-0.693-3.6-0.693h-4.224v12.428h2.008v-5.105h1.453
		c2.285,0,3.048,0.657,3.048,2.163c0.622,1.523,0.622,2.285,1.314,2.942h2.216c-0.623-0.657-0.623-1.419-0.623-2.942
		C827.699,776.726,826.867,775.375,826.175,775.375z M823.268,774.579h-2.216v-4.325h2.216c2.285,0,2.907,0.69,2.907,2.146
		C826.175,773.888,824.79,774.579,823.268,774.579z M823.268,762.914c-6.302,0-11.562,5.036-11.562,11.665
		c0,6.595,5.261,11.736,11.562,11.736c6.577,0,12.323-5.142,12.323-11.736C835.591,767.95,829.845,762.914,823.268,762.914z
		 M823.268,784.134c-4.985,0-8.585-3.617-8.585-9.555c0-5.14,3.6-9.468,8.585-9.468c5.815,0,9.415,4.328,9.415,9.468
		C832.683,780.517,829.083,784.134,823.268,784.134z M169.289,223.966c12.981,0,29.425-0.727,29.425-17.915
		c0-15.576-14.608-17.74-26.932-17.74h-15.992v35.654H169.289z M133.149,168.96h42.544c24.612,0,46.698,8.637,46.698,36.746
		c0,31.864-23.816,37.578-50.61,37.578h-15.992v52.409h-22.64V168.96z M279.162,275.285c28.247,0,51.371-12.15,51.371-42.958
		c0-30.792-20.008-42.925-47.632-42.925h-20.597v85.883H279.162z M239.769,168.96h49.951c33.336,0,64.423,20.441,64.423,63.367
		c0,43.375-36.66,63.366-67.122,63.366h-47.251V168.96z M375.259,168.96h81.764v20.441h-59.298v33.232h55.872v20.441h-55.872v52.618
		h-22.466V168.96z"/>
</g>
<g id="Layer_1">
</g>
</svg>
