<?xml version="1.0" encoding="iso-8859-1"?>
<!-- Generator: Adobe Illustrator 19.2.1, SVG Export Plug-In . SVG Version: 6.00 Build 0)  -->
<svg version="1.1" xmlns="http://www.w3.org/2000/svg" xmlns:xlink="http://www.w3.org/1999/xlink" x="0px" y="0px"
	 viewBox="0 0 600 600" style="enable-background:new 0 0 600 600;" xml:space="preserve">
<g id="pdf">
	<path style="fill:#1C1B1A;" d="M549.567,201.9c-0.072-0.731-0.181-1.365-0.398-2.089c-0.687-2.704-1.881-5.298-3.907-7.306
		L407.576,54.73c-2.098-2.007-4.639-3.193-7.433-3.933c-0.687-0.128-1.265-0.291-1.954-0.398c-0.687-0.037-1.383-0.398-2.07-0.398
		h-223.65c-8.961,0-16.178,7.27-16.178,16.194v40.067H50v107.802h106.291v319.752c0,8.915,7.217,16.185,16.178,16.185h361.291
		c9.007,0,16.241-7.27,16.241-16.185v-329.87C550,203.239,549.711,202.587,549.567,201.9z M494.733,187.759h-82.474v-82.52
		L494.733,187.759z M188.672,517.646V214.063H355.98V106.261H188.672V82.326H379.88v121.619c0,8.943,7.215,16.157,16.167,16.157
		h121.618v297.544H188.672z M481.641,427.406c0.687-1.907,2.206-8.78,2.206-8.78s-2.206,3.407-4.467,4.611
		c-8.309,4.169-34.813-2.685-62.156-16.467c23.572-2.287,42.969-2.613,53.52,0.759c13.428,4.604,13.428,8.835,13.428,9.974
		c0-0.778,0.759-3.88,0.398-5c0-3.409-1.157-6.511-3.328-8.78c-5.235-4.928-17.207-7.217-34.098-7.615
		c-12.298,0-27.235,1.122-43.702,3.374c-7.18-4.531-15.37-9.124-21.393-15.263c-15.987-14.911-29.08-35.898-37.381-59.563
		c0.796-2.322,1.157-4.222,1.519-6.509c2.252-10.661,4.096-45.493,4.096-45.493s-6.781,26.422-7.469,30.246
		c-0.724,2.669-1.446,5.309-2.604,7.994c-4.865-17.967-7.478-35.554-7.478-48.504c0-3.806,0.37-11.113,1.491-16.872
		c0.435-3.752,1.846-6.076,3.374-7.215c3.046,0.776,6.346,5.361,9.72,13.354c2.965,6.928,2.965,14.55,2.965,19.496
		c0,0,3.048-12.226,2.289-19.124c-0.398-4.196-4.531-15.272-12.732-15.272h-0.435h-0.361h-3.698c-5.978,0-11.963,3.046-13.085,8.4
		c-5.226,19.087,0.326,49.307,10.037,86.769l-2.93,7.289c-7.478,18.293-16.465,36.602-24.73,52.652
		c-33.294,67.248-59.435,103.156-76.624,105.85l-0.361-0.796c-0.363-8.391,14.9-29.741,35.137-46.983
		c2.252-1.907,11.204-10.68,11.204-10.68s-11.926,6.53-14.974,8.048c-25.454,15.633-38.148,31.259-40.356,41.62
		c-0.769,3.456,0,6.856,2.604,8.791l6.385,3.019c17.948,9.187,39.631-14.846,68.82-66.848
		c29.848-9.893,66.506-19.504,100.187-24.433c30.356,17.589,65.132,25.998,78.217,22.552
		C477.454,431.211,480.139,429.322,481.641,427.406z M299.087,427.406c5.263-9.178,10.806-19.08,16.031-29.776
		c10.806-21.05,17.615-37.074,23.202-52.337c8.591,17.894,20.598,35.12,36.259,48.457c3.772,3.102,7.107,6.167,11.241,8.852
		C356.993,407.928,327.081,415.596,299.087,427.406z M480.456,443.863c0.787-0.417,1.185-0.778,1.185-1.556
		c0-0.759-0.398-1.122-0.822-1.546c-0.363-0.363-0.68-0.363-1.881-0.363h-2.206v6.493h1.048v-2.667h0.759
		c1.204,0,1.6,0.343,1.6,1.13c0.317,0.796,0.317,1.194,0.68,1.537h1.148c-0.326-0.343-0.326-0.741-0.326-1.537
		C481.243,444.567,480.819,443.863,480.456,443.863z M478.937,443.446h-1.157v-2.261h1.157c1.202,0,1.519,0.363,1.519,1.122
		C480.456,443.085,479.743,443.446,478.937,443.446z M478.937,437.352c-3.3,0-6.05,2.632-6.05,6.094c0,3.444,2.75,6.13,6.05,6.13
		c3.428,0,6.43-2.685,6.43-6.13C485.367,439.983,482.365,437.352,478.937,437.352z M478.937,448.437
		c-2.604,0-4.494-1.889-4.494-4.991c0-2.685,1.891-4.946,4.494-4.946c3.03,0,4.909,2.261,4.909,4.946
		C483.846,446.548,481.967,448.437,478.937,448.437z M137.294,155.794c6.772,0,15.37-0.38,15.37-9.359
		c0-8.137-7.648-9.269-14.069-9.269h-8.374v18.628H137.294z M118.396,127.057h22.233c12.869,0,24.396,4.513,24.396,19.198
		c0,16.646-12.433,19.63-26.43,19.63h-8.374v27.38h-11.826V127.057z M194.694,182.604c14.757,0,26.828-6.346,26.828-22.443
		c0-16.085-10.444-22.424-24.876-22.424h-10.769v44.867H194.694z M174.096,127.057H200.2c17.407,0,33.656,10.68,33.656,33.104
		c0,22.661-19.152,33.104-35.065,33.104h-24.694V127.057z M244.878,127.057h42.717v10.68h-30.97v17.361h29.189v10.68h-29.189v27.487
		h-11.746V127.057z"/>
</g>
<g id="Layer_1">
</g>
</svg>
