<?xml version="1.0" encoding="iso-8859-1"?>
<!-- Generator: Adobe Illustrator 19.2.1, SVG Export Plug-In . SVG Version: 6.00 Build 0)  -->
<svg version="1.1" xmlns="http://www.w3.org/2000/svg" xmlns:xlink="http://www.w3.org/1999/xlink" x="0px" y="0px"
	 viewBox="0 0 600 600" style="enable-background:new 0 0 600 600;" xml:space="preserve">
<g id="phone">
	<g id="phone_1_">
		<g>
			<path style="fill:#1C1B1A;" d="M501.022,440.709c-12.837-16.034-31.868-34.466-51.049-49.401
				c-16.434-12.787-28.971-21.878-40.659-27.572c-10.39-5.145-20.43-4.545-33.317,5.644c-15.984,12.438-25.375,20.629-29.72,28.422
				c-2.747,1.998-6.693,4.695-10.44,6.693c-0.1,0-5.694-0.749-18.332-15.834c-12.687-15.035-33.516-40.909-49.401-62.188
				c-15.335-20.779-34.266-48.352-45.255-65.235c-10.789-16.434-9.84-22.028-8.342-23.477c2.048-2.198,5.395-4.795,7.942-6.693
				c8.741-1.998,19.68-8.791,37.762-21.578c10.24-7.143,14.885-17.433,13.037-28.971c-2.148-12.937-7.193-27.473-14.585-46.853
				c-8.691-22.577-20.879-46.154-32.517-63.187C220.103,61.688,210.413,50,196.177,50c-2.847,0-5.145,0.5-5.594,0.699
				c-5.744,0.45-16.533,3.197-28.971,7.493c-15.185,5.195-22.278,13.287-28.022,19.78l-2.448,2.697
				c-7.343,8.142-24.525,32.817-34.565,49.7c-12.088,20.33-10.689,31.119-7.293,47.952c3.546,17.183,33.117,107.492,104.396,203.447
				c71.279,96.054,149.201,150.4,165.584,159.241c8.541,4.645,16.733,8.991,28.821,8.991c5.345,0,11.139-0.849,18.232-2.597
				c19.181-4.745,47.802-14.086,57.692-18.781l3.147-1.499c7.942-3.596,17.732-8.042,27.123-21.079
				c7.892-10.839,13.536-20.18,15.235-24.825C516.207,468.831,513.609,456.394,501.022,440.709z"/>
		</g>
	</g>
</g>
<g id="Layer_1">
</g>
</svg>
