<?xml version="1.0" encoding="iso-8859-1"?>
<!-- Generator: Adobe Illustrator 16.0.0, SVG Export Plug-In . SVG Version: 6.00 Build 0)  -->
<!DOCTYPE svg PUBLIC "-//W3C//DTD SVG 1.1//EN" "http://www.w3.org/Graphics/SVG/1.1/DTD/svg11.dtd">
<svg version="1.1" xmlns="http://www.w3.org/2000/svg" xmlns:xlink="http://www.w3.org/1999/xlink" x="0px" y="0px"
	 width="961.539px" height="1000px" viewBox="0 0 961.539 1000" style="enable-background:new 0 0 961.539 1000;"
	 xml:space="preserve">
<g id="KP_x5F_Piggybank_x5F_icon">
	<g>
		<path style="fill:#020202;" d="M427.447,251.723c0-12.658,10.646-20.564,22.333-22.611v45.428
			C437.919,269.305,427.447,266.894,427.447,251.723 M463.183,308.334c11.686,3.953,25.592,8.22,25.592,22.835
			c0,14.651-11.912,22.783-25.592,25.542V308.334z M414.6,338.366l-22.646,23.043c15.188,15.9,36.237,22.35,57.826,22.124v17.616
			h13.403v-17.894c31.539-3.242,56.854-21.587,56.854-54.322c0-34.003-28.038-42.933-55.867-50.389l-0.987-0.277V228.66
			c11.427,0,22.575,5.203,30.327,13.369l20.564-23.043c-12.658-11.236-31.75-17.148-48.621-17.148h-2.271v-16.352H449.78v16.577
			c-27.76,2.79-53.526,21.587-53.526,51.167c0,32.771,24.482,43.157,52.277,50.855l1.249,0.259v52.366
			C436.098,355.462,422.47,349.514,414.6,338.366"/>
		<path style="fill:#020202;" d="M894.664,573.672c-0.971,0.417-3.469,1.181-8.046,0.8c-4.576-7.456-7.491-16.195-8.669-26.027
			c-1.11-10.212,0.694-19.142,4.924-23.894c2.844-3.084,6.867-4.663,12.416-4.663c12.97,0,19.975,4.266,19.975,26.527
			C915.264,552.018,913.32,565.958,894.664,573.672 M653.495,454.537c-0.416-0.312-30.845-18.346-82.725-31.314
			c16.646-14.912,30.327-32.996,40.228-53.334c35.042,11.981,55.416,24.152,56.993,25.157L653.495,454.537z M260.489,454.796
			l-13.75-59.941c1.579-0.97,21.014-11.962,55.104-23.198c10.177,20.339,24.188,38.424,41.214,53.231
			C290.815,437.77,260.975,454.537,260.489,454.796 M455.987,156.53c76.482,0,138.625,62.143,138.625,138.504
			c0,53.716-30.724,100.237-75.527,123.265c-20.147-2.532-40.939-4.266-62.561-4.266c-21.934,0-42.983,1.733-63.408,4.369
			c-44.822-22.975-75.667-69.564-75.667-123.368C317.448,218.673,379.642,156.53,455.987,156.53 M948.415,604.729
			c-15.952,0-29.892-3.555-41.127-10.057c29.96-14.133,32.319-40.351,32.319-48.257c0-42.011-24.067-50.819-44.318-50.819
			c-12.484,0-23.096,4.438-30.519,12.796c-9.085,10.109-12.968,25.315-10.957,42.793c0.555,5.062,1.526,9.797,2.774,14.444
			c-4.925-2.238-10.613-5.099-16.783-8.514c-9.677-100.654-94.552-186.431-214.779-228.667c2.063-10.804,3.347-21.952,3.347-33.414
			c0-95-77.368-172.297-172.385-172.297c-94.966,0-172.333,77.297-172.333,172.297c0,11.565,1.214,22.906,3.398,33.83
			c-32.961,11.599-63.513,26.372-90.371,43.919l-96.371-68.473l26.72,129.089c-8.185,9.607-15.676,19.595-22.195,30.015
			c-1.091,0.192-2.445,1.248-4.265,4.197c-16.836,26.511-41.701,33.896-58.677,35.63H23.239c0,0-20.79,28.178-20.79,92.365
			c0,69.615,38.544,104.676,38.544,104.676h71.419c19.802,27.951,45.846,53.196,77.109,74.662v102.318h82.568l23.423-50.701
			c48.897,16.127,103.115,25.351,160.474,25.351c57.408,0,111.628-9.224,160.525-25.351l23.425,50.701h82.569V774.91
			c70.292-48.291,114.87-115.408,118.06-190.122c11.86,5.687,22.543,9.831,32.043,12.016c16.785,20.391,43.418,32.215,75.807,32.215
			c6.729,0,12.138-5.427,12.138-12.137C960.553,610.102,955.144,604.729,948.415,604.729"/>
	</g>
</g>
<g id="Layer_1">
</g>
</svg>
