<?xml version="1.0" encoding="iso-8859-1"?>
<!-- Generator: Adobe Illustrator 19.2.1, SVG Export Plug-In . SVG Version: 6.00 Build 0)  -->
<svg version="1.1" xmlns="http://www.w3.org/2000/svg" xmlns:xlink="http://www.w3.org/1999/xlink" x="0px" y="0px"
	 viewBox="0 0 600 600" style="enable-background:new 0 0 600 600;" xml:space="preserve">
<g id="piggybank">
	<g id="piggybank_1_">
		<g>
			<path style="fill:#020202;" d="M271.793,170.447c0-6.628,5.532-10.75,11.638-11.794v23.693
				C277.272,179.632,271.793,178.379,271.793,170.447 M290.476,199.984c6.106,2.087,13.36,4.279,13.36,11.899
				c0,7.671-6.21,11.899-13.36,13.308V199.984z M265.113,215.693l-11.794,12.003c7.932,8.298,18.892,11.69,30.164,11.533v9.185
				h6.993v-9.341c16.439-1.67,29.694-11.272,29.694-28.337c0-17.743-14.612-22.388-29.172-26.302l-0.522-0.157v-25.885
				c5.949,0,11.794,2.714,15.812,6.993l10.75-12.003c-6.628-5.845-16.595-8.924-25.363-8.924h-1.2v-8.559h-6.993v8.663
				c-14.508,1.461-27.92,11.272-27.92,26.719c0,17.117,12.786,22.545,27.294,26.563l0.626,0.157v27.346
				C276.333,224.617,269.236,221.485,265.113,215.693"/>
			<path style="fill:#020202;" d="M515.661,338.488c-0.522,0.209-1.827,0.626-4.175,0.417c-2.401-3.914-3.914-8.454-4.54-13.569
				c-0.574-5.323,0.365-9.968,2.557-12.473c1.461-1.618,3.601-2.453,6.471-2.453c6.784,0,10.437,2.244,10.437,13.829
				C526.411,327.163,525.367,334.469,515.661,338.488 M389.787,276.281c-0.209-0.157-16.073-9.55-43.158-16.334
				c8.663-7.776,15.813-17.222,20.979-27.815c18.265,6.262,28.911,12.629,29.746,13.151L389.787,276.281z M184.693,276.438
				l-7.202-31.26c0.835-0.522,10.959-6.262,28.755-12.107c5.323,10.594,12.629,20.04,21.501,27.763
				C200.506,267.566,184.954,276.281,184.693,276.438 M286.718,120.765c39.923,0,72.331,32.408,72.331,72.278
				c0,28.024-16.021,52.291-39.401,64.346c-10.49-1.305-21.344-2.244-32.669-2.244c-11.429,0-22.44,0.887-33.086,2.296
				c-23.38-12.003-39.505-36.322-39.505-64.398C214.388,153.225,246.848,120.765,286.718,120.765 M543.685,354.665
				c-8.35,0-15.604-1.879-21.449-5.271c15.656-7.358,16.856-21.083,16.856-25.206c0-21.918-12.577-26.511-23.119-26.511
				c-6.523,0-12.055,2.296-15.917,6.68c-4.749,5.271-6.784,13.203-5.741,22.336c0.313,2.661,0.783,5.114,1.461,7.515
				c-2.557-1.148-5.532-2.661-8.767-4.436c-5.062-52.552-49.368-97.276-112.097-119.351c1.096-5.636,1.722-11.481,1.722-17.43
				c0-49.577-40.392-89.917-89.97-89.917s-89.917,40.34-89.917,89.917c0,6.054,0.626,11.951,1.774,17.639
				c-17.222,6.054-33.138,13.777-47.177,22.91l-50.308-35.748l13.986,67.477c-4.279,5.01-8.193,10.229-11.585,15.656
				c-0.574,0.104-1.252,0.626-2.244,2.192c-8.767,13.829-21.762,17.691-30.634,18.578h-9.707c0,0-10.855,14.717-10.855,48.22
				c0,36.322,20.144,54.639,20.144,54.639h37.261c10.333,14.612,23.901,27.763,40.236,38.983v53.387h43.106l12.212-26.459
				c25.519,8.402,53.804,13.255,83.759,13.255s58.24-4.801,83.759-13.255l12.212,26.459h43.106v-53.439
				c36.687-25.206,59.962-60.223,61.632-99.207c6.21,2.975,11.742,5.114,16.7,6.262c8.767,10.646,22.649,16.804,39.557,16.804
				c3.497,0,6.315-2.818,6.315-6.315C550.052,357.483,547.181,354.665,543.685,354.665"/>
		</g>
	</g>
</g>
<g id="Layer_1">
</g>
</svg>
