<svg id="Layer_1" data-name="Layer 1" xmlns="http://www.w3.org/2000/svg" viewBox="0 0 27 27">
  <defs>
    <style>
      .cls-1 {
        fill: #1c1b1a;
      }
    </style>
  </defs>
  <title>pills</title>
  <path class="cls-1" d="M33.82,18.88A5.36,5.36,0,0,0,32.08,15a5.82,5.82,0,0,0-8,.14l-9,9a5.37,5.37,0,0,0,.14,7.77,5.82,5.82,0,0,0,8-.14l9-9A5.38,5.38,0,0,0,33.82,18.88ZM31,21.59l-4.23,4.24L21.11,20.6l4.22-4.22a4,4,0,0,1,5.53-.1A3.66,3.66,0,0,1,31,21.59ZM40.5,34.71a5.79,5.79,0,0,1-5.79,5.79,5.73,5.73,0,0,1-3.42-1.14l8.08-8.08A5.74,5.74,0,0,1,40.5,34.71ZM38.13,30L30,38.13A5.77,5.77,0,0,1,38.13,30Z" transform="translate(-13.5 -13.5)"/>
</svg>
