<?xml version="1.0" encoding="iso-8859-1"?>
<!-- Generator: Adobe Illustrator 19.2.1, SVG Export Plug-In . SVG Version: 6.00 Build 0)  -->
<svg version="1.1" xmlns="http://www.w3.org/2000/svg" xmlns:xlink="http://www.w3.org/1999/xlink" x="0px" y="0px"
	 viewBox="0 0 600 600" style="enable-background:new 0 0 600 600;" xml:space="preserve">
<g id="pills">
	<path id="pills_1_" style="fill:#1C1B1A;" d="M426.266,149.681c-0.526-27.245-11.9-52.572-32.119-71.352
		c-20.146-18.763-46.676-28.819-74.726-28.311c-28.085,0.496-54.198,11.502-73.695,30.978L79.566,247.302
		c-19.513,19.513-30.039,45.302-29.55,72.51c0.487,27.254,11.917,52.617,32.119,71.452c20.163,18.745,46.676,28.819,74.743,28.311
		c28.085-0.496,54.198-11.519,73.676-30.978l166.179-166.316C416.264,202.714,426.753,176.925,426.266,149.681z M373.349,199.857
		l-78.341,78.487l-104.023-96.843l78.143-78.117c13.4-13.446,31.413-21.059,50.817-21.402c19.443-0.354,37.743,6.609,51.65,19.567
		c13.87,12.857,21.648,30.183,21.991,48.793C393.912,168.896,386.751,186.51,373.349,199.857z M550,442.688
		c0,59.282-48.032,107.313-107.295,107.313c-23.782,0-45.547-7.957-63.324-21.087L528.95,379.372
		C542.043,397.169,550,418.906,550,442.688z M506.018,356.415L356.423,506.019c-13.048-17.832-21.033-39.569-21.033-63.332
		c0-59.263,48.059-107.306,107.315-107.306C466.503,335.382,488.224,343.348,506.018,356.415z"/>
</g>
<g id="Layer_1">
</g>
</svg>
