<?xml version="1.0" encoding="iso-8859-1"?>
<!-- Generator: Adobe Illustrator 19.2.1, SVG Export Plug-In . SVG Version: 6.00 Build 0)  -->
<svg version="1.1" xmlns="http://www.w3.org/2000/svg" xmlns:xlink="http://www.w3.org/1999/xlink" x="0px" y="0px"
	 viewBox="0 0 600 600" style="enable-background:new 0 0 600 600;" xml:space="preserve">
<g id="pinintrest">
	<g>
		<g>
			<defs>
				<rect id="SVGID_1_" x="105" y="50.24" width="389.76" height="499.68"/>
			</defs>
			<clipPath id="SVGID_2_">
				<use xlink:href="#SVGID_1_"  style="overflow:visible;"/>
			</clipPath>
			<path style="clip-path:url(#SVGID_2_);" d="M444.336,102.758c-34.148-32.782-81.406-50.836-133.062-50.836
				c-78.914,0-127.446,32.344-154.266,59.484C123.954,144.844,105,189.242,105,233.226c0,55.22,23.094,97.602,61.782,113.376
				c2.594,1.062,5.202,1.594,7.764,1.594c8.164,0,14.626-5.336,16.868-13.9c1.304-4.914,4.328-17.038,5.648-22.296
				c2.814-10.398,0.54-15.39-5.602-22.632c-11.186-13.236-16.398-28.892-16.398-49.258c0-60.508,45.056-124.822,128.562-124.822
				c66.258,0,107.422,37.666,107.422,98.282c0,38.258-8.242,73.68-23.202,99.758c-10.406,18.126-28.696,39.726-56.766,39.726
				c-12.14,0-23.046-4.992-29.93-13.686c-6.5-8.22-8.64-18.836-6.03-29.9c2.952-12.5,6.984-25.546,10.882-38.156
				c7.11-23.024,13.828-44.774,13.828-62.124c0-29.68-18.25-49.626-45.398-49.626c-34.508,0-61.548,35.056-61.548,79.798
				c0,21.944,5.836,38.358,8.47,44.656c-4.344,18.422-30.18,127.93-35.078,148.578c-2.836,12.054-19.906,107.258,8.344,114.852
				c31.75,8.53,60.124-84.196,63.014-94.672c2.336-8.524,10.532-40.742,15.548-60.556c15.328,14.766,40,24.742,64.008,24.742
				c45.266,0,85.968-20.366,114.624-57.35c27.782-35.868,43.086-85.86,43.086-140.766
				C494.898,175.922,476.468,133.61,444.336,102.758L444.336,102.758z M444.336,102.758"/>
		</g>
	</g>
</g>
<g id="Layer_1">
</g>
</svg>
