<?xml version="1.0" encoding="iso-8859-1"?>
<!-- Generator: Adobe Illustrator 16.0.0, SVG Export Plug-In . SVG Version: 6.00 Build 0)  -->
<!DOCTYPE svg PUBLIC "-//W3C//DTD SVG 1.1//EN" "http://www.w3.org/Graphics/SVG/1.1/DTD/svg11.dtd">
<svg version="1.1" xmlns="http://www.w3.org/2000/svg" xmlns:xlink="http://www.w3.org/1999/xlink" x="0px" y="0px"
	 width="961.539px" height="1000px" viewBox="0 0 961.539 1000" style="enable-background:new 0 0 961.539 1000;"
	 xml:space="preserve">
<g id="KP_x5F_Play_x5F_Video_x5F_icon">
	<g>
		<path style="fill:#1C1B1A;" d="M480.77,752.212c-139.24,0-252.142-112.901-252.142-252.143
			c0-139.309,112.901-252.245,252.142-252.245c139.311,0,252.142,112.937,252.142,252.245
			C732.911,639.311,620.08,752.212,480.77,752.212 M31.024,154c-16.853,0-30.631,13.795-30.631,30.65v630.702
			C0.394,832.207,14.171,846,31.024,846h899.507c16.853,0,30.614-13.793,30.614-30.648V184.65c0-16.854-13.762-30.65-30.614-30.65
			H31.024z"/>
		<path style="fill:#1C1B1A;" d="M384.062,631.285c0,13.482,9.591,19.181,21.405,12.405l227.242-131.249
			c11.748-6.88,11.748-17.967,0-24.811l-227.242-131.25c-11.814-6.776-21.405-1.111-21.405,12.406V631.285z"/>
	</g>
</g>
<g id="Layer_1">
</g>
</svg>
