<?xml version="1.0" encoding="iso-8859-1"?>
<!-- Generator: Adobe Illustrator 19.2.1, SVG Export Plug-In . SVG Version: 6.00 Build 0)  -->
<svg version="1.1" xmlns="http://www.w3.org/2000/svg" xmlns:xlink="http://www.w3.org/1999/xlink" x="0px" y="0px"
	 viewBox="0 0 600 600" style="enable-background:new 0 0 600 600;" xml:space="preserve">
<g id="play-video">
	<g id="play-video_1_">
		<g>
			<path style="fill:#1C1B1A;" d="M300.026,431.258c-72.447,0-131.206-58.759-131.206-131.206
				c0-72.499,58.759-131.258,131.206-131.258c72.499,0,131.206,58.759,131.206,131.258
				C431.232,372.499,372.525,431.258,300.026,431.258 M65.926,119.923c-8.796,0-15.926,7.182-15.926,15.926v328.25
				c0,8.796,7.182,15.978,15.926,15.978h468.148c8.796,0,15.926-7.182,15.926-15.926V135.849c0-8.796-7.182-15.926-15.926-15.926
				H65.926z"/>
			<path style="fill:#1C1B1A;" d="M249.698,368.336c0,7.026,4.996,9.993,11.138,6.454l118.247-68.284
				c6.089-3.591,6.089-9.368,0-12.907l-118.247-68.336c-6.141-3.539-11.138-0.572-11.138,6.454V368.336L249.698,368.336z"/>
		</g>
	</g>
</g>
<g id="Layer_1">
</g>
</svg>
