<?xml version="1.0" encoding="iso-8859-1"?>
<!-- Generator: Adobe Illustrator 19.2.1, SVG Export Plug-In . SVG Version: 6.00 Build 0)  -->
<svg version="1.1" xmlns="http://www.w3.org/2000/svg" xmlns:xlink="http://www.w3.org/1999/xlink" x="0px" y="0px"
	 viewBox="0 0 600 600" style="enable-background:new 0 0 600 600;" xml:space="preserve">
<g id="preferences">
	<g id="preferences_1_">
		<g>
			<g>
				<path style="fill:#020202;" d="M472.147,502.866c13.288-7.608,23.867-18.656,30.954-31.735l39.031,2.658L550,427.723
					l-37.989-10.266c-2.762-15.633-9.849-30.12-20.688-41.688l14.591-36.373l-41.272-21.626l-21.574,32.882
					c-16.05-2.241-31.892,0.261-45.857,6.879l-30.172-25.326l-33.351,32.725l24.388,30.328c-2.293,4.638-4.221,9.536-5.628,14.747
					c-2.866,10.526-3.439,21.261-2.137,31.579l-33.038,20.636l20.74,41.845l36.425-13.809c7.348,7.139,16.102,13.08,26.107,17.196
					c3.075,1.251,6.253,2.345,9.432,3.179c2.032,0.521,3.96,0.625,5.941,1.042l9.536,38.041l46.17-6.774l-1.876-39.083
					C470.584,503.439,471.365,503.231,472.147,502.866L472.147,502.866z M391.271,420.532c6.045-22.199,29.078-35.279,51.329-29.39
					c1.563,0.469,3.179,0.99,4.742,1.563c19.594,8.025,30.12,29.39,24.544,49.713c-2.918,10.839-9.901,19.802-19.646,25.378
					c-9.64,5.472-20.792,6.879-31.631,3.96C398.046,465.607,385.227,442.574,391.271,420.532L391.271,420.532z"/>
			</g>
			<g>
				<path style="fill:#020202;" d="M328.895,300.469l46.691,13.757l20.115-49.401l-42.991-22.668
					c1.928-13.08,1.876-26.316-0.261-39.343l42.783-23.241l-20.688-49.088l-46.482,14.278
					c-7.921-10.578-17.301-19.906-27.983-27.671l13.861-46.639l-49.401-20.167l-22.72,43.095c-13.08-1.98-26.212-1.876-39.291,0.156
					l-23.189-42.731l-49.297,20.74l14.435,46.43c-10.578,7.921-19.854,17.301-27.619,27.931L70.167,132.1L50,181.501l43.043,22.72
					c-1.876,13.028-1.824,26.212,0.261,39.239l-42.835,23.241l20.688,49.192l46.483-14.33c7.921,10.578,17.249,19.854,27.931,27.619
					l-13.861,46.639l49.505,20.219l22.668-43.043c13.08,1.928,26.316,1.876,39.291-0.261l23.189,42.783l49.192-20.688l-14.33-46.483
					C311.855,320.532,321.131,311.1,328.895,300.469L328.895,300.469z M195.336,290.672c-17.978-7.4-32.048-21.313-39.656-39.291
					c-7.556-17.874-7.66-37.728-0.313-55.706c7.348-18.03,21.261-32.1,39.291-39.656c17.926-7.504,37.728-7.608,55.706-0.261
					s32.1,21.261,39.604,39.187c7.608,17.978,7.66,37.728,0.365,55.706c-7.4,18.03-21.261,32.1-39.187,39.656
					C233.168,297.916,213.366,297.968,195.336,290.672L195.336,290.672z"/>
			</g>
		</g>
	</g>
</g>
<g id="Layer_1">
</g>
</svg>
