<?xml version="1.0" encoding="iso-8859-1"?>
<!-- Generator: Adobe Illustrator 19.2.1, SVG Export Plug-In . SVG Version: 6.00 Build 0)  -->
<svg version="1.1" xmlns="http://www.w3.org/2000/svg" xmlns:xlink="http://www.w3.org/1999/xlink" x="0px" y="0px"
	 viewBox="0 0 600 600" style="enable-background:new 0 0 600 600;" xml:space="preserve">
<g id="prescription">
	<g id="prescription_1_">
		<polygon style="fill:#1C1B1A;" points="378.775,159.049 390.881,146.924 390.881,50 209.1,50 209.1,146.924 221.19,159.049 		"/>
		<path style="fill:#1C1B1A;" d="M349.965,177.617h-99.948c-46.435,0-84.184,37.74-84.184,84.14L166.103,550h267.776l0.289-288.243
			C434.168,215.357,396.383,177.617,349.965,177.617z M412.435,528.339H187.547V261.757c0-34.456,27.997-62.47,62.47-62.47h99.948
			c34.456,0,62.47,28.013,62.47,62.47V528.339z"/>
		<path style="fill:#1C1B1A;" d="M315.166,322.218c-4.362-5.257-10.787-8.27-17.627-8.27c-5.229,0-10.351,1.792-14.406,5.122
			c-9.681,7.963-11.093,22.276-3.148,31.958l66.252,80.991c4.344,5.292,10.75,8.315,17.627,8.315c5.211,0,10.314-1.79,14.35-5.12
			c9.699-7.928,11.148-22.287,3.221-32.005L315.166,322.218z"/>
		<path style="fill:#1C1B1A;" d="M246.994,322.616l83.263-63.357c5.43-4.153,8.687-10.459,8.923-17.291
			c0.18-5.248-1.431-10.414-4.633-14.576c-7.583-9.934-21.879-11.908-31.814-4.288l-83.282,63.346
			c-5.428,4.162-8.704,10.461-8.976,17.291c-0.161,5.257,1.503,10.379,4.651,14.578
			C222.709,328.262,237.006,330.225,246.994,322.616z"/>
		<path style="fill:#1C1B1A;" d="M346.852,451.808l-104.127-10.424c-6.805-0.662-13.5,1.755-18.314,6.569
			c-3.728,3.717-6.045,8.622-6.569,13.833c-1.212,12.432,7.89,23.59,20.377,24.82l104.129,10.424
			c6.786,0.688,13.481-1.72,18.312-6.569c3.71-3.673,6.026-8.578,6.534-13.744C368.459,464.241,359.303,453.029,346.852,451.808z"/>
	</g>
</g>
<g id="Layer_1">
</g>
</svg>
