<svg id="Layer_1" data-name="Layer 1" xmlns="http://www.w3.org/2000/svg" viewBox="0 0 14.48 26.98">
  <defs>
    <style>
      .cls-1 {
        fill: #1c1b1a;
      }
    </style>
  </defs>
  <title>prescription-bottle</title>
  <g>
    <polygon class="cls-1" points="11.49 5.88 12.14 5.23 12.14 0 2.33 0 2.33 5.23 2.99 5.88 11.49 5.88"/>
    <path class="cls-1" d="M29.7,20.4H24.3a4.55,4.55,0,0,0-4.54,4.54V40.5H34.22l0-15.55A4.55,4.55,0,0,0,29.7,20.4Zm3.37,18.93H20.93V24.95a3.37,3.37,0,0,1,3.37-3.37H29.7a3.37,3.37,0,0,1,3.37,3.37V39.33Z" transform="translate(-19.76 -13.52)"/>
    <path class="cls-1" d="M27.82,28.21a1.23,1.23,0,0,0-1.9,1.55l3.58,4.37a1.23,1.23,0,0,0,1.9-1.55Z" transform="translate(-19.76 -13.52)"/>
    <path class="cls-1" d="M24.14,28.23l4.49-3.42a1.23,1.23,0,0,0-1.49-2l-4.49,3.42a1.23,1.23,0,0,0-.48.93,1.25,1.25,0,0,0,.25.79A1.23,1.23,0,0,0,24.14,28.23Z" transform="translate(-19.76 -13.52)"/>
    <path class="cls-1" d="M29.53,35.2l-5.62-.56a1.23,1.23,0,1,0-.24,2.44l5.62,0.56A1.23,1.23,0,0,0,29.53,35.2Z" transform="translate(-19.76 -13.52)"/>
  </g>
</svg>
