<?xml version="1.0" encoding="iso-8859-1"?>
<!-- Generator: Adobe Illustrator 16.0.0, SVG Export Plug-In . SVG Version: 6.00 Build 0)  -->
<!DOCTYPE svg PUBLIC "-//W3C//DTD SVG 1.1//EN" "http://www.w3.org/Graphics/SVG/1.1/DTD/svg11.dtd">
<svg version="1.1" xmlns="http://www.w3.org/2000/svg" xmlns:xlink="http://www.w3.org/1999/xlink" x="0px" y="0px"
	 width="961.539px" height="1000px" viewBox="0 0 961.539 1000" style="enable-background:new 0 0 961.539 1000;"
	 xml:space="preserve">
<g id="KP_x5F_Print_x5F_icon">
	<g>
		<path style="fill:#1C1B1A;" d="M930.219,274.824H753.578V50.69c0-17.012-13.68-30.62-30.621-30.62H238.652
			c-16.907,0-30.551,13.608-30.551,30.62v224.134H31.461c-16.907,0-30.621,13.678-30.621,30.655v389.11
			c0,16.873,13.714,30.585,30.621,30.585h176.641v224.101c0,16.873,13.644,30.655,30.551,30.655h484.305
			c16.941,0,30.621-13.782,30.621-30.655V725.174h176.641c16.873,0,30.48-13.712,30.48-30.585v-389.11
			C960.699,288.502,947.092,274.824,930.219,274.824z M269.343,81.311h423.062v327.903H269.343V81.311z M107.004,404.354
			c-21.663,0-39.089-17.394-39.089-38.987c0-21.595,17.426-38.954,39.089-38.954c21.422,0,38.953,17.359,38.953,38.954
			C145.957,386.961,128.426,404.354,107.004,404.354z M692.405,918.723H269.343V590.715h423.062V918.723z"/>
		<path style="fill:#1C1B1A;" d="M329.37,668.97h302.905c6.874,0,12.569-5.66,12.569-12.5c0-6.944-5.695-12.533-12.569-12.533
			H329.37c-6.876,0-12.501,5.589-12.501,12.533C316.869,663.31,322.494,668.97,329.37,668.97z"/>
		<path style="fill:#1C1B1A;" d="M329.37,736.598h302.905c6.874,0,12.569-5.589,12.569-12.499c0-6.943-5.695-12.532-12.569-12.532
			H329.37c-6.876,0-12.501,5.589-12.501,12.532C316.869,731.009,322.494,736.598,329.37,736.598z"/>
		<path style="fill:#1C1B1A;" d="M329.37,871.854h302.905c6.874,0,12.569-5.552,12.569-12.496c0-6.909-5.695-12.499-12.569-12.499
			H329.37c-6.876,0-12.501,5.59-12.501,12.499C316.869,866.303,322.494,871.854,329.37,871.854z"/>
		<path style="fill:#1C1B1A;" d="M329.37,804.226h302.905c6.874,0,12.569-5.483,12.569-12.495c0-6.876-5.695-12.501-12.569-12.501
			H329.37c-6.876,0-12.501,5.625-12.501,12.501C316.869,798.742,322.494,804.226,329.37,804.226z"/>
	</g>
</g>
<g id="Layer_1">
</g>
</svg>
