<?xml version="1.0" encoding="iso-8859-1"?>
<!-- Generator: Adobe Illustrator 19.2.1, SVG Export Plug-In . SVG Version: 6.00 Build 0)  -->
<svg version="1.1" xmlns="http://www.w3.org/2000/svg" xmlns:xlink="http://www.w3.org/1999/xlink" x="0px" y="0px"
	 viewBox="0 0 600 600" style="enable-background:new 0 0 600 600;" xml:space="preserve">
<g id="print">
	<g id="print_1_">
		<g>
			<path style="fill:#1C1B1A;" d="M534.111,182.658h-91.998V65.915c0-8.856-7.137-15.941-15.941-15.941H173.88
				c-8.804,0-15.941,7.085-15.941,15.941v116.743H65.941c-8.804,0-15.941,7.137-15.941,15.993v202.698
				c0,8.804,7.137,15.941,15.941,15.941h91.998v116.743c0,8.804,7.085,15.993,15.941,15.993h252.292
				c8.804,0,15.941-7.189,15.941-15.993V417.29h91.998c8.804,0,15.889-7.137,15.889-15.941V198.651
				C550,189.795,542.915,182.658,534.111,182.658z M189.821,81.856h220.411v170.817H189.821V81.856z M105.272,250.172
				c-11.304,0-20.369-9.064-20.369-20.317c0-11.252,9.064-20.317,20.369-20.317c11.148,0,20.317,9.064,20.317,20.317
				C125.589,241.107,116.42,250.172,105.272,250.172z M410.231,518.092H189.821V347.223h220.411V518.092z"/>
			<path style="fill:#1C1B1A;" d="M221.129,388.013h157.793c3.595,0,6.564-2.969,6.564-6.512c0-3.595-2.969-6.512-6.564-6.512
				H221.129c-3.594,0-6.512,2.917-6.512,6.512C214.618,385.044,217.535,388.013,221.129,388.013z"/>
			<path style="fill:#1C1B1A;" d="M221.129,423.229h157.793c3.595,0,6.564-2.917,6.564-6.512s-2.969-6.512-6.564-6.512H221.129
				c-3.594,0-6.512,2.917-6.512,6.512S217.535,423.229,221.129,423.229z"/>
			<path style="fill:#1C1B1A;" d="M221.129,493.712h157.793c3.595,0,6.564-2.917,6.564-6.512s-2.969-6.512-6.564-6.512H221.129
				c-3.594,0-6.512,2.917-6.512,6.512C214.618,490.795,217.535,493.712,221.129,493.712z"/>
			<path style="fill:#1C1B1A;" d="M221.129,458.444h157.793c3.595,0,6.564-2.865,6.564-6.512c0-3.594-2.969-6.512-6.564-6.512
				H221.129c-3.594,0-6.512,2.917-6.512,6.512C214.618,455.579,217.535,458.444,221.129,458.444z"/>
		</g>
	</g>
</g>
<g id="Layer_1">
</g>
</svg>
