<?xml version="1.0" encoding="iso-8859-1"?>
<!-- Generator: Adobe Illustrator 16.0.0, SVG Export Plug-In . SVG Version: 6.00 Build 0)  -->
<!DOCTYPE svg PUBLIC "-//W3C//DTD SVG 1.1//EN" "http://www.w3.org/Graphics/SVG/1.1/DTD/svg11.dtd">
<svg version="1.1" xmlns="http://www.w3.org/2000/svg" xmlns:xlink="http://www.w3.org/1999/xlink" x="0px" y="0px"
	 width="961.539px" height="1000px" viewBox="0 0 961.539 1000" style="enable-background:new 0 0 961.539 1000;"
	 xml:space="preserve">
<g id="KP_x5F_Questions_x5F_icon">
	<g>
		<path style="fill:#1C1B1A;" d="M351.85,632.326c0-56.379,14.054-92.929,49.271-126.721
			c104.15-99.948,180.102-146.368,180.102-211.116c0-61.934-43.586-98.522-101.336-98.522c-87.246,0-133.611,56.361-139.331,125.223
			L123.83,307.1C143.494,108.775,280.047,1.703,475.737,1.703c171.695,0,316.619,95.725,316.619,277.344
			c0,106.912-40.863,171.66-174.492,277.199c-43.623,33.791-54.917,66.103-54.917,97.188v40.719H351.85V632.326L351.85,632.326z
			 M457.425,740.319c71.803,0,129.481,57.749,129.481,129.553c0,71.729-57.678,129.425-129.481,129.425
			c-71.821,0-129.462-57.695-129.462-129.425C327.963,798.068,385.604,740.319,457.425,740.319L457.425,740.319z"/>
	</g>
</g>
<g id="Layer_1">
</g>
</svg>
