<?xml version="1.0" encoding="iso-8859-1"?>
<!-- Generator: Adobe Illustrator 19.2.1, SVG Export Plug-In . SVG Version: 6.00 Build 0)  -->
<svg version="1.1" xmlns="http://www.w3.org/2000/svg" xmlns:xlink="http://www.w3.org/1999/xlink" x="0px" y="0px"
	 viewBox="0 0 600 600" style="enable-background:new 0 0 600 600;" xml:space="preserve">
<g id="questionnaire">
	<g>
		<path style="fill:#231F20;" d="M202.236,118.942h195.509c10.421,0,18.912-8.448,18.912-18.883
			c0-10.415-8.491-18.883-18.912-18.883H346.96c0-0.05,0.01-0.084,0.01-0.134C346.97,63.914,333.05,50,315.917,50h-31.853
			c-17.133,0-31.032,13.914-31.032,31.042c0,0.05,0.009,0.084,0.009,0.134h-50.804c-10.41,0-18.913,8.467-18.913,18.883
			C183.323,110.494,191.826,118.942,202.236,118.942z M286.298,67.44c3.499-3.515,8.333-5.695,13.683-5.695
			c5.348,0,10.203,2.175,13.702,5.68c3.519,3.51,5.714,8.374,5.714,13.752c0,9.225-6.456,16.91-15.076,18.883h-8.66
			c-8.621-1.972-15.077-9.658-15.077-18.883C280.584,75.813,282.769,70.95,286.298,67.44z"/>
		<path style="fill:#231F20;" d="M447.691,100.059h-17.43c0,17.939-14.592,32.54-32.516,32.54H202.236
			c-17.924,0-32.526-14.601-32.526-32.54h-17.419c-22.6,0-40.9,18.328-40.9,40.914v368.132c0,22.586,18.3,40.895,40.9,40.895h295.4
			c22.59,0,40.918-18.31,40.918-40.895V140.973C488.609,118.387,470.281,100.059,447.691,100.059z M190.679,501.987h-34.671v-34.721
			h34.671V501.987z M190.679,444.597h-34.671v-34.685h34.671V444.597z M190.679,387.228h-34.671v-34.72h34.671V387.228z
			 M259.906,220.931l28.12,22.613l46.873-65.53l41.235,5.89l-66.05,86.519l-16.906,21.005l-54.634-43.921L259.906,220.931z
			 M446.553,501.987H214.268v-34.721h232.285V501.987z M446.553,444.597H214.268v-34.685h232.285V444.597z M446.553,387.228H214.268
			v-34.72h232.285V387.228z"/>
	</g>
</g>
<g id="Layer_1">
</g>
</svg>
