<?xml version="1.0" encoding="iso-8859-1"?>
<!-- Generator: Adobe Illustrator 19.2.1, SVG Export Plug-In . SVG Version: 6.00 Build 0)  -->
<svg version="1.1" xmlns="http://www.w3.org/2000/svg" xmlns:xlink="http://www.w3.org/1999/xlink" x="0px" y="0px"
	 viewBox="0 0 600 600" style="enable-background:new 0 0 600 600;" xml:space="preserve">
<g id="questions">
	<g id="questions_1_">
		<g>
			<path style="fill:#1C1B1A;" d="M246.747,366.059c0-28.268,7.067-46.562,24.709-63.502c52.175-50.07,90.267-73.376,90.267-105.804
				c0-31.024-21.852-49.368-50.772-49.368c-43.705,0-66.961,28.268-69.818,62.751l-108.611-7.067
				C142.297,103.679,210.711,50,308.796,50c86.057,0,158.681,47.965,158.681,138.984c0,53.579-20.499,86.057-87.46,138.933
				c-21.852,16.941-27.516,33.129-27.516,48.717v20.399H246.747V366.059L246.747,366.059z M299.624,420.188
				c35.986,0,64.906,28.919,64.906,64.956c0,35.936-28.919,64.856-64.906,64.856s-64.906-28.919-64.906-64.856
				C234.768,449.158,263.638,420.188,299.624,420.188L299.624,420.188z"/>
		</g>
	</g>
</g>
<g id="Layer_1">
</g>
</svg>
