<?xml version="1.0" encoding="iso-8859-1"?>
<!-- Generator: Adobe Illustrator 16.0.0, SVG Export Plug-In . SVG Version: 6.00 Build 0)  -->
<!DOCTYPE svg PUBLIC "-//W3C//DTD SVG 1.1//EN" "http://www.w3.org/Graphics/SVG/1.1/DTD/svg11.dtd">
<svg version="1.1" xmlns="http://www.w3.org/2000/svg" xmlns:xlink="http://www.w3.org/1999/xlink" x="0px" y="0px"
	 width="961.539px" height="1000px" viewBox="0 0 961.539 1000" style="enable-background:new 0 0 961.539 1000;"
	 xml:space="preserve">
<g id="KP_x5F_Refresh_x5F_icon">
	<path style="fill:#1C1B1A;" d="M804.088,639.815c-35.473,143.713-165.093,250.719-319.56,250.719
		c-181.68,0-329.474-147.81-329.474-329.523c0-181.664,147.793-329.426,329.474-329.426v-0.21h1.166v172.124l331.742-199.045
		L485.694,5.408v122.28h-1.166v-0.161c-1.296,0-2.56,0.161-3.855,0.161h-4.438v0.227c-235.2,4.471-425.24,196.891-425.24,433.095
		c0,239.104,194.478,433.581,433.533,433.581c212.102,0,388.793-153.235,426.016-354.776H804.088z"/>
</g>
<g id="Layer_1">
</g>
</svg>
