<?xml version="1.0" encoding="iso-8859-1"?>
<!-- Generator: Adobe Illustrator 19.2.1, SVG Export Plug-In . SVG Version: 6.00 Build 0)  -->
<svg version="1.1" xmlns="http://www.w3.org/2000/svg" xmlns:xlink="http://www.w3.org/1999/xlink" x="0px" y="0px"
	 viewBox="0 0 600 600" style="enable-background:new 0 0 600 600;" xml:space="preserve">
<g id="routine-care">
	<g id="routine-care_1_">
		<path style="fill:#07080D;" d="M520.775,117.256h-73.604V99.923C447.171,72.37,424.783,50,397.276,50
			c-27.525,0-49.931,22.37-49.931,49.923v17.333h-94.69V99.923C252.655,72.37,230.248,50,202.759,50
			c-27.506,0-49.895,22.37-49.895,49.923v17.333h-73.64C63.129,117.256,50,130.376,50,146.507v374.232
			C50,536.871,63.129,550,79.224,550h441.551C536.906,550,550,536.871,550,520.739V146.507
			C550,130.376,536.906,117.256,520.775,117.256z M379.21,99.923c0-9.983,8.102-18.104,18.067-18.104s18.066,8.121,18.066,18.104
			v66.486c0,9.975-8.101,18.104-18.066,18.104s-18.067-8.129-18.067-18.104V99.923z M184.729,99.923
			c0-9.983,8.084-18.104,18.03-18.104c9.946,0,18.049,8.121,18.049,18.104v66.486c0,9.975-8.102,18.104-18.049,18.104
			c-9.947,0-18.03-8.129-18.03-18.104V99.923z M518.189,518.153H81.846V223.62h436.343V518.153z"/>
		<polygon style="fill:#07080D;" points="260.174,460.343 339.826,460.343 339.826,406.863 393.305,406.863 393.305,327.26 
			339.826,327.26 339.826,273.733 260.174,273.733 260.174,327.26 206.695,327.26 206.695,406.863 260.174,406.863 		"/>
	</g>
</g>
<g id="Layer_1">
</g>
</svg>
