<?xml version="1.0" encoding="iso-8859-1"?>
<!-- Generator: Adobe Illustrator 19.2.1, SVG Export Plug-In . SVG Version: 6.00 Build 0)  -->
<svg version="1.1" xmlns="http://www.w3.org/2000/svg" xmlns:xlink="http://www.w3.org/1999/xlink" x="0px" y="0px"
	 viewBox="0 0 600 600" style="enable-background:new 0 0 600 600;" xml:space="preserve">
<g id="ruler">
	<path id="ruler_1_" d="M547.322,177.784L422.161,52.623c-3.428-3.428-9.498-3.428-12.925,0L52.678,409.183
		c-3.57,3.567-3.57,9.357,0,12.925L177.839,547.27c1.714,1.714,4.038,2.678,6.462,2.678c2.425,0,4.749-0.964,6.463-2.678
		l356.558-356.561C550.893,187.142,550.893,181.352,547.322,177.784z M504.526,207.654l-70.904-70.904
		c-5.951-5.951-15.597-5.951-21.545,0c-5.951,5.947-5.951,15.594,0,21.545l70.905,70.904l-26.883,26.883l-30.403-30.403
		c-4.758-4.758-12.476-4.758-17.234,0c-4.761,4.761-4.761,12.479,0,17.237l30.4,30.403l-24.943,24.943l-70.905-70.904
		c-5.95-5.951-15.594-5.951-21.545,0c-5.951,5.948-5.951,15.594,0,21.545l70.904,70.905l-25.589,25.592l-30.403-30.403
		c-4.76-4.76-12.476-4.76-17.237,0c-4.757,4.758-4.757,12.476,0,17.234l30.403,30.403l-25.806,25.806l-70.904-70.905
		c-5.951-5.95-15.597-5.95-21.545,0c-5.95,5.948-5.95,15.594,0,21.545l70.905,70.904l-26.451,26.451l-30.403-30.403
		c-4.758-4.758-12.476-4.758-17.234,0c-4.761,4.76-4.761,12.479,0,17.237l30.403,30.403l-26.023,26.023l-70.904-70.908
		c-5.951-5.95-15.597-5.95-21.545,0c-5.95,5.948-5.95,15.594,0,21.545l70.905,70.904l-26.642,26.645L72.066,415.646L415.698,72.01
		l112.236,112.236L504.526,207.654z"/>
</g>
<g id="Layer_1">
</g>
</svg>
