<svg id="Layer_1" data-name="Layer 1" xmlns="http://www.w3.org/2000/svg" viewBox="0 0 82.05 82.04">
  <title>ruler</title>
  <path d="M145.61,119.58L125.07,99a1.54,1.54,0,0,0-2.12,0L64.44,157.55a1.5,1.5,0,0,0,0,2.12L85,180.21a1.5,1.5,0,0,0,2.12,0l58.51-58.51A1.5,1.5,0,0,0,145.61,119.58Zm-7,4.9L127,112.84a2.5,2.5,0,0,0-3.54,3.54L135.05,128l-4.41,4.41-5-5a2,2,0,1,0-2.83,2.83l5,5-4.09,4.09-11.64-11.64a2.5,2.5,0,0,0-3.54,3.54l11.64,11.64-4.2,4.2-5-5a2,2,0,0,0-2.83,2.83l5,5-4.23,4.23L97.28,142.51A2.5,2.5,0,1,0,93.75,146l11.64,11.64L101,162l-5-5a2,2,0,1,0-2.83,2.83l5,5-4.27,4.27L82.31,157.49A2.5,2.5,0,1,0,78.77,161l11.64,11.64L86,177,67.62,158.61,124,102.22l18.42,18.42Z" transform="translate(-64 -98.62)"/>
</svg>
