<?xml version="1.0" encoding="iso-8859-1"?>
<!-- Generator: Adobe Illustrator 19.2.1, SVG Export Plug-In . SVG Version: 6.00 Build 0)  -->
<svg version="1.1" xmlns="http://www.w3.org/2000/svg" xmlns:xlink="http://www.w3.org/1999/xlink" x="0px" y="0px"
	 viewBox="0 0 600 600" style="enable-background:new 0 0 600 600;" xml:space="preserve">
<g id="rx-form">
	<g>
		<path style="fill-rule:evenodd;clip-rule:evenodd;" d="M448.041,202.265c0-0.734-0.336-1.38-0.442-2.114
			c-0.106-0.681-0.212-1.258-0.424-1.956c-0.69-2.742-1.928-5.38-3.963-7.442L306.872,54.848c-2.087-2.114-4.759-3.267-7.589-4.018
			c-0.708-0.21-1.344-0.314-2.034-0.419c-0.743-0.105-1.451-0.419-2.194-0.419H73.677c-9.146,0-16.576,7.337-16.576,16.368v461.31
			c0,9.031,7.43,16.368,16.576,16.368h357.735c9.181,0,16.629-7.337,16.629-16.368v-39.496h-33.205v23.146H90.306V82.727h188.173
			v119.537c0,9.031,7.43,16.368,16.576,16.368h119.782v85.823h33.205V202.265z M311.684,185.897v-79.674l79.943,79.674H311.684z"/>
		<path style="fill-rule:evenodd;clip-rule:evenodd;" d="M132.135,159.191h110.087c7.536,0,13.692-6.079,13.692-13.521
			c0-7.511-6.156-13.521-13.692-13.521H132.135c-7.554,0-13.692,6.009-13.692,13.521
			C118.443,153.112,124.581,159.191,132.135,159.191z"/>
		<path style="fill-rule:evenodd;clip-rule:evenodd;" d="M132.135,234.905h110.087c7.536,0,13.692-6.079,13.692-13.521
			c0-7.494-6.156-13.521-13.692-13.521H132.135c-7.554,0-13.692,6.027-13.692,13.521
			C118.443,228.826,124.581,234.905,132.135,234.905z"/>
		<path style="fill-rule:evenodd;clip-rule:evenodd;" d="M132.13,310.568h94.573v-6.114v-20.927H132.13
			c-7.536,0-13.692,6.027-13.692,13.521C118.437,304.489,124.594,310.568,132.13,310.568z"/>
		<path style="fill-rule:evenodd;clip-rule:evenodd;" d="M132.13,461.946h135.756v-27.041H132.13
			c-7.536,0-13.692,6.027-13.692,13.521C118.437,455.867,124.594,461.946,132.13,461.946z"/>
		<path style="fill-rule:evenodd;clip-rule:evenodd;" d="M132.13,386.23h94.573v-27.041H132.13c-7.536,0-13.692,6.079-13.692,13.521
			C118.437,380.203,124.594,386.23,132.13,386.23z"/>
		<path style="fill-rule:evenodd;clip-rule:evenodd;" d="M343.579,480.539l29.366-41.173l27.314,41.173h45.624l-48.206-66.136
			l40.723-57.489h-43.041l-21.388,33.575l-30.304-41.436c25.35-4.804,38.777-24.281,38.777-49.226
			c0-41.995-31.436-54.712-68.78-54.712h-70.602v180.136h40.193v-72.005h18.309l46.402,61.157l-49.48,66.136H343.579z
			 M306.96,319.654h-23.705v-40.981h26.27c14.701,0,31.188,2.812,31.188,20.875C340.714,319.13,321.643,319.654,306.96,319.654z"/>
	</g>
</g>
<g id="Layer_1">
</g>
</svg>
