<?xml version="1.0" encoding="iso-8859-1"?>
<!-- Generator: Adobe Illustrator 19.2.1, SVG Export Plug-In . SVG Version: 6.00 Build 0)  -->
<svg version="1.1" xmlns="http://www.w3.org/2000/svg" xmlns:xlink="http://www.w3.org/1999/xlink" x="0px" y="0px"
	 viewBox="0 0 600 600" style="enable-background:new 0 0 600 600;" xml:space="preserve">
<g id="savings">
	<g id="savings_1_">
		<g>
			<path style="fill:#1C1B1A;" d="M351.509,200.521c-22.616-8.859-47.003-13.34-72.433-13.34s-49.817,4.481-72.433,13.34
				l-5.315-13.549c24.335-9.536,50.495-14.33,77.748-14.33c27.254,0,53.413,4.846,77.748,14.33L351.509,200.521z M357.293,332.933
				c0,2.345-1.928,4.273-4.273,4.273h-39.812v39.864c0,2.345-1.928,4.273-4.325,4.273h-59.614c-2.345,0-4.273-1.928-4.273-4.273
				v-39.864h-39.864c-2.345,0-4.273-1.928-4.273-4.273v-59.614c0-2.345,1.928-4.273,4.273-4.273h39.864v-39.864
				c0-2.345,1.928-4.273,4.273-4.273h59.614c2.397,0,4.325,1.928,4.325,4.273v39.864h39.812c2.345,0,4.273,1.928,4.273,4.273
				V332.933L357.293,332.933z M509.142,268.004c-2.136,5.107-7.139,9.328-12.246,10.787c-3.752-7.764-2.918-16.154-2.449-18.968
				c0.313-2.032,1.459-3.752,3.075-4.742c1.094-0.625,2.345-0.886,3.596-0.886c1.772,0,3.543,0.469,5.003,1.042
				c1.72,0.625,2.866,1.72,3.543,3.335C510.757,261.125,510.549,264.773,509.142,268.004 M539.626,295.518
				c-10.161,0.313-18.708-0.677-25.482-2.918c5.888-4.117,10.787-9.953,13.653-16.779c3.543-8.39,3.7-17.561,0.417-25.221
				c-2.814-6.618-8.129-11.673-14.956-14.226c-9.223-3.491-18.447-3.022-25.899,1.303c-6.879,4.012-11.568,10.943-12.871,19.072
				c-0.469,2.97-1.199,9.797,0.156,17.822c-4.846-2.397-8.39-5.055-10.214-6.566c-19.75-66.18-95.309-115.476-185.512-115.476
				c-10.057,0-19.854,0.625-29.494,1.824c-0.365,0-0.73,0-0.99,0.052c-31.474-37.363-74.622-46.743-98.019-44.294
				c-23.189,2.449-14.591,17.353-14.591,17.353l29.025,54.611c0,0.052,0,0.156,0.052,0.208
				c-31.058,18.239-54.716,43.772-67.066,73.319c-0.104-0.104-0.261-0.156-0.365-0.261l-35.122,5.941
				C55.576,262.48,50,269.046,50,275.925v64.408c0,6.879,5.576,13.444,12.298,14.643l41.271,7.035
				c0.156-0.104,0.208-0.156,0.365-0.208c9.901,17.978,24.179,34.132,41.74,47.681c11.152,7.869,21,13.705,24.648,20.01
				c3.648,6.357-3.908,34.81-5.211,39.291c-1.094,3.804-3.022,8.39-1.72,11.725c1.146,2.918,10.943,8.911,35.279,9.536
				c24.961,0.73,28.192-0.834,33.715-2.189c5.472-1.459,8.65-4.221,9.953-7.4l11.621-29.494c0.104,0,0.208-0.104,0.313-0.104
				c8.077,0.834,16.258,1.303,24.596,1.303c8.233,0,16.31-0.469,24.283-1.251c0.052,0,0.104,0.052,0.156,0.052l11.621,29.494
				c1.251,3.231,4.429,5.941,9.953,7.4c5.472,1.407,8.702,2.97,33.715,2.189c24.335-0.625,34.08-6.618,35.279-9.536
				c1.355-3.283-0.573-7.921-1.72-11.725c-1.251-4.481-8.807-32.934-5.159-39.291c3.596-6.357,9.484-8.025,22.772-18.291
				c0.104-0.052,0.104-0.052,0.156-0.104c0.104-0.052,0.104-0.104,0.208-0.156c36.581-27.254,59.405-65.815,59.405-108.597
				c0-2.71-0.104-5.419-0.261-8.077c5.107,2.241,10.995,4.169,17.509,4.898c10.787,11.099,27.306,16.675,49.348,16.675
				c1.355,0,2.658,0,4.065-0.052c5.576-0.156,9.953-4.846,9.797-10.37C549.84,299.739,545.202,295.362,539.626,295.518"/>
		</g>
	</g>
</g>
<g id="Layer_1">
</g>
</svg>
