<?xml version="1.0" encoding="iso-8859-1"?>
<!-- Generator: Adobe Illustrator 16.0.0, SVG Export Plug-In . SVG Version: 6.00 Build 0)  -->
<!DOCTYPE svg PUBLIC "-//W3C//DTD SVG 1.1//EN" "http://www.w3.org/Graphics/SVG/1.1/DTD/svg11.dtd">
<svg version="1.1" xmlns="http://www.w3.org/2000/svg" xmlns:xlink="http://www.w3.org/1999/xlink" x="0px" y="0px"
	 width="961.539px" height="1000px" viewBox="0 0 961.539 1000" style="enable-background:new 0 0 961.539 1000;"
	 xml:space="preserve">
<g id="KP_x5F_Medical_x5F_Savings_x5F_icon">
	<g>
		<path style="fill:#1C1B1A;" d="M579.591,309.198c-43.385-16.992-90.174-25.597-138.993-25.597
			c-48.789,0-95.577,8.621-138.994,25.628l-10.167-25.956c46.679-18.287,96.858-27.549,149.161-27.549
			c52.302,0,102.527,9.262,149.175,27.519L579.591,309.198z M590.741,563.307c0,4.513-3.718,8.23-8.245,8.23H506.08v76.462
			c0,4.514-3.701,8.215-8.292,8.215H383.361c-4.514,0-8.216-3.701-8.216-8.215v-76.462h-76.462c-4.528,0-8.197-3.718-8.197-8.23
			V448.864c0-4.514,3.669-8.2,8.197-8.2h76.462v-76.461c0-4.498,3.702-8.199,8.216-8.199h114.427c4.591,0,8.292,3.701,8.292,8.199
			v76.461h76.416c4.527,0,8.245,3.687,8.245,8.2V563.307z M882.127,438.712c-4.091,9.823-13.68,17.881-23.52,20.662
			c-7.215-14.899-5.591-30.954-4.747-36.358c0.595-3.936,2.781-7.23,5.904-9.09c2.123-1.216,4.466-1.654,6.901-1.654
			c3.374,0,6.779,0.937,9.559,1.952c3.311,1.25,5.497,3.28,6.777,6.372C885.157,425.532,884.782,432.465,882.127,438.712
			 M940.568,491.531c-19.491,0.577-35.857-1.282-48.946-5.608c11.339-7.933,20.678-19.083,26.207-32.155
			c6.778-16.071,7.091-33.733,0.78-48.414c-5.436-12.697-15.648-22.395-28.674-27.345c-17.74-6.716-35.388-5.841-49.662,2.451
			c-13.244,7.7-22.238,21.022-24.674,36.576c-0.875,5.7-2.313,18.803,0.343,34.25c-9.276-4.624-16.055-9.698-19.553-12.573
			c-37.92-126.999-182.879-221.608-356.026-221.608c-19.256,0-38.122,1.218-56.614,3.451c-0.733,0-1.375,0-1.921,0.077
			c-60.375-71.683-143.24-89.721-188.062-85.005c-44.493,4.671-28.017,33.328-28.017,33.328l55.675,104.839
			c0.031,0.141,0.046,0.266,0.109,0.421c-59.563,34.982-105.042,83.959-128.732,140.695c-0.234-0.202-0.484-0.327-0.733-0.515
			l-67.422,11.432c-12.992,2.233-23.643,14.835-23.643,28.064v123.611c0,13.212,10.651,25.8,23.643,28.064l79.228,13.461
			c0.265-0.155,0.436-0.28,0.701-0.421c19.039,34.529,46.4,65.546,80.149,91.455c21.442,15.149,40.308,26.268,47.32,38.449
			c7.012,12.183-7.512,66.811-9.963,75.432c-2.077,7.277-5.794,16.117-3.296,22.457c2.218,5.591,20.99,17.055,67.748,18.304
			c47.931,1.437,54.083-1.593,64.657-4.248c10.542-2.78,16.647-8.059,19.115-14.211l22.254-56.582c0.204,0,0.375-0.157,0.562-0.157
			c15.492,1.563,31.219,2.453,47.243,2.453c15.773,0,31.328-0.89,46.586-2.405c0.108,0,0.218,0.109,0.345,0.109l22.3,56.582
			c2.404,6.152,8.527,11.431,19.069,14.211c10.51,2.655,16.709,5.685,64.671,4.248c46.695-1.249,65.436-12.713,67.652-18.304
			c2.626-6.34-1.123-15.18-3.31-22.457c-2.404-8.621-16.866-63.249-9.871-75.432c6.935-12.182,18.242-15.446,43.668-35.092
			c0.187-0.093,0.249-0.124,0.312-0.203c0.156-0.109,0.249-0.202,0.374-0.327c70.153-52.349,113.976-126.312,113.976-208.367
			c0-5.199-0.188-10.385-0.53-15.539c9.838,4.296,21.145,7.965,33.638,9.402c20.678,21.254,52.443,31.984,94.703,31.984
			c2.562,0,5.123-0.032,7.778-0.125c10.65-0.328,19.116-9.262,18.804-19.942C960.214,499.62,951.28,491.155,940.568,491.531"/>
	</g>
</g>
<g id="Layer_1">
</g>
</svg>
