<svg id="Layer_1" data-name="Layer 1" xmlns="http://www.w3.org/2000/svg" viewBox="0 0 24.63 27">
  <defs>
    <style>
      .cls-1 {
        fill: #1c1b1a;
      }
    </style>
  </defs>
  <title>scale</title>
  <path class="cls-1" d="M39.31,29.23a41.71,41.71,0,0,1-1,8.73,1.2,1.2,0,0,1-.62.79c-0.14.07-3.3,1.63-10,1.74V29.78A8.8,8.8,0,0,0,35.59,19a12.07,12.07,0,0,1,2.08.74,1.2,1.2,0,0,1,.62.79,41.72,41.72,0,0,1,1,8.74m-13,.55V40.5c-6.7-.12-9.86-1.67-10-1.74A1.22,1.22,0,0,1,15.7,38a42.11,42.11,0,0,1-1-8.73,42.11,42.11,0,0,1,1-8.74,1.21,1.21,0,0,1,.63-0.79A12,12,0,0,1,18.41,19a8.79,8.79,0,0,0,7.92,10.81m2.05-9.29a1.47,1.47,0,1,1-2.23-.7l-1-2.89a0.37,0.37,0,0,1,0-.3,0.39,0.39,0,0,1,.22-0.2,0.4,0.4,0,0,1,.5.23l1,2.89a1.46,1.46,0,0,1,1.5,1M27,26.7A5.71,5.71,0,1,1,32.71,21,5.72,5.72,0,0,1,27,26.7M34.49,21A7.49,7.49,0,1,0,27,28.48,7.5,7.5,0,0,0,34.49,21" transform="translate(-14.69 -13.5)"/>
</svg>
