<?xml version="1.0" encoding="iso-8859-1"?>
<!-- Generator: Adobe Illustrator 19.2.1, SVG Export Plug-In . SVG Version: 6.00 Build 0)  -->
<svg version="1.1" xmlns="http://www.w3.org/2000/svg" xmlns:xlink="http://www.w3.org/1999/xlink" x="0px" y="0px"
	 viewBox="0 0 600 600" style="enable-background:new 0 0 600 600;" xml:space="preserve">
<g id="search">
	<g id="search_1_">
		<g>
			<path style="fill:#1C1B1A;" d="M50,234.038c0,48.584,18.943,94.299,53.333,128.689c34.286,34.338,80.052,53.281,128.689,53.281
				c33.451,0,65.388-9.132,93.359-25.936l144.397,144.397c17.952,17.952,47.28,17.952,65.284,0l1.513-1.513
				c17.9-17.952,17.9-47.28,0-65.232l-146.119-145.91c38.252-69.198,28.858-157.86-29.798-216.412
				c-34.39-34.39-80.104-53.333-128.741-53.333c-48.584,0-94.299,18.943-128.584,53.333C68.943,139.739,50,185.453,50,234.038z
				 M96.341,234.038c0-36.217,14.09-70.294,39.713-95.917c25.571-25.623,59.648-39.713,95.864-39.713
				c36.269,0,70.346,14.142,95.969,39.713c52.968,52.864,52.968,138.969,0,191.833c-25.623,25.623-59.7,39.765-95.916,39.765
				c-36.269,0-70.346-14.09-95.917-39.765C110.431,304.331,96.341,270.307,96.341,234.038z"/>
		</g>
	</g>
</g>
<g id="Layer_1">
</g>
</svg>
