<?xml version="1.0" encoding="iso-8859-1"?>
<!-- Generator: Adobe Illustrator 16.0.0, SVG Export Plug-In . SVG Version: 6.00 Build 0)  -->
<!DOCTYPE svg PUBLIC "-//W3C//DTD SVG 1.1//EN" "http://www.w3.org/Graphics/SVG/1.1/DTD/svg11.dtd">
<svg version="1.1" xmlns="http://www.w3.org/2000/svg" xmlns:xlink="http://www.w3.org/1999/xlink" x="0px" y="0px"
	 width="961.539px" height="1000px" viewBox="0 0 961.539 1000" style="enable-background:new 0 0 961.539 1000;"
	 xml:space="preserve">
<g id="KP_x5F_Find_x5F_icon">
	<g>
		<path style="fill:#1C1B1A;" d="M1.764,373.528c0,93.138,36.313,180.732,102.199,246.637
			c65.731,65.8,153.377,102.146,246.55,102.146c64.068,0,125.31-17.532,178.948-49.688l276.66,276.747
			c34.371,34.373,90.575,34.373,125.051,0l2.875-2.877c34.305-34.372,34.305-90.608,0-124.98l-279.865-279.83
			c73.285-132.604,55.251-302.457-57.086-414.704C531.229,61.075,443.583,24.849,350.392,24.849
			c-93.052,0-180.697,36.227-246.429,102.131C38.077,192.796,1.764,280.355,1.764,373.528z M90.571,373.528
			c0-69.402,27.044-134.718,76.125-183.782c49.046-49.116,114.345-76.143,183.696-76.143c69.49,0,134.821,27.097,183.903,76.143
			c101.454,101.316,101.454,266.283,0,367.634c-49.082,49.133-114.414,76.159-183.782,76.159
			c-69.472,0-134.771-27.026-183.817-76.159C117.616,508.246,90.571,442.967,90.571,373.528z"/>
	</g>
</g>
<g id="Layer_1">
</g>
</svg>
