<?xml version="1.0" encoding="iso-8859-1"?>
<!-- Generator: Adobe Illustrator 18.1.1, SVG Export Plug-In . SVG Version: 6.00 Build 0)  -->
<svg version="1.1" xmlns="http://www.w3.org/2000/svg" xmlns:xlink="http://www.w3.org/1999/xlink" x="0px" y="0px"
	 viewBox="0 0 961.539 1000" style="enable-background:new 0 0 961.539 1000;" xml:space="preserve">
<g id="KP_x5F_Shoppingcart">
	<path style="fill:#1C1B1A;" d="M871.009,728.967l89.23-437.797l-755.56-86.542L171.603,33.502L12.069,19.728L1.3,144.746
		l65.117,5.617l111.808,578.604h76.817l8.125,46.775c-41.41,14.31-63.125,50.213-63.336,96.566c0,0.335,0,0.733,0,1.068
		c-0.302,58.667,47.024,106.422,105.687,106.758c54.262,0.247,99.119-40.177,105.812-92.631h235.721
		c6.615,52.091,50.799,92.46,104.694,92.768c58.66,0.267,106.49-47.091,106.791-105.689c0-0.404,0-0.801,0-1.137
		c0.302-58.667-47.029-106.49-105.689-106.826c-49.957-0.169-91.953,34.183-103.507,80.626H409.041
		c-10.977-44.307-49.686-77.615-96.809-80.315l-14.206-37.963H871.009z"/>
</g>
<g id="Layer_1">
</g>
</svg>
