<?xml version="1.0" encoding="iso-8859-1"?>
<!-- Generator: Adobe Illustrator 19.2.1, SVG Export Plug-In . SVG Version: 6.00 Build 0)  -->
<svg version="1.1" xmlns="http://www.w3.org/2000/svg" xmlns:xlink="http://www.w3.org/1999/xlink" x="0px" y="0px"
	 viewBox="0 0 600 600" style="enable-background:new 0 0 600 600;" xml:space="preserve">
<g id="shoppingcart">
	<g id="shoppingcart_1_">
		<path style="fill:#1C1B1A;" d="M199.37,357.133c0.399,0,0.802,0.02,1.201-0.003l301.43-17.543
			c9.158-0.533,16.716-6.918,18.215-15.575l29.52-170.364c0.942-5.442-0.663-10.482-4.392-14.693s-9.206-5.592-14.976-5.605
			l-357.482,1.232l-8.898-41.477c-1.879-8.744-9.936-15.128-19.277-15.128H69.68c-10.868,0-19.68,7.79-19.68,18.179
			s8.812,18.179,19.68,18.179h58.983l45.097,210.426c-20.504,9.707-36.045,32.718-36.045,53.807
			c0,27.956,22.65,61.913,55.149,61.913h309.781c10.868,0,19.68-6.721,19.68-17.109s-8.812-17.109-19.68-17.109H192.864
			c-7.524,0-15.788-15.364-15.788-25.606C177.076,372.135,189.578,357.133,199.37,357.133z M507.128,168.814L483.945,302.82
			l-271.468,15.857l-32.389-150.605L507.128,168.814z M282.472,484.401c0,20.779-17.622,37.623-39.36,37.623
			s-39.36-16.845-39.36-37.623s17.622-37.623,39.36-37.623S282.472,463.622,282.472,484.401z M508.795,484.401
			c0,20.779-17.622,37.623-39.36,37.623s-39.36-16.845-39.36-37.623s17.622-37.623,39.36-37.623S508.795,463.622,508.795,484.401z"
			/>
	</g>
</g>
<g id="Layer_1">
</g>
</svg>
