<?xml version="1.0" encoding="iso-8859-1"?>
<!-- Generator: Adobe Illustrator 16.0.0, SVG Export Plug-In . SVG Version: 6.00 Build 0)  -->
<!DOCTYPE svg PUBLIC "-//W3C//DTD SVG 1.1//EN" "http://www.w3.org/Graphics/SVG/1.1/DTD/svg11.dtd">
<svg version="1.1" xmlns="http://www.w3.org/2000/svg" xmlns:xlink="http://www.w3.org/1999/xlink" x="0px" y="0px"
	 width="961.539px" height="1000px" viewBox="0 0 961.539 1000" style="enable-background:new 0 0 961.539 1000;"
	 xml:space="preserve">
<g id="KP_x5F_Specialty_x5F_Care_x5F_icon">
	<g>
		<path style="fill:#1C1B1A;" d="M949.892,310.144l-1.722-2.582c-10.815-16.165-29.031-25.833-48.683-25.833
			c-11.503,0-22.662,3.356-32.272,9.696L617.193,458.412l-4.721-4.289c-33.95-30.953-75.689-52.066-120.7-61.046
			c-16.625-3.312-33.563-4.991-50.317-4.991c-49.944,0-98.496,14.774-140.409,42.744c-56.485,37.667-94.912,95.112-108.222,161.709
			c-13.282,66.468,0.159,134.185,37.867,190.727c37.565,56.385,94.912,94.768,161.508,108.078
			c66.109,13.225,134.772-0.315,190.798-37.724c93.118-62.078,134.183-180.585,99.901-288.205l-1.864-5.852l252.763-168.551
			C960.448,373.168,967.705,336.879,949.892,310.144z M555.057,811.651c-33.65,22.404-72.62,34.224-112.712,34.224
			c-13.425,0-26.981-1.349-40.291-3.987c-53.372-10.672-99.329-41.424-129.435-86.577c-30.194-45.312-40.965-99.617-30.339-152.917
			c10.673-53.401,41.483-99.416,86.722-129.58c44.88-29.935,99.874-40.851,152.887-30.293
			c53.33,10.671,99.316,41.438,129.521,86.634C673.749,622.604,648.447,749.314,555.057,811.651z"/>
		<path style="fill:#1C1B1A;" d="M602.604,859.53h84.714V754.205C668.872,795.386,640.029,831.817,602.604,859.53z"/>
		<path style="fill:#1C1B1A;" d="M217.109,792.316c-40.119-60.156-54.419-132.233-40.292-202.976
			c12.881-64.489,48.094-120.715,99.587-160.577l-87.524-0.071c-103.632,0-186.997,84.569-186.997,190.037v240.8h279.513
			C256.581,841.17,234.709,818.737,217.109,792.316z"/>
		<path style="fill:#1C1B1A;" d="M345.526,396.462c80.812,0,146.362-65.55,146.362-146.375c0-80.869-65.55-146.376-146.362-146.376
			c-80.854,0-146.361,65.507-146.361,146.376C199.165,330.913,264.672,396.462,345.526,396.462z"/>
		<path style="fill:#1C1B1A;" d="M478.691,458.527c-12.235-2.439-24.713-3.672-37.064-3.672c-36.833,0-72.65,10.901-103.574,31.527
			c-41.625,27.755-69.939,70.083-79.765,119.195c-9.782,49.026,0.129,98.984,27.897,140.668
			c27.697,41.524,69.983,69.824,119.081,79.636c48.767,9.667,99.415-0.287,140.74-27.771
			c85.917-57.373,109.167-173.943,51.822-259.904C570.061,496.638,527.746,468.353,478.691,458.527z M442.761,768.521
			c0,0-127.255-67.485-127.255-163.631c0-37.438,30.321-67.788,67.772-67.788c25.646,0,47.952,14.2,59.483,35.142
			c11.518-20.941,33.822-35.142,59.397-35.142c37.494,0,67.873,30.351,67.873,67.788
			C570.031,701.035,442.761,768.521,442.761,768.521z"/>
	</g>
</g>
<g id="Layer_1">
</g>
</svg>
