<?xml version="1.0" encoding="iso-8859-1"?>
<!-- Generator: Adobe Illustrator 16.0.0, SVG Export Plug-In . SVG Version: 6.00 Build 0)  -->
<!DOCTYPE svg PUBLIC "-//W3C//DTD SVG 1.1//EN" "http://www.w3.org/Graphics/SVG/1.1/DTD/svg11.dtd">
<svg version="1.1" xmlns="http://www.w3.org/2000/svg" xmlns:xlink="http://www.w3.org/1999/xlink" x="0px" y="0px"
	 width="961.539px" height="1000px" viewBox="0 0 961.539 1000" style="enable-background:new 0 0 961.539 1000;"
	 xml:space="preserve">
<g id="KP_x5F_Star_x5F_icon">
	<path style="fill:#1C1B1A;" d="M958.586,388.707c-4.06-12.294-15.479-20.595-28.35-20.595H608.537l-99.44-305.957
		C501.044,37.6,460.27,37.6,452.365,62.27l-99.308,305.842H31.293c-13.069,0-24.424,8.301-28.335,20.595
		C-1.099,401,3.288,414.548,13.619,422.023l260.347,189.16l-99.291,306.021c-4.06,12.211,0.331,25.743,10.725,33.399
		c10.446,7.492,24.754,7.492,35.133-0.132l260.231-189.06l260.213,189.06c5.232,3.795,11.354,5.775,17.541,5.775
		c6.189,0,12.312-1.98,17.543-5.644c10.447-7.656,14.852-21.188,10.856-33.465l-99.372-305.956l260.314-189.16
		C958.223,414.548,962.645,401,958.586,388.707z"/>
</g>
<g id="Layer_1">
</g>
</svg>
