<?xml version="1.0" encoding="iso-8859-1"?>
<!-- Generator: Adobe Illustrator 16.0.0, SVG Export Plug-In . SVG Version: 6.00 Build 0)  -->
<!DOCTYPE svg PUBLIC "-//W3C//DTD SVG 1.1//EN" "http://www.w3.org/Graphics/SVG/1.1/DTD/svg11.dtd">
<svg version="1.1" xmlns="http://www.w3.org/2000/svg" xmlns:xlink="http://www.w3.org/1999/xlink" x="0px" y="0px"
	 width="961.539px" height="1000px" viewBox="0 0 961.539 1000" style="enable-background:new 0 0 961.539 1000;"
	 xml:space="preserve">
<g id="KP_x5F_Stethoscope_x5F_icon">
	<g>
		<g>
			<path style="fill:#1C1B1A;" d="M426.334,971.428c-126.571,0-213.771-69.159-259.537-205.705
				c-6.939,1.041-13.981,1.552-21.16,1.552c-79.015,0-143.265-64.163-143.265-143.127c0-78.947,64.25-143.163,143.265-143.163
				c78.861,0,143.076,64.215,143.076,143.163c0,45.322-21.178,85.785-54.12,112.008c46.106,144.459,130.901,161.646,191.741,161.646
				c63.651,0,110.371-15.584,138.915-46.448c19.541-20.938,27.504-46.123,30.641-64.896
				c-136.836-41.401-286.102-287.996-286.102-491.893c0-109.81,36.234-150.75,128.89-198.852
				c0.733-13.096,8.525-25.133,20.854-31.033l67.797-32.431c9.94-4.792,21.534-4.81,31.544-0.138
				c10.009,4.707,17.358,13.573,20.086,24.298l17.443,68.973c2.763,10.69,0.461,22.064-6.002,30.932
				c-6.614,8.85-16.728,14.322-27.793,14.92l-74.991,3.852c-9.276,0.292-18.705-2.728-25.662-8.593
				c-70.045,37.343-78.47,59.526-78.47,128.072c0,199.516,163.777,424.267,251.046,424.267
				c87.285,0,250.977-224.751,250.977-424.267c0-68.546-8.39-90.729-78.453-128.124c-6.957,5.833-16.488,9.003-25.56,8.561
				l-75.059-3.872c-11.05-0.595-21.229-6.07-27.777-14.919c-6.549-8.884-8.696-20.256-6.07-30.915l17.529-68.988
				c2.711-10.69,10.095-19.574,20.069-24.298c10.009-4.62,21.569-4.587,31.527,0.119l67.829,32.448
				c12.38,5.935,20.155,18.023,20.922,31.171c92.622,48.068,128.703,89.057,128.703,198.817
				c0,205.45-151.449,454.192-289.036,492.763c-3.547,30.282-15.038,74.939-49.942,113.201
				C577.168,947.592,511.931,971.428,426.334,971.428z M145.637,554.63c-38.399,0-69.62,31.221-69.62,69.518
				c0,38.313,31.221,69.467,69.62,69.467c38.229,0,69.415-31.153,69.415-69.467C215.052,585.851,183.865,554.63,145.637,554.63z"/>
		</g>
	</g>
</g>
<g id="Layer_1">
</g>
</svg>
