<?xml version="1.0" encoding="UTF-8" standalone="no"?>
<svg width="34px" height="25px" viewBox="0 0 34 25" version="1.1" xmlns="http://www.w3.org/2000/svg" xmlns:xlink="http://www.w3.org/1999/xlink" xmlns:sketch="http://www.bohemiancoding.com/sketch/ns">
    <!-- Generator: Sketch 3.4.3 (16618) - http://www.bohemiancoding.com/sketch -->
    <title>FPO</title>
    <desc>Created with Sketch.</desc>
    <defs></defs>
    <g id="KP-Approved" stroke="none" stroke-width="1" fill="none" fill-rule="evenodd" sketch:type="MSPage">
        <g id="Desktop-HD" sketch:type="MSArtboardGroup" transform="translate(-34.000000, -709.000000)">
            <g id="FPO" sketch:type="MSLayerGroup" transform="translate(34.000000, 709.000000)">
                <g id="icon" sketch:type="MSShapeGroup">
                    <g id="Group-6" transform="translate(1.000000, 0.000000)" fill="#000000">
                        <path d="M28.7835,5.758 L28.7835,5.728 C28.7835,3.951 27.4795,2.468 25.6415,2.468 C23.8045,2.468 22.5295,3.921 22.5295,5.699 L22.5295,5.728 C22.5295,7.507 23.8345,8.989 25.6715,8.989 C27.5085,8.989 28.7835,7.537 28.7835,5.758 M20.1445,5.758 L20.1445,5.728 C20.1445,2.78 22.4705,0.364 25.6715,0.364 C28.8725,0.364 31.1685,2.75 31.1685,5.699 L31.1685,5.728 C31.1685,8.677 28.8425,11.093 25.6415,11.093 C22.4415,11.093 20.1445,8.707 20.1445,5.758" id="Fill-4"></path>
                        <path d="M14.7894,5.7731 C15.9304,5.7731 16.5964,5.0911 16.5964,4.2021 L16.5964,4.1721 C16.5964,3.1501 15.8854,2.6011 14.7444,2.6011 L12.9814,2.6011 L12.9814,5.7731 L14.7894,5.7731 Z M10.6994,0.5421 L14.9374,0.5421 C17.4124,0.5421 18.9084,2.0091 18.9084,4.1281 L18.9084,4.1571 C18.9084,6.5581 17.0414,7.8031 14.7154,7.8031 L12.9814,7.8031 L12.9814,10.9151 L10.6994,10.9151 L10.6994,0.5421 Z" id="Fill-2"></path>
                        <path d="M0.9728,0.5415 L0.9728,10.9145 L3.2548,10.9145 L3.2548,6.8995 L8.2048,6.8995 L8.2048,4.8245 L3.2548,4.8245 L3.2548,2.6165 L8.8708,2.6165 L8.8708,0.5415 L0.9728,0.5415 Z" id="Fill-1"></path>
                    </g>
                    <path d="M1.973,16.46 L3.82,16.46 L3.82,24.856 L1.973,24.856 L1.973,16.46 Z" id="Fill-7" fill="#000000"></path>
                    <path d="M5.5488,20.6821 L5.5488,20.6581 C5.5488,18.2711 7.3478,16.3161 9.9258,16.3161 C11.5088,16.3161 12.4568,16.8441 13.2358,17.6121 L12.0608,18.9671 C11.4138,18.3791 10.7538,18.0191 9.9148,18.0191 C8.4988,18.0191 7.4798,19.1951 7.4798,20.6341 L7.4798,20.6581 C7.4798,22.0981 8.4748,23.2971 9.9148,23.2971 C10.8738,23.2971 11.4618,22.9131 12.1208,22.3131 L13.2968,23.5001 C12.4328,24.4241 11.4738,25.0001 9.8548,25.0001 C7.3838,25.0001 5.5488,23.0931 5.5488,20.6821" id="Fill-9" fill="#000000"></path>
                    <path d="M21.1572,20.6821 L21.1572,20.6581 C21.1572,19.2191 20.1012,18.0191 18.6142,18.0191 C17.1272,18.0191 16.0952,19.1951 16.0952,20.6341 L16.0952,20.6581 C16.0952,22.0981 17.1512,23.2971 18.6382,23.2971 C20.1252,23.2971 21.1572,22.1211 21.1572,20.6821 M14.1652,20.6821 L14.1652,20.6581 C14.1652,18.2711 16.0482,16.3161 18.6382,16.3161 C21.2292,16.3161 23.0882,18.2471 23.0882,20.6341 L23.0882,20.6581 C23.0882,23.0451 21.2052,25.0001 18.6142,25.0001 C16.0242,25.0001 14.1652,23.0691 14.1652,20.6821" id="Fill-10" fill="#000000"></path>
                    <path d="M24.7363,16.4604 L26.4393,16.4604 L30.3733,21.6294 L30.3733,16.4604 L32.1963,16.4604 L32.1963,24.8564 L30.6253,24.8564 L26.5593,19.5194 L26.5593,24.8564 L24.7363,24.8564 L24.7363,16.4604 Z" id="Fill-11" fill="#000000"></path>
                    <path d="M0,13.832 L34,13.832" id="Stroke-12" stroke="#000000"></path>
                </g>
            </g>
        </g>
    </g>
</svg>