<?xml version="1.0" encoding="iso-8859-1"?>
<!-- Generator: Adobe Illustrator 19.2.1, SVG Export Plug-In . SVG Version: 6.00 Build 0)  -->
<svg version="1.1" xmlns="http://www.w3.org/2000/svg" xmlns:xlink="http://www.w3.org/1999/xlink" x="0px" y="0px"
	 viewBox="0 0 600 600" style="enable-background:new 0 0 600 600;" xml:space="preserve">
<g id="syringe">
	<g id="syringe_1_">
		<path style="fill:#1C1B1A;" d="M545.941,526.318L426.523,407.081l11.176-11.22c5.344-5.335,5.335-13.979-0.009-19.333
			c-4.565-4.494-11.364-4.981-16.59-1.807l13.888-13.979c5.37-5.316,5.333-13.979,0-19.349L233.622,140.406l14.088-14.087
			c5.335-5.389,5.298-14.042-0.056-19.34c-5.333-5.363-14.014-5.354-19.368,0.007l-51.069,51.169l-59.359-59.18l25.162-25.244
			c5.344-5.363,5.344-14.016-0.017-19.368c-5.354-5.318-13.998-5.344-19.333,0.026l-69.677,69.822
			c-5.326,5.316-5.326,13.998,0,19.305c2.687,2.694,6.203,4.033,9.703,4.015c3.498-0.009,6.998-1.365,9.664-4.033l25.164-25.164
			l59.307,59.217l-27.362,27.406l0,0l-23.734,23.781c-5.344,5.333-5.326,13.977,0.054,19.349c2.631,2.685,6.113,4.005,9.666,4.005
			c3.498,0.019,6.979-1.357,9.648-4.042l14.068-14.051l201.382,200.986c2.668,2.685,6.15,4.059,9.685,4.041
			c3.481-0.019,6.979-1.339,9.666-3.987l14.937-14.992c-3.155,5.272-2.704,12.035,1.854,16.601c2.659,2.631,6.157,3.996,9.692,3.978
			c3.465,0,6.981-1.328,9.666-3.978l10.118-10.181l119.472,119.2c2.676,2.641,6.202,4.033,9.711,3.961
			c3.454,0.035,6.961-1.302,9.62-3.924C551.365,540.297,551.33,531.652,545.941,526.318z M351.186,405.977L159.487,214.596
			l27.369-27.362v-0.054h0.056l27.379-27.423l32.677,32.649l-18.879,18.89c-5.326,5.342-5.326,14.068,0.037,19.368
			c2.667,2.667,6.202,4.022,9.683,4.022c3.517,0,6.998-1.337,9.648-4.041l18.925-18.935l34.069,34.053l-18.925,18.916
			c-5.333,5.361-5.298,14.014,0.072,19.359c2.704,2.667,6.15,3.978,9.685,4.015c3.444,0,6.998-1.365,9.657-4.015l18.916-18.888
			l34.051,33.978l-18.87,18.925c-5.37,5.354-5.389,14.014,0.009,19.368c2.667,2.667,6.185,3.987,9.666,3.987
			c3.498,0,6.998-1.374,9.664-4.041l18.907-18.881l32.66,32.625L351.186,405.977z"/>
	</g>
</g>
<g id="Layer_1">
</g>
</svg>
