<?xml version="1.0" encoding="UTF-8" standalone="no"?>
<svg width="33px" height="33px" viewBox="0 0 33 33" version="1.1" xmlns="http://www.w3.org/2000/svg" xmlns:xlink="http://www.w3.org/1999/xlink" xmlns:sketch="http://www.bohemiancoding.com/sketch/ns">
    <!-- Generator: Sketch 3.4.2 (15857) - http://www.bohemiancoding.com/sketch -->
    <title>Syringe</title>
    <desc>Created with Sketch.</desc>
    <defs>
        <path id="path-1" d="M0,0.0465943205 L32.2588012,0.0465943205 L32.2588012,32.2576065 L0,32.2576065 L0,0.0465943205 Z"></path>
    </defs>
    <g id="KP-Approved" stroke="none" stroke-width="1" fill="none" fill-rule="evenodd" sketch:type="MSPage">
        <g id="Desktop-HD" sketch:type="MSArtboardGroup" transform="translate(-907.000000, -519.000000)">
            <g id="Syringe" sketch:type="MSLayerGroup" transform="translate(907.000000, 519.000000)">
                <mask id="mask-2" sketch:name="Clip 2" fill="white">
                    <use xlink:href="#path-1"></use>
                </mask>
                <g id="Clip-2"></g>
                <path d="M19.4317432,22.9895183 L7.06393793,10.6420233 L8.8297432,8.87621805 L8.8297432,8.8738286 L8.83332738,8.8738286 L10.5991327,7.10443915 L12.7078243,9.21074138 L11.4892037,10.4293621 C11.1463172,10.7734432 11.1463172,11.337354 11.4915931,11.6790456 C11.6648284,11.8510862 11.8918264,11.9383012 12.1164349,11.9383012 C12.3434329,11.9383012 12.5680414,11.8522809 12.7388872,11.6778509 L13.9598974,10.455646 L16.1581935,12.6527475 L14.9371834,13.8737576 C14.5931022,14.2190335 14.5954917,14.7769706 14.9419623,15.1222465 C15.1163923,15.294287 15.3386114,15.3791126 15.5668041,15.381502 C15.7890231,15.381502 16.0184105,15.2930923 16.1904511,15.1222465 L17.4102665,13.9036258 L19.607368,16.0959483 L18.389942,17.3169584 C18.0434714,17.6622343 18.0422767,18.2213661 18.389942,18.566642 C18.5619826,18.7386826 18.7889805,18.8235081 19.013589,18.8235081 C19.2393923,18.8235081 19.4651955,18.7350984 19.6372361,18.5630578 L20.8570515,17.3444371 L22.9645485,19.4495446 L19.4317432,22.9895183 Z M31.9966783,30.7540436 L24.2918892,23.0612018 L25.0135039,22.3371978 C25.357585,21.9931166 25.357585,21.4351795 25.0123091,21.0899037 C24.7184065,20.7995852 24.279942,20.7685223 23.9418345,20.9728205 L24.8378791,20.0708022 C25.1843497,19.7279158 25.1819602,19.168784 24.8378791,18.8223134 L11.8464268,5.8559503 L12.7556134,4.94676369 C13.0996945,4.59909838 13.0973051,4.04116126 12.7520292,3.69946957 C12.4079481,3.35299899 11.8476215,3.35299899 11.5023456,3.69946957 L8.20729087,7.00049797 L4.37819351,3.18215314 L6.00182637,1.55374138 C6.34590751,1.20846552 6.34590751,0.649333671 6.00063164,0.304057809 C5.65535578,-0.0388286004 5.09741866,-0.0400233266 4.75333753,0.306447262 L0.257582961,4.81056491 C-0.0864981744,5.15345132 -0.0864981744,5.71377789 0.257582961,6.0566643 C0.430818256,6.22989959 0.657816227,6.31591988 0.883619473,6.31472515 C1.10942272,6.31472515 1.33522596,6.22751014 1.50726653,6.05546957 L3.13089939,4.43183671 L6.9576073,8.25257099 L5.19180203,10.0207657 L3.66016308,11.5547941 C3.31608195,11.8988753 3.31727667,12.4568124 3.66374726,12.803283 C3.83339838,12.9765183 4.0580069,13.0613438 4.28739432,13.0613438 C4.51319757,13.0625385 4.73780609,12.9741288 4.90984665,12.8008935 L5.81783854,11.8940963 L18.8104856,24.8604594 C18.9825262,25.0336947 19.2071347,25.1232992 19.4353274,25.1221045 C19.6599359,25.1209097 19.8857391,25.0348895 20.0589744,24.8640436 L21.0219237,23.8975101 C20.8188203,24.2368124 20.8486884,24.6740822 21.1425911,24.9679848 C21.3134369,25.1376359 21.5392402,25.2260456 21.7674329,25.2248509 C21.9908467,25.2248509 22.2178446,25.1388306 22.3910799,24.9679848 L23.0434004,24.3108854 L30.7517736,32.0013377 C30.9250089,32.1721836 31.1520069,32.261788 31.3778101,32.2570091 C31.6012239,32.2593986 31.8270272,32.1733783 31.9990677,32.0037272 C32.3467331,31.6548671 32.3443436,31.0981247 31.9966783,30.7540436 L31.9966783,30.7540436 Z" id="Fill-1" fill="#1C1B1A" sketch:type="MSShapeGroup" mask="url(#mask-2)"></path>
            </g>
        </g>
    </g>
</svg>