<?xml version="1.0" encoding="UTF-8" standalone="no"?>
<svg width="22px" height="33px" viewBox="0 0 22 33" version="1.1" xmlns="http://www.w3.org/2000/svg" xmlns:xlink="http://www.w3.org/1999/xlink" xmlns:sketch="http://www.bohemiancoding.com/sketch/ns">
    <!-- Generator: Sketch 3.4.2 (15857) - http://www.bohemiancoding.com/sketch -->
    <title>Tablet</title>
    <desc>Created with Sketch.</desc>
    <defs></defs>
    <g id="KP-Approved" stroke="none" stroke-width="1" fill="none" fill-rule="evenodd" sketch:type="MSPage">
        <g id="Desktop-HD" sketch:type="MSArtboardGroup" transform="translate(-836.000000, -519.000000)" fill="#1C1B1A">
            <g id="Tablet" sketch:type="MSLayerGroup" transform="translate(836.000000, 519.000000)">
                <path d="M19.8718803,29.4392475 L1.72876876,29.4392475 L1.72876876,2.70605477 L19.8718803,2.70605477 L19.8718803,29.4392475 Z M12.5207302,31.0127018 C12.5207302,31.2839047 12.2471379,31.2839047 12.2471379,31.2839047 L9.58289858,31.2839047 C9.30811156,31.2839047 9.30811156,31.0127018 9.30811156,31.0127018 L9.30811156,30.688931 C9.30811156,30.4165335 9.58289858,30.4165335 9.58289858,30.4165335 L12.2471379,30.4165335 C12.5207302,30.4165335 12.5207302,30.688931 12.5207302,30.688931 L12.5207302,31.0127018 Z M7.89116633,1.08242191 C8.05603854,1.08242191 8.18865314,1.21623124 8.18865314,1.38110345 C8.18865314,1.54717039 8.05603854,1.68097972 7.89116633,1.68097972 C7.72629412,1.68097972 7.59248479,1.54717039 7.59248479,1.38110345 C7.59248479,1.21623124 7.72629412,1.08242191 7.89116633,1.08242191 L7.89116633,1.08242191 Z M9.90666937,1.08242191 C10.0715416,1.08242191 10.2053509,1.21623124 10.2053509,1.38110345 C10.2053509,1.54717039 10.0715416,1.68097972 9.90666937,1.68097972 C9.74060243,1.68097972 9.60798783,1.54717039 9.60798783,1.38110345 C9.60798783,1.21623124 9.74060243,1.08242191 9.90666937,1.08242191 L9.90666937,1.08242191 Z M11.9233671,1.08242191 C12.0882394,1.08242191 12.2220487,1.21623124 12.2220487,1.38110345 C12.2220487,1.54717039 12.0882394,1.68097972 11.9233671,1.68097972 C11.7584949,1.68097972 11.6246856,1.54717039 11.6246856,1.38110345 C11.6246856,1.21623124 11.7584949,1.08242191 11.9233671,1.08242191 L11.9233671,1.08242191 Z M13.9376755,1.08242191 C14.1049371,1.08242191 14.2375517,1.21623124 14.2375517,1.38110345 C14.2375517,1.54717039 14.1049371,1.68097972 13.9376755,1.68097972 C13.7716085,1.68097972 13.6401886,1.54717039 13.6401886,1.38110345 C13.6401886,1.21623124 13.7716085,1.08242191 13.9376755,1.08242191 L13.9376755,1.08242191 Z M20.3724706,0 L1.2281785,0 C1.2281785,0 0,0 0,1.2281785 L0,31.0150913 C0,31.0150913 0,32.2432698 1.2281785,32.2432698 L20.3724706,32.2432698 C20.3724706,32.2432698 21.6006491,32.2432698 21.6006491,31.0150913 L21.6006491,1.2281785 C21.6006491,1.2281785 21.6006491,0 20.3724706,0 L20.3724706,0 Z" id="Page-1" sketch:type="MSShapeGroup"></path>
            </g>
        </g>
    </g>
</svg>