<?xml version="1.0" encoding="UTF-8" standalone="no"?>
<svg width="32px" height="33px" viewBox="0 0 32 33" version="1.1" xmlns="http://www.w3.org/2000/svg" xmlns:xlink="http://www.w3.org/1999/xlink" xmlns:sketch="http://www.bohemiancoding.com/sketch/ns">
    <!-- Generator: Sketch 3.4.2 (15857) - http://www.bohemiancoding.com/sketch -->
    <title>Target</title>
    <desc>Created with Sketch.</desc>
    <defs>
        <path id="path-1" d="M0,0.0585415822 L31.9840142,0.0585415822 L31.9840142,32.2576065 L0,32.2576065"></path>
    </defs>
    <g id="KP-Approved" stroke="none" stroke-width="1" fill="none" fill-rule="evenodd" sketch:type="MSPage">
        <g id="Desktop-HD" sketch:type="MSArtboardGroup" transform="translate(-748.000000, -519.000000)">
            <g id="Target" sketch:type="MSLayerGroup" transform="translate(748.000000, 519.000000)">
                <mask id="mask-2" sketch:name="Clip 2" fill="white">
                    <use xlink:href="#path-1"></use>
                </mask>
                <g id="Clip-2"></g>
                <path d="M19.0187264,6.3271503 C15.7762396,6.3271503 12.8288501,7.53382373 10.5552862,9.50273245 L8.96749513,7.91613611 L9.37131258,3.00222738 L7.80861075,2.87439168 L7.51470811,6.46215436 L6.15152556,5.09897181 L6.55295355,0.186257809 L4.99144645,0.0584221095 L4.69873854,3.64499006 L2.80151339,1.74895963 L1.69280751,2.85886024 L3.5876432,4.75369594 L-0.000119472617,5.04759858 L0.128910953,6.61149513 L5.04162495,6.20767769 L6.40361278,7.57205497 L2.81823955,7.86476288 L2.94488053,9.42865943 L7.85998398,9.02484199 L18.1107345,19.2767872 L17.6639069,19.7176412 L14.9255945,17.3927041 C14.6579759,17.9721462 14.4954931,18.6113247 14.4954931,19.2923187 C14.4954931,21.7892963 16.5217487,23.8143572 19.0187264,23.8143572 C21.5168988,23.8143572 23.5407649,21.7892963 23.5407649,19.2923187 C23.5407649,16.795341 21.5168988,14.7690854 19.0187264,14.7690854 C18.1107345,14.7690854 17.2792051,15.0570144 16.5743166,15.5193734 L13.4035134,12.3485702 C14.9387365,11.1024708 16.8861402,10.3462091 19.0187264,10.3462091 C23.9577243,10.3462091 27.9612517,14.352126 27.9612517,19.2923187 C27.9612517,24.2337061 23.9577243,28.2372335 19.0187264,28.2372335 C14.0785337,28.2372335 10.0726168,24.2337061 10.0726168,19.2923187 C10.0726168,17.5157609 10.5971016,15.8646493 11.4919515,14.4751828 L8.40836329,11.856343 C6.92929229,13.9614505 6.05355801,16.5229434 6.05355801,19.2923187 C6.05355801,26.4535073 11.8587325,32.257487 19.0187264,32.257487 C26.179915,32.257487 31.9850895,26.4535073 31.9850895,19.2923187 C31.9850895,12.13113 26.179915,6.3271503 19.0187264,6.3271503" id="Fill-1" fill="#1C1B1A" sketch:type="MSShapeGroup" mask="url(#mask-2)"></path>
            </g>
        </g>
    </g>
</svg>