<?xml version="1.0" encoding="iso-8859-1"?>
<!-- Generator: Adobe Illustrator 19.2.1, SVG Export Plug-In . SVG Version: 6.00 Build 0)  -->
<svg version="1.1" xmlns="http://www.w3.org/2000/svg" xmlns:xlink="http://www.w3.org/1999/xlink" x="0px" y="0px"
	 viewBox="0 0 600 600" style="enable-background:new 0 0 600 600;" xml:space="preserve">
<g id="time-urgent">
	<g id="time-urgent_1_">
		<path style="fill:#1C1B1A;" d="M547.549,446.772l-53.159-92.087c4.395-17.536,6.976-35.792,6.976-54.676
			c0-124.483-101.242-225.685-225.683-225.685C151.236,74.324,50,175.527,50,300.009c0,124.439,101.236,225.666,225.683,225.666
			c60.934,0,116.199-24.373,156.852-63.751h108.251c0.049,0,0.082,0,0.261,0c4.901,0,8.953-4.06,8.953-8.97
			C550,450.578,549.052,448.398,547.549,446.772z M275.683,503.671c-112.286,0-203.671-91.353-203.671-203.662
			c0-112.303,91.384-203.67,203.671-203.67s203.679,91.368,203.679,203.67c0,8.674-0.719,17.168-1.78,25.566l-59.937-103.817
			c-3.203-5.514-12.277-5.514-15.529,0L271.289,448.504c-1.544,2.794-1.544,6.174,0.107,8.968c1.536,2.72,4.542,4.453,7.678,4.453
			h119.653C364.495,488.004,321.931,503.671,275.683,503.671z M421.703,441.675c-3.471,2.173-7.35,3.757-11.793,3.757
			c-12.359,0-22.389-9.932-22.389-22.389c0-12.521,10.03-22.494,22.389-22.494c12.504,0,22.486,9.973,22.486,22.494
			c0,3.202-0.694,6.208-1.887,8.945C427.675,435.312,424.743,438.547,421.703,441.675z M391.67,383.551v-98.596h36.585v98.596
			H391.67z"/>
		<path style="fill:#1C1B1A;" d="M313.567,300.009c0-14.809-9.426-29.545-25.721-34.821V156.667l20.437,20.454l15.567-15.577
			l-46.998-47.006l-47.008,47.006l15.535,15.577l20.454-20.454v108.472c-9.607,3.12-19.236,11.107-23.958,23.956H133.494
			l20.445-20.428l-15.577-15.576l-46.998,47.006l46.998,47.008l15.577-15.552l-20.445-20.437h108.521
			c0.05,0.181,0.147,0.343,0.204,0.524c3.13,10.325,15.668,25.166,34.617,25.166C297.403,336.806,313.567,318.934,313.567,300.009z
			 M262.148,300.058c0.033-8.078,6.576-14.646,14.687-14.646c8.086,0,14.661,6.567,14.677,14.646
			c-0.017,8.078-6.591,14.654-14.661,14.654C268.758,314.712,262.182,308.136,262.148,300.058z"/>
	</g>
</g>
<g id="Layer_1">
</g>
</svg>
