<?xml version="1.0" encoding="UTF-8" standalone="no"?>
<svg width="36px" height="33px" viewBox="0 0 36 33" version="1.1" xmlns="http://www.w3.org/2000/svg" xmlns:xlink="http://www.w3.org/1999/xlink" xmlns:sketch="http://www.bohemiancoding.com/sketch/ns">
    <!-- Generator: Sketch 3.4.2 (15857) - http://www.bohemiancoding.com/sketch -->
    <title>Urgent</title>
    <desc>Created with Sketch.</desc>
    <defs>
        <path id="path-1" d="M0,0.0226997972 L35.7103651,0.0226997972 L35.7103651,32.2576065 L0,32.2576065 L0,0.0226997972 Z"></path>
    </defs>
    <g id="KP-Approved" stroke="none" stroke-width="1" fill="none" fill-rule="evenodd" sketch:type="MSPage">
        <g id="Desktop-HD" sketch:type="MSArtboardGroup" transform="translate(-61.000000, -620.000000)">
            <g id="Urgent" sketch:type="MSLayerGroup" transform="translate(61.000000, 620.000000)">
                <mask id="mask-2" sketch:name="Clip 2" fill="white">
                    <use xlink:href="#path-1"></use>
                </mask>
                <g id="Clip-2"></g>
                <path d="M24.4022819,15.065497 L27.0151481,15.065497 L27.0151481,22.107213 L24.4022819,22.107213 L24.4022819,15.065497 Z M26.5468154,26.2588864 C26.2995071,26.4130061 26.0223306,26.5265051 25.7045335,26.5265051 C24.8216308,26.5265051 24.1059899,25.8168377 24.1059899,24.9279615 C24.1059899,24.0331116 24.8216308,23.3210548 25.7045335,23.3210548 C26.5981886,23.3210548 27.3102454,24.0331116 27.3102454,24.9279615 C27.3102454,25.1561542 27.2612617,25.3712049 27.1764361,25.5659452 C26.9733327,25.8036957 26.7642556,26.0354726 26.5468154,26.2588864 L26.5468154,26.2588864 Z M16.1180507,30.6865416 C8.09904868,30.6865416 1.57225963,24.162142 1.57225963,16.1407505 C1.57225963,8.11935903 8.09904868,1.59495943 16.1180507,1.59495943 C24.1382475,1.59495943 30.6650365,8.11935903 30.6650365,16.1407505 C30.6650365,16.7596187 30.6136633,17.3665396 30.5383955,17.9662921 L26.2576917,10.5518215 C26.0283043,10.1575619 25.3807627,10.1575619 25.1477911,10.5518215 L15.8050325,26.7463347 C15.6939229,26.945854 15.6939229,27.1871886 15.8122008,27.3867079 C15.9221156,27.5802535 16.1359716,27.7045051 16.3605801,27.7045051 L24.9064564,27.7045051 C22.4608519,29.5670832 19.4214686,30.6865416 16.1180507,30.6865416 L16.1180507,30.6865416 Z M35.5347404,26.6220832 L31.7379006,20.0451156 C32.0521136,18.7930426 32.2361014,17.4895963 32.2361014,16.1407505 C32.2361014,7.24959838 25.0056187,0.021505071 16.1180507,0.021505071 C7.23048276,0.021505071 0,7.24959838 0,16.1407505 C0,25.0283185 7.23048276,32.2576065 16.1180507,32.2576065 C20.4704381,32.2576065 24.4166187,30.5168905 27.320998,27.7045051 L35.052071,27.7045051 L35.0711866,27.7045051 C35.4212414,27.7045051 35.7103651,27.4141866 35.7103651,27.0641318 C35.7103651,26.8944807 35.6422657,26.7379716 35.5347404,26.6220832 L35.5347404,26.6220832 Z" id="Fill-1" fill="#1C1B1A" sketch:type="MSShapeGroup" mask="url(#mask-2)"></path>
                <path d="M15.1516367,16.1439763 C15.1540262,15.5669235 15.6211641,15.0985909 16.2006063,15.0985909 C16.777659,15.0985909 17.2471864,15.5669235 17.2483811,16.1439763 C17.2471864,16.721029 16.777659,17.1905564 16.201801,17.1905564 C15.6235535,17.1905564 15.1540262,16.721029 15.1516367,16.1439763 M18.8242249,16.1403921 C18.8242249,15.0830594 18.1503994,14.0305057 16.9867361,13.6529722 L16.9867361,5.90278357 L18.4466915,7.36393367 L19.5589815,6.25164361 L16.201801,2.89446308 L12.8446205,6.25164361 L13.9545211,7.36393367 L15.4144765,5.90278357 L15.4144765,13.6505828 C14.7287037,13.8728018 14.0405414,14.4438809 13.7036286,15.3614306 L5.96299777,15.3614306 L7.42295314,13.90267 L6.31066308,12.7891852 L2.95467728,16.1463657 L6.31066308,19.504741 L7.42295314,18.3936456 L5.96299777,16.9336903 L13.7131864,16.9336903 C13.7167706,16.9468323 13.7239389,16.9587795 13.7287178,16.9707268 C13.9521316,17.7090675 14.8469815,18.7687897 16.2006063,18.7687897 C17.6689247,18.7687897 18.8242249,17.4916274 18.8242249,16.1403921" id="Fill-3" fill="#1C1B1A" sketch:type="MSShapeGroup" mask="url(#mask-2)"></path>
            </g>
        </g>
    </g>
</svg>