<?xml version="1.0" encoding="iso-8859-1"?>
<!-- Generator: Adobe Illustrator 19.2.1, SVG Export Plug-In . SVG Version: 6.00 Build 0)  -->
<svg version="1.1" xmlns="http://www.w3.org/2000/svg" xmlns:xlink="http://www.w3.org/1999/xlink" x="0px" y="0px"
	 viewBox="0 0 600 600" style="enable-background:new 0 0 600 600;" xml:space="preserve">
<g id="time">
	<g id="time_1_">
		<g>
			<g>
				<g>
					<path style="fill:#1C1B1A;" d="M426.1,550H173.85c-9.098,0-16.497-7.449-16.497-16.547V421.926
						c0-63.487,35.393-101.83,69.586-121.926c-34.193-20.096-69.586-58.488-69.586-121.976V66.547
						c0-9.098,7.399-16.547,16.497-16.547H426.1c9.148,0,16.547,7.399,16.547,16.547v111.478c0,63.487-35.443,101.88-69.586,121.976
						c34.193,20.096,69.586,58.438,69.586,121.926v111.528C442.696,542.552,435.248,550,426.1,550z M190.397,516.957h219.206
						v-95.031c0-86.533-80.084-105.029-83.483-105.779c-7.548-1.65-13.047-8.348-13.047-16.147c0-7.748,5.499-14.497,13.047-16.147
						c3.349-0.75,83.483-19.896,83.483-105.829V83.043H190.397v94.981c0,86.533,80.084,105.079,83.483,105.829
						c7.648,1.65,12.997,8.398,12.997,16.147c0,7.798-5.399,14.497-12.997,16.147c-3.349,0.75-83.483,19.896-83.483,105.779V516.957
						z"/>
				</g>
				<g>
					<path style="fill:#1C1B1A;" d="M300.025,348.14c0,0-85.233,65.287-85.233,93.381v51.04h170.416h0.05v-51.04
						C385.258,413.377,300.025,348.14,300.025,348.14"/>
				</g>
				<g>
					<path style="fill:#1C1B1A;" d="M224.09,217.766c12.847,26.095,41.892,44.341,75.885,44.341
						c33.943,0,63.037-18.246,75.885-44.341H224.09z"/>
				</g>
			</g>
		</g>
	</g>
</g>
<g id="Layer_1">
</g>
</svg>
