<?xml version="1.0" encoding="iso-8859-1"?>
<!-- Generator: Adobe Illustrator 16.0.0, SVG Export Plug-In . SVG Version: 6.00 Build 0)  -->
<!DOCTYPE svg PUBLIC "-//W3C//DTD SVG 1.1//EN" "http://www.w3.org/Graphics/SVG/1.1/DTD/svg11.dtd">
<svg version="1.1" xmlns="http://www.w3.org/2000/svg" xmlns:xlink="http://www.w3.org/1999/xlink" x="0px" y="0px"
	 width="961.539px" height="1000px" viewBox="0 0 961.539 1000" style="enable-background:new 0 0 961.539 1000;"
	 xml:space="preserve">
<g id="KP_x5F_Time_x5F_icon">
	<g>
		<g>
			<g>
				<path style="fill:#1C1B1A;" d="M733.015,1000.076H228.416c-18.195,0-33.027-14.867-33.027-33.1V743.889
					c0-126.955,70.793-203.734,139.2-243.89c-68.406-40.188-139.2-116.97-139.2-243.979V32.985
					c0-18.231,14.832-33.062,33.027-33.062h504.599c18.268,0,33.136,14.831,33.136,33.062v223.035
					c0,127.008-70.864,203.79-139.235,243.979c68.371,40.155,139.235,116.935,139.235,243.89v223.088
					C766.15,985.209,751.282,1000.076,733.015,1000.076z M261.479,933.951h438.545V743.889
					c0-173.059-160.182-210.102-167.019-211.604c-15.121-3.291-26.081-16.713-26.081-32.286c0-15.5,10.96-28.958,26.081-32.285
					c6.655-1.502,167.019-39.811,167.019-211.694V66.067H261.479v189.953c0,173.149,160.217,210.192,167.018,211.694
					c15.267,3.327,26.046,16.784,26.046,32.285c0,15.573-10.78,28.995-26.046,32.286c-6.729,1.539-167.018,39.775-167.018,211.604
					V933.951z"/>
			</g>
			<g>
				<path style="fill:#1C1B1A;" d="M480.77,596.26c0,0-170.489,130.555-170.489,186.805V885.15h340.908h0.108V783.064
					C651.297,726.814,480.77,596.26,480.77,596.26"/>
			</g>
			<g>
				<path style="fill:#1C1B1A;" d="M328.946,335.496c25.682,52.183,83.813,88.664,151.823,88.664
					c67.936,0,126.142-36.481,151.825-88.664H328.946z"/>
			</g>
		</g>
	</g>
</g>
<g id="Layer_1">
</g>
</svg>
