<?xml version="1.0" encoding="iso-8859-1"?>
<!-- Generator: Adobe Illustrator 16.0.0, SVG Export Plug-In . SVG Version: 6.00 Build 0)  -->
<!DOCTYPE svg PUBLIC "-//W3C//DTD SVG 1.1//EN" "http://www.w3.org/Graphics/SVG/1.1/DTD/svg11.dtd">
<svg version="1.1" xmlns="http://www.w3.org/2000/svg" xmlns:xlink="http://www.w3.org/1999/xlink" x="0px" y="0px"
	 width="961.539px" height="1000px" viewBox="0 0 961.539 1000" style="enable-background:new 0 0 961.539 1000;"
	 xml:space="preserve">
<g id="KP_x5F_Touch_x5F_icon">
	<g>
		<path style="fill:#1C1B1A;" d="M840.587,469.944v231.299c0,215.747-133.86,298.754-298.989,298.754
			c-95.684,0-179.361-45.428-233.289-115.343c-67.256-74.218-183.123-401.997-183.123-401.997
			c-13.437-38.465,6.186-80.64,43.584-93.894c7.722-2.642,15.661-3.962,23.382-3.962c30.057,0,58.667,19.188,69.391,49.679
			l61.939,160.137V65.287c0-35.771,29.279-65.284,65.429-65.284c35.934,0,65.122,29.514,65.122,65.284V344.22
			c0-35.951,29.28-65.283,65.14-65.283c35.842,0,65.229,29.332,65.229,65.283v45.953c1.068-34.685,29.66-62.915,64.743-62.915
			c35.844,0,65.247,29.388,65.247,65.286v53.437c8.501-26.094,32.155-45.318,61.054-45.318c35.844,0,65.141,29.334,65.141,65.231
			V469.944z"/>
	</g>
</g>
<g id="Layer_1">
</g>
</svg>
