<?xml version="1.0" encoding="iso-8859-1"?>
<!-- Generator: Adobe Illustrator 19.2.1, SVG Export Plug-In . SVG Version: 6.00 Build 0)  -->
<svg version="1.1" xmlns="http://www.w3.org/2000/svg" xmlns:xlink="http://www.w3.org/1999/xlink" x="0px" y="0px"
	 viewBox="0 0 600 600" style="enable-background:new 0 0 600 600;" xml:space="preserve">
<g id="touch">
	<g id="touch_1_">
		<g>
			<path style="fill:#1C1B1A;" d="M479.904,284.95V400.6c0,107.85-66.95,149.4-149.5,149.4c-47.85,0-89.7-22.7-116.65-57.65
				c-33.65-37.1-91.55-201-91.55-201c-6.7-19.25,3.1-40.3,21.8-46.95c3.85-1.3,7.85-2,11.7-2c15.05,0,29.35,9.6,34.7,24.85
				l30.95,80.05V82.65c0-17.9,14.65-32.65,32.7-32.65c17.95,0,32.55,14.75,32.55,32.65V222.1c0-18,14.65-32.65,32.55-32.65
				s32.6,14.65,32.6,32.65v23c0.55-17.35,14.85-31.45,32.35-31.45c17.9,0,32.6,14.7,32.6,32.65V273
				c4.25-13.05,16.1-22.65,30.55-22.65c17.9,0,32.55,14.65,32.55,32.6L479.904,284.95L479.904,284.95z"/>
		</g>
	</g>
</g>
<g id="Layer_1">
</g>
</svg>
