<?xml version="1.0" encoding="iso-8859-1"?>
<!-- Generator: Adobe Illustrator 19.2.1, SVG Export Plug-In . SVG Version: 6.00 Build 0)  -->
<svg version="1.1" xmlns="http://www.w3.org/2000/svg" xmlns:xlink="http://www.w3.org/1999/xlink" x="0px" y="0px"
	 viewBox="0 0 600 600" style="enable-background:new 0 0 600 600;" xml:space="preserve">
<g id="trafficlight">
	<g id="trafficlight_1_">
		<path style="fill:#1C1B1A;" d="M300,507.792c-34.85,0-63.113-28.253-63.113-63.113c0-34.857,28.263-63.094,63.113-63.094
			s63.122,28.237,63.122,63.094C363.122,479.538,334.85,507.792,300,507.792 M300,227.914c28.136,0,51.971,18.427,60.119,43.868
			h-16.123c-7.459-16.92-24.344-28.779-43.996-28.779c-19.671,0-36.556,11.859-43.987,28.779h-16.149
			C248.029,246.342,271.847,227.914,300,227.914 M300,74.234c28.136,0,51.953,18.437,60.082,43.868h-16.086
			c-7.459-16.911-24.344-28.779-43.996-28.779c-19.671,0-36.556,11.868-43.987,28.779h-16.114
			C248.029,92.671,271.847,74.234,300,74.234 M402.499,354.937l32.628-124.81H376.93v-29.941h25.568l32.628-124.819H376.93V50
			H223.07v25.368h-58.196l32.609,124.819h25.587v29.941h-58.196l32.609,124.81h25.587v29.933h-58.196l32.609,124.845h27.964v-0.18
			l18.6,40.465h111.89l18.626-40.465v0.18h27.936l32.628-124.845H376.93v-29.933H402.499z"/>
	</g>
</g>
<g id="Layer_1">
</g>
</svg>
