<?xml version="1.0" encoding="iso-8859-1"?>
<!-- Generator: Adobe Illustrator 19.2.1, SVG Export Plug-In . SVG Version: 6.00 Build 0)  -->
<svg version="1.1" xmlns="http://www.w3.org/2000/svg" xmlns:xlink="http://www.w3.org/1999/xlink" x="0px" y="0px"
	 viewBox="0 0 600 600" style="enable-background:new 0 0 600 600;" xml:space="preserve">
<g id="twitter">
	<g>
		<path d="M543.085,139.126c-18.094,8.025-37.691,13.579-58.177,16.011c20.948-12.539,36.919-32.406,44.597-56.094
			c-19.599,11.612-41.281,20.061-64.505,24.574c-18.364-19.598-44.752-31.943-73.839-31.943c-55.901,0-101.27,45.369-101.27,101.27
			c0,7.986,0.925,15.663,2.584,23.071c-84.257-4.244-158.829-44.482-208.866-105.822c-8.757,14.93-13.735,32.406-13.735,50.962
			c0,35.108,17.939,66.163,45.06,84.218c-16.587-0.424-32.098-5.092-45.792-12.654v1.235c0,49.111,34.953,90.081,81.208,99.456
			c-8.449,2.238-17.475,3.433-26.657,3.433c-6.481,0-12.808-0.578-19.135-1.774c12.962,40.238,50.306,69.441,94.634,70.368
			c-34.683,27.12-78.393,43.246-125.845,43.246c-8.14,0-16.125-0.462-24.111-1.349c44.905,28.779,98.106,45.484,155.356,45.484
			c186.26,0,288.147-154.315,288.147-288.106l-0.308-13.117C512.337,177.279,529.506,159.496,543.085,139.126L543.085,139.126z
			 M543.085,139.126"/>
	</g>
</g>
<g id="Layer_1">
</g>
</svg>
