<?xml version="1.0" encoding="iso-8859-1"?>
<!-- Generator: Adobe Illustrator 19.2.1, SVG Export Plug-In . SVG Version: 6.00 Build 0)  -->
<svg version="1.1" xmlns="http://www.w3.org/2000/svg" xmlns:xlink="http://www.w3.org/1999/xlink" x="0px" y="0px"
	 viewBox="0 0 600 600" style="enable-background:new 0 0 600 600;" xml:space="preserve">
<g id="unlocked">
	<path style="fill-rule:evenodd;clip-rule:evenodd;" d="M439.722,272.185h-7.599h-45.483H345.5H213.379v-98.37
		c0-43.611,36.059-79.074,80.338-79.074h12.678c44.336,0,80.244,35.463,80.244,79.074V186h45.483v-2.537v-9.648
		C432.122,105.518,375.748,50,306.396,50h-12.678c-69.409,0-125.821,55.518-125.821,123.815v98.37h-7.618
		c-17.964,0-32.692,14.482-32.692,32.241v213.37c0,17.704,14.728,32.204,32.692,32.204h279.443c18.001,0,32.692-14.5,32.692-32.204
		v-213.37C472.414,286.667,457.723,272.185,439.722,272.185z M256.85,479.111l23.08-64.018
		c-13.449-7.111-22.647-21.074-22.647-37.111c0-23.204,19.149-42.056,42.774-42.056c23.588,0,42.755,18.852,42.755,42.056
		c0,16.037-9.179,30-22.591,37.111l23.042,64.018H256.85z"/>
</g>
<g id="Layer_1">
</g>
</svg>
