<?xml version="1.0" encoding="iso-8859-1"?>
<!-- Generator: Adobe Illustrator 19.2.1, SVG Export Plug-In . SVG Version: 6.00 Build 0)  -->
<svg version="1.1" xmlns="http://www.w3.org/2000/svg" xmlns:xlink="http://www.w3.org/1999/xlink" x="0px" y="0px"
	 viewBox="0 0 600 600" style="enable-background:new 0 0 600 600;" xml:space="preserve">
<g id="walk-together">
	<g id="walking">
		<g>
			<g>
				<path style="fill:#1C1B1A;" d="M448.348,154.064c21.096,3.463,41.017-10.841,44.471-31.937
					c3.437-21.113-10.869-41.024-31.982-44.443c-21.096-3.482-40.971,10.824-44.443,31.965
					C412.929,130.718,427.225,150.61,448.348,154.064"/>
				<path style="fill:#1C1B1A;" d="M549.406,491.117L524.63,375.99c-0.978-4.457-3.02-8.526-5.987-11.891l-55.212-62.219
					l4.928-30.221l62.547-28.004c8.824-3.943,12.785-14.259,8.824-23.058c-3.924-8.798-14.232-12.75-23.058-8.798l-41.523,18.556
					l3.807-23.619c3.337-20.472-10.661-39.932-31.097-43.295l-1.998-0.317c-11.348-1.872-22.389,1.791-30.554,8.824l-72.528,40.591
					c-5.182,2.904-8.519,8.202-8.88,14.143l-4.485,71.716c-0.606,9.602,6.709,17.93,16.304,18.519c0.352,0,0.75,0.035,1.13,0.035
					c9.15,0,16.828-7.107,17.389-16.348l3.869-62.238l29.976-16.746l-13.085,80.26c-1.283,7.811,0,15.48,3.183,22.171
					l-65.647,162.781c-5.398,13.382,1.104,28.645,14.495,34.089c3.202,1.283,6.483,1.917,9.767,1.917
					c10.37,0,20.209-6.204,24.306-16.402l63.721-157.898l40.049,45.167l23.302,108.408c2.641,12.278,13.509,20.724,25.589,20.724
					c1.844,0,3.689-0.217,5.533-0.578C543.419,519.184,552.462,505.26,549.406,491.117"/>
			</g>
			<path style="fill:#1C1B1A;" d="M203.59,154.064c21.124,3.463,41.026-10.841,44.471-31.937
				c3.444-21.113-10.906-41.024-31.965-44.443c-21.132-3.482-41.024,10.824-44.452,31.965
				C168.19,130.718,182.505,150.61,203.59,154.064"/>
			<path style="fill:#1C1B1A;" d="M217.01,312.034l4.357-26.602l44.624,16.819c2.007,0.731,4.087,1.094,6.139,1.094
				c7.063,0,13.717-4.313,16.339-11.267c3.419-9.043-1.165-19.124-10.182-22.489l-51.178-19.332l7.115-43.53
				c3.328-20.463-10.696-39.923-31.123-43.286l-1.982-0.326c-11.682-1.907-22.93,1.963-31.16,9.35
				c-0.615,0.415-1.22,0.787-1.798,1.293L55.713,275.884c-7.135,6.491-7.65,17.515-1.185,24.658
				c3.428,3.798,8.193,5.715,12.922,5.715c4.187,0,8.372-1.474,11.746-4.557l71.688-65.088l-10.645,65.26
				c-2.08,12.848,2.622,25.247,11.485,33.574l-7.27,73.703l-62.03,70.106c-9.595,10.85-8.554,27.38,2.269,36.965
				c4.983,4.413,11.178,6.565,17.345,6.565c7.243,0,14.467-2.985,19.63-8.826l67.654-76.453c3.609-4.141,5.896-9.322,6.42-14.802
				l2.911-29.56l56.923,115.099c4.574,9.224,13.843,14.595,23.491,14.595c3.889,0,7.832-0.922,11.602-2.767
				c12.958-6.402,18.274-22.082,11.854-35.03L217.01,312.034z"/>
		</g>
	</g>
</g>
<g id="Layer_1">
</g>
</svg>
