<?xml version="1.0" encoding="iso-8859-1"?>
<!-- Generator: Adobe Illustrator 19.2.1, SVG Export Plug-In . SVG Version: 6.00 Build 0)  -->
<svg version="1.1" xmlns="http://www.w3.org/2000/svg" xmlns:xlink="http://www.w3.org/1999/xlink" x="0px" y="0px"
	 viewBox="0 0 600 600" style="enable-background:new 0 0 600 600;" xml:space="preserve">
<g id="walk">
	<g>
		<path style="fill:#1C1B1A;" d="M314.619,136.276c23.668,3.885,46.017-12.162,49.891-35.83c3.856-23.687-12.193-46.025-35.88-49.86
			c-23.668-3.906-45.965,12.144-49.86,35.861C274.883,110.084,290.922,132.401,314.619,136.276z"/>
		<path style="fill:#1C1B1A;" d="M427.996,514.413L400.2,385.253c-1.097-5.001-3.389-9.565-6.717-13.34l-61.941-69.803l5.528-33.904
			l70.171-31.417c9.9-4.423,14.344-15.997,9.9-25.868c-4.402-9.871-15.966-14.304-25.868-9.871l-46.584,20.817l4.272-26.498
			c3.744-22.968-11.961-44.799-34.887-48.572l-2.242-0.355c-12.731-2.1-25.118,2.009-34.278,9.9l-81.369,45.539
			c-5.813,3.258-9.557,9.202-9.962,15.867l-5.032,80.457c-0.679,10.772,7.527,20.115,18.291,20.776c0.395,0,0.841,0.039,1.267,0.039
			c10.265,0,18.879-7.974,19.509-18.341l4.34-69.824l33.63-18.788l-14.68,90.043c-1.44,8.763,0,17.367,3.571,24.873l-73.649,182.623
			c-6.056,15.013,1.238,32.136,16.261,38.244c3.592,1.44,7.274,2.15,10.957,2.15c11.635,0,22.673-6.96,27.269-18.401l71.488-177.144
			l44.93,50.672l26.142,121.622c2.963,13.774,15.156,23.25,28.708,23.25c2.069,0,4.139-0.243,6.208-0.648
			C421.279,545.901,431.424,530.279,427.996,514.413z"/>
	</g>
</g>
<g id="Layer_1">
</g>
</svg>
