<?xml version="1.0" encoding="UTF-8" standalone="no"?>
<svg width="33px" height="29px" viewBox="0 0 33 29" version="1.1" xmlns="http://www.w3.org/2000/svg" xmlns:xlink="http://www.w3.org/1999/xlink" xmlns:sketch="http://www.bohemiancoding.com/sketch/ns">
    <!-- Generator: Sketch 3.4.2 (15857) - http://www.bohemiancoding.com/sketch -->
    <title>Walking</title>
    <desc>Created with Sketch.</desc>
    <defs>
        <path id="path-1" d="M0,1.11587424 L32.2576065,1.11587424 L32.2576065,29.8681542 L0,29.8681542"></path>
    </defs>
    <g id="KP-Approved" stroke="none" stroke-width="1" fill="none" fill-rule="evenodd" sketch:type="MSPage">
        <g id="Desktop-HD" sketch:type="MSArtboardGroup" transform="translate(-1337.000000, -520.000000)">
            <g id="Walking" sketch:type="MSLayerGroup" transform="translate(1337.000000, 519.000000)">
                <path d="M25.6992767,6.07685517 C27.0600698,6.30026897 28.3455951,5.37794037 28.5678142,4.01595254 C28.7900333,2.65396471 27.8665099,1.36963408 26.5045221,1.14980446 C25.143729,0.925195943 23.8617878,1.84752454 23.638374,3.21190183 C23.4137655,4.57030548 24.3360941,5.85463611 25.6992767,6.07685517" id="Fill-1" fill="#1C1B1A" sketch:type="MSShapeGroup"></path>
                <g id="Group-5">
                    <mask id="mask-2" sketch:name="Clip 4" fill="white">
                        <use xlink:href="#path-1"></use>
                    </mask>
                    <g id="Clip-4"></g>
                    <path d="M32.2190168,27.8217077 L30.6204732,20.3940951 C30.5571527,20.1073609 30.4257329,19.8445211 30.2345767,19.6270809 L26.6719032,15.612801 L26.9897004,13.6630079 L31.0254854,11.8565819 C31.5941751,11.6021053 31.8498465,10.9366428 31.5941751,10.3691479 C31.3420878,9.80165294 30.6766254,9.54717627 30.106741,9.80165294 L27.4281649,10.9987686 L27.6742785,9.4754927 C27.8893292,8.15412556 26.9861162,6.89846836 25.6683333,6.68222292 L25.5393028,6.66191258 C24.8069357,6.54124523 24.0948789,6.77660629 23.5680047,7.23060223 L18.8882623,9.84944199 C18.5537389,10.037014 18.3386882,10.3787057 18.3159884,10.7622128 L18.0268647,15.3881925 C17.9874387,16.0082554 18.4593556,16.5458822 19.0782237,16.5829187 C19.1009235,16.5829187 19.1260128,16.5853081 19.151102,16.5853081 C19.7412968,16.5853081 20.2371081,16.1265333 20.2729499,15.5303649 L20.5226477,11.516085 L22.4569093,10.4348578 L21.6122379,15.612801 C21.5298018,16.1169755 21.6122379,16.6115921 21.8177308,17.044083 L17.5824266,27.545726 C17.2335665,28.4083183 17.6541101,29.3927726 18.5178972,29.7440221 C18.7245848,29.8276529 18.9360513,29.8682736 19.1475178,29.8682736 C19.8165645,29.8682736 20.4509641,29.4680404 20.7161933,28.8097462 L24.827246,18.623511 L27.410244,21.5374481 L28.9132095,28.5313751 C29.0840554,29.3234785 29.7853596,29.8682736 30.5643211,29.8682736 C30.6837937,29.8682736 30.8020716,29.8539369 30.9215442,29.8312371 C31.8331203,29.6329126 32.4161467,28.7344785 32.2190168,27.8217077" id="Fill-3" fill="#1C1B1A" sketch:type="MSShapeGroup" mask="url(#mask-2)"></path>
                </g>
                <path d="M9.90881988,6.07685517 C11.2720024,6.30026897 12.5551383,5.37794037 12.7773574,4.01595254 C12.9995765,2.65396471 12.0736637,1.36963408 10.71526,1.14980446 C9.35207748,0.925195943 8.06894158,1.84752454 7.84791724,3.21190183 C7.62450345,4.57030548 8.54802677,5.85463611 9.90881988,6.07685517" id="Fill-6" fill="#1C1B1A" sketch:type="MSShapeGroup"></path>
                <path d="M10.7746379,16.2682278 L11.0553986,14.552601 L13.9346886,15.6374124 C14.0637191,15.6840067 14.1987231,15.7079012 14.3313377,15.7079012 C14.7865284,15.7079012 15.2154351,15.42953 15.3850862,14.980313 C15.6049158,14.3972866 15.3098185,13.7473556 14.7279868,13.5299154 L11.4257637,12.2826213 L11.8857333,9.47501481 C12.0995892,8.15364767 11.1951815,6.89918519 9.87739858,6.68174503 L9.74956288,6.66023996 C8.99569067,6.53718316 8.27049189,6.78688093 7.73883874,7.26357667 C7.69941278,7.29105538 7.65998682,7.3149499 7.6229503,7.34720751 L0.368573022,13.9361223 C-0.0913965517,14.3542765 -0.124848884,15.0663333 0.292110548,15.5263028 C0.513134888,15.7724164 0.820179513,15.8954732 1.12602941,15.8954732 C1.39603753,15.8954732 1.66604564,15.7998951 1.8834858,15.6015706 L6.50827079,11.4021081 L5.82130325,15.6123231 C5.68749391,16.4414631 5.99095436,17.2407349 6.56322819,17.7783617 L6.09370081,22.5333718 L2.09136815,27.0566051 C1.4725,27.7567146 1.53940467,28.8224103 2.23831947,29.4412785 C2.55970081,29.7256233 2.95873935,29.8642116 3.35777789,29.8642116 C3.82491582,29.8642116 4.29085903,29.6718606 4.62418763,29.2955219 L8.98852231,24.3624976 C9.22149391,24.0960736 9.36844523,23.7615503 9.40309229,23.4079114 L9.5906643,21.5011284 L13.2632525,28.9263515 C13.5571552,29.5213252 14.155713,29.8677957 14.7781653,29.8677957 C15.0290578,29.8677957 15.2835345,29.8080594 15.5260639,29.6897815 C16.3623722,29.2764063 16.7052586,28.265668 16.2918834,27.4293596 L10.7746379,16.2682278 Z" id="Fill-8" fill="#1C1B1A" sketch:type="MSShapeGroup"></path>
            </g>
        </g>
    </g>
</svg>