<?xml version="1.0" encoding="UTF-8" standalone="no"?>
<svg width="33px" height="20px" viewBox="0 0 33 20" version="1.1" xmlns="http://www.w3.org/2000/svg" xmlns:xlink="http://www.w3.org/1999/xlink" xmlns:sketch="http://www.bohemiancoding.com/sketch/ns">
    <!-- Generator: Sketch 3.4.2 (15857) - http://www.bohemiancoding.com/sketch -->
    <title>Website</title>
    <desc>Created with Sketch.</desc>
    <defs>
        <path id="path-1" d="M0,0.793298174 L32.3304848,0.793298174 L32.3304848,19.1156187 L0,19.1156187 L0,0.793298174 Z"></path>
    </defs>
    <g id="KP-Approved" stroke="none" stroke-width="1" fill="none" fill-rule="evenodd" sketch:type="MSPage">
        <g id="Desktop-HD" sketch:type="MSArtboardGroup" transform="translate(-1254.000000, -519.000000)">
            <g id="Website" sketch:type="MSLayerGroup" transform="translate(1254.000000, 519.000000)">
                <path d="M1.77416836,4.93063489 L29.0509615,4.93063489 L29.0509615,4.63075862 L1.77416836,4.63075862 L1.77416836,4.93063489 Z" id="Fill-1" fill="#1C1B1A" sketch:type="MSShapeGroup"></path>
                <path d="M5.49478458,8.5178002 L4.56648235,8.5178002 L3.45299757,9.71611055 L3.45299757,6.85593611 L2.73138296,6.85593611 L2.73138296,11.4078428 L3.45299757,11.4078428 L3.45299757,9.93235598 L3.46494483,9.93235598 L4.6142714,11.4078428 L5.57363651,11.4078428 L4.2534641,9.83080426 L5.49478458,8.5178002 Z" id="Fill-2" fill="#1C1B1A" sketch:type="MSShapeGroup"></path>
                <g id="Group-16">
                    <path d="M7.51315497,10.8301927 C6.98389128,10.8301927 6.66489939,10.414428 6.66489939,9.9628215 C6.66489939,9.51002028 6.98389128,9.0954503 7.51315497,9.0954503 C8.04361339,9.0954503 8.36260527,9.51002028 8.36260527,9.9628215 C8.36260527,10.414428 8.04361339,10.8301927 7.51315497,10.8301927 M7.65891156,8.44432454 C7.25389939,8.44432454 6.87397647,8.6020284 6.66489939,8.95088844 L6.6517574,8.95088844 L6.6517574,8.51839757 L5.96478986,8.51839757 L5.96478986,12.7799858 L6.68759919,12.7799858 L6.68759919,11.0404645 L6.70790953,11.0404645 C6.8572503,11.2268418 7.14637404,11.4801237 7.68758499,11.4801237 C8.51314077,11.4801237 9.08421988,10.8170507 9.08421988,9.9628215 C9.08421988,9.10739757 8.54898256,8.44432454 7.65891156,8.44432454" id="Fill-3" fill="#1C1B1A" sketch:type="MSShapeGroup"></path>
                    <path d="M10.2433432,10.5157408 C9.978114,10.5157408 9.76306329,10.728402 9.76306329,10.9864629 C9.76306329,11.2457185 9.99006126,11.444043 10.2433432,11.444043 C10.5085724,11.444043 10.7248178,11.2325765 10.7248178,10.9745156 C10.7248178,10.71526 10.5025988,10.5157408 10.2433432,10.5157408" id="Fill-5" fill="#1C1B1A" sketch:type="MSShapeGroup"></path>
                    <path d="M12.9728146,10.8301927 C12.4423562,10.8301927 12.1233643,10.414428 12.1233643,9.9628215 C12.1233643,9.51002028 12.4423562,9.0954503 12.9728146,9.0954503 C13.5008836,9.0954503 13.8210702,9.51002028 13.8210702,9.9628215 C13.8210702,10.414428 13.5008836,10.8301927 12.9728146,10.8301927 M12.9728146,8.44551927 C12.0982751,8.44551927 11.400555,9.05244016 11.400555,9.9628215 C11.400555,10.8708134 12.0982751,11.4813185 12.9728146,11.4813185 C13.8449647,11.4813185 14.5438795,10.8708134 14.5438795,9.9628215 C14.5438795,9.05244016 13.8449647,8.44551927 12.9728146,8.44551927" id="Fill-7" fill="#1C1B1A" sketch:type="MSShapeGroup"></path>
                    <path d="M15.9549706,8.97573874 L15.9430233,8.97573874 L15.9430233,8.51815862 L15.2190193,8.51815862 L15.2190193,11.4082012 L15.9430233,11.4082012 L15.9430233,9.85983611 C15.9430233,9.7045217 16.0397961,9.13105314 16.7184006,9.13105314 C16.8330943,9.13105314 16.947788,9.15614239 17.0684554,9.18720527 L17.0684554,8.48829047 C16.9836298,8.46320122 16.899999,8.4440856 16.8091998,8.4440856 C16.4292769,8.4440856 16.1114797,8.64360487 15.9549706,8.97573874" id="Fill-9" fill="#1C1B1A" sketch:type="MSShapeGroup"></path>
                    <path d="M18.882886,10.7933951 C18.394243,10.7933951 18.0346304,10.4146669 18.0346304,9.95589209 C18.0346304,9.44574402 18.3834905,9.09568925 18.8900544,9.09568925 C19.4145391,9.09568925 19.7442836,9.44574402 19.7442836,9.94513955 C19.7442836,10.4266142 19.4193181,10.7933951 18.882886,10.7933951 L18.882886,10.7933951 Z M19.7442836,8.95112738 L19.7323363,8.95112738 C19.5220645,8.60226734 19.1433363,8.44336876 18.7383241,8.44336876 C17.8482531,8.44336876 17.3130158,9.10763651 17.3130158,9.96306045 C17.3130158,10.7814479 17.8852897,11.4433262 18.7502714,11.4433262 C19.1122734,11.4433262 19.485028,11.3059327 19.6964945,11.0215878 L19.7084418,11.0215878 L19.7084418,11.2330544 C19.7084418,11.8065229 19.4921963,12.203172 18.7932815,12.203172 C18.3894641,12.203172 18.0895878,12.0514418 17.7992694,11.788602 L17.3655838,12.377602 C17.7753748,12.7384093 18.2628231,12.853103 18.7992552,12.853103 C19.9258819,12.853103 20.4324458,12.19003 20.4324458,11.1482288 L20.4324458,8.51863651 L19.7442836,8.51863651 L19.7442836,8.95112738 Z" id="Fill-11" fill="#1C1B1A" sketch:type="MSShapeGroup"></path>
                    <g id="Group-15">
                        <mask id="mask-2" sketch:name="Clip 14" fill="white">
                            <use xlink:href="#path-1"></use>
                        </mask>
                        <g id="Clip-14"></g>
                        <path d="M27.1783477,15.6872325 L25.0027513,15.6872325 L26.0899521,14.5988369 L27.1783477,15.6872325 Z M0.602858824,17.1591351 L0.602858824,3.60138256 L30.2248994,3.60138256 L30.2248994,15.2858045 L27.8163314,12.8748471 L29.5164268,11.173557 C29.5642158,11.1245732 29.5630211,11.0373582 29.5080637,10.9477538 C29.4566905,10.8581493 29.3646966,10.7888552 29.2762868,10.7685448 L22.7901185,9.41014118 C22.7315769,9.39819391 22.6849826,9.4113359 22.6551144,9.44000933 C22.6252462,9.46987748 22.6144937,9.51766653 22.6252462,9.57620811 L23.9071874,15.6872325 L1.77488519,15.6872325 L1.77488519,15.9894982 L23.9693132,15.9894982 L23.9848446,16.0635712 C24.0027655,16.1495915 24.0720596,16.2415854 24.1616641,16.2953481 C24.2512686,16.347916 24.340873,16.3491108 24.3874673,16.3025164 L24.7004856,15.9894982 L27.4782239,15.9894982 L28.6478609,17.1591351 L0.602858824,17.1591351 Z M28.5403355,1.49627505 L29.9094917,1.49627505 L29.9094917,2.67308032 L28.5403355,2.67308032 L28.5403355,1.49627505 Z M32.2260657,17.2869708 L30.8270414,15.8867517 L30.8270414,0.793776065 L-0.000477890467,0.793776065 L-0.000477890467,17.7612771 L29.2511976,17.7612771 L30.5008811,19.0121554 C30.606017,19.1160966 30.7398264,19.1471594 30.806731,19.0814495 L32.2965546,17.591626 C32.3622645,17.5283055 32.3323963,17.3921067 32.2260657,17.2869708 L32.2260657,17.2869708 Z" id="Fill-13" fill="#1C1B1A" sketch:type="MSShapeGroup" mask="url(#mask-2)"></path>
                    </g>
                </g>
            </g>
        </g>
    </g>
</svg>