<?xml version="1.0" encoding="iso-8859-1"?>
<!-- Generator: Adobe Illustrator 19.2.1, SVG Export Plug-In . SVG Version: 6.00 Build 0)  -->
<svg version="1.1" xmlns="http://www.w3.org/2000/svg" xmlns:xlink="http://www.w3.org/1999/xlink" x="0px" y="0px"
	 viewBox="0 0 600 600" style="enable-background:new 0 0 600 600;" xml:space="preserve">
<g id="wifi">
	<g id="wifi_1_">
		<g>
			<path style="fill:#1C1B1A;" d="M300,412.009c-16.354,0-32.13,5.837-44.488,16.354c-0.684,0.578-1.157,1.472-1.157,2.472
				c-0.053,0.947,0.316,1.893,0.999,2.524l42.279,42.279c0.631,0.684,1.525,0.999,2.419,0.999c0.841,0,1.735-0.315,2.366-0.999
				l42.279-42.279c0.684-0.631,1.052-1.578,0.999-2.524c0-0.947-0.473-1.841-1.157-2.472
				C332.183,417.898,316.407,412.009,300,412.009z"/>
			<path style="fill:#1C1B1A;" d="M549.048,224.171C482.106,159.121,393.656,123.363,300,123.363S117.946,159.174,51.004,224.171
				c-0.631,0.578-0.999,1.472-0.999,2.366c-0.053,0.947,0.316,1.841,0.947,2.472l29.974,29.974c1.262,1.315,3.418,1.315,4.733,0.053
				c57.635-55.741,133.779-86.452,214.289-86.452c80.562,0,156.707,30.71,214.342,86.452c0.631,0.631,1.472,0.947,2.314,0.947
				c0.841,0,1.735-0.316,2.419-0.999l29.974-29.974c0.684-0.631,1.052-1.525,0.999-2.472
				C550.048,225.643,549.68,224.802,549.048,224.171z"/>
			<path style="fill:#1C1B1A;" d="M300,315.776c-42.174,0-82.192,15.828-112.745,44.541c-0.684,0.631-1.104,1.525-1.104,2.366
				c0,0.947,0.316,1.841,0.999,2.472l29.974,29.922c1.262,1.315,3.366,1.315,4.68,0.105c21.35-19.509,49.063-30.29,78.196-30.29
				c29.08,0,56.898,10.78,78.196,30.29c0.631,0.631,1.472,0.894,2.261,0.894c0.894,0,1.788-0.315,2.366-0.999l30.027-29.922
				c0.684-0.631,0.999-1.525,0.999-2.472c0-0.894-0.368-1.788-1.052-2.366C382.192,331.604,342.174,315.776,300,315.776z"/>
			<path style="fill:#1C1B1A;" d="M300,219.543c-67.889,0-132.149,25.82-180.897,72.622c-0.631,0.631-1.052,1.525-1.052,2.472
				c0,0.894,0.316,1.735,0.999,2.366l29.974,29.974c0.631,0.631,1.525,0.999,2.366,0.999s1.683-0.316,2.366-0.947
				c39.492-37.652,91.395-58.371,146.242-58.371c54.795,0,106.75,20.772,146.242,58.371c1.367,1.315,3.418,1.21,4.733-0.053
				l29.974-29.974c0.631-0.631,0.999-1.472,0.999-2.366c0-0.947-0.368-1.841-1.052-2.472
				C432.202,245.363,367.941,219.543,300,219.543z"/>
		</g>
	</g>
</g>
<g id="Layer_1">
</g>
</svg>
