<?xml version="1.0" encoding="iso-8859-1"?>
<!-- Generator: Adobe Illustrator 16.0.0, SVG Export Plug-In . SVG Version: 6.00 Build 0)  -->
<!DOCTYPE svg PUBLIC "-//W3C//DTD SVG 1.1//EN" "http://www.w3.org/Graphics/SVG/1.1/DTD/svg11.dtd">
<svg version="1.1" xmlns="http://www.w3.org/2000/svg" xmlns:xlink="http://www.w3.org/1999/xlink" x="0px" y="0px"
	 width="961.539px" height="1000px" viewBox="0 0 961.539 1000" style="enable-background:new 0 0 961.539 1000;"
	 xml:space="preserve">
<g id="KP_x5F_WiFi_x5F_icon">
	<g>
		<path style="fill:#1C1B1A;" d="M480.74,713.028c-31.071,0-61.131,11.137-84.603,31.103c-1.337,1.13-2.185,2.817-2.216,4.651
			c-0.115,1.789,0.603,3.578,1.877,4.796l80.38,80.41c1.219,1.29,2.919,1.936,4.562,1.936c1.644,0,3.33-0.646,4.548-1.936
			l80.408-80.41c1.306-1.218,2.012-3.007,1.894-4.796c-0.016-1.834-0.867-3.521-2.218-4.651
			C541.886,724.165,511.856,713.028,480.74,713.028z"/>
		<path style="fill:#1C1B1A;" d="M954.303,355.819C826.992,232.146,658.824,164.076,480.74,164.076
			c-178.069,0-346.236,68.07-473.502,191.743c-1.247,1.144-1.936,2.759-1.936,4.475c-0.075,1.761,0.629,3.463,1.849,4.68
			l57.037,56.965c2.422,2.465,6.514,2.538,9.007,0.074C182.828,315.974,327.581,257.571,480.74,257.571
			c153.161,0,297.958,58.402,407.602,164.441c1.205,1.247,2.791,1.849,4.432,1.849c1.645,0,3.346-0.602,4.576-1.923l56.98-56.965
			c1.264-1.217,1.969-2.919,1.908-4.68C956.238,358.578,955.533,356.963,954.303,355.819z"/>
		<path style="fill:#1C1B1A;" d="M480.74,530.046c-80.159,0-156.283,30.06-214.392,84.662c-1.306,1.174-2.099,2.877-2.099,4.548
			c0,1.791,0.63,3.478,1.905,4.725l56.98,56.937c2.422,2.478,6.442,2.536,8.936,0.205c40.579-37.103,93.348-57.641,148.668-57.641
			c55.306,0,108.151,20.538,148.67,57.641c1.217,1.203,2.817,1.73,4.328,1.73c1.686,0,3.358-0.615,4.546-1.936l57.056-56.937
			c1.262-1.247,1.861-2.934,1.861-4.725c0-1.671-0.732-3.374-2.039-4.548C637.038,560.105,560.87,530.046,480.74,530.046z"/>
		<path style="fill:#1C1B1A;" d="M480.74,347.046c-129.127,0-251.258,49.073-343.991,138.138c-1.231,1.247-1.98,2.919-1.98,4.709
			c-0.044,1.717,0.646,3.316,1.893,4.533l56.992,57.039c1.219,1.247,2.908,1.862,4.521,1.862c1.57,0,3.184-0.615,4.502-1.775
			c75.113-71.562,173.844-111.04,278.063-111.04c104.19,0,202.997,39.478,278.094,111.04c2.553,2.466,6.529,2.318,9.023-0.087
			l57.023-57.039c1.23-1.217,1.877-2.816,1.877-4.533c0-1.79-0.734-3.462-1.996-4.709
			C732.059,396.119,609.896,347.046,480.74,347.046z"/>
	</g>
</g>
<g id="Layer_1">
</g>
</svg>
