<?xml version="1.0" encoding="UTF-8" standalone="no"?>
<svg width="17px" height="33px" viewBox="0 0 17 33" version="1.1" xmlns="http://www.w3.org/2000/svg" xmlns:xlink="http://www.w3.org/1999/xlink" xmlns:sketch="http://www.bohemiancoding.com/sketch/ns">
    <!-- Generator: Sketch 3.4.2 (15857) - http://www.bohemiancoding.com/sketch -->
    <title>Xray</title>
    <desc>Created with Sketch.</desc>
    <defs>
        <path id="path-1" d="M0,1.14574239 L16.9424118,1.14574239 L16.9424118,33.4523327 L0,33.4523327 L0,1.14574239 Z"></path>
    </defs>
    <g id="KP-Approved" stroke="none" stroke-width="1" fill="none" fill-rule="evenodd" sketch:type="MSPage">
        <g id="Desktop-HD" sketch:type="MSArtboardGroup" transform="translate(-418.000000, -621.000000)">
            <g id="Xray" sketch:type="MSLayerGroup" transform="translate(418.000000, 620.000000)">
                <path d="M7.52534118,27.0861148 C8.10956227,27.1410722 8.17288276,26.6822974 8.37957039,26.474415 C8.40465963,26.4493258 8.64360487,27.1673562 9.28517282,27.1673562 C9.73797404,27.1673562 9.87058864,26.8459748 9.87058864,26.5293724 C9.87058864,25.7336848 9.20512617,25.8603258 9.07131684,25.0598592 C8.91958661,24.1470884 9.09760081,22.0133075 9.09760081,21.0885895 C9.09760081,19.2236219 9.07131684,18.7971047 9.23021542,17.0074049 C9.28756227,16.3586686 10.0868341,15.9584353 10.0115663,15.2057578 C9.96258256,14.7039728 9.75589493,14.6561838 9.55279148,14.6406523 C9.26486247,14.6191473 8.88493955,14.8784028 8.69856227,15.2786361 C8.4763432,15.1018166 8.2433716,14.6060053 7.84433306,14.6406523 C7.45724178,14.6741047 7.3664426,14.9321655 7.3664426,15.3061148 C7.3664426,16.1567598 8.0056211,16.1053866 8.1382357,17.0097943 C8.27323976,17.9177862 8.19199838,18.8867091 8.19199838,20.9034069 C8.19199838,21.5951533 8.2708503,24.5998897 8.0056211,25.0598592 C7.69260284,25.5998755 7.1932073,25.4206665 7.01638783,26.125555 C6.9375359,26.4278207 6.9375359,27.0311574 7.52534118,27.0861148" id="Fill-1" fill="#1C1B1A" sketch:type="MSShapeGroup"></path>
                <g id="Group-5">
                    <mask id="mask-2" sketch:name="Clip 4" fill="white">
                        <use xlink:href="#path-1"></use>
                    </mask>
                    <g id="Clip-4"></g>
                    <path d="M15.7921294,26.7127629 C15.7921294,27.5395134 15.1183039,28.2097548 14.2963323,28.2097548 L10.9821619,28.2097548 C11.0275615,26.1882781 11.0789347,24.0927284 11.1530077,22.3806858 C11.2103546,21.1620651 11.2509753,19.9446391 11.2892065,18.6961503 L11.2951801,18.583846 C11.3477481,16.9375134 11.4050949,15.2350286 11.4970888,13.409487 L14.2963323,13.409487 C15.1183039,13.409487 15.7921294,14.0821178 15.7921294,14.9076736 L15.7921294,26.7127629 Z M10.42303,18.5575621 C10.3824093,19.8371138 10.3429834,21.0891868 10.2856365,22.3424546 C10.2067846,24.0556919 10.1542166,26.1703572 10.1112065,28.2097548 L6.51149655,28.2097548 C6.62738499,24.8681057 6.73968925,20.4870448 6.814957,17.5289028 L6.87349858,15.2529495 C6.89141947,14.5994343 6.88425112,14.0546391 6.86633022,13.409487 L10.6261335,13.409487 C10.5305554,15.2266655 10.4767927,16.917203 10.42303,18.5575621 L10.42303,18.5575621 Z M6.0025432,15.2314444 L5.94400162,17.5085925 C5.86753915,20.4739028 5.75523489,24.8681057 5.63815172,28.2097548 L2.64894686,28.2097548 C1.8245858,28.2097548 1.15195497,27.5395134 1.15195497,26.7127629 L1.15195497,14.9076736 C1.15195497,14.0821178 1.8245858,13.409487 2.64894686,13.409487 L5.99656957,13.409487 C6.01449047,14.0498602 6.0204641,14.5898765 6.0025432,15.2314444 L6.0025432,15.2314444 Z M14.2963323,12.2589657 L11.1673444,12.2589657 C11.3154905,10.9782193 11.66674,10.2577994 12.1111781,9.01528418 C12.356097,8.32592718 12.95346,7.28054178 13.2975412,6.41078114 C13.5699387,5.72620304 13.6858272,5.14795558 13.3524986,4.93648905 C13.0992166,4.77520101 12.8256243,5.20530243 12.5603951,5.7106716 C12.2318454,6.34268174 11.9188272,7.09177505 11.6727136,6.97469189 C11.4242105,6.85760872 11.6165615,5.42991095 11.6906345,4.18142211 C11.7503708,3.18979939 11.7348394,2.31048093 11.3668637,2.29256004 C10.5341396,2.24835517 10.7252957,3.64857424 10.5747602,4.4048359 C10.4791822,4.87436329 10.4863505,6.78950933 9.91168722,6.78950933 C9.50548032,6.78950933 9.62973185,3.92933489 9.62973185,3.28537748 C9.62973185,2.49207931 9.8423931,1.18265943 9.03117404,1.14562292 C8.61660406,1.12770203 8.47562637,1.98073651 8.43022677,3.03090081 C8.38721663,4.03327606 8.43381095,5.21605497 8.41350061,5.99621116 C8.39916389,6.51233286 8.05986166,6.87672434 7.88304219,6.03683185 C7.5317927,4.76205903 7.56524503,4.5553714 7.2809002,3.41440791 C7.08974402,2.64858844 6.84482515,2.39769594 6.513886,2.50044239 C6.1303789,2.61872028 6.27852495,3.11931055 6.30719838,3.50281765 C6.38246613,4.48727201 7.27253712,7.6556858 6.71101582,8.09534503 C6.11962637,8.56248296 4.79348032,5.05596166 3.83411521,5.69752961 C3.2857359,6.06072637 3.89385152,7.1216432 4.35262637,7.77515842 C5.11247221,8.85519087 5.31557566,9.24706105 5.7922714,10.5337811 C5.9929854,11.0737974 6.16861014,11.5755824 6.28927748,12.2589657 L2.64894686,12.2589657 C1.18660203,12.2589657 0.000238945233,13.4453288 0.000238945233,14.9076736 L0.000238945233,26.7127629 C0.000238945233,28.1727183 1.18660203,29.3578866 2.64894686,29.3578866 L6.01449047,29.3578866 L5.89501785,33.4522132 L10.4051091,33.4522132 L10.5138292,29.3578866 L14.2963323,29.3578866 C15.7550929,29.3578866 16.941456,28.1727183 16.941456,26.7127629 L16.941456,14.9076736 C16.941456,13.4453288 15.7550929,12.2589657 14.2963323,12.2589657 L14.2963323,12.2589657 Z" id="Fill-3" fill="#1C1B1A" sketch:type="MSShapeGroup" mask="url(#mask-2)"></path>
                </g>
            </g>
        </g>
    </g>
</svg>