<?xml version="1.0" encoding="UTF-8" standalone="no"?>
<svg width="17px" height="33px" viewBox="0 0 17 33" version="1.1" xmlns="http://www.w3.org/2000/svg" xmlns:xlink="http://www.w3.org/1999/xlink" xmlns:sketch="http://www.bohemiancoding.com/sketch/ns">
    <!-- Generator: Sketch 3.4.2 (15857) - http://www.bohemiancoding.com/sketch -->
    <title>Yoga</title>
    <desc>Created with Sketch.</desc>
    <defs>
        <path id="path-1" d="M0,0.086020284 L16.9089594,0.086020284 L16.9089594,32.2576065 L0,32.2576065"></path>
    </defs>
    <g id="KP-Approved" stroke="none" stroke-width="1" fill="none" fill-rule="evenodd" sketch:type="MSPage">
        <g id="Desktop-HD" sketch:type="MSArtboardGroup" transform="translate(-503.000000, -620.000000)">
            <g id="Yoga" sketch:type="MSLayerGroup" transform="translate(503.000000, 620.000000)">
                <path d="M6.05439432,6.48103103 C6.05439432,7.82748742 7.14756876,8.92185659 8.4964146,8.92185659 C9.84287099,8.92185659 10.9372402,7.82748742 10.9372402,6.48103103 C10.9372402,5.13099047 9.84287099,4.03901075 8.4964146,4.03901075 C7.14756876,4.03901075 6.05439432,5.13099047 6.05439432,6.48103103" id="Fill-1" fill="#1C1B1A" sketch:type="MSShapeGroup"></path>
                <g id="Group-5">
                    <mask id="mask-2" sketch:name="Clip 4" fill="white">
                        <use xlink:href="#path-1"></use>
                    </mask>
                    <g id="Clip-4"></g>
                    <path d="M16.1098071,19.3985298 C14.8911864,18.9720126 11.5328112,17.9314061 11.5328112,17.9314061 L11.5626793,12.8131992 C11.5758213,12.8000572 11.5949369,12.7988625 11.6056895,12.7857205 L16.4801722,8.0880572 C17.017799,7.57313022 17.0428882,6.7045643 16.5351296,6.15857444 L11.3046185,0.513493306 C10.8088071,-0.0229387424 9.89245213,-0.0599752535 9.35482535,0.439420284 C8.79808296,0.956736714 8.76463063,1.83008154 9.28194706,2.38682394 L13.5937138,7.04267181 L11.5196692,9.04025396 C10.765797,9.86103083 9.70010122,10.3843209 8.49581724,10.3843209 C7.38711136,10.3843209 6.38712556,9.94824584 5.64759006,9.23977323 C5.63086389,9.24096795 5.60935882,9.2433574 5.59263266,9.24455213 L3.3071215,7.04267181 L7.61888824,2.38682394 C8.13381521,1.83008154 8.10275233,0.956736714 7.54481521,0.437030832 C7.00599371,-0.0599752535 6.09083347,-0.0229387424 5.59502211,0.513493306 L0.364510953,6.15857444 C-0.143247667,6.7045643 -0.118158418,7.57313022 0.421857809,8.0880572 L5.29275639,12.7869152 C5.31784564,12.8072256 5.35010325,12.8179781 5.37399777,12.835899 L5.40147647,30.8189172 C5.40147647,32.7651262 8.24134057,32.708974 8.24134057,30.8189172 L8.24134057,20.130897 L8.7311783,20.130897 L13.1194075,21.2885866 L9.67620669,23.2324061 C7.99881116,24.2204446 9.48624523,26.6397651 11.1158517,25.6815947 C11.1158517,25.6815947 15.0297746,23.4295359 16.1719329,22.695974 C17.2639126,21.9922803 17.0560302,19.7306637 16.1098071,19.3985298" id="Fill-3" fill="#1C1B1A" sketch:type="MSShapeGroup" mask="url(#mask-2)"></path>
                </g>
            </g>
        </g>
    </g>
</svg>