<?xml version="1.0" encoding="iso-8859-1"?>
<!-- Generator: Adobe Illustrator 19.2.1, SVG Export Plug-In . SVG Version: 6.00 Build 0)  -->
<svg version="1.1" xmlns="http://www.w3.org/2000/svg" xmlns:xlink="http://www.w3.org/1999/xlink" x="0px" y="0px"
	 viewBox="0 0 600 600" style="enable-background:new 0 0 600 600;" xml:space="preserve">
<g id="yoga">
	<g id="yoga_1_">
		<path style="fill:#1C1B1A;" d="M262.862,149.383c0,20.934,16.909,37.933,37.781,37.933c20.853,0,37.788-16.999,37.788-37.933
			c0-20.98-16.935-37.954-37.788-37.954C279.771,111.43,262.862,128.403,262.862,149.383z"/>
		<path style="fill:#1C1B1A;" d="M418.469,350.144c-18.849-6.627-70.838-22.794-70.838-22.794l0.479-79.549
			c0.198-0.201,0.486-0.236,0.667-0.427l75.425-73.022c8.314-7.997,8.702-21.487,0.849-29.975l-80.95-87.745
			c-7.665-8.333-21.839-8.913-30.162-1.153c-8.621,8.042-9.135,21.615-1.137,30.274l66.732,72.352l-32.094,31.044
			c-11.672,12.766-28.165,20.899-46.798,20.899c-17.154,0-32.636-6.774-44.073-17.798c-0.272,0.035-0.588,0.063-0.849,0.089
			l-35.379-34.234l66.723-72.352c7.98-8.658,7.503-22.232-1.146-30.3c-8.323-7.734-22.497-7.154-30.162,1.179l-80.95,87.745
			c-7.845,8.488-7.456,21.977,0.886,29.975l75.388,73.031c0.379,0.318,0.886,0.481,1.246,0.761l0.433,279.496
			c0,30.246,43.947,29.375,43.947,0V361.532h7.573l67.915,17.996l-53.289,30.211c-25.954,15.339-2.934,52.957,22.279,38.052
			c0,0,60.566-34.998,78.252-46.404C436.335,390.464,433.103,355.303,418.469,350.144z"/>
	</g>
</g>
<g id="Layer_1">
</g>
</svg>
