<?xml version="1.0" encoding="iso-8859-1"?>
<!-- Generator: Adobe Illustrator 19.2.1, SVG Export Plug-In . SVG Version: 6.00 Build 0)  -->
<svg version="1.1" xmlns="http://www.w3.org/2000/svg" xmlns:xlink="http://www.w3.org/1999/xlink" x="0px" y="0px"
	 viewBox="0 0 600 600" style="enable-background:new 0 0 600 600;" xml:space="preserve">
<g id="youtube">
	<g>
		<g>
			<defs>
				<rect id="SVGID_1_" x="50.669" y="123.136" width="498.501" height="353.728"/>
			</defs>
			<clipPath id="SVGID_2_">
				<use xlink:href="#SVGID_1_"  style="overflow:visible;"/>
			</clipPath>
			<path style="clip-path:url(#SVGID_2_);" d="M529.891,154.117c-17.994-21.396-51.227-30.123-114.698-30.123H184.799
				c-64.916,0-98.715,9.292-116.647,32.069c-17.483,22.213-17.483,54.943-17.483,100.239v86.329
				c0,87.748,20.743,132.298,134.13,132.298h230.394c55.044,0,85.543-7.697,105.274-26.578
				c20.232-19.369,28.864-50.984,28.864-105.72v-86.329C549.331,208.532,547.98,175.614,529.891,154.117L529.891,154.117z
				 M370.816,311.387l-104.62,54.674c-2.343,1.225-4.902,1.83-7.456,1.83c-2.889,0-5.781-0.778-8.332-2.324
				c-4.816-2.914-7.753-8.137-7.753-13.762V242.801c0-5.616,2.932-10.832,7.737-13.745c4.808-2.922,10.777-3.119,15.764-0.527
				l104.62,54.322c5.318,2.765,8.664,8.256,8.672,14.256S376.124,308.606,370.816,311.387L370.816,311.387z M370.816,311.387"/>
		</g>
	</g>
</g>
<g id="Layer_1">
</g>
</svg>
