<?xml version="1.0" encoding="UTF-8" standalone="no"?>
<svg width="244px" height="28px" viewBox="0 0 244 28" version="1.1" xmlns="http://www.w3.org/2000/svg" xmlns:xlink="http://www.w3.org/1999/xlink" xmlns:sketch="http://www.bohemiancoding.com/sketch/ns">
    <!-- Generator: Sketch 3.3.2 (12043) - http://www.bohemiancoding.com/sketch -->
    <title>Kaiser Logo</title>
    <desc>Created with Sketch.</desc>
    <defs></defs>
    <g id="--Style-Guide" stroke="none" stroke-width="1" fill="none" fill-rule="evenodd" sketch:type="MSPage">
        <g id="Styled-Components" sketch:type="MSArtboardGroup" transform="translate(-658.000000, -1200.000000)" fill="#3F7CB8">
            <g id="Kaiser-Logo" sketch:type="MSLayerGroup" transform="translate(658.000000, 1200.000000)">
                <path d="M18.288,8.996 C17.966,8.737 17.572,8.462 17.174,8.342 L16.541,21.148 L19.725,12.295 C20.024,10.946 19.275,9.831 18.288,8.996" id="Fill-16" sketch:type="MSShapeGroup"></path>
                <path d="M13.03,8.223 L14.901,21.005 L16.725,8.232 C15.66,7.816 14.26,7.759 13.03,8.223" id="Fill-17" sketch:type="MSShapeGroup"></path>
                <path d="M11.481,8.983 C10.496,9.817 9.745,10.933 10.044,12.284 L13.228,21.135 L12.595,8.328 C12.199,8.449 11.802,8.723 11.481,8.983" id="Fill-18" sketch:type="MSShapeGroup"></path>
                <path d="M5.07,10.198 C7.192,13.928 9.359,17.923 11.481,21.5 C10.731,18.371 9.966,13.173 8.882,11.713 C7.628,9.956 5.07,10.198 5.07,10.198" id="Fill-19" sketch:type="MSShapeGroup"></path>
                <path d="M1.3,12.07 L10.002,22.161 L4.607,10.254 C3.203,10.305 2.016,11.023 1.3,12.07" id="Fill-20" sketch:type="MSShapeGroup"></path>
                <path d="M19.504,14.797 L18.063,21.715 C19.926,18.486 21.758,15.302 23.549,12.07 C21.83,12.198 20.072,12.862 19.504,14.797" id="Fill-21" sketch:type="MSShapeGroup"></path>
                <path d="M24.064,12.07 L19.477,22.321 L27.536,13.511 C26.614,12.541 25.414,12.091 24.064,12.07" id="Fill-22" sketch:type="MSShapeGroup"></path>
                <path d="M0.176,16.634 C3.008,18.823 5.822,21.072 8.674,23.245 L1.02,12.413 C0.314,13.636 0.106,15.063 0.176,16.634" id="Fill-23" sketch:type="MSShapeGroup"></path>
                <path d="M28.525,14.768 C28.352,14.425 28.152,14.11 27.853,13.837 L20.914,23.358 C23.668,21.299 26.338,19.195 28.996,17.096 C29.021,16.266 28.888,15.455 28.525,14.768" id="Fill-24" sketch:type="MSShapeGroup"></path>
                <path d="M0.196,21.038 L7.602,24.46 C5.151,22.008 2.671,19.627 0.195,17.212 L0.196,21.038" id="Fill-25" sketch:type="MSShapeGroup"></path>
                <path d="M29,21.29 L29,17.798 L22.006,24.589 C24.383,23.503 26.576,22.437 29,21.29" id="Fill-26" sketch:type="MSShapeGroup"></path>
                <path d="M0.176,24.433 C2.406,24.924 4.836,25.555 6.851,25.986 L0.176,21.571 L0.176,24.433" id="Fill-27" sketch:type="MSShapeGroup"></path>
                <path d="M29,24.636 L29,21.952 C26.905,23.287 24.73,24.671 22.788,26.055 L29,24.636" id="Fill-28" sketch:type="MSShapeGroup"></path>
                <path d="M0.176,27.781 L6.694,27.781 L0.176,24.984 L0.176,27.781" id="Fill-29" sketch:type="MSShapeGroup"></path>
                <path d="M29,27.781 L29,25.237 C26.86,26.159 24.994,26.924 22.971,27.781 L29,27.781" id="Fill-30" sketch:type="MSShapeGroup"></path>
                <path d="M26.746,8.677 C26.82,4.769 21.067,4.742 21.173,8.642 C21.12,12.243 26.882,12.448 26.746,8.677" id="Fill-31" sketch:type="MSShapeGroup"></path>
                <path d="M26.746,8.655 C26.747,8.664 26.746,8.668 26.746,8.677 L26.746,8.681 L26.746,8.655" id="Fill-32" sketch:type="MSShapeGroup"></path>
                <path d="M8.121,6.65 C8.305,2.725 2.228,2.884 2.461,6.658 C2.254,10.553 8.491,10.609 8.121,6.65" id="Fill-33" sketch:type="MSShapeGroup"></path>
                <path d="M14.907,7.406 C17.162,7.468 18.063,5.806 18.124,4.253 C18.22,1.834 16.712,0.823 14.915,0.823 C13.115,0.823 11.654,1.899 11.746,4.254 C11.798,5.558 12.356,7.332 14.907,7.406" id="Fill-34" sketch:type="MSShapeGroup"></path>
                <path d="M62.854,12.284 L65.504,12.284 L65.504,27.631 L62.854,27.631 L62.854,12.284 Z" id="Fill-35" sketch:type="MSShapeGroup"></path>
                <path d="M53.456,12.284 L48.956,25.303 L44.571,19.773 L50.416,12.288 L47.364,12.288 L41.94,19.574 L41.94,12.284 L39.289,12.284 L39.29,27.632 L41.94,27.632 L41.94,20.065 L47.557,27.635 L48.15,27.635 L48.146,27.648 L50.74,27.648 L52.16,23.216 L57.788,23.216 L59.263,27.632 L62.031,27.632 L56.74,12.284 L53.456,12.284 L53.456,12.284 Z M52.847,21.075 L54.889,14.718 L54.951,14.718 L57.073,21.075 L52.847,21.075 L52.847,21.075 Z" id="Fill-36" sketch:type="MSShapeGroup"></path>
                <path d="M151.49,23.391 L148.83,12.274 L144.196,12.274 L144.196,27.622 L146.798,27.622 L146.798,14.535 L150.165,27.622 L152.822,27.622 C152.856,27.622 156.17,14.556 156.17,14.556 L156.17,27.622 L158.753,27.622 L158.753,12.272 L154.22,12.272 L151.49,23.391" id="Fill-37" sketch:type="MSShapeGroup"></path>
                <path d="M165.407,12.265 L160.095,27.628 L162.69,27.628 L164.112,23.197 L169.747,23.197 L171.231,27.632 L174,27.632 L168.686,12.265 L165.407,12.265 L165.407,12.265 Z M164.799,21.053 L166.839,14.7 L166.902,14.7 L169.031,21.053 L164.799,21.053 L164.799,21.053 Z" id="Fill-38" sketch:type="MSShapeGroup"></path>
                <path d="M184.754,24.117 L178.655,12.264 L175.162,12.279 L175.169,27.622 L177.673,27.622 L177.673,16.053 L183.689,27.622 L187.309,27.622 L187.309,12.262 L184.754,12.262 L184.754,24.117" id="Fill-39" sketch:type="MSShapeGroup"></path>
                <path d="M234.959,25.388 L228.661,25.388 L228.661,21.053 L233.321,21.053 L233.321,18.827 L228.661,18.825 L228.661,14.483 C229.268,14.496 234.425,14.483 234.425,14.483 L234.425,12.258 C232.86,12.253 226.037,12.268 226.037,12.268 L226.035,27.625 L234.965,27.628 L234.959,25.388" id="Fill-40" sketch:type="MSShapeGroup"></path>
                <path d="M210.809,12.258 L210.812,12.262 L210.327,12.262 L210.327,24.241 L204.229,12.271 L200.734,12.271 L200.734,25.388 L192.69,25.388 L192.69,21.053 L197.35,21.053 L197.35,18.827 L192.69,18.825 L192.69,14.483 C193.297,14.496 198.449,14.483 198.449,14.483 L198.449,12.258 C196.888,12.253 190.066,12.268 190.066,12.268 L190.063,27.625 L203.043,27.622 L203.249,27.622 L203.249,15.93 L209.261,27.622 L212.884,27.622 L212.884,14.591 L217.538,14.591 L217.538,27.628 L220.198,27.628 L220.198,14.591 L224.742,14.591 L224.729,12.258 L210.809,12.258" id="Fill-41" sketch:type="MSShapeGroup"></path>
                <path d="M140.36,19.896 C141.191,19.172 141.818,18.049 141.818,16.629 C141.818,15.207 141.22,14.11 140.39,13.385 C139.463,12.576 138.158,12.272 135.946,12.272 L131.492,12.272 L131.492,18.757 L131.488,18.757 L131.488,25.388 L123.384,25.388 L123.384,21.053 L128.047,21.053 L128.047,18.827 L123.384,18.825 L123.384,14.483 C123.992,14.496 129.15,14.483 129.15,14.483 L129.15,12.258 C127.582,12.253 120.76,12.268 120.76,12.268 L120.76,27.625 L134.152,27.622 L134.152,21.098 L135.467,21.098 C136.686,23.015 139.271,27.645 139.271,27.645 L142.436,27.645 L138.311,20.882 C139.181,20.686 139.829,20.361 140.36,19.896 L140.36,19.896 Z M134.152,18.85 L134.152,14.522 L136.391,14.522 C138.394,14.522 139.21,15.311 139.21,16.655 C139.21,18.132 138.408,18.85 136.391,18.85 L134.152,18.85 L134.152,18.85 Z" id="Fill-42" sketch:type="MSShapeGroup"></path>
                <path d="M98.53,19.896 C99.361,19.172 99.989,18.049 99.989,16.629 C99.989,15.207 99.387,14.11 98.557,13.385 C97.633,12.576 96.327,12.272 94.115,12.272 L89.662,12.272 L89.662,18.757 L89.656,18.757 L89.656,25.388 L81.554,25.388 L81.554,21.053 L86.218,21.053 L86.218,18.827 L81.554,18.825 L81.554,14.483 C82.161,14.496 87.318,14.483 87.318,14.483 L87.318,12.258 C85.755,12.253 78.928,12.268 78.928,12.268 L78.928,27.625 L92.322,27.622 L92.322,21.098 L93.637,21.098 C94.854,23.015 97.439,27.645 97.439,27.645 L100.603,27.645 L96.477,20.882 C97.351,20.686 97.999,20.361 98.53,19.896 L98.53,19.896 Z M92.322,18.85 L92.322,14.522 L94.559,14.522 C96.562,14.522 97.379,15.311 97.379,16.655 C97.379,18.132 96.577,18.85 94.559,18.85 L92.322,18.85 L92.322,18.85 Z" id="Fill-43" sketch:type="MSShapeGroup"></path>
                <path d="M117.686,13.427 C116.757,12.62 115.455,12.272 113.24,12.272 L108.787,12.272 L108.787,27.632 L111.45,27.632 L111.45,21.314 L113.24,21.314 C115.455,21.314 116.739,20.927 117.667,20.118 C118.495,19.398 119.11,18.192 119.11,16.774 C119.11,15.352 118.518,14.15 117.686,13.427 L117.686,13.427 Z M113.688,19.065 L111.449,19.065 L111.449,14.522 L113.688,14.522 C115.688,14.522 116.505,15.415 116.505,16.76 C116.505,18.155 115.593,19.065 113.688,19.065 L113.688,19.065 Z" id="Fill-44" sketch:type="MSShapeGroup"></path>
                <path d="M73.243,18.67 C71.162,17.9 70.172,17.324 70.172,16.116 C70.172,15.193 71.101,14.14 72.949,14.14 C74.295,14.14 75.604,14.598 76.257,14.943 L76.257,12.734 C75.578,12.403 74.299,12.018 73.006,12.018 C69.717,12.018 67.453,13.876 67.453,16.372 C67.453,18.588 69.154,19.929 71.73,20.813 C73.728,21.517 74.575,22.221 74.575,23.413 C74.575,24.711 73.473,25.619 71.639,25.619 C70.185,25.619 68.385,25.137 67.448,24.503 L67.448,26.891 C68.343,27.381 69.926,27.791 71.453,27.791 C75.419,27.791 77.291,25.652 77.291,23.225 C77.291,20.982 75.925,19.67 73.243,18.67" id="Fill-45" sketch:type="MSShapeGroup"></path>
                <path d="M237.392,24.911 C237.392,23.44 238.502,22.331 239.921,22.331 C241.332,22.331 242.439,23.44 242.439,24.911 C242.439,26.406 241.332,27.508 239.921,27.508 C238.502,27.508 237.392,26.406 237.392,24.911 L237.392,24.911 Z M239.921,28.028 C241.617,28.028 243.063,26.713 243.063,24.911 C243.063,23.128 241.617,21.809 239.921,21.809 C238.214,21.809 236.763,23.128 236.763,24.911 C236.763,26.713 238.214,28.028 239.921,28.028 L239.921,28.028 Z M239.267,25.157 L239.891,25.157 L240.836,26.713 L241.446,26.713 L240.423,25.134 C240.951,25.065 241.353,24.788 241.353,24.147 C241.353,23.44 240.935,23.128 240.087,23.128 L238.722,23.128 L238.722,26.713 L239.267,26.713 L239.267,25.157 L239.267,25.157 Z M239.267,24.698 L239.267,23.588 L240.004,23.588 C240.383,23.588 240.785,23.672 240.785,24.114 C240.785,24.662 240.376,24.698 239.918,24.698 L239.267,24.698 L239.267,24.698 Z" id="Fill-46" sketch:type="MSShapeGroup"></path>
            </g>
        </g>
    </g>
</svg>